<?xml version="1.0" encoding="UTF-8" standalone="no"?>
<!DOCTYPE svg PUBLIC "-//W3C//DTD SVG 1.1//EN"
 "http://www.w3.org/Graphics/SVG/1.1/DTD/svg11.dtd">
<!-- Generated by graphviz version 2.38.0 (20140413.2041)
 -->
<!-- Title: get_with_expire Pages: 1 -->
<svg width="319pt" height="324pt"
 viewBox="0.00 0.00 319.03 323.87" xmlns="http://www.w3.org/2000/svg" xmlns:xlink="http://www.w3.org/1999/xlink">
<g id="graph0" class="graph" transform="scale(1 1) rotate(0) translate(4 319.866)">
<title>get_with_expire</title>
<polygon fill="white" stroke="none" points="-4,4 -4,-319.866 315.03,-319.866 315.03,4 -4,4"/>
<!-- get -->
<g id="node1" class="node"><title>get</title>
<polygon fill="#fadcad" stroke="none" points="183.684,-315.866 114.439,-315.866 114.439,-279.866 183.684,-279.866 183.684,-315.866"/>
<text text-anchor="middle" x="149.062" y="-294.91" font-family="'/usr/share/fonts/truetype/wqy/wqy-microhei.ttc'" font-size="14.00">GET key</text>
</g>
<!-- expire_if_needed -->
<g id="node2" class="node"><title>expire_if_needed</title>
<polygon fill="#a8e270" stroke="black" points="149.062,-243.092 -0.0615488,-170.141 149.062,-97.191 298.185,-170.141 149.062,-243.092"/>
<text text-anchor="middle" x="149.062" y="-191.304" font-family="'/usr/share/fonts/truetype/wqy/wqy-microhei.ttc'" font-size="14.00">调用</text>
<text text-anchor="middle" x="149.062" y="-176.884" font-family="'/usr/share/fonts/truetype/wqy/wqy-microhei.ttc'" font-size="14.00"> expire_if_needed() </text>
<text text-anchor="middle" x="149.062" y="-160.395" font-family="'/usr/share/fonts/truetype/wqy/wqy-microhei.ttc'" font-size="14.00"> 如果键已经过期 </text>
<text text-anchor="middle" x="149.062" y="-143.487" font-family="'/usr/share/fonts/truetype/wqy/wqy-microhei.ttc'" font-size="14.00"> 那么将它删除</text>
</g>
<!-- get&#45;&gt;expire_if_needed -->
<g id="edge1" class="edge"><title>get&#45;&gt;expire_if_needed</title>
<path fill="none" stroke="black" stroke-width="2" d="M149.062,-279.648C149.062,-272.234 149.062,-262.981 149.062,-253.026"/>
<polygon fill="black" stroke="black" stroke-width="2" points="152.562,-252.878 149.062,-242.878 145.562,-252.878 152.562,-252.878"/>
</g>
<!-- expired_and_deleted -->
<g id="node3" class="node"><title>expired_and_deleted</title>
<polygon fill="lightgrey" stroke="none" points="133.262,-41.7252 2.86099,-41.7252 2.86099,-0.0913351 133.262,-0.0913351 133.262,-41.7252"/>
<text text-anchor="middle" x="68.0615" y="-26.6165" font-family="'/usr/share/fonts/truetype/wqy/wqy-microhei.ttc'" font-size="14.00">key 不存在</text>
<text text-anchor="middle" x="68.0615" y="-9.70826" font-family="'/usr/share/fonts/truetype/wqy/wqy-microhei.ttc'" font-size="14.00"> 向客户端返回 NIL</text>
</g>
<!-- expire_if_needed&#45;&gt;expired_and_deleted -->
<g id="edge2" class="edge"><title>expire_if_needed&#45;&gt;expired_and_deleted</title>
<path fill="none" stroke="black" stroke-width="2" d="M117.745,-112.217C106.251,-91.3244 93.7149,-68.5383 84.1109,-51.0811"/>
<polygon fill="black" stroke="black" stroke-width="2" points="86.989,-49.0513 79.1022,-41.9768 80.8558,-52.4255 86.989,-49.0513"/>
<text text-anchor="middle" x="120.062" y="-68.2164" font-family="Times,serif" font-size="14.00">已过期</text>
</g>
<!-- not_expired -->
<g id="node4" class="node"><title>not_expired</title>
<polygon fill="lightgrey" stroke="none" points="310.999,-38.9083 151.124,-38.9083 151.124,-2.90826 310.999,-2.90826 310.999,-38.9083"/>
<text text-anchor="middle" x="231.062" y="-18.1624" font-family="'/usr/share/fonts/truetype/wqy/wqy-microhei.ttc'" font-size="14.00">向客户端返回 key 的值</text>
</g>
<!-- expire_if_needed&#45;&gt;not_expired -->
<g id="edge3" class="edge"><title>expire_if_needed&#45;&gt;not_expired</title>
<path fill="none" stroke="black" stroke-width="2" d="M180.765,-112.217C193.009,-90.232 206.421,-66.1502 216.314,-48.3874"/>
<polygon fill="black" stroke="black" stroke-width="2" points="219.61,-49.6622 221.418,-39.2228 213.495,-46.2562 219.61,-49.6622"/>
<text text-anchor="middle" x="230.062" y="-68.2164" font-family="Times,serif" font-size="14.00">未过期</text>
</g>
</g>
</svg>
