<?xml version="1.0" encoding="UTF-8" standalone="no"?>
<!DOCTYPE svg PUBLIC "-//W3C//DTD SVG 1.1//EN"
 "http://www.w3.org/Graphics/SVG/1.1/DTD/svg11.dtd">
<!-- Generated by graphviz version 2.38.0 (20140413.2041)
 -->
<!-- Title: empty_dict Pages: 1 -->
<svg width="340pt" height="288pt"
 viewBox="0.00 0.00 339.60 287.69" xmlns="http://www.w3.org/2000/svg" xmlns:xlink="http://www.w3.org/1999/xlink">
<g id="graph0" class="graph" transform="scale(1 1) rotate(0) translate(4 283.686)">
<title>empty_dict</title>
<polygon fill="white" stroke="none" points="-4,4 -4,-283.686 335.601,-283.686 335.601,4 -4,4"/>
<!-- dict -->
<g id="node1" class="node"><title>dict</title>
<polygon fill="#a8e270" stroke="black" points="0,-132.256 0,-279.186 81.9736,-279.186 81.9736,-132.256 0,-132.256"/>
<text text-anchor="middle" x="40.9868" y="-263.986" font-family="'/usr/share/fonts/truetype/wqy/wqy-microhei.ttc'" font-size="14.00">dict</text>
<polyline fill="none" stroke="black" points="0,-254.697 81.9736,-254.697 "/>
<text text-anchor="middle" x="40.9868" y="-239.497" font-family="'/usr/share/fonts/truetype/wqy/wqy-microhei.ttc'" font-size="14.00">type</text>
<polyline fill="none" stroke="black" points="0,-230.209 81.9736,-230.209 "/>
<text text-anchor="middle" x="40.9868" y="-215.009" font-family="'/usr/share/fonts/truetype/wqy/wqy-microhei.ttc'" font-size="14.00">privdata</text>
<polyline fill="none" stroke="black" points="0,-205.721 81.9736,-205.721 "/>
<text text-anchor="middle" x="40.9868" y="-190.521" font-family="'/usr/share/fonts/truetype/wqy/wqy-microhei.ttc'" font-size="14.00">ht[2]</text>
<polyline fill="none" stroke="black" points="0,-181.232 81.9736,-181.232 "/>
<text text-anchor="middle" x="40.9868" y="-166.032" font-family="'/usr/share/fonts/truetype/wqy/wqy-microhei.ttc'" font-size="14.00">rehashidx</text>
<polyline fill="none" stroke="black" points="0,-156.744 81.9736,-156.744 "/>
<text text-anchor="middle" x="40.9868" y="-141.544" font-family="'/usr/share/fonts/truetype/wqy/wqy-microhei.ttc'" font-size="14.00">iterators</text>
</g>
<!-- ht0 -->
<g id="node2" class="node"><title>ht0</title>
<polygon fill="#95bbe3" stroke="black" points="145.188,-141.5 145.188,-263.941 240.601,-263.941 240.601,-141.5 145.188,-141.5"/>
<text text-anchor="middle" x="192.894" y="-248.741" font-family="'/usr/share/fonts/truetype/wqy/wqy-microhei.ttc'" font-size="14.00">dictht</text>
<polyline fill="none" stroke="black" points="145.188,-239.453 240.601,-239.453 "/>
<text text-anchor="middle" x="192.894" y="-224.253" font-family="'/usr/share/fonts/truetype/wqy/wqy-microhei.ttc'" font-size="14.00">table</text>
<polyline fill="none" stroke="black" points="145.188,-214.965 240.601,-214.965 "/>
<text text-anchor="middle" x="192.894" y="-199.765" font-family="'/usr/share/fonts/truetype/wqy/wqy-microhei.ttc'" font-size="14.00">size: 0</text>
<polyline fill="none" stroke="black" points="145.188,-190.477 240.601,-190.477 "/>
<text text-anchor="middle" x="192.894" y="-175.277" font-family="'/usr/share/fonts/truetype/wqy/wqy-microhei.ttc'" font-size="14.00">sizemask: 0</text>
<polyline fill="none" stroke="black" points="145.188,-165.988 240.601,-165.988 "/>
<text text-anchor="middle" x="192.894" y="-150.788" font-family="'/usr/share/fonts/truetype/wqy/wqy-microhei.ttc'" font-size="14.00">used: 0</text>
</g>
<!-- dict&#45;&gt;ht0 -->
<g id="edge1" class="edge"><title>dict:ht&#45;&gt;ht0:dictht</title>
<path fill="none" stroke="black" stroke-width="2" d="M81.9736,-193.721C116.23,-193.721 109.18,-240.538 135.046,-250.047"/>
<polygon fill="black" stroke="black" stroke-width="2" points="134.751,-253.546 145.188,-251.721 135.891,-246.639 134.751,-253.546"/>
<text text-anchor="middle" x="113.581" y="-246.521" font-family="Times,serif" font-size="14.00">ht[0]</text>
</g>
<!-- ht1 -->
<g id="node3" class="node"><title>ht1</title>
<polygon fill="#95bbe3" stroke="black" points="145.188,-0.5 145.188,-122.941 240.601,-122.941 240.601,-0.5 145.188,-0.5"/>
<text text-anchor="middle" x="192.894" y="-107.741" font-family="'/usr/share/fonts/truetype/wqy/wqy-microhei.ttc'" font-size="14.00">dictht</text>
<polyline fill="none" stroke="black" points="145.188,-98.4531 240.601,-98.4531 "/>
<text text-anchor="middle" x="192.894" y="-83.2531" font-family="'/usr/share/fonts/truetype/wqy/wqy-microhei.ttc'" font-size="14.00">table</text>
<polyline fill="none" stroke="black" points="145.188,-73.9648 240.601,-73.9648 "/>
<text text-anchor="middle" x="192.894" y="-58.7648" font-family="'/usr/share/fonts/truetype/wqy/wqy-microhei.ttc'" font-size="14.00">size: 0</text>
<polyline fill="none" stroke="black" points="145.188,-49.4766 240.601,-49.4766 "/>
<text text-anchor="middle" x="192.894" y="-34.2766" font-family="'/usr/share/fonts/truetype/wqy/wqy-microhei.ttc'" font-size="14.00">sizemask: 0</text>
<polyline fill="none" stroke="black" points="145.188,-24.9883 240.601,-24.9883 "/>
<text text-anchor="middle" x="192.894" y="-9.78828" font-family="'/usr/share/fonts/truetype/wqy/wqy-microhei.ttc'" font-size="14.00">used: 0</text>
</g>
<!-- dict&#45;&gt;ht1 -->
<g id="edge2" class="edge"><title>dict:ht&#45;&gt;ht1:dictht</title>
<path fill="none" stroke="black" stroke-width="2" d="M81.9736,-193.721C101.989,-193.721 117.278,-131.865 136.001,-114.951"/>
<polygon fill="black" stroke="black" stroke-width="2" points="137.568,-118.083 145.188,-110.721 134.64,-111.724 137.568,-118.083"/>
<text text-anchor="middle" x="113.581" y="-180.521" font-family="Times,serif" font-size="14.00">ht[1]</text>
</g>
<!-- null0 -->
<g id="node4" class="node"><title>null0</title>
<polygon fill="lightgrey" stroke="none" points="331.601,-244.721 277.601,-244.721 277.601,-208.721 331.601,-208.721 331.601,-244.721"/>
<text text-anchor="middle" x="304.601" y="-223.765" font-family="'/usr/share/fonts/truetype/wqy/wqy-microhei.ttc'" font-size="14.00">NULL</text>
</g>
<!-- ht0&#45;&gt;null0 -->
<g id="edge3" class="edge"><title>ht0:table&#45;&gt;null0</title>
<path fill="none" stroke="black" stroke-width="2" d="M240.601,-226.721C249.232,-226.721 258.528,-226.721 267.259,-226.721"/>
<polygon fill="black" stroke="black" stroke-width="2" points="267.547,-230.221 277.547,-226.721 267.547,-223.221 267.547,-230.221"/>
</g>
<!-- null1 -->
<g id="node5" class="node"><title>null1</title>
<polygon fill="lightgrey" stroke="none" points="331.601,-103.721 277.601,-103.721 277.601,-67.7207 331.601,-67.7207 331.601,-103.721"/>
<text text-anchor="middle" x="304.601" y="-82.7648" font-family="'/usr/share/fonts/truetype/wqy/wqy-microhei.ttc'" font-size="14.00">NULL</text>
</g>
<!-- ht1&#45;&gt;null1 -->
<g id="edge4" class="edge"><title>ht1:table&#45;&gt;null1</title>
<path fill="none" stroke="black" stroke-width="2" d="M240.601,-85.7207C249.232,-85.7207 258.528,-85.7207 267.259,-85.7207"/>
<polygon fill="black" stroke="black" stroke-width="2" points="267.547,-89.2208 277.547,-85.7207 267.547,-82.2208 267.547,-89.2208"/>
</g>
</g>
</svg>
