<?xml version="1.0" encoding="UTF-8" standalone="no"?>
<!DOCTYPE svg PUBLIC "-//W3C//DTD SVG 1.1//EN"
 "http://www.w3.org/Graphics/SVG/1.1/DTD/svg11.dtd">
<!-- Generated by graphviz version 2.38.0 (20140413.2041)
 -->
<!-- Title: list_and_list_node Pages: 1 -->
<svg width="652pt" height="180pt"
 viewBox="0.00 0.00 652.24 180.42" xmlns="http://www.w3.org/2000/svg" xmlns:xlink="http://www.w3.org/1999/xlink">
<g id="graph0" class="graph" transform="scale(1 1) rotate(0) translate(4 176.418)">
<title>list_and_list_node</title>
<polygon fill="white" stroke="none" points="-4,4 -4,-176.418 648.238,-176.418 648.238,4 -4,4"/>
<!-- list_node_1 -->
<g id="node1" class="node"><title>list_node_1</title>
<polygon fill="#95bbe3" stroke="black" points="144,-65.7207 144,-114.697 286.746,-114.697 286.746,-65.7207 144,-65.7207"/>
<text text-anchor="middle" x="215.373" y="-99.4973" font-family="'/usr/share/fonts/truetype/wqy/wqy-microhei.ttc'" font-size="14.00">listNode</text>
<polyline fill="none" stroke="black" points="144,-90.209 286.746,-90.209 "/>
<text text-anchor="middle" x="166.772" y="-75.009" font-family="'/usr/share/fonts/truetype/wqy/wqy-microhei.ttc'" font-size="14.00">prev</text>
<polyline fill="none" stroke="black" points="189.545,-65.7207 189.545,-90.209 "/>
<text text-anchor="middle" x="215.281" y="-75.009" font-family="'/usr/share/fonts/truetype/wqy/wqy-microhei.ttc'" font-size="14.00">value</text>
<polyline fill="none" stroke="black" points="241.017,-65.7207 241.017,-90.209 "/>
<text text-anchor="middle" x="263.881" y="-75.009" font-family="'/usr/share/fonts/truetype/wqy/wqy-microhei.ttc'" font-size="14.00">next</text>
</g>
<!-- list_node_2 -->
<g id="node2" class="node"><title>list_node_2</title>
<polygon fill="#95bbe3" stroke="black" points="322.746,-65.7207 322.746,-114.697 465.492,-114.697 465.492,-65.7207 322.746,-65.7207"/>
<text text-anchor="middle" x="394.119" y="-99.4973" font-family="'/usr/share/fonts/truetype/wqy/wqy-microhei.ttc'" font-size="14.00">listNode</text>
<polyline fill="none" stroke="black" points="322.746,-90.209 465.492,-90.209 "/>
<text text-anchor="middle" x="345.519" y="-75.009" font-family="'/usr/share/fonts/truetype/wqy/wqy-microhei.ttc'" font-size="14.00">prev</text>
<polyline fill="none" stroke="black" points="368.291,-65.7207 368.291,-90.209 "/>
<text text-anchor="middle" x="394.027" y="-75.009" font-family="'/usr/share/fonts/truetype/wqy/wqy-microhei.ttc'" font-size="14.00">value</text>
<polyline fill="none" stroke="black" points="419.763,-65.7207 419.763,-90.209 "/>
<text text-anchor="middle" x="442.627" y="-75.009" font-family="'/usr/share/fonts/truetype/wqy/wqy-microhei.ttc'" font-size="14.00">next</text>
</g>
<!-- list_node_1&#45;&gt;list_node_2 -->
<g id="edge1" class="edge"><title>list_node_1:next&#45;&gt;list_node_2:head</title>
<path fill="none" stroke="black" stroke-width="2" d="M286.746,-78.209C301.919,-78.209 303.589,-93.1519 313.065,-99.4559"/>
<polygon fill="black" stroke="black" stroke-width="2" points="312.17,-102.84 322.746,-102.209 314.085,-96.107 312.17,-102.84"/>
</g>
<!-- list_node_2&#45;&gt;list_node_1 -->
<g id="edge3" class="edge"><title>list_node_2:prev&#45;&gt;list_node_1:head</title>
<path fill="none" stroke="black" stroke-width="2" d="M322.746,-78.209C307.573,-78.209 305.903,-93.1519 296.427,-99.4559"/>
<polygon fill="black" stroke="black" stroke-width="2" points="295.407,-96.107 286.746,-102.209 297.322,-102.84 295.407,-96.107"/>
</g>
<!-- list_node_3 -->
<g id="node3" class="node"><title>list_node_3</title>
<polygon fill="#95bbe3" stroke="black" points="501.492,-89.7207 501.492,-138.697 644.238,-138.697 644.238,-89.7207 501.492,-89.7207"/>
<text text-anchor="middle" x="572.865" y="-123.497" font-family="'/usr/share/fonts/truetype/wqy/wqy-microhei.ttc'" font-size="14.00">listNode</text>
<polyline fill="none" stroke="black" points="501.492,-114.209 644.238,-114.209 "/>
<text text-anchor="middle" x="524.265" y="-99.009" font-family="'/usr/share/fonts/truetype/wqy/wqy-microhei.ttc'" font-size="14.00">prev</text>
<polyline fill="none" stroke="black" points="547.037,-89.7207 547.037,-114.209 "/>
<text text-anchor="middle" x="572.773" y="-99.009" font-family="'/usr/share/fonts/truetype/wqy/wqy-microhei.ttc'" font-size="14.00">value</text>
<polyline fill="none" stroke="black" points="598.509,-89.7207 598.509,-114.209 "/>
<text text-anchor="middle" x="621.374" y="-99.009" font-family="'/usr/share/fonts/truetype/wqy/wqy-microhei.ttc'" font-size="14.00">next</text>
</g>
<!-- list_node_2&#45;&gt;list_node_3 -->
<g id="edge2" class="edge"><title>list_node_2:next&#45;&gt;list_node_3:head</title>
<path fill="none" stroke="black" stroke-width="2" d="M465.492,-78.209C487.992,-78.209 479.168,-112.381 491.879,-123.06"/>
<polygon fill="black" stroke="black" stroke-width="2" points="490.899,-126.422 501.492,-126.209 493.079,-119.77 490.899,-126.422"/>
</g>
<!-- list_node_3&#45;&gt;list_node_2 -->
<g id="edge4" class="edge"><title>list_node_3:prev&#45;&gt;list_node_2:head</title>
<path fill="none" stroke="black" stroke-width="2" d="M501.492,-102.209C489.492,-102.209 484.242,-102.209 475.617,-102.209"/>
<polygon fill="black" stroke="black" stroke-width="2" points="475.492,-98.7091 465.492,-102.209 475.492,-105.709 475.492,-98.7091"/>
</g>
<!-- list -->
<g id="node4" class="node"><title>list</title>
<polygon fill="#a8e270" stroke="black" points="0,-0.5 0,-171.918 108,-171.918 108,-0.5 0,-0.5"/>
<text text-anchor="middle" x="54" y="-156.718" font-family="'/usr/share/fonts/truetype/wqy/wqy-microhei.ttc'" font-size="14.00">list</text>
<polyline fill="none" stroke="black" points="0,-147.43 108,-147.43 "/>
<text text-anchor="middle" x="54" y="-132.23" font-family="'/usr/share/fonts/truetype/wqy/wqy-microhei.ttc'" font-size="14.00">head</text>
<polyline fill="none" stroke="black" points="0,-122.941 108,-122.941 "/>
<text text-anchor="middle" x="54" y="-107.741" font-family="'/usr/share/fonts/truetype/wqy/wqy-microhei.ttc'" font-size="14.00">tail</text>
<polyline fill="none" stroke="black" points="0,-98.4531 108,-98.4531 "/>
<text text-anchor="middle" x="54" y="-83.2531" font-family="'/usr/share/fonts/truetype/wqy/wqy-microhei.ttc'" font-size="14.00">dup</text>
<polyline fill="none" stroke="black" points="0,-73.9648 108,-73.9648 "/>
<text text-anchor="middle" x="54" y="-58.7648" font-family="'/usr/share/fonts/truetype/wqy/wqy-microhei.ttc'" font-size="14.00">free</text>
<polyline fill="none" stroke="black" points="0,-49.4766 108,-49.4766 "/>
<text text-anchor="middle" x="54" y="-34.2766" font-family="'/usr/share/fonts/truetype/wqy/wqy-microhei.ttc'" font-size="14.00">match</text>
<polyline fill="none" stroke="black" points="0,-24.9883 108,-24.9883 "/>
<text text-anchor="middle" x="54" y="-9.78828" font-family="'/usr/share/fonts/truetype/wqy/wqy-microhei.ttc'" font-size="14.00">len</text>
</g>
<!-- list&#45;&gt;list_node_1 -->
<g id="edge6" class="edge"><title>list:head&#45;&gt;list_node_1:head</title>
<path fill="none" stroke="black" stroke-width="2" d="M108,-135.209C125.466,-135.209 124.079,-113.841 134.18,-105.494"/>
<polygon fill="black" stroke="black" stroke-width="2" points="135.627,-108.701 144,-102.209 133.406,-102.062 135.627,-108.701"/>
</g>
<!-- list&#45;&gt;list_node_3 -->
<g id="edge5" class="edge"><title>list:tail&#45;&gt;list_node_3:head</title>
<path fill="none" stroke="black" stroke-width="2" d="M108,-110.209C125.167,-110.209 127.136,-120.996 144,-124.209 296.728,-153.303 340.725,-127.374 491.41,-126.247"/>
<polygon fill="black" stroke="black" stroke-width="2" points="491.505,-129.746 501.492,-126.209 491.479,-122.746 491.505,-129.746"/>
</g>
</g>
</svg>
