<?xml version="1.0" encoding="UTF-8" standalone="no"?>
<!DOCTYPE svg PUBLIC "-//W3C//DTD SVG 1.1//EN"
 "http://www.w3.org/Graphics/SVG/1.1/DTD/svg11.dtd">
<!-- Generated by graphviz version 2.38.0 (20140413.2041)
 -->
<!-- Title: hash_table_example Pages: 1 -->
<svg width="420pt" height="296pt"
 viewBox="0.00 0.00 420.20 296.46" xmlns="http://www.w3.org/2000/svg" xmlns:xlink="http://www.w3.org/1999/xlink">
<g id="graph0" class="graph" transform="scale(1 1) rotate(0) translate(4 292.465)">
<title>hash_table_example</title>
<polygon fill="white" stroke="none" points="-4,4 -4,-292.465 416.196,-292.465 416.196,4 -4,4"/>
<!-- ht1 -->
<g id="node1" class="node"><title>ht1</title>
<polygon fill="#a8e270" stroke="black" points="0,-146.012 0,-268.453 90.9834,-268.453 90.9834,-146.012 0,-146.012"/>
<text text-anchor="middle" x="45.4917" y="-253.253" font-family="'/usr/share/fonts/truetype/wqy/wqy-microhei.ttc'" font-size="14.00">dictht</text>
<polyline fill="none" stroke="black" points="0,-243.965 90.9834,-243.965 "/>
<text text-anchor="middle" x="45.4917" y="-228.765" font-family="'/usr/share/fonts/truetype/wqy/wqy-microhei.ttc'" font-size="14.00">table</text>
<polyline fill="none" stroke="black" points="0,-219.477 90.9834,-219.477 "/>
<text text-anchor="middle" x="45.4917" y="-204.277" font-family="'/usr/share/fonts/truetype/wqy/wqy-microhei.ttc'" font-size="14.00">size:4</text>
<polyline fill="none" stroke="black" points="0,-194.988 90.9834,-194.988 "/>
<text text-anchor="middle" x="45.4917" y="-179.788" font-family="'/usr/share/fonts/truetype/wqy/wqy-microhei.ttc'" font-size="14.00">sizemask:3</text>
<polyline fill="none" stroke="black" points="0,-170.5 90.9834,-170.5 "/>
<text text-anchor="middle" x="45.4917" y="-155.3" font-family="'/usr/share/fonts/truetype/wqy/wqy-microhei.ttc'" font-size="14.00">used:3</text>
</g>
<!-- bucket -->
<g id="node2" class="node"><title>bucket</title>
<polygon fill="#95bbe3" stroke="black" points="126.983,-112.768 126.983,-251.697 216.183,-251.697 216.183,-112.768 126.983,-112.768"/>
<text text-anchor="middle" x="171.583" y="-236.497" font-family="'/usr/share/fonts/truetype/wqy/wqy-microhei.ttc'" font-size="14.00">dictEntry**</text>
<text text-anchor="middle" x="171.583" y="-220.009" font-family="'/usr/share/fonts/truetype/wqy/wqy-microhei.ttc'" font-size="14.00">(bucket)</text>
<polyline fill="none" stroke="black" points="126.983,-210.721 216.183,-210.721 "/>
<text text-anchor="middle" x="171.583" y="-195.521" font-family="'/usr/share/fonts/truetype/wqy/wqy-microhei.ttc'" font-size="14.00">0</text>
<polyline fill="none" stroke="black" points="126.983,-186.232 216.183,-186.232 "/>
<text text-anchor="middle" x="171.583" y="-171.032" font-family="'/usr/share/fonts/truetype/wqy/wqy-microhei.ttc'" font-size="14.00">1</text>
<polyline fill="none" stroke="black" points="126.983,-161.744 216.183,-161.744 "/>
<text text-anchor="middle" x="171.583" y="-146.544" font-family="'/usr/share/fonts/truetype/wqy/wqy-microhei.ttc'" font-size="14.00">2</text>
<polyline fill="none" stroke="black" points="126.983,-137.256 216.183,-137.256 "/>
<text text-anchor="middle" x="171.583" y="-122.056" font-family="'/usr/share/fonts/truetype/wqy/wqy-microhei.ttc'" font-size="14.00">3</text>
</g>
<!-- ht1&#45;&gt;bucket -->
<g id="edge1" class="edge"><title>ht1:table&#45;&gt;bucket:head</title>
<path fill="none" stroke="black" stroke-width="2" d="M90.9834,-231.232C102.983,-231.232 108.233,-231.232 116.858,-231.232"/>
<polygon fill="black" stroke="black" stroke-width="2" points="116.983,-234.733 126.983,-231.232 116.983,-227.733 116.983,-234.733"/>
</g>
<!-- pair_1 -->
<g id="node3" class="node"><title>pair_1</title>
<polygon fill="#fadcad" stroke="black" points="252.183,-222.5 252.183,-287.965 412.196,-287.965 412.196,-222.5 252.183,-222.5"/>
<text text-anchor="middle" x="332.189" y="-272.765" font-family="'/usr/share/fonts/truetype/wqy/wqy-microhei.ttc'" font-size="14.00">dictEntry</text>
<polyline fill="none" stroke="black" points="252.183,-263.477 412.196,-263.477 "/>
<text text-anchor="middle" x="280.967" y="-248.277" font-family="'/usr/share/fonts/truetype/wqy/wqy-microhei.ttc'" font-size="14.00">key</text>
<text text-anchor="middle" x="280.967" y="-231.788" font-family="'/usr/share/fonts/truetype/wqy/wqy-microhei.ttc'" font-size="14.00">elem1</text>
<polyline fill="none" stroke="black" points="309.752,-222.5 309.752,-263.477 "/>
<text text-anchor="middle" x="335.488" y="-248.277" font-family="'/usr/share/fonts/truetype/wqy/wqy-microhei.ttc'" font-size="14.00">value</text>
<text text-anchor="middle" x="335.488" y="-231.788" font-family="'/usr/share/fonts/truetype/wqy/wqy-microhei.ttc'" font-size="14.00">NULL</text>
<polyline fill="none" stroke="black" points="361.224,-222.5 361.224,-263.477 "/>
<text text-anchor="middle" x="386.71" y="-248.277" font-family="'/usr/share/fonts/truetype/wqy/wqy-microhei.ttc'" font-size="14.00">next</text>
<text text-anchor="middle" x="386.71" y="-231.788" font-family="'/usr/share/fonts/truetype/wqy/wqy-microhei.ttc'" font-size="14.00">NULL</text>
</g>
<!-- bucket&#45;&gt;pair_1 -->
<g id="edge2" class="edge"><title>bucket:table0&#45;&gt;pair_1:head</title>
<path fill="none" stroke="black" stroke-width="2" d="M216.183,-198.232C249.828,-198.232 222.132,-259.31 242.36,-272.67"/>
<polygon fill="black" stroke="black" stroke-width="2" points="241.623,-276.095 252.183,-275.232 243.39,-269.322 241.623,-276.095"/>
</g>
<!-- pair_2 -->
<g id="node4" class="node"><title>pair_2</title>
<polygon fill="#fadcad" stroke="black" points="252.183,-84.5 252.183,-149.965 412.196,-149.965 412.196,-84.5 252.183,-84.5"/>
<text text-anchor="middle" x="332.189" y="-134.765" font-family="'/usr/share/fonts/truetype/wqy/wqy-microhei.ttc'" font-size="14.00">dictEntry</text>
<polyline fill="none" stroke="black" points="252.183,-125.477 412.196,-125.477 "/>
<text text-anchor="middle" x="280.967" y="-110.277" font-family="'/usr/share/fonts/truetype/wqy/wqy-microhei.ttc'" font-size="14.00">key</text>
<text text-anchor="middle" x="280.967" y="-93.7883" font-family="'/usr/share/fonts/truetype/wqy/wqy-microhei.ttc'" font-size="14.00">elem2</text>
<polyline fill="none" stroke="black" points="309.752,-84.5 309.752,-125.477 "/>
<text text-anchor="middle" x="335.488" y="-110.277" font-family="'/usr/share/fonts/truetype/wqy/wqy-microhei.ttc'" font-size="14.00">value</text>
<text text-anchor="middle" x="335.488" y="-93.7883" font-family="'/usr/share/fonts/truetype/wqy/wqy-microhei.ttc'" font-size="14.00">NULL</text>
<polyline fill="none" stroke="black" points="361.224,-84.5 361.224,-125.477 "/>
<text text-anchor="middle" x="386.71" y="-110.277" font-family="'/usr/share/fonts/truetype/wqy/wqy-microhei.ttc'" font-size="14.00">next</text>
<text text-anchor="middle" x="386.71" y="-93.7883" font-family="'/usr/share/fonts/truetype/wqy/wqy-microhei.ttc'" font-size="14.00">NULL</text>
</g>
<!-- bucket&#45;&gt;pair_2 -->
<g id="edge4" class="edge"><title>bucket:table2&#45;&gt;pair_2:head</title>
<path fill="none" stroke="black" stroke-width="2" d="M216.183,-149.232C228.963,-149.232 233.362,-142.341 242.083,-139.003"/>
<polygon fill="black" stroke="black" stroke-width="2" points="242.937,-142.407 252.183,-137.232 241.728,-135.512 242.937,-142.407"/>
</g>
<!-- pair_3 -->
<g id="node5" class="node"><title>pair_3</title>
<polygon fill="#fadcad" stroke="black" points="252.183,-0.5 252.183,-65.9648 412.196,-65.9648 412.196,-0.5 252.183,-0.5"/>
<text text-anchor="middle" x="332.189" y="-50.7648" font-family="'/usr/share/fonts/truetype/wqy/wqy-microhei.ttc'" font-size="14.00">dictEntry</text>
<polyline fill="none" stroke="black" points="252.183,-41.4766 412.196,-41.4766 "/>
<text text-anchor="middle" x="280.967" y="-26.2766" font-family="'/usr/share/fonts/truetype/wqy/wqy-microhei.ttc'" font-size="14.00">key</text>
<text text-anchor="middle" x="280.967" y="-9.78828" font-family="'/usr/share/fonts/truetype/wqy/wqy-microhei.ttc'" font-size="14.00">elem3</text>
<polyline fill="none" stroke="black" points="309.752,-0.5 309.752,-41.4766 "/>
<text text-anchor="middle" x="335.488" y="-26.2766" font-family="'/usr/share/fonts/truetype/wqy/wqy-microhei.ttc'" font-size="14.00">value</text>
<text text-anchor="middle" x="335.488" y="-9.78828" font-family="'/usr/share/fonts/truetype/wqy/wqy-microhei.ttc'" font-size="14.00">NULL</text>
<polyline fill="none" stroke="black" points="361.224,-0.5 361.224,-41.4766 "/>
<text text-anchor="middle" x="386.71" y="-26.2766" font-family="'/usr/share/fonts/truetype/wqy/wqy-microhei.ttc'" font-size="14.00">next</text>
<text text-anchor="middle" x="386.71" y="-9.78828" font-family="'/usr/share/fonts/truetype/wqy/wqy-microhei.ttc'" font-size="14.00">NULL</text>
</g>
<!-- bucket&#45;&gt;pair_3 -->
<g id="edge5" class="edge"><title>bucket:table3&#45;&gt;pair_3:head</title>
<path fill="none" stroke="black" stroke-width="2" d="M216.183,-125.232C247.767,-125.232 223.759,-69.1187 242.314,-55.967"/>
<polygon fill="black" stroke="black" stroke-width="2" points="243.48,-59.2757 252.183,-53.2324 241.611,-52.5299 243.48,-59.2757"/>
</g>
<!-- null1 -->
<g id="node6" class="node"><title>null1</title>
<polygon fill="lightgrey" stroke="none" points="359.189,-204.232 305.189,-204.232 305.189,-168.232 359.189,-168.232 359.189,-204.232"/>
<text text-anchor="middle" x="332.189" y="-183.277" font-family="'/usr/share/fonts/truetype/wqy/wqy-microhei.ttc'" font-size="14.00">NULL</text>
</g>
<!-- bucket&#45;&gt;null1 -->
<g id="edge3" class="edge"><title>bucket:table1&#45;&gt;null1</title>
<path fill="none" stroke="black" stroke-width="2" d="M216.183,-174.232C242.525,-174.232 272.078,-177.385 294.63,-180.459"/>
<polygon fill="black" stroke="black" stroke-width="2" points="294.384,-183.959 304.777,-181.9 295.369,-177.028 294.384,-183.959"/>
</g>
</g>
</svg>
