<?xml version="1.0" encoding="UTF-8" standalone="no"?>
<!DOCTYPE svg PUBLIC "-//W3C//DTD SVG 1.1//EN"
 "http://www.w3.org/Graphics/SVG/1.1/DTD/svg11.dtd">
<!-- Generated by graphviz version 2.38.0 (20140413.2041)
 -->
<!-- Title: send_message_to_pattern Pages: 1 -->
<svg width="653pt" height="289pt"
 viewBox="0.00 0.00 652.96 289.00" xmlns="http://www.w3.org/2000/svg" xmlns:xlink="http://www.w3.org/1999/xlink">
<g id="graph0" class="graph" transform="scale(1 1) rotate(0) translate(4 285)">
<title>send_message_to_pattern</title>
<polygon fill="white" stroke="none" points="-4,4 -4,-285 648.957,-285 648.957,4 -4,4"/>
<!-- ipad -->
<g id="node1" class="node"><title>ipad</title>
<ellipse fill="#a8e270" stroke="black" cx="203.2" cy="-190" rx="84.2406" ry="18"/>
<text text-anchor="middle" x="203.2" y="-187.044" font-family="'/usr/share/fonts/truetype/wqy/wqy-microhei.ttc'" font-size="14.00">tweet.shop.ipad</text>
</g>
<!-- pattern -->
<g id="node2" class="node"><title>pattern</title>
<polygon fill="lightgrey" stroke="black" points="467.89,-96.5442 467.89,-111.456 424.138,-122 362.262,-122 318.509,-111.456 318.509,-96.5442 362.262,-86 424.138,-86 467.89,-96.5442"/>
<text text-anchor="middle" x="393.2" y="-101.044" font-family="'/usr/share/fonts/truetype/wqy/wqy-microhei.ttc'" font-size="14.00">tweet.shop.*</text>
</g>
<!-- ipad&#45;&gt;pattern -->
<g id="edge1" class="edge"><title>ipad&#45;&gt;pattern</title>
<path fill="none" stroke="black" stroke-width="2" d="M256.258,-171.061C270.361,-165.912 285.482,-160.045 299.2,-154 320.925,-144.427 344.623,-132.059 362.79,-122.145"/>
<polygon fill="black" stroke="black" stroke-width="2" points="254.911,-167.826 246.686,-174.504 257.28,-174.413 254.911,-167.826"/>
<text text-anchor="middle" x="345.303" y="-142.8" font-family="Times,serif" font-size="14.00">match</text>
</g>
<!-- client3333 -->
<g id="node3" class="node"><title>client3333</title>
<polygon fill="#95bbe3" stroke="black" points="194.6,-122 105.799,-122 105.799,-86 194.6,-86 194.6,-122"/>
<text text-anchor="middle" x="150.2" y="-101.044" font-family="'/usr/share/fonts/truetype/wqy/wqy-microhei.ttc'" font-size="14.00">client3333</text>
</g>
<!-- ipad&#45;&gt;client3333 -->
<g id="edge2" class="edge"><title>ipad&#45;&gt;client3333</title>
<path fill="none" stroke="black" stroke-width="2" d="M186.973,-163.282C178.576,-149.974 168.551,-134.086 161.091,-122.262"/>
<polygon fill="black" stroke="black" stroke-width="2" points="184.178,-165.412 192.474,-172.001 190.098,-161.676 184.178,-165.412"/>
<text text-anchor="middle" x="206.638" y="-142.8" font-family="Times,serif" font-size="14.00">subscribe</text>
</g>
<!-- client4444 -->
<g id="node4" class="node"><title>client4444</title>
<polygon fill="#95bbe3" stroke="black" points="300.6,-122 211.799,-122 211.799,-86 300.6,-86 300.6,-122"/>
<text text-anchor="middle" x="256.2" y="-101.044" font-family="'/usr/share/fonts/truetype/wqy/wqy-microhei.ttc'" font-size="14.00">client4444</text>
</g>
<!-- ipad&#45;&gt;client4444 -->
<g id="edge3" class="edge"><title>ipad&#45;&gt;client4444</title>
<path fill="none" stroke="black" stroke-width="2" d="M226.787,-164.168C229.442,-160.865 231.984,-157.431 234.2,-154 240.574,-144.13 246.003,-132.105 249.873,-122.438"/>
<polygon fill="black" stroke="black" stroke-width="2" points="223.904,-162.155 220.078,-172.035 229.23,-166.698 223.904,-162.155"/>
<text text-anchor="middle" x="268.638" y="-142.8" font-family="Times,serif" font-size="14.00">subscribe</text>
</g>
<!-- client5555 -->
<g id="node5" class="node"><title>client5555</title>
<polygon fill="#95bbe3" stroke="black" points="88.6,-122 -0.200613,-122 -0.200613,-86 88.6,-86 88.6,-122"/>
<text text-anchor="middle" x="44.1997" y="-101.044" font-family="'/usr/share/fonts/truetype/wqy/wqy-microhei.ttc'" font-size="14.00">client5555</text>
</g>
<!-- ipad&#45;&gt;client5555 -->
<g id="edge4" class="edge"><title>ipad&#45;&gt;client5555</title>
<path fill="none" stroke="black" stroke-width="2" d="M152.517,-170.34C140.752,-165.464 128.428,-159.904 117.324,-154 99.7827,-144.673 81.2001,-132.183 67.157,-122.148"/>
<polygon fill="black" stroke="black" stroke-width="2" points="151.216,-173.589 161.798,-174.098 153.842,-167.101 151.216,-173.589"/>
<text text-anchor="middle" x="144.638" y="-142.8" font-family="Times,serif" font-size="14.00">subscribe</text>
</g>
<!-- client123 -->
<g id="node10" class="node"><title>client123</title>
<polygon fill="#95bbe3" stroke="black" points="383.748,-36 304.652,-36 304.652,-0 383.748,-0 383.748,-36"/>
<text text-anchor="middle" x="344.2" y="-15.0441" font-family="'/usr/share/fonts/truetype/wqy/wqy-microhei.ttc'" font-size="14.00">client123</text>
</g>
<!-- pattern&#45;&gt;client123 -->
<g id="edge9" class="edge"><title>pattern&#45;&gt;client123</title>
<path fill="none" stroke="#b22222" stroke-width="2" stroke-dasharray="5,2" d="M383.047,-85.5951C376.169,-73.8037 366.961,-58.0188 359.236,-44.7764"/>
<polygon fill="#b22222" stroke="#b22222" stroke-width="2" points="362.234,-42.9694 354.172,-36.0952 356.187,-46.4965 362.234,-42.9694"/>
<text text-anchor="middle" x="395.914" y="-56.8" font-family="Times,serif" font-size="14.00">message</text>
</g>
<!-- client256 -->
<g id="node11" class="node"><title>client256</title>
<polygon fill="#95bbe3" stroke="black" points="481.748,-36 402.652,-36 402.652,-0 481.748,-0 481.748,-36"/>
<text text-anchor="middle" x="442.2" y="-15.0441" font-family="'/usr/share/fonts/truetype/wqy/wqy-microhei.ttc'" font-size="14.00">client256</text>
</g>
<!-- pattern&#45;&gt;client256 -->
<g id="edge10" class="edge"><title>pattern&#45;&gt;client256</title>
<path fill="none" stroke="#b22222" stroke-width="2" stroke-dasharray="5,2" d="M407.779,-85.7697C412.065,-80.2813 416.573,-74.0574 420.2,-68 424.35,-61.0697 428.21,-53.219 431.502,-45.8643"/>
<polygon fill="#b22222" stroke="#b22222" stroke-width="2" points="434.889,-46.8459 435.612,-36.2757 428.455,-44.0881 434.889,-46.8459"/>
<text text-anchor="middle" x="450.914" y="-56.8" font-family="Times,serif" font-size="14.00">message</text>
</g>
<!-- message -->
<g id="node6" class="node"><title>message</title>
<polygon fill="#fadcad" stroke="none" points="644.714,-281 387.686,-281 387.686,-245 644.714,-245 644.714,-281"/>
<text text-anchor="middle" x="516.2" y="-260.044" font-family="'/usr/share/fonts/truetype/wqy/wqy-microhei.ttc'" font-size="14.00">PUBLISH tweet.shop.kindle message</text>
</g>
<!-- kindle -->
<g id="node7" class="node"><title>kindle</title>
<ellipse fill="#a8e270" stroke="black" cx="516.2" cy="-190" rx="92.7103" ry="18"/>
<text text-anchor="middle" x="516.2" y="-187.044" font-family="'/usr/share/fonts/truetype/wqy/wqy-microhei.ttc'" font-size="14.00">tweet.shop.kindle</text>
</g>
<!-- message&#45;&gt;kindle -->
<g id="edge5" class="edge"><title>message&#45;&gt;kindle</title>
<path fill="none" stroke="#b22222" stroke-width="2" stroke-dasharray="5,2" d="M516.2,-244.813C516.2,-236.789 516.2,-227.047 516.2,-218.069"/>
<polygon fill="#b22222" stroke="#b22222" stroke-width="2" points="519.7,-218.029 516.2,-208.029 512.7,-218.029 519.7,-218.029"/>
</g>
<!-- kindle&#45;&gt;pattern -->
<g id="edge6" class="edge"><title>kindle&#45;&gt;pattern</title>
<path fill="none" stroke="#b22222" stroke-width="2" stroke-dasharray="5,2" d="M492.192,-172.605C473.595,-159.904 447.602,-142.153 426.918,-128.027"/>
<polygon fill="#b22222" stroke="#b22222" stroke-width="2" points="428.647,-124.97 418.415,-122.22 424.699,-130.75 428.647,-124.97"/>
</g>
<!-- clientX -->
<g id="node8" class="node"><title>clientX</title>
<polygon fill="#95bbe3" stroke="black" points="546.953,-122 485.446,-122 485.446,-86 546.953,-86 546.953,-122"/>
<text text-anchor="middle" x="516.2" y="-101.044" font-family="'/usr/share/fonts/truetype/wqy/wqy-microhei.ttc'" font-size="14.00">clientX</text>
</g>
<!-- kindle&#45;&gt;clientX -->
<g id="edge7" class="edge"><title>kindle&#45;&gt;clientX</title>
<path fill="none" stroke="#b22222" stroke-width="2" stroke-dasharray="5,2" d="M516.2,-171.595C516.2,-160.257 516.2,-145.227 516.2,-132.315"/>
<polygon fill="#b22222" stroke="#b22222" stroke-width="2" points="519.7,-132.095 516.2,-122.095 512.7,-132.095 519.7,-132.095"/>
<text text-anchor="middle" x="539.914" y="-142.8" font-family="Times,serif" font-size="14.00">message</text>
</g>
<!-- clientY -->
<g id="node9" class="node"><title>clientY</title>
<polygon fill="#95bbe3" stroke="black" points="626.912,-122 565.487,-122 565.487,-86 626.912,-86 626.912,-122"/>
<text text-anchor="middle" x="596.2" y="-101.044" font-family="'/usr/share/fonts/truetype/wqy/wqy-microhei.ttc'" font-size="14.00">clientY</text>
</g>
<!-- kindle&#45;&gt;clientY -->
<g id="edge8" class="edge"><title>kindle&#45;&gt;clientY</title>
<path fill="none" stroke="#b22222" stroke-width="2" stroke-dasharray="5,2" d="M544.395,-172.841C552.336,-167.481 560.599,-161.059 567.2,-154 573.508,-147.254 579.075,-138.904 583.601,-131.021"/>
<polygon fill="#b22222" stroke="#b22222" stroke-width="2" points="586.744,-132.566 588.418,-122.104 580.586,-129.239 586.744,-132.566"/>
<text text-anchor="middle" x="600.914" y="-142.8" font-family="Times,serif" font-size="14.00">message</text>
</g>
</g>
</svg>
