<?xml version="1.0" encoding="UTF-8" standalone="no"?>
<!DOCTYPE svg PUBLIC "-//W3C//DTD SVG 1.1//EN"
 "http://www.w3.org/Graphics/SVG/1.1/DTD/svg11.dtd">
<!-- Generated by graphviz version 2.38.0 (20140413.2041)
 -->
<!-- Title: after_key_collision Pages: 1 -->
<svg width="567pt" height="281pt"
 viewBox="0.00 0.00 567.17 280.59" xmlns="http://www.w3.org/2000/svg" xmlns:xlink="http://www.w3.org/1999/xlink">
<g id="graph0" class="graph" transform="scale(1 1) rotate(0) translate(4 276.588)">
<title>after_key_collision</title>
<polygon fill="white" stroke="none" points="-4,4 -4,-276.588 563.168,-276.588 563.168,4 -4,4"/>
<text text-anchor="middle" x="279.584" y="-12.3999" font-family="Times,serif" font-size="14.00">添加碰撞节点之后</text>
<!-- bucket -->
<g id="node1" class="node"><title>bucket</title>
<polygon fill="#f2f2f2" stroke="black" points="0,-113.135 0,-252.065 89.1992,-252.065 89.1992,-113.135 0,-113.135"/>
<text text-anchor="middle" x="44.5996" y="-236.865" font-family="'/usr/share/fonts/truetype/wqy/wqy-microhei.ttc'" font-size="14.00">dictEntry**</text>
<text text-anchor="middle" x="44.5996" y="-220.376" font-family="'/usr/share/fonts/truetype/wqy/wqy-microhei.ttc'" font-size="14.00">(bucket)</text>
<polyline fill="none" stroke="black" points="0,-211.088 89.1992,-211.088 "/>
<text text-anchor="middle" x="44.5996" y="-195.888" font-family="'/usr/share/fonts/truetype/wqy/wqy-microhei.ttc'" font-size="14.00">0</text>
<polyline fill="none" stroke="black" points="0,-186.6 89.1992,-186.6 "/>
<text text-anchor="middle" x="44.5996" y="-171.4" font-family="'/usr/share/fonts/truetype/wqy/wqy-microhei.ttc'" font-size="14.00">1</text>
<polyline fill="none" stroke="black" points="0,-162.112 89.1992,-162.112 "/>
<text text-anchor="middle" x="44.5996" y="-146.912" font-family="'/usr/share/fonts/truetype/wqy/wqy-microhei.ttc'" font-size="14.00">2</text>
<polyline fill="none" stroke="black" points="0,-137.623 89.1992,-137.623 "/>
<text text-anchor="middle" x="44.5996" y="-122.423" font-family="'/usr/share/fonts/truetype/wqy/wqy-microhei.ttc'" font-size="14.00">3</text>
</g>
<!-- pair_2 -->
<g id="node3" class="node"><title>pair_2</title>
<polygon fill="#fadcad" stroke="black" points="125.199,-101.112 125.199,-150.088 279.184,-150.088 279.184,-101.112 125.199,-101.112"/>
<text text-anchor="middle" x="202.191" y="-134.888" font-family="'/usr/share/fonts/truetype/wqy/wqy-microhei.ttc'" font-size="14.00">dictEntry</text>
<polyline fill="none" stroke="black" points="125.199,-125.6 279.184,-125.6 "/>
<text text-anchor="middle" x="149.165" y="-110.4" font-family="'/usr/share/fonts/truetype/wqy/wqy-microhei.ttc'" font-size="14.00">key2</text>
<polyline fill="none" stroke="black" points="173.13,-101.112 173.13,-125.6 "/>
<text text-anchor="middle" x="203.292" y="-110.4" font-family="'/usr/share/fonts/truetype/wqy/wqy-microhei.ttc'" font-size="14.00">value2</text>
<polyline fill="none" stroke="black" points="233.454,-101.112 233.454,-125.6 "/>
<text text-anchor="middle" x="256.319" y="-110.4" font-family="'/usr/share/fonts/truetype/wqy/wqy-microhei.ttc'" font-size="14.00">next</text>
</g>
<!-- bucket&#45;&gt;pair_2 -->
<g id="edge5" class="edge"><title>bucket:table2&#45;&gt;pair_2:head</title>
<path fill="none" stroke="black" stroke-width="2" d="M89.1992,-149.6C101.98,-149.6 106.379,-142.709 115.099,-139.371"/>
<polygon fill="black" stroke="black" stroke-width="2" points="115.954,-142.774 125.199,-137.6 114.745,-135.879 115.954,-142.774"/>
</g>
<!-- pair_3 -->
<g id="node4" class="node"><title>pair_3</title>
<polygon fill="#fadcad" stroke="black" points="125.199,-33.1116 125.199,-82.0882 279.184,-82.0882 279.184,-33.1116 125.199,-33.1116"/>
<text text-anchor="middle" x="202.191" y="-66.8882" font-family="'/usr/share/fonts/truetype/wqy/wqy-microhei.ttc'" font-size="14.00">dictEntry</text>
<polyline fill="none" stroke="black" points="125.199,-57.5999 279.184,-57.5999 "/>
<text text-anchor="middle" x="149.165" y="-42.3999" font-family="'/usr/share/fonts/truetype/wqy/wqy-microhei.ttc'" font-size="14.00">key3</text>
<polyline fill="none" stroke="black" points="173.13,-33.1116 173.13,-57.5999 "/>
<text text-anchor="middle" x="203.292" y="-42.3999" font-family="'/usr/share/fonts/truetype/wqy/wqy-microhei.ttc'" font-size="14.00">value3</text>
<polyline fill="none" stroke="black" points="233.454,-33.1116 233.454,-57.5999 "/>
<text text-anchor="middle" x="256.319" y="-42.3999" font-family="'/usr/share/fonts/truetype/wqy/wqy-microhei.ttc'" font-size="14.00">next</text>
</g>
<!-- bucket&#45;&gt;pair_3 -->
<g id="edge7" class="edge"><title>bucket:table3&#45;&gt;pair_3:head</title>
<path fill="none" stroke="black" stroke-width="2" d="M89.1992,-125.6C114.627,-125.6 101.086,-84.2425 115.554,-72.6107"/>
<polygon fill="black" stroke="black" stroke-width="2" points="116.696,-75.9206 125.199,-69.5999 114.611,-69.2386 116.696,-75.9206"/>
</g>
<!-- pair_4 -->
<g id="node5" class="node"><title>pair_4</title>
<polygon fill="#ffc1c1" stroke="black" points="125.199,-223.112 125.199,-272.088 279.184,-272.088 279.184,-223.112 125.199,-223.112"/>
<text text-anchor="middle" x="202.191" y="-256.888" font-family="'/usr/share/fonts/truetype/wqy/wqy-microhei.ttc'" font-size="14.00">dictEntry</text>
<polyline fill="none" stroke="black" points="125.199,-247.6 279.184,-247.6 "/>
<text text-anchor="middle" x="149.165" y="-232.4" font-family="'/usr/share/fonts/truetype/wqy/wqy-microhei.ttc'" font-size="14.00">key4</text>
<polyline fill="none" stroke="black" points="173.13,-223.112 173.13,-247.6 "/>
<text text-anchor="middle" x="203.292" y="-232.4" font-family="'/usr/share/fonts/truetype/wqy/wqy-microhei.ttc'" font-size="14.00">value4</text>
<polyline fill="none" stroke="black" points="233.454,-223.112 233.454,-247.6 "/>
<text text-anchor="middle" x="256.319" y="-232.4" font-family="'/usr/share/fonts/truetype/wqy/wqy-microhei.ttc'" font-size="14.00">next</text>
</g>
<!-- bucket&#45;&gt;pair_4 -->
<g id="edge1" class="edge"><title>bucket:table0&#45;&gt;pair_4:head</title>
<path fill="none" stroke="black" stroke-width="2" d="M89.1992,-198.6C116.499,-198.6 99.8495,-244.473 115.475,-256.658"/>
<polygon fill="black" stroke="black" stroke-width="2" points="114.614,-260.054 125.199,-259.6 116.641,-253.354 114.614,-260.054"/>
</g>
<!-- null1 -->
<g id="node7" class="node"><title>null1</title>
<polygon fill="lightgrey" stroke="none" points="229.191,-204.6 175.191,-204.6 175.191,-168.6 229.191,-168.6 229.191,-204.6"/>
<text text-anchor="middle" x="202.191" y="-183.644" font-family="'/usr/share/fonts/truetype/wqy/wqy-microhei.ttc'" font-size="14.00">NULL</text>
</g>
<!-- bucket&#45;&gt;null1 -->
<g id="edge4" class="edge"><title>bucket:table1&#45;&gt;null1</title>
<path fill="none" stroke="black" stroke-width="2" d="M89.1992,-174.6C114.574,-174.6 143,-177.683 164.864,-180.724"/>
<polygon fill="black" stroke="black" stroke-width="2" points="164.628,-184.227 175.027,-182.2 165.634,-177.299 164.628,-184.227"/>
</g>
<!-- pair_1 -->
<g id="node2" class="node"><title>pair_1</title>
<polygon fill="#fadcad" stroke="black" points="315.184,-199.112 315.184,-248.088 469.168,-248.088 469.168,-199.112 315.184,-199.112"/>
<text text-anchor="middle" x="392.176" y="-232.888" font-family="'/usr/share/fonts/truetype/wqy/wqy-microhei.ttc'" font-size="14.00">dictEntry</text>
<polyline fill="none" stroke="black" points="315.184,-223.6 469.168,-223.6 "/>
<text text-anchor="middle" x="339.149" y="-208.4" font-family="'/usr/share/fonts/truetype/wqy/wqy-microhei.ttc'" font-size="14.00">key1</text>
<polyline fill="none" stroke="black" points="363.114,-199.112 363.114,-223.6 "/>
<text text-anchor="middle" x="393.276" y="-208.4" font-family="'/usr/share/fonts/truetype/wqy/wqy-microhei.ttc'" font-size="14.00">value1</text>
<polyline fill="none" stroke="black" points="423.438,-199.112 423.438,-223.6 "/>
<text text-anchor="middle" x="446.303" y="-208.4" font-family="'/usr/share/fonts/truetype/wqy/wqy-microhei.ttc'" font-size="14.00">next</text>
</g>
<!-- null0 -->
<g id="node6" class="node"><title>null0</title>
<polygon fill="lightgrey" stroke="none" points="559.168,-229.6 505.168,-229.6 505.168,-193.6 559.168,-193.6 559.168,-229.6"/>
<text text-anchor="middle" x="532.168" y="-208.644" font-family="'/usr/share/fonts/truetype/wqy/wqy-microhei.ttc'" font-size="14.00">NULL</text>
</g>
<!-- pair_1&#45;&gt;null0 -->
<g id="edge3" class="edge"><title>pair_1:next&#45;&gt;null0</title>
<path fill="none" stroke="black" stroke-width="2" d="M469.168,-211.6C477.417,-211.6 486.284,-211.6 494.66,-211.6"/>
<polygon fill="black" stroke="black" stroke-width="2" points="494.922,-215.1 504.922,-211.6 494.922,-208.1 494.922,-215.1"/>
</g>
<!-- null2 -->
<g id="node8" class="node"><title>null2</title>
<polygon fill="lightgrey" stroke="none" points="419.176,-131.6 365.176,-131.6 365.176,-95.5999 419.176,-95.5999 419.176,-131.6"/>
<text text-anchor="middle" x="392.176" y="-110.644" font-family="'/usr/share/fonts/truetype/wqy/wqy-microhei.ttc'" font-size="14.00">NULL</text>
</g>
<!-- pair_2&#45;&gt;null2 -->
<g id="edge6" class="edge"><title>pair_2:next&#45;&gt;null2</title>
<path fill="none" stroke="black" stroke-width="2" d="M279.184,-113.6C304.414,-113.6 332.842,-113.6 354.743,-113.6"/>
<polygon fill="black" stroke="black" stroke-width="2" points="354.927,-117.1 364.927,-113.6 354.927,-110.1 354.927,-117.1"/>
</g>
<!-- null3 -->
<g id="node9" class="node"><title>null3</title>
<polygon fill="lightgrey" stroke="none" points="419.176,-63.5999 365.176,-63.5999 365.176,-27.5999 419.176,-27.5999 419.176,-63.5999"/>
<text text-anchor="middle" x="392.176" y="-42.6441" font-family="'/usr/share/fonts/truetype/wqy/wqy-microhei.ttc'" font-size="14.00">NULL</text>
</g>
<!-- pair_3&#45;&gt;null3 -->
<g id="edge8" class="edge"><title>pair_3:next&#45;&gt;null3</title>
<path fill="none" stroke="black" stroke-width="2" d="M279.184,-45.5999C304.414,-45.5999 332.842,-45.5999 354.743,-45.5999"/>
<polygon fill="black" stroke="black" stroke-width="2" points="354.927,-49.1 364.927,-45.5999 354.927,-42.1 354.927,-49.1"/>
</g>
<!-- pair_4&#45;&gt;pair_1 -->
<g id="edge2" class="edge"><title>pair_4:next&#45;&gt;pair_1:head</title>
<path fill="none" stroke="black" stroke-width="2" d="M279.184,-235.6C291.184,-235.6 296.434,-235.6 305.059,-235.6"/>
<polygon fill="black" stroke="black" stroke-width="2" points="305.184,-239.1 315.184,-235.6 305.184,-232.1 305.184,-239.1"/>
</g>
</g>
</svg>
