<?xml version="1.0" encoding="UTF-8" standalone="no"?>
<!DOCTYPE svg PUBLIC "-//W3C//DTD SVG 1.1//EN"
 "http://www.w3.org/Graphics/SVG/1.1/DTD/svg11.dtd">
<!-- Generated by graphviz version 2.38.0 (20140413.2041)
 -->
<!-- Title: watched_keys Pages: 1 -->
<svg width="500pt" height="167pt"
 viewBox="0.00 0.00 500.30 167.46" xmlns="http://www.w3.org/2000/svg" xmlns:xlink="http://www.w3.org/1999/xlink">
<g id="graph0" class="graph" transform="scale(1 1) rotate(0) translate(4 163.465)">
<title>watched_keys</title>
<polygon fill="white" stroke="none" points="-4,4 -4,-163.465 496.296,-163.465 496.296,4 -4,4"/>
<!-- watched_keys -->
<g id="node1" class="node"><title>watched_keys</title>
<polygon fill="#a8e270" stroke="black" points="0,-0.5 0,-147.43 108.771,-147.43 108.771,-0.5 0,-0.5"/>
<text text-anchor="middle" x="54.3853" y="-132.23" font-family="'/usr/share/fonts/truetype/wqy/wqy-microhei.ttc'" font-size="14.00">watched_keys</text>
<polyline fill="none" stroke="black" points="0,-122.941 108.771,-122.941 "/>
<text text-anchor="middle" x="54.3853" y="-107.741" font-family="'/usr/share/fonts/truetype/wqy/wqy-microhei.ttc'" font-size="14.00">key1</text>
<polyline fill="none" stroke="black" points="0,-98.4531 108.771,-98.4531 "/>
<text text-anchor="middle" x="54.3853" y="-83.2531" font-family="'/usr/share/fonts/truetype/wqy/wqy-microhei.ttc'" font-size="14.00">key2</text>
<polyline fill="none" stroke="black" points="0,-73.9648 108.771,-73.9648 "/>
<text text-anchor="middle" x="54.3853" y="-58.7648" font-family="'/usr/share/fonts/truetype/wqy/wqy-microhei.ttc'" font-size="14.00">key3</text>
<polyline fill="none" stroke="black" points="0,-49.4766 108.771,-49.4766 "/>
<text text-anchor="middle" x="54.3853" y="-34.2766" font-family="'/usr/share/fonts/truetype/wqy/wqy-microhei.ttc'" font-size="14.00">...</text>
<polyline fill="none" stroke="black" points="0,-24.9883 108.771,-24.9883 "/>
<text text-anchor="middle" x="54.3853" y="-9.78828" font-family="'/usr/share/fonts/truetype/wqy/wqy-microhei.ttc'" font-size="14.00">keyN</text>
</g>
<!-- client2 -->
<g id="node4" class="node"><title>client2</title>
<polygon fill="#95bbe3" stroke="black" points="144.771,-122.965 144.771,-158.965 206.612,-158.965 206.612,-122.965 144.771,-122.965"/>
<text text-anchor="middle" x="175.691" y="-138.265" font-family="'/usr/share/fonts/truetype/wqy/wqy-microhei.ttc'" font-size="14.00">client2</text>
</g>
<!-- watched_keys&#45;&gt;client2 -->
<g id="edge1" class="edge"><title>watched_keys:key1&#45;&gt;client2</title>
<path fill="none" stroke="black" stroke-width="2" d="M108.771,-110.965C119.144,-110.965 129.678,-114.08 139.191,-118.304"/>
<polygon fill="black" stroke="black" stroke-width="2" points="137.805,-121.523 148.32,-122.822 140.91,-115.249 137.805,-121.523"/>
</g>
<!-- client7 -->
<g id="node6" class="node"><title>client7</title>
<polygon fill="#95bbe3" stroke="black" points="144.771,-67.9648 144.771,-103.965 206.612,-103.965 206.612,-67.9648 144.771,-67.9648"/>
<text text-anchor="middle" x="175.691" y="-83.2648" font-family="'/usr/share/fonts/truetype/wqy/wqy-microhei.ttc'" font-size="14.00">client7</text>
</g>
<!-- watched_keys&#45;&gt;client7 -->
<g id="edge5" class="edge"><title>watched_keys:key2&#45;&gt;client7</title>
<path fill="none" stroke="black" stroke-width="2" d="M108.771,-85.9648C117.07,-85.9648 125.956,-85.9648 134.432,-85.9648"/>
<polygon fill="black" stroke="black" stroke-width="2" points="134.5,-89.4649 144.5,-85.9648 134.5,-82.4649 134.5,-89.4649"/>
</g>
<!-- client3 -->
<g id="node8" class="node"><title>client3</title>
<polygon fill="#95bbe3" stroke="black" points="144.771,-12.9648 144.771,-48.9648 206.612,-48.9648 206.612,-12.9648 144.771,-12.9648"/>
<text text-anchor="middle" x="175.691" y="-28.2648" font-family="'/usr/share/fonts/truetype/wqy/wqy-microhei.ttc'" font-size="14.00">client3</text>
</g>
<!-- watched_keys&#45;&gt;client3 -->
<g id="edge7" class="edge"><title>watched_keys:key3&#45;&gt;client3</title>
<path fill="none" stroke="black" stroke-width="2" d="M108.771,-61.9648C119.696,-61.9648 130.755,-58.4345 140.613,-53.7566"/>
<polygon fill="black" stroke="black" stroke-width="2" points="142.434,-56.7531 149.653,-48.9977 139.174,-50.559 142.434,-56.7531"/>
</g>
<!-- client1 -->
<g id="node2" class="node"><title>client1</title>
<polygon fill="#95bbe3" stroke="black" points="340.454,-122.965 340.454,-158.965 402.296,-158.965 402.296,-122.965 340.454,-122.965"/>
<text text-anchor="middle" x="371.375" y="-138.265" font-family="'/usr/share/fonts/truetype/wqy/wqy-microhei.ttc'" font-size="14.00">client1</text>
</g>
<!-- null_1 -->
<g id="node5" class="node"><title>null_1</title>
<polygon fill="lightgrey" stroke="none" points="492.296,-158.965 438.296,-158.965 438.296,-122.965 492.296,-122.965 492.296,-158.965"/>
<text text-anchor="middle" x="465.296" y="-138.009" font-family="'/usr/share/fonts/truetype/wqy/wqy-microhei.ttc'" font-size="14.00">NULL</text>
</g>
<!-- client1&#45;&gt;null_1 -->
<g id="edge4" class="edge"><title>client1&#45;&gt;null_1</title>
<path fill="none" stroke="black" stroke-width="2" d="M402.473,-140.965C410.663,-140.965 419.618,-140.965 428.107,-140.965"/>
<polygon fill="black" stroke="black" stroke-width="2" points="428.147,-144.465 438.147,-140.965 428.147,-137.465 428.147,-144.465"/>
</g>
<!-- client5 -->
<g id="node3" class="node"><title>client5</title>
<polygon fill="#95bbe3" stroke="black" points="242.612,-122.965 242.612,-158.965 304.454,-158.965 304.454,-122.965 242.612,-122.965"/>
<text text-anchor="middle" x="273.533" y="-138.265" font-family="'/usr/share/fonts/truetype/wqy/wqy-microhei.ttc'" font-size="14.00">client5</text>
</g>
<!-- client5&#45;&gt;client1 -->
<g id="edge3" class="edge"><title>client5&#45;&gt;client1</title>
<path fill="none" stroke="black" stroke-width="2" d="M304.595,-140.965C312.713,-140.965 321.629,-140.965 330.205,-140.965"/>
<polygon fill="black" stroke="black" stroke-width="2" points="330.42,-144.465 340.42,-140.965 330.42,-137.465 330.42,-144.465"/>
</g>
<!-- client2&#45;&gt;client5 -->
<g id="edge2" class="edge"><title>client2&#45;&gt;client5</title>
<path fill="none" stroke="black" stroke-width="2" d="M206.753,-140.965C214.871,-140.965 223.787,-140.965 232.363,-140.965"/>
<polygon fill="black" stroke="black" stroke-width="2" points="232.578,-144.465 242.578,-140.965 232.578,-137.465 232.578,-144.465"/>
</g>
<!-- null_2 -->
<g id="node7" class="node"><title>null_2</title>
<polygon fill="lightgrey" stroke="none" points="300.533,-103.965 246.533,-103.965 246.533,-67.9648 300.533,-67.9648 300.533,-103.965"/>
<text text-anchor="middle" x="273.533" y="-83.009" font-family="'/usr/share/fonts/truetype/wqy/wqy-microhei.ttc'" font-size="14.00">NULL</text>
</g>
<!-- client7&#45;&gt;null_2 -->
<g id="edge6" class="edge"><title>client7&#45;&gt;null_2</title>
<path fill="none" stroke="black" stroke-width="2" d="M206.753,-85.9648C216.106,-85.9648 226.519,-85.9648 236.25,-85.9648"/>
<polygon fill="black" stroke="black" stroke-width="2" points="236.459,-89.4649 246.459,-85.9648 236.459,-82.4649 236.459,-89.4649"/>
</g>
<!-- client4 -->
<g id="node9" class="node"><title>client4</title>
<polygon fill="#95bbe3" stroke="black" points="242.612,-12.9648 242.612,-48.9648 304.454,-48.9648 304.454,-12.9648 242.612,-12.9648"/>
<text text-anchor="middle" x="273.533" y="-28.2648" font-family="'/usr/share/fonts/truetype/wqy/wqy-microhei.ttc'" font-size="14.00">client4</text>
</g>
<!-- client3&#45;&gt;client4 -->
<g id="edge8" class="edge"><title>client3&#45;&gt;client4</title>
<path fill="none" stroke="black" stroke-width="2" d="M206.753,-30.9648C214.871,-30.9648 223.787,-30.9648 232.363,-30.9648"/>
<polygon fill="black" stroke="black" stroke-width="2" points="232.578,-34.4649 242.578,-30.9648 232.578,-27.4649 232.578,-34.4649"/>
</g>
<!-- client6 -->
<g id="node10" class="node"><title>client6</title>
<polygon fill="#95bbe3" stroke="black" points="340.454,-12.9648 340.454,-48.9648 402.296,-48.9648 402.296,-12.9648 340.454,-12.9648"/>
<text text-anchor="middle" x="371.375" y="-28.2648" font-family="'/usr/share/fonts/truetype/wqy/wqy-microhei.ttc'" font-size="14.00">client6</text>
</g>
<!-- client4&#45;&gt;client6 -->
<g id="edge9" class="edge"><title>client4&#45;&gt;client6</title>
<path fill="none" stroke="black" stroke-width="2" d="M304.595,-30.9648C312.713,-30.9648 321.629,-30.9648 330.205,-30.9648"/>
<polygon fill="black" stroke="black" stroke-width="2" points="330.42,-34.4649 340.42,-30.9648 330.42,-27.4649 330.42,-34.4649"/>
</g>
<!-- null_3 -->
<g id="node11" class="node"><title>null_3</title>
<polygon fill="lightgrey" stroke="none" points="492.296,-48.9648 438.296,-48.9648 438.296,-12.9648 492.296,-12.9648 492.296,-48.9648"/>
<text text-anchor="middle" x="465.296" y="-28.009" font-family="'/usr/share/fonts/truetype/wqy/wqy-microhei.ttc'" font-size="14.00">NULL</text>
</g>
<!-- client6&#45;&gt;null_3 -->
<g id="edge10" class="edge"><title>client6&#45;&gt;null_3</title>
<path fill="none" stroke="black" stroke-width="2" d="M402.473,-30.9648C410.663,-30.9648 419.618,-30.9648 428.107,-30.9648"/>
<polygon fill="black" stroke="black" stroke-width="2" points="428.147,-34.4649 438.147,-30.9648 428.147,-27.4649 428.147,-34.4649"/>
</g>
</g>
</svg>
