<?xml version="1.0" encoding="UTF-8" standalone="no"?>
<!DOCTYPE svg PUBLIC "-//W3C//DTD SVG 1.1//EN"
 "http://www.w3.org/Graphics/SVG/1.1/DTD/svg11.dtd">
<!-- Generated by graphviz version 2.38.0 (20140413.2041)
 -->
<!-- Title: bad_performance_hash Pages: 1 -->
<svg width="610pt" height="334pt"
 viewBox="0.00 0.00 609.79 334.49" xmlns="http://www.w3.org/2000/svg" xmlns:xlink="http://www.w3.org/1999/xlink">
<g id="graph0" class="graph" transform="scale(1 1) rotate(0) translate(4 330.488)">
<title>bad_performance_hash</title>
<polygon fill="white" stroke="none" points="-4,4 -4,-330.488 605.787,-330.488 605.787,4 -4,4"/>
<!-- bucket -->
<g id="node1" class="node"><title>bucket</title>
<polygon fill="#f2f2f2" stroke="black" points="0,-64.5469 0,-284.941 61.7871,-284.941 61.7871,-64.5469 0,-64.5469"/>
<text text-anchor="middle" x="30.8936" y="-269.741" font-family="'/usr/share/fonts/truetype/wqy/wqy-microhei.ttc'" font-size="14.00">bucket</text>
<polyline fill="none" stroke="black" points="0,-260.453 61.7871,-260.453 "/>
<text text-anchor="middle" x="30.8936" y="-245.253" font-family="'/usr/share/fonts/truetype/wqy/wqy-microhei.ttc'" font-size="14.00">0</text>
<polyline fill="none" stroke="black" points="0,-235.965 61.7871,-235.965 "/>
<text text-anchor="middle" x="30.8936" y="-220.765" font-family="'/usr/share/fonts/truetype/wqy/wqy-microhei.ttc'" font-size="14.00">1</text>
<polyline fill="none" stroke="black" points="0,-211.477 61.7871,-211.477 "/>
<text text-anchor="middle" x="30.8936" y="-196.277" font-family="'/usr/share/fonts/truetype/wqy/wqy-microhei.ttc'" font-size="14.00">2</text>
<polyline fill="none" stroke="black" points="0,-186.988 61.7871,-186.988 "/>
<text text-anchor="middle" x="30.8936" y="-171.788" font-family="'/usr/share/fonts/truetype/wqy/wqy-microhei.ttc'" font-size="14.00">3</text>
<polyline fill="none" stroke="black" points="0,-162.5 61.7871,-162.5 "/>
<text text-anchor="middle" x="30.8936" y="-147.3" font-family="'/usr/share/fonts/truetype/wqy/wqy-microhei.ttc'" font-size="14.00">4</text>
<polyline fill="none" stroke="black" points="0,-138.012 61.7871,-138.012 "/>
<text text-anchor="middle" x="30.8936" y="-122.812" font-family="'/usr/share/fonts/truetype/wqy/wqy-microhei.ttc'" font-size="14.00">5</text>
<polyline fill="none" stroke="black" points="0,-113.523 61.7871,-113.523 "/>
<text text-anchor="middle" x="30.8936" y="-98.3234" font-family="'/usr/share/fonts/truetype/wqy/wqy-microhei.ttc'" font-size="14.00">6</text>
<polyline fill="none" stroke="black" points="0,-89.0352 61.7871,-89.0352 "/>
<text text-anchor="middle" x="30.8936" y="-73.8352" font-family="'/usr/share/fonts/truetype/wqy/wqy-microhei.ttc'" font-size="14.00">7</text>
</g>
<!-- node0 -->
<g id="node2" class="node"><title>node0</title>
<polygon fill="#fadcad" stroke="black" points="97.7871,-301.5 97.7871,-325.988 151.787,-325.988 151.787,-301.5 97.7871,-301.5"/>
<text text-anchor="middle" x="124.787" y="-310.788" font-family="'/usr/share/fonts/truetype/wqy/wqy-microhei.ttc'" font-size="14.00">Entry</text>
</g>
<!-- bucket&#45;&gt;node0 -->
<g id="edge1" class="edge"><title>bucket:0&#45;&gt;node0</title>
<path fill="none" stroke="black" stroke-width="2" d="M61.7871,-247.744C87.3996,-247.744 79.7187,-274.591 97.7871,-292.744 98.4318,-293.392 99.0956,-294.039 99.7737,-294.684"/>
<polygon fill="black" stroke="black" stroke-width="2" points="97.5528,-297.392 107.368,-301.382 102.183,-292.142 97.5528,-297.392"/>
</g>
<!-- node1 -->
<g id="node8" class="node"><title>node1</title>
<polygon fill="#fadcad" stroke="black" points="97.7871,-258.5 97.7871,-282.988 151.787,-282.988 151.787,-258.5 97.7871,-258.5"/>
<text text-anchor="middle" x="124.787" y="-267.788" font-family="'/usr/share/fonts/truetype/wqy/wqy-microhei.ttc'" font-size="14.00">Entry</text>
</g>
<!-- bucket&#45;&gt;node1 -->
<g id="edge7" class="edge"><title>bucket:1&#45;&gt;node1</title>
<path fill="none" stroke="black" stroke-width="2" d="M61.7871,-223.744C64.2313,-223.744 83.7375,-238.774 100.227,-251.835"/>
<polygon fill="black" stroke="black" stroke-width="2" points="98.4654,-254.906 108.469,-258.395 102.825,-249.429 98.4654,-254.906"/>
</g>
<!-- node2 -->
<g id="node12" class="node"><title>node2</title>
<polygon fill="#fadcad" stroke="black" points="97.7871,-215.5 97.7871,-239.988 151.787,-239.988 151.787,-215.5 97.7871,-215.5"/>
<text text-anchor="middle" x="124.787" y="-224.788" font-family="'/usr/share/fonts/truetype/wqy/wqy-microhei.ttc'" font-size="14.00">Entry</text>
</g>
<!-- bucket&#45;&gt;node2 -->
<g id="edge11" class="edge"><title>bucket:2&#45;&gt;node2</title>
<path fill="none" stroke="black" stroke-width="2" d="M61.7871,-198.744C74.8772,-198.744 88.1817,-204.114 99.0923,-210.232"/>
<polygon fill="black" stroke="black" stroke-width="2" points="97.2776,-213.225 107.637,-215.446 100.924,-207.249 97.2776,-213.225"/>
</g>
<!-- node3 -->
<g id="node18" class="node"><title>node3</title>
<polygon fill="#fadcad" stroke="black" points="97.7871,-172.5 97.7871,-196.988 151.787,-196.988 151.787,-172.5 97.7871,-172.5"/>
<text text-anchor="middle" x="124.787" y="-181.788" font-family="'/usr/share/fonts/truetype/wqy/wqy-microhei.ttc'" font-size="14.00">Entry</text>
</g>
<!-- bucket&#45;&gt;node3 -->
<g id="edge17" class="edge"><title>bucket:3&#45;&gt;node3</title>
<path fill="none" stroke="black" stroke-width="2" d="M61.7871,-174.744C70.2361,-174.744 79.251,-175.66 87.7151,-176.938"/>
<polygon fill="black" stroke="black" stroke-width="2" points="87.2452,-180.409 97.6912,-178.639 88.4216,-173.508 87.2452,-180.409"/>
</g>
<!-- node4 -->
<g id="node24" class="node"><title>node4</title>
<polygon fill="#fadcad" stroke="black" points="97.7871,-129.5 97.7871,-153.988 151.787,-153.988 151.787,-129.5 97.7871,-129.5"/>
<text text-anchor="middle" x="124.787" y="-138.788" font-family="'/usr/share/fonts/truetype/wqy/wqy-microhei.ttc'" font-size="14.00">Entry</text>
</g>
<!-- bucket&#45;&gt;node4 -->
<g id="edge23" class="edge"><title>bucket:4&#45;&gt;node4</title>
<path fill="none" stroke="black" stroke-width="2" d="M61.7871,-150.744C70.2157,-150.744 79.2226,-149.919 87.6854,-148.769"/>
<polygon fill="black" stroke="black" stroke-width="2" points="88.3092,-152.215 97.6628,-147.239 87.2477,-145.296 88.3092,-152.215"/>
</g>
<!-- node5 -->
<g id="node27" class="node"><title>node5</title>
<polygon fill="#fadcad" stroke="black" points="97.7871,-86.5 97.7871,-110.988 151.787,-110.988 151.787,-86.5 97.7871,-86.5"/>
<text text-anchor="middle" x="124.787" y="-95.7883" font-family="'/usr/share/fonts/truetype/wqy/wqy-microhei.ttc'" font-size="14.00">Entry</text>
</g>
<!-- bucket&#45;&gt;node5 -->
<g id="edge26" class="edge"><title>bucket:5&#45;&gt;node5</title>
<path fill="none" stroke="black" stroke-width="2" d="M61.7871,-125.744C73.9218,-125.744 86.3645,-121.343 96.8885,-116.094"/>
<polygon fill="black" stroke="black" stroke-width="2" points="98.8562,-119.007 105.95,-111.138 95.497,-112.866 98.8562,-119.007"/>
</g>
<!-- node6 -->
<g id="node33" class="node"><title>node6</title>
<polygon fill="#fadcad" stroke="black" points="97.7871,-43.5 97.7871,-67.9883 151.787,-67.9883 151.787,-43.5 97.7871,-43.5"/>
<text text-anchor="middle" x="124.787" y="-52.7883" font-family="'/usr/share/fonts/truetype/wqy/wqy-microhei.ttc'" font-size="14.00">Entry</text>
</g>
<!-- bucket&#45;&gt;node6 -->
<g id="edge32" class="edge"><title>bucket:6&#45;&gt;node6</title>
<path fill="none" stroke="black" stroke-width="2" d="M61.7871,-101.744C64.1982,-101.744 83.4922,-87.2068 99.9252,-74.4769"/>
<polygon fill="black" stroke="black" stroke-width="2" points="102.413,-76.9761 108.153,-68.0713 98.1125,-71.4526 102.413,-76.9761"/>
</g>
<!-- node7 -->
<g id="node38" class="node"><title>node7</title>
<polygon fill="#fadcad" stroke="black" points="97.7871,-0.5 97.7871,-24.9883 151.787,-24.9883 151.787,-0.5 97.7871,-0.5"/>
<text text-anchor="middle" x="124.787" y="-9.78828" font-family="'/usr/share/fonts/truetype/wqy/wqy-microhei.ttc'" font-size="14.00">Entry</text>
</g>
<!-- bucket&#45;&gt;node7 -->
<g id="edge37" class="edge"><title>bucket:7&#45;&gt;node7</title>
<path fill="none" stroke="black" stroke-width="2" d="M61.7871,-76.7441C86.7117,-76.7441 80.0083,-51.2126 97.7871,-33.7441 98.439,-33.1037 99.109,-32.4625 99.7926,-31.8231"/>
<polygon fill="black" stroke="black" stroke-width="2" points="102.193,-34.3738 107.419,-25.1574 97.5859,-29.1034 102.193,-34.3738"/>
</g>
<!-- node01 -->
<g id="node3" class="node"><title>node01</title>
<polygon fill="#fadcad" stroke="black" points="187.787,-301.5 187.787,-325.988 241.787,-325.988 241.787,-301.5 187.787,-301.5"/>
<text text-anchor="middle" x="214.787" y="-310.788" font-family="'/usr/share/fonts/truetype/wqy/wqy-microhei.ttc'" font-size="14.00">Entry</text>
</g>
<!-- node0&#45;&gt;node01 -->
<g id="edge2" class="edge"><title>node0&#45;&gt;node01</title>
<path fill="none" stroke="black" stroke-width="2" d="M152.19,-313.744C160.18,-313.744 169.098,-313.744 177.611,-313.744"/>
<polygon fill="black" stroke="black" stroke-width="2" points="177.706,-317.244 187.706,-313.744 177.706,-310.244 177.706,-317.244"/>
</g>
<!-- node02 -->
<g id="node4" class="node"><title>node02</title>
<polygon fill="#fadcad" stroke="black" points="277.787,-301.5 277.787,-325.988 331.787,-325.988 331.787,-301.5 277.787,-301.5"/>
<text text-anchor="middle" x="304.787" y="-310.788" font-family="'/usr/share/fonts/truetype/wqy/wqy-microhei.ttc'" font-size="14.00">Entry</text>
</g>
<!-- node01&#45;&gt;node02 -->
<g id="edge3" class="edge"><title>node01&#45;&gt;node02</title>
<path fill="none" stroke="black" stroke-width="2" d="M242.19,-313.744C250.18,-313.744 259.098,-313.744 267.611,-313.744"/>
<polygon fill="black" stroke="black" stroke-width="2" points="267.706,-317.244 277.706,-313.744 267.706,-310.244 267.706,-317.244"/>
</g>
<!-- node03 -->
<g id="node5" class="node"><title>node03</title>
<polygon fill="#fadcad" stroke="black" points="367.787,-301.5 367.787,-325.988 421.787,-325.988 421.787,-301.5 367.787,-301.5"/>
<text text-anchor="middle" x="394.787" y="-310.788" font-family="'/usr/share/fonts/truetype/wqy/wqy-microhei.ttc'" font-size="14.00">Entry</text>
</g>
<!-- node02&#45;&gt;node03 -->
<g id="edge4" class="edge"><title>node02&#45;&gt;node03</title>
<path fill="none" stroke="black" stroke-width="2" d="M332.19,-313.744C340.18,-313.744 349.098,-313.744 357.611,-313.744"/>
<polygon fill="black" stroke="black" stroke-width="2" points="357.706,-317.244 367.706,-313.744 357.706,-310.244 357.706,-317.244"/>
</g>
<!-- node04 -->
<g id="node6" class="node"><title>node04</title>
<polygon fill="#fadcad" stroke="black" points="457.787,-301.5 457.787,-325.988 511.787,-325.988 511.787,-301.5 457.787,-301.5"/>
<text text-anchor="middle" x="484.787" y="-310.788" font-family="'/usr/share/fonts/truetype/wqy/wqy-microhei.ttc'" font-size="14.00">Entry</text>
</g>
<!-- node03&#45;&gt;node04 -->
<g id="edge5" class="edge"><title>node03&#45;&gt;node04</title>
<path fill="none" stroke="black" stroke-width="2" d="M422.19,-313.744C430.18,-313.744 439.098,-313.744 447.611,-313.744"/>
<polygon fill="black" stroke="black" stroke-width="2" points="447.706,-317.244 457.706,-313.744 447.706,-310.244 447.706,-317.244"/>
</g>
<!-- node05 -->
<g id="node7" class="node"><title>node05</title>
<polygon fill="lightgrey" stroke="none" points="601.787,-326.237 547.787,-326.237 547.787,-301.251 601.787,-301.251 601.787,-326.237"/>
<text text-anchor="middle" x="574.787" y="-310.788" font-family="'/usr/share/fonts/truetype/wqy/wqy-microhei.ttc'" font-size="14.00">NULL</text>
</g>
<!-- node04&#45;&gt;node05 -->
<g id="edge6" class="edge"><title>node04&#45;&gt;node05</title>
<path fill="none" stroke="black" stroke-width="2" d="M512.19,-313.744C520.18,-313.744 529.098,-313.744 537.611,-313.744"/>
<polygon fill="black" stroke="black" stroke-width="2" points="537.706,-317.244 547.706,-313.744 537.706,-310.244 537.706,-317.244"/>
</g>
<!-- node11 -->
<g id="node9" class="node"><title>node11</title>
<polygon fill="#fadcad" stroke="black" points="187.787,-258.5 187.787,-282.988 241.787,-282.988 241.787,-258.5 187.787,-258.5"/>
<text text-anchor="middle" x="214.787" y="-267.788" font-family="'/usr/share/fonts/truetype/wqy/wqy-microhei.ttc'" font-size="14.00">Entry</text>
</g>
<!-- node1&#45;&gt;node11 -->
<g id="edge8" class="edge"><title>node1&#45;&gt;node11</title>
<path fill="none" stroke="black" stroke-width="2" d="M152.19,-270.744C160.18,-270.744 169.098,-270.744 177.611,-270.744"/>
<polygon fill="black" stroke="black" stroke-width="2" points="177.706,-274.244 187.706,-270.744 177.706,-267.244 177.706,-274.244"/>
</g>
<!-- node12 -->
<g id="node10" class="node"><title>node12</title>
<polygon fill="#fadcad" stroke="black" points="277.787,-258.5 277.787,-282.988 331.787,-282.988 331.787,-258.5 277.787,-258.5"/>
<text text-anchor="middle" x="304.787" y="-267.788" font-family="'/usr/share/fonts/truetype/wqy/wqy-microhei.ttc'" font-size="14.00">Entry</text>
</g>
<!-- node11&#45;&gt;node12 -->
<g id="edge9" class="edge"><title>node11&#45;&gt;node12</title>
<path fill="none" stroke="black" stroke-width="2" d="M242.19,-270.744C250.18,-270.744 259.098,-270.744 267.611,-270.744"/>
<polygon fill="black" stroke="black" stroke-width="2" points="267.706,-274.244 277.706,-270.744 267.706,-267.244 267.706,-274.244"/>
</g>
<!-- node13 -->
<g id="node11" class="node"><title>node13</title>
<polygon fill="lightgrey" stroke="none" points="421.787,-283.237 367.787,-283.237 367.787,-258.251 421.787,-258.251 421.787,-283.237"/>
<text text-anchor="middle" x="394.787" y="-267.788" font-family="'/usr/share/fonts/truetype/wqy/wqy-microhei.ttc'" font-size="14.00">NULL</text>
</g>
<!-- node12&#45;&gt;node13 -->
<g id="edge10" class="edge"><title>node12&#45;&gt;node13</title>
<path fill="none" stroke="black" stroke-width="2" d="M332.19,-270.744C340.18,-270.744 349.098,-270.744 357.611,-270.744"/>
<polygon fill="black" stroke="black" stroke-width="2" points="357.706,-274.244 367.706,-270.744 357.706,-267.244 357.706,-274.244"/>
</g>
<!-- node21 -->
<g id="node13" class="node"><title>node21</title>
<polygon fill="#fadcad" stroke="black" points="187.787,-215.5 187.787,-239.988 241.787,-239.988 241.787,-215.5 187.787,-215.5"/>
<text text-anchor="middle" x="214.787" y="-224.788" font-family="'/usr/share/fonts/truetype/wqy/wqy-microhei.ttc'" font-size="14.00">Entry</text>
</g>
<!-- node2&#45;&gt;node21 -->
<g id="edge12" class="edge"><title>node2&#45;&gt;node21</title>
<path fill="none" stroke="black" stroke-width="2" d="M152.19,-227.744C160.18,-227.744 169.098,-227.744 177.611,-227.744"/>
<polygon fill="black" stroke="black" stroke-width="2" points="177.706,-231.244 187.706,-227.744 177.706,-224.244 177.706,-231.244"/>
</g>
<!-- node22 -->
<g id="node14" class="node"><title>node22</title>
<polygon fill="#fadcad" stroke="black" points="277.787,-215.5 277.787,-239.988 331.787,-239.988 331.787,-215.5 277.787,-215.5"/>
<text text-anchor="middle" x="304.787" y="-224.788" font-family="'/usr/share/fonts/truetype/wqy/wqy-microhei.ttc'" font-size="14.00">Entry</text>
</g>
<!-- node21&#45;&gt;node22 -->
<g id="edge13" class="edge"><title>node21&#45;&gt;node22</title>
<path fill="none" stroke="black" stroke-width="2" d="M242.19,-227.744C250.18,-227.744 259.098,-227.744 267.611,-227.744"/>
<polygon fill="black" stroke="black" stroke-width="2" points="267.706,-231.244 277.706,-227.744 267.706,-224.244 267.706,-231.244"/>
</g>
<!-- node23 -->
<g id="node15" class="node"><title>node23</title>
<polygon fill="#fadcad" stroke="black" points="367.787,-215.5 367.787,-239.988 421.787,-239.988 421.787,-215.5 367.787,-215.5"/>
<text text-anchor="middle" x="394.787" y="-224.788" font-family="'/usr/share/fonts/truetype/wqy/wqy-microhei.ttc'" font-size="14.00">Entry</text>
</g>
<!-- node22&#45;&gt;node23 -->
<g id="edge14" class="edge"><title>node22&#45;&gt;node23</title>
<path fill="none" stroke="black" stroke-width="2" d="M332.19,-227.744C340.18,-227.744 349.098,-227.744 357.611,-227.744"/>
<polygon fill="black" stroke="black" stroke-width="2" points="357.706,-231.244 367.706,-227.744 357.706,-224.244 357.706,-231.244"/>
</g>
<!-- node24 -->
<g id="node16" class="node"><title>node24</title>
<polygon fill="#fadcad" stroke="black" points="457.787,-215.5 457.787,-239.988 511.787,-239.988 511.787,-215.5 457.787,-215.5"/>
<text text-anchor="middle" x="484.787" y="-224.788" font-family="'/usr/share/fonts/truetype/wqy/wqy-microhei.ttc'" font-size="14.00">Entry</text>
</g>
<!-- node23&#45;&gt;node24 -->
<g id="edge15" class="edge"><title>node23&#45;&gt;node24</title>
<path fill="none" stroke="black" stroke-width="2" d="M422.19,-227.744C430.18,-227.744 439.098,-227.744 447.611,-227.744"/>
<polygon fill="black" stroke="black" stroke-width="2" points="447.706,-231.244 457.706,-227.744 447.706,-224.244 447.706,-231.244"/>
</g>
<!-- node25 -->
<g id="node17" class="node"><title>node25</title>
<polygon fill="lightgrey" stroke="none" points="601.787,-240.237 547.787,-240.237 547.787,-215.251 601.787,-215.251 601.787,-240.237"/>
<text text-anchor="middle" x="574.787" y="-224.788" font-family="'/usr/share/fonts/truetype/wqy/wqy-microhei.ttc'" font-size="14.00">NULL</text>
</g>
<!-- node24&#45;&gt;node25 -->
<g id="edge16" class="edge"><title>node24&#45;&gt;node25</title>
<path fill="none" stroke="black" stroke-width="2" d="M512.19,-227.744C520.18,-227.744 529.098,-227.744 537.611,-227.744"/>
<polygon fill="black" stroke="black" stroke-width="2" points="537.706,-231.244 547.706,-227.744 537.706,-224.244 537.706,-231.244"/>
</g>
<!-- node31 -->
<g id="node19" class="node"><title>node31</title>
<polygon fill="#fadcad" stroke="black" points="187.787,-172.5 187.787,-196.988 241.787,-196.988 241.787,-172.5 187.787,-172.5"/>
<text text-anchor="middle" x="214.787" y="-181.788" font-family="'/usr/share/fonts/truetype/wqy/wqy-microhei.ttc'" font-size="14.00">Entry</text>
</g>
<!-- node3&#45;&gt;node31 -->
<g id="edge18" class="edge"><title>node3&#45;&gt;node31</title>
<path fill="none" stroke="black" stroke-width="2" d="M152.19,-184.744C160.18,-184.744 169.098,-184.744 177.611,-184.744"/>
<polygon fill="black" stroke="black" stroke-width="2" points="177.706,-188.244 187.706,-184.744 177.706,-181.244 177.706,-188.244"/>
</g>
<!-- node32 -->
<g id="node20" class="node"><title>node32</title>
<polygon fill="#fadcad" stroke="black" points="277.787,-172.5 277.787,-196.988 331.787,-196.988 331.787,-172.5 277.787,-172.5"/>
<text text-anchor="middle" x="304.787" y="-181.788" font-family="'/usr/share/fonts/truetype/wqy/wqy-microhei.ttc'" font-size="14.00">Entry</text>
</g>
<!-- node31&#45;&gt;node32 -->
<g id="edge19" class="edge"><title>node31&#45;&gt;node32</title>
<path fill="none" stroke="black" stroke-width="2" d="M242.19,-184.744C250.18,-184.744 259.098,-184.744 267.611,-184.744"/>
<polygon fill="black" stroke="black" stroke-width="2" points="267.706,-188.244 277.706,-184.744 267.706,-181.244 267.706,-188.244"/>
</g>
<!-- node33 -->
<g id="node21" class="node"><title>node33</title>
<polygon fill="#fadcad" stroke="black" points="367.787,-172.5 367.787,-196.988 421.787,-196.988 421.787,-172.5 367.787,-172.5"/>
<text text-anchor="middle" x="394.787" y="-181.788" font-family="'/usr/share/fonts/truetype/wqy/wqy-microhei.ttc'" font-size="14.00">Entry</text>
</g>
<!-- node32&#45;&gt;node33 -->
<g id="edge20" class="edge"><title>node32&#45;&gt;node33</title>
<path fill="none" stroke="black" stroke-width="2" d="M332.19,-184.744C340.18,-184.744 349.098,-184.744 357.611,-184.744"/>
<polygon fill="black" stroke="black" stroke-width="2" points="357.706,-188.244 367.706,-184.744 357.706,-181.244 357.706,-188.244"/>
</g>
<!-- node34 -->
<g id="node22" class="node"><title>node34</title>
<polygon fill="#fadcad" stroke="black" points="457.787,-172.5 457.787,-196.988 511.787,-196.988 511.787,-172.5 457.787,-172.5"/>
<text text-anchor="middle" x="484.787" y="-181.788" font-family="'/usr/share/fonts/truetype/wqy/wqy-microhei.ttc'" font-size="14.00">Entry</text>
</g>
<!-- node33&#45;&gt;node34 -->
<g id="edge21" class="edge"><title>node33&#45;&gt;node34</title>
<path fill="none" stroke="black" stroke-width="2" d="M422.19,-184.744C430.18,-184.744 439.098,-184.744 447.611,-184.744"/>
<polygon fill="black" stroke="black" stroke-width="2" points="447.706,-188.244 457.706,-184.744 447.706,-181.244 447.706,-188.244"/>
</g>
<!-- node35 -->
<g id="node23" class="node"><title>node35</title>
<polygon fill="lightgrey" stroke="none" points="601.787,-197.237 547.787,-197.237 547.787,-172.251 601.787,-172.251 601.787,-197.237"/>
<text text-anchor="middle" x="574.787" y="-181.788" font-family="'/usr/share/fonts/truetype/wqy/wqy-microhei.ttc'" font-size="14.00">NULL</text>
</g>
<!-- node34&#45;&gt;node35 -->
<g id="edge22" class="edge"><title>node34&#45;&gt;node35</title>
<path fill="none" stroke="black" stroke-width="2" d="M512.19,-184.744C520.18,-184.744 529.098,-184.744 537.611,-184.744"/>
<polygon fill="black" stroke="black" stroke-width="2" points="537.706,-188.244 547.706,-184.744 537.706,-181.244 537.706,-188.244"/>
</g>
<!-- node41 -->
<g id="node25" class="node"><title>node41</title>
<polygon fill="#fadcad" stroke="black" points="187.787,-129.5 187.787,-153.988 241.787,-153.988 241.787,-129.5 187.787,-129.5"/>
<text text-anchor="middle" x="214.787" y="-138.788" font-family="'/usr/share/fonts/truetype/wqy/wqy-microhei.ttc'" font-size="14.00">Entry</text>
</g>
<!-- node4&#45;&gt;node41 -->
<g id="edge24" class="edge"><title>node4&#45;&gt;node41</title>
<path fill="none" stroke="black" stroke-width="2" d="M152.19,-141.744C160.18,-141.744 169.098,-141.744 177.611,-141.744"/>
<polygon fill="black" stroke="black" stroke-width="2" points="177.706,-145.244 187.706,-141.744 177.706,-138.244 177.706,-145.244"/>
</g>
<!-- node42 -->
<g id="node26" class="node"><title>node42</title>
<polygon fill="lightgrey" stroke="none" points="331.787,-154.237 277.787,-154.237 277.787,-129.251 331.787,-129.251 331.787,-154.237"/>
<text text-anchor="middle" x="304.787" y="-138.788" font-family="'/usr/share/fonts/truetype/wqy/wqy-microhei.ttc'" font-size="14.00">NULL</text>
</g>
<!-- node41&#45;&gt;node42 -->
<g id="edge25" class="edge"><title>node41&#45;&gt;node42</title>
<path fill="none" stroke="black" stroke-width="2" d="M242.19,-141.744C250.18,-141.744 259.098,-141.744 267.611,-141.744"/>
<polygon fill="black" stroke="black" stroke-width="2" points="267.706,-145.244 277.706,-141.744 267.706,-138.244 267.706,-145.244"/>
</g>
<!-- node51 -->
<g id="node28" class="node"><title>node51</title>
<polygon fill="#fadcad" stroke="black" points="187.787,-86.5 187.787,-110.988 241.787,-110.988 241.787,-86.5 187.787,-86.5"/>
<text text-anchor="middle" x="214.787" y="-95.7883" font-family="'/usr/share/fonts/truetype/wqy/wqy-microhei.ttc'" font-size="14.00">Entry</text>
</g>
<!-- node5&#45;&gt;node51 -->
<g id="edge27" class="edge"><title>node5&#45;&gt;node51</title>
<path fill="none" stroke="black" stroke-width="2" d="M152.19,-98.7441C160.18,-98.7441 169.098,-98.7441 177.611,-98.7441"/>
<polygon fill="black" stroke="black" stroke-width="2" points="177.706,-102.244 187.706,-98.7441 177.706,-95.2442 177.706,-102.244"/>
</g>
<!-- node52 -->
<g id="node29" class="node"><title>node52</title>
<polygon fill="#fadcad" stroke="black" points="277.787,-86.5 277.787,-110.988 331.787,-110.988 331.787,-86.5 277.787,-86.5"/>
<text text-anchor="middle" x="304.787" y="-95.7883" font-family="'/usr/share/fonts/truetype/wqy/wqy-microhei.ttc'" font-size="14.00">Entry</text>
</g>
<!-- node51&#45;&gt;node52 -->
<g id="edge28" class="edge"><title>node51&#45;&gt;node52</title>
<path fill="none" stroke="black" stroke-width="2" d="M242.19,-98.7441C250.18,-98.7441 259.098,-98.7441 267.611,-98.7441"/>
<polygon fill="black" stroke="black" stroke-width="2" points="267.706,-102.244 277.706,-98.7441 267.706,-95.2442 267.706,-102.244"/>
</g>
<!-- node53 -->
<g id="node30" class="node"><title>node53</title>
<polygon fill="#fadcad" stroke="black" points="367.787,-86.5 367.787,-110.988 421.787,-110.988 421.787,-86.5 367.787,-86.5"/>
<text text-anchor="middle" x="394.787" y="-95.7883" font-family="'/usr/share/fonts/truetype/wqy/wqy-microhei.ttc'" font-size="14.00">Entry</text>
</g>
<!-- node52&#45;&gt;node53 -->
<g id="edge29" class="edge"><title>node52&#45;&gt;node53</title>
<path fill="none" stroke="black" stroke-width="2" d="M332.19,-98.7441C340.18,-98.7441 349.098,-98.7441 357.611,-98.7441"/>
<polygon fill="black" stroke="black" stroke-width="2" points="357.706,-102.244 367.706,-98.7441 357.706,-95.2442 357.706,-102.244"/>
</g>
<!-- node54 -->
<g id="node31" class="node"><title>node54</title>
<polygon fill="#fadcad" stroke="black" points="457.787,-86.5 457.787,-110.988 511.787,-110.988 511.787,-86.5 457.787,-86.5"/>
<text text-anchor="middle" x="484.787" y="-95.7883" font-family="'/usr/share/fonts/truetype/wqy/wqy-microhei.ttc'" font-size="14.00">Entry</text>
</g>
<!-- node53&#45;&gt;node54 -->
<g id="edge30" class="edge"><title>node53&#45;&gt;node54</title>
<path fill="none" stroke="black" stroke-width="2" d="M422.19,-98.7441C430.18,-98.7441 439.098,-98.7441 447.611,-98.7441"/>
<polygon fill="black" stroke="black" stroke-width="2" points="447.706,-102.244 457.706,-98.7441 447.706,-95.2442 447.706,-102.244"/>
</g>
<!-- node55 -->
<g id="node32" class="node"><title>node55</title>
<polygon fill="lightgrey" stroke="none" points="601.787,-111.237 547.787,-111.237 547.787,-86.2509 601.787,-86.2509 601.787,-111.237"/>
<text text-anchor="middle" x="574.787" y="-95.7883" font-family="'/usr/share/fonts/truetype/wqy/wqy-microhei.ttc'" font-size="14.00">NULL</text>
</g>
<!-- node54&#45;&gt;node55 -->
<g id="edge31" class="edge"><title>node54&#45;&gt;node55</title>
<path fill="none" stroke="black" stroke-width="2" d="M512.19,-98.7441C520.18,-98.7441 529.098,-98.7441 537.611,-98.7441"/>
<polygon fill="black" stroke="black" stroke-width="2" points="537.706,-102.244 547.706,-98.7441 537.706,-95.2442 537.706,-102.244"/>
</g>
<!-- node61 -->
<g id="node34" class="node"><title>node61</title>
<polygon fill="#fadcad" stroke="black" points="187.787,-43.5 187.787,-67.9883 241.787,-67.9883 241.787,-43.5 187.787,-43.5"/>
<text text-anchor="middle" x="214.787" y="-52.7883" font-family="'/usr/share/fonts/truetype/wqy/wqy-microhei.ttc'" font-size="14.00">Entry</text>
</g>
<!-- node6&#45;&gt;node61 -->
<g id="edge33" class="edge"><title>node6&#45;&gt;node61</title>
<path fill="none" stroke="black" stroke-width="2" d="M152.19,-55.7441C160.18,-55.7441 169.098,-55.7441 177.611,-55.7441"/>
<polygon fill="black" stroke="black" stroke-width="2" points="177.706,-59.2442 187.706,-55.7441 177.706,-52.2442 177.706,-59.2442"/>
</g>
<!-- node62 -->
<g id="node35" class="node"><title>node62</title>
<polygon fill="#fadcad" stroke="black" points="277.787,-43.5 277.787,-67.9883 331.787,-67.9883 331.787,-43.5 277.787,-43.5"/>
<text text-anchor="middle" x="304.787" y="-52.7883" font-family="'/usr/share/fonts/truetype/wqy/wqy-microhei.ttc'" font-size="14.00">Entry</text>
</g>
<!-- node61&#45;&gt;node62 -->
<g id="edge34" class="edge"><title>node61&#45;&gt;node62</title>
<path fill="none" stroke="black" stroke-width="2" d="M242.19,-55.7441C250.18,-55.7441 259.098,-55.7441 267.611,-55.7441"/>
<polygon fill="black" stroke="black" stroke-width="2" points="267.706,-59.2442 277.706,-55.7441 267.706,-52.2442 267.706,-59.2442"/>
</g>
<!-- node63 -->
<g id="node36" class="node"><title>node63</title>
<polygon fill="#fadcad" stroke="black" points="367.787,-43.5 367.787,-67.9883 421.787,-67.9883 421.787,-43.5 367.787,-43.5"/>
<text text-anchor="middle" x="394.787" y="-52.7883" font-family="'/usr/share/fonts/truetype/wqy/wqy-microhei.ttc'" font-size="14.00">Entry</text>
</g>
<!-- node62&#45;&gt;node63 -->
<g id="edge35" class="edge"><title>node62&#45;&gt;node63</title>
<path fill="none" stroke="black" stroke-width="2" d="M332.19,-55.7441C340.18,-55.7441 349.098,-55.7441 357.611,-55.7441"/>
<polygon fill="black" stroke="black" stroke-width="2" points="357.706,-59.2442 367.706,-55.7441 357.706,-52.2442 357.706,-59.2442"/>
</g>
<!-- node64 -->
<g id="node37" class="node"><title>node64</title>
<polygon fill="lightgrey" stroke="none" points="511.787,-68.2374 457.787,-68.2374 457.787,-43.2509 511.787,-43.2509 511.787,-68.2374"/>
<text text-anchor="middle" x="484.787" y="-52.7883" font-family="'/usr/share/fonts/truetype/wqy/wqy-microhei.ttc'" font-size="14.00">NULL</text>
</g>
<!-- node63&#45;&gt;node64 -->
<g id="edge36" class="edge"><title>node63&#45;&gt;node64</title>
<path fill="none" stroke="black" stroke-width="2" d="M422.19,-55.7441C430.18,-55.7441 439.098,-55.7441 447.611,-55.7441"/>
<polygon fill="black" stroke="black" stroke-width="2" points="447.706,-59.2442 457.706,-55.7441 447.706,-52.2442 447.706,-59.2442"/>
</g>
<!-- node71 -->
<g id="node39" class="node"><title>node71</title>
<polygon fill="#fadcad" stroke="black" points="187.787,-0.5 187.787,-24.9883 241.787,-24.9883 241.787,-0.5 187.787,-0.5"/>
<text text-anchor="middle" x="214.787" y="-9.78828" font-family="'/usr/share/fonts/truetype/wqy/wqy-microhei.ttc'" font-size="14.00">Entry</text>
</g>
<!-- node7&#45;&gt;node71 -->
<g id="edge38" class="edge"><title>node7&#45;&gt;node71</title>
<path fill="none" stroke="black" stroke-width="2" d="M152.19,-12.7441C160.18,-12.7441 169.098,-12.7441 177.611,-12.7441"/>
<polygon fill="black" stroke="black" stroke-width="2" points="177.706,-16.2442 187.706,-12.7441 177.706,-9.24424 177.706,-16.2442"/>
</g>
<!-- node72 -->
<g id="node40" class="node"><title>node72</title>
<polygon fill="#fadcad" stroke="black" points="277.787,-0.5 277.787,-24.9883 331.787,-24.9883 331.787,-0.5 277.787,-0.5"/>
<text text-anchor="middle" x="304.787" y="-9.78828" font-family="'/usr/share/fonts/truetype/wqy/wqy-microhei.ttc'" font-size="14.00">Entry</text>
</g>
<!-- node71&#45;&gt;node72 -->
<g id="edge39" class="edge"><title>node71&#45;&gt;node72</title>
<path fill="none" stroke="black" stroke-width="2" d="M242.19,-12.7441C250.18,-12.7441 259.098,-12.7441 267.611,-12.7441"/>
<polygon fill="black" stroke="black" stroke-width="2" points="267.706,-16.2442 277.706,-12.7441 267.706,-9.24424 267.706,-16.2442"/>
</g>
<!-- node73 -->
<g id="node41" class="node"><title>node73</title>
<polygon fill="#fadcad" stroke="black" points="367.787,-0.5 367.787,-24.9883 421.787,-24.9883 421.787,-0.5 367.787,-0.5"/>
<text text-anchor="middle" x="394.787" y="-9.78828" font-family="'/usr/share/fonts/truetype/wqy/wqy-microhei.ttc'" font-size="14.00">Entry</text>
</g>
<!-- node72&#45;&gt;node73 -->
<g id="edge40" class="edge"><title>node72&#45;&gt;node73</title>
<path fill="none" stroke="black" stroke-width="2" d="M332.19,-12.7441C340.18,-12.7441 349.098,-12.7441 357.611,-12.7441"/>
<polygon fill="black" stroke="black" stroke-width="2" points="357.706,-16.2442 367.706,-12.7441 357.706,-9.24424 357.706,-16.2442"/>
</g>
<!-- node74 -->
<g id="node42" class="node"><title>node74</title>
<polygon fill="#fadcad" stroke="black" points="457.787,-0.5 457.787,-24.9883 511.787,-24.9883 511.787,-0.5 457.787,-0.5"/>
<text text-anchor="middle" x="484.787" y="-9.78828" font-family="'/usr/share/fonts/truetype/wqy/wqy-microhei.ttc'" font-size="14.00">Entry</text>
</g>
<!-- node73&#45;&gt;node74 -->
<g id="edge41" class="edge"><title>node73&#45;&gt;node74</title>
<path fill="none" stroke="black" stroke-width="2" d="M422.19,-12.7441C430.18,-12.7441 439.098,-12.7441 447.611,-12.7441"/>
<polygon fill="black" stroke="black" stroke-width="2" points="447.706,-16.2442 457.706,-12.7441 447.706,-9.24424 447.706,-16.2442"/>
</g>
<!-- node75 -->
<g id="node43" class="node"><title>node75</title>
<polygon fill="lightgrey" stroke="none" points="601.787,-25.2374 547.787,-25.2374 547.787,-0.250892 601.787,-0.250892 601.787,-25.2374"/>
<text text-anchor="middle" x="574.787" y="-9.78828" font-family="'/usr/share/fonts/truetype/wqy/wqy-microhei.ttc'" font-size="14.00">NULL</text>
</g>
<!-- node74&#45;&gt;node75 -->
<g id="edge42" class="edge"><title>node74&#45;&gt;node75</title>
<path fill="none" stroke="black" stroke-width="2" d="M512.19,-12.7441C520.18,-12.7441 529.098,-12.7441 537.611,-12.7441"/>
<polygon fill="black" stroke="black" stroke-width="2" points="537.706,-16.2442 547.706,-12.7441 537.706,-9.24424 537.706,-16.2442"/>
</g>
</g>
</svg>
