<?xml version="1.0" encoding="UTF-8" standalone="no"?>
<!DOCTYPE svg PUBLIC "-//W3C//DTD SVG 1.1//EN"
 "http://www.w3.org/Graphics/SVG/1.1/DTD/svg11.dtd">
<!-- Generated by graphviz version 2.38.0 (20140413.2041)
 -->
<!-- Title: pubsub Pages: 1 -->
<svg width="524pt" height="167pt"
 viewBox="0.00 0.00 524.10 167.46" xmlns="http://www.w3.org/2000/svg" xmlns:xlink="http://www.w3.org/1999/xlink">
<g id="graph0" class="graph" transform="scale(1 1) rotate(0) translate(4 163.465)">
<title>pubsub</title>
<polygon fill="white" stroke="none" points="-4,4 -4,-163.465 520.099,-163.465 520.099,4 -4,4"/>
<!-- pubsub -->
<g id="node1" class="node"><title>pubsub</title>
<polygon fill="#a8e270" stroke="black" points="0,-0.5 0,-147.43 132.573,-147.43 132.573,-0.5 0,-0.5"/>
<text text-anchor="middle" x="66.2866" y="-132.23" font-family="'/usr/share/fonts/truetype/wqy/wqy-microhei.ttc'" font-size="14.00">pubsub_channels</text>
<polyline fill="none" stroke="black" points="0,-122.941 132.573,-122.941 "/>
<text text-anchor="middle" x="66.2866" y="-107.741" font-family="'/usr/share/fonts/truetype/wqy/wqy-microhei.ttc'" font-size="14.00">channel1</text>
<polyline fill="none" stroke="black" points="0,-98.4531 132.573,-98.4531 "/>
<text text-anchor="middle" x="66.2866" y="-83.2531" font-family="'/usr/share/fonts/truetype/wqy/wqy-microhei.ttc'" font-size="14.00">channel2</text>
<polyline fill="none" stroke="black" points="0,-73.9648 132.573,-73.9648 "/>
<text text-anchor="middle" x="66.2866" y="-58.7648" font-family="'/usr/share/fonts/truetype/wqy/wqy-microhei.ttc'" font-size="14.00">channel3</text>
<polyline fill="none" stroke="black" points="0,-49.4766 132.573,-49.4766 "/>
<text text-anchor="middle" x="66.2866" y="-34.2766" font-family="'/usr/share/fonts/truetype/wqy/wqy-microhei.ttc'" font-size="14.00">...</text>
<polyline fill="none" stroke="black" points="0,-24.9883 132.573,-24.9883 "/>
<text text-anchor="middle" x="66.2866" y="-9.78828" font-family="'/usr/share/fonts/truetype/wqy/wqy-microhei.ttc'" font-size="14.00">channelN</text>
</g>
<!-- client2 -->
<g id="node4" class="node"><title>client2</title>
<polygon fill="#95bbe3" stroke="black" points="168.573,-122.965 168.573,-158.965 230.415,-158.965 230.415,-122.965 168.573,-122.965"/>
<text text-anchor="middle" x="199.494" y="-138.265" font-family="'/usr/share/fonts/truetype/wqy/wqy-microhei.ttc'" font-size="14.00">client2</text>
</g>
<!-- pubsub&#45;&gt;client2 -->
<g id="edge1" class="edge"><title>pubsub:channel1&#45;&gt;client2</title>
<path fill="none" stroke="black" stroke-width="2" d="M132.573,-110.965C142.947,-110.965 153.48,-114.08 162.994,-118.304"/>
<polygon fill="black" stroke="black" stroke-width="2" points="161.608,-121.523 172.123,-122.822 164.713,-115.249 161.608,-121.523"/>
</g>
<!-- client7 -->
<g id="node6" class="node"><title>client7</title>
<polygon fill="#95bbe3" stroke="black" points="168.573,-67.9648 168.573,-103.965 230.415,-103.965 230.415,-67.9648 168.573,-67.9648"/>
<text text-anchor="middle" x="199.494" y="-83.2648" font-family="'/usr/share/fonts/truetype/wqy/wqy-microhei.ttc'" font-size="14.00">client7</text>
</g>
<!-- pubsub&#45;&gt;client7 -->
<g id="edge5" class="edge"><title>pubsub:channel2&#45;&gt;client7</title>
<path fill="none" stroke="black" stroke-width="2" d="M132.573,-85.9648C140.872,-85.9648 149.759,-85.9648 158.235,-85.9648"/>
<polygon fill="black" stroke="black" stroke-width="2" points="158.302,-89.4649 168.302,-85.9648 158.302,-82.4649 158.302,-89.4649"/>
</g>
<!-- client3 -->
<g id="node8" class="node"><title>client3</title>
<polygon fill="#95bbe3" stroke="black" points="168.573,-12.9648 168.573,-48.9648 230.415,-48.9648 230.415,-12.9648 168.573,-12.9648"/>
<text text-anchor="middle" x="199.494" y="-28.2648" font-family="'/usr/share/fonts/truetype/wqy/wqy-microhei.ttc'" font-size="14.00">client3</text>
</g>
<!-- pubsub&#45;&gt;client3 -->
<g id="edge7" class="edge"><title>pubsub:channel3&#45;&gt;client3</title>
<path fill="none" stroke="black" stroke-width="2" d="M132.573,-61.9648C143.499,-61.9648 154.558,-58.4345 164.416,-53.7566"/>
<polygon fill="black" stroke="black" stroke-width="2" points="166.237,-56.7531 173.456,-48.9977 162.976,-50.559 166.237,-56.7531"/>
</g>
<!-- client1 -->
<g id="node2" class="node"><title>client1</title>
<polygon fill="#95bbe3" stroke="black" points="364.257,-122.965 364.257,-158.965 426.099,-158.965 426.099,-122.965 364.257,-122.965"/>
<text text-anchor="middle" x="395.178" y="-138.265" font-family="'/usr/share/fonts/truetype/wqy/wqy-microhei.ttc'" font-size="14.00">client1</text>
</g>
<!-- null_1 -->
<g id="node5" class="node"><title>null_1</title>
<polygon fill="lightgrey" stroke="none" points="516.099,-158.965 462.099,-158.965 462.099,-122.965 516.099,-122.965 516.099,-158.965"/>
<text text-anchor="middle" x="489.099" y="-138.009" font-family="'/usr/share/fonts/truetype/wqy/wqy-microhei.ttc'" font-size="14.00">NULL</text>
</g>
<!-- client1&#45;&gt;null_1 -->
<g id="edge4" class="edge"><title>client1&#45;&gt;null_1</title>
<path fill="none" stroke="black" stroke-width="2" d="M426.276,-140.965C434.465,-140.965 443.421,-140.965 451.909,-140.965"/>
<polygon fill="black" stroke="black" stroke-width="2" points="451.95,-144.465 461.95,-140.965 451.95,-137.465 451.95,-144.465"/>
</g>
<!-- client5 -->
<g id="node3" class="node"><title>client5</title>
<polygon fill="#95bbe3" stroke="black" points="266.415,-122.965 266.415,-158.965 328.257,-158.965 328.257,-122.965 266.415,-122.965"/>
<text text-anchor="middle" x="297.336" y="-138.265" font-family="'/usr/share/fonts/truetype/wqy/wqy-microhei.ttc'" font-size="14.00">client5</text>
</g>
<!-- client5&#45;&gt;client1 -->
<g id="edge3" class="edge"><title>client5&#45;&gt;client1</title>
<path fill="none" stroke="black" stroke-width="2" d="M328.398,-140.965C336.516,-140.965 345.432,-140.965 354.007,-140.965"/>
<polygon fill="black" stroke="black" stroke-width="2" points="354.222,-144.465 364.222,-140.965 354.222,-137.465 354.222,-144.465"/>
</g>
<!-- client2&#45;&gt;client5 -->
<g id="edge2" class="edge"><title>client2&#45;&gt;client5</title>
<path fill="none" stroke="black" stroke-width="2" d="M230.556,-140.965C238.674,-140.965 247.59,-140.965 256.165,-140.965"/>
<polygon fill="black" stroke="black" stroke-width="2" points="256.381,-144.465 266.381,-140.965 256.381,-137.465 256.381,-144.465"/>
</g>
<!-- null_2 -->
<g id="node7" class="node"><title>null_2</title>
<polygon fill="lightgrey" stroke="none" points="324.336,-103.965 270.336,-103.965 270.336,-67.9648 324.336,-67.9648 324.336,-103.965"/>
<text text-anchor="middle" x="297.336" y="-83.009" font-family="'/usr/share/fonts/truetype/wqy/wqy-microhei.ttc'" font-size="14.00">NULL</text>
</g>
<!-- client7&#45;&gt;null_2 -->
<g id="edge6" class="edge"><title>client7&#45;&gt;null_2</title>
<path fill="none" stroke="black" stroke-width="2" d="M230.556,-85.9648C239.909,-85.9648 250.321,-85.9648 260.052,-85.9648"/>
<polygon fill="black" stroke="black" stroke-width="2" points="260.262,-89.4649 270.261,-85.9648 260.261,-82.4649 260.262,-89.4649"/>
</g>
<!-- client4 -->
<g id="node9" class="node"><title>client4</title>
<polygon fill="#95bbe3" stroke="black" points="266.415,-12.9648 266.415,-48.9648 328.257,-48.9648 328.257,-12.9648 266.415,-12.9648"/>
<text text-anchor="middle" x="297.336" y="-28.2648" font-family="'/usr/share/fonts/truetype/wqy/wqy-microhei.ttc'" font-size="14.00">client4</text>
</g>
<!-- client3&#45;&gt;client4 -->
<g id="edge8" class="edge"><title>client3&#45;&gt;client4</title>
<path fill="none" stroke="black" stroke-width="2" d="M230.556,-30.9648C238.674,-30.9648 247.59,-30.9648 256.165,-30.9648"/>
<polygon fill="black" stroke="black" stroke-width="2" points="256.381,-34.4649 266.381,-30.9648 256.381,-27.4649 256.381,-34.4649"/>
</g>
<!-- client6 -->
<g id="node10" class="node"><title>client6</title>
<polygon fill="#95bbe3" stroke="black" points="364.257,-12.9648 364.257,-48.9648 426.099,-48.9648 426.099,-12.9648 364.257,-12.9648"/>
<text text-anchor="middle" x="395.178" y="-28.2648" font-family="'/usr/share/fonts/truetype/wqy/wqy-microhei.ttc'" font-size="14.00">client6</text>
</g>
<!-- client4&#45;&gt;client6 -->
<g id="edge9" class="edge"><title>client4&#45;&gt;client6</title>
<path fill="none" stroke="black" stroke-width="2" d="M328.398,-30.9648C336.516,-30.9648 345.432,-30.9648 354.007,-30.9648"/>
<polygon fill="black" stroke="black" stroke-width="2" points="354.222,-34.4649 364.222,-30.9648 354.222,-27.4649 354.222,-34.4649"/>
</g>
<!-- null_3 -->
<g id="node11" class="node"><title>null_3</title>
<polygon fill="lightgrey" stroke="none" points="516.099,-48.9648 462.099,-48.9648 462.099,-12.9648 516.099,-12.9648 516.099,-48.9648"/>
<text text-anchor="middle" x="489.099" y="-28.009" font-family="'/usr/share/fonts/truetype/wqy/wqy-microhei.ttc'" font-size="14.00">NULL</text>
</g>
<!-- client6&#45;&gt;null_3 -->
<g id="edge10" class="edge"><title>client6&#45;&gt;null_3</title>
<path fill="none" stroke="black" stroke-width="2" d="M426.276,-30.9648C434.465,-30.9648 443.421,-30.9648 451.909,-30.9648"/>
<polygon fill="black" stroke="black" stroke-width="2" points="451.95,-34.4649 461.95,-30.9648 451.95,-27.4649 451.95,-34.4649"/>
</g>
</g>
</svg>
