<?xml version="1.0" encoding="UTF-8" standalone="no"?>
<!DOCTYPE svg PUBLIC "-//W3C//DTD SVG 1.1//EN"
 "http://www.w3.org/Graphics/SVG/1.1/DTD/svg11.dtd">
<!-- Generated by graphviz version 2.38.0 (20140413.2041)
 -->
<!-- Title: pattern_relation Pages: 1 -->
<svg width="644pt" height="216pt"
 viewBox="0.00 0.00 644.08 216.00" xmlns="http://www.w3.org/2000/svg" xmlns:xlink="http://www.w3.org/1999/xlink">
<g id="graph0" class="graph" transform="scale(1 1) rotate(0) translate(4 212)">
<title>pattern_relation</title>
<polygon fill="white" stroke="none" points="-4,4 -4,-212 640.076,-212 640.076,4 -4,4"/>
<!-- kindle -->
<g id="node1" class="node"><title>kindle</title>
<ellipse fill="#a8e270" stroke="black" cx="516.2" cy="-190" rx="92.7103" ry="18"/>
<text text-anchor="middle" x="516.2" y="-187.044" font-family="'/usr/share/fonts/truetype/wqy/wqy-microhei.ttc'" font-size="14.00">tweet.shop.kindle</text>
</g>
<!-- ipad -->
<g id="node2" class="node"><title>ipad</title>
<ellipse fill="#a8e270" stroke="black" cx="203.2" cy="-190" rx="84.2406" ry="18"/>
<text text-anchor="middle" x="203.2" y="-187.044" font-family="'/usr/share/fonts/truetype/wqy/wqy-microhei.ttc'" font-size="14.00">tweet.shop.ipad</text>
</g>
<!-- pattern -->
<g id="node3" class="node"><title>pattern</title>
<polygon fill="lightgrey" stroke="black" points="467.89,-96.5442 467.89,-111.456 424.138,-122 362.262,-122 318.509,-111.456 318.509,-96.5442 362.262,-86 424.138,-86 467.89,-96.5442"/>
<text text-anchor="middle" x="393.2" y="-101.044" font-family="'/usr/share/fonts/truetype/wqy/wqy-microhei.ttc'" font-size="14.00">tweet.shop.*</text>
</g>
<!-- pattern&#45;&gt;kindle -->
<g id="edge1" class="edge"><title>pattern&#45;&gt;kindle</title>
<path fill="none" stroke="black" stroke-width="2" d="M418.387,-122.201C437.206,-135.053 463.091,-152.731 483.506,-166.673"/>
<polygon fill="black" stroke="black" stroke-width="2" points="481.652,-169.645 491.884,-172.394 485.6,-163.864 481.652,-169.645"/>
<text text-anchor="middle" x="479.303" y="-142.8" font-family="Times,serif" font-size="14.00">match</text>
</g>
<!-- pattern&#45;&gt;ipad -->
<g id="edge2" class="edge"><title>pattern&#45;&gt;ipad</title>
<path fill="none" stroke="black" stroke-width="2" d="M362.79,-122.145C344.623,-132.059 320.925,-144.427 299.2,-154 285.482,-160.045 270.361,-165.912 256.258,-171.061"/>
<polygon fill="black" stroke="black" stroke-width="2" points="254.911,-167.826 246.686,-174.504 257.28,-174.413 254.911,-167.826"/>
<text text-anchor="middle" x="345.303" y="-142.8" font-family="Times,serif" font-size="14.00">match</text>
</g>
<!-- client123 -->
<g id="node4" class="node"><title>client123</title>
<polygon fill="#95bbe3" stroke="black" points="383.748,-36 304.652,-36 304.652,-0 383.748,-0 383.748,-36"/>
<text text-anchor="middle" x="344.2" y="-15.0441" font-family="'/usr/share/fonts/truetype/wqy/wqy-microhei.ttc'" font-size="14.00">client123</text>
</g>
<!-- client123&#45;&gt;pattern -->
<g id="edge3" class="edge"><title>client123&#45;&gt;pattern</title>
<path fill="none" stroke="black" stroke-width="2" d="M351.328,-36.2039C355.546,-45.7975 361.242,-57.8267 367.324,-68 369.163,-71.0769 371.209,-74.2153 373.322,-77.2867"/>
<polygon fill="black" stroke="black" stroke-width="2" points="370.661,-79.581 379.339,-85.6588 376.345,-75.4957 370.661,-79.581"/>
<text text-anchor="middle" x="394.638" y="-56.8" font-family="Times,serif" font-size="14.00">subscribe</text>
</g>
<!-- client256 -->
<g id="node5" class="node"><title>client256</title>
<polygon fill="#95bbe3" stroke="black" points="481.748,-36 402.652,-36 402.652,-0 481.748,-0 481.748,-36"/>
<text text-anchor="middle" x="442.2" y="-15.0441" font-family="'/usr/share/fonts/truetype/wqy/wqy-microhei.ttc'" font-size="14.00">client256</text>
</g>
<!-- client256&#45;&gt;pattern -->
<g id="edge4" class="edge"><title>client256&#45;&gt;pattern</title>
<path fill="none" stroke="black" stroke-width="2" d="M435.612,-36.2757C431.66,-45.8919 426.236,-57.9195 420.2,-68 418.273,-71.218 416.097,-74.483 413.839,-77.6597"/>
<polygon fill="black" stroke="black" stroke-width="2" points="410.961,-75.664 407.779,-85.7697 416.568,-79.854 410.961,-75.664"/>
<text text-anchor="middle" x="453.638" y="-56.8" font-family="Times,serif" font-size="14.00">subscribe</text>
</g>
<!-- clientX -->
<g id="node6" class="node"><title>clientX</title>
<polygon fill="#95bbe3" stroke="black" points="546.953,-122 485.446,-122 485.446,-86 546.953,-86 546.953,-122"/>
<text text-anchor="middle" x="516.2" y="-101.044" font-family="'/usr/share/fonts/truetype/wqy/wqy-microhei.ttc'" font-size="14.00">clientX</text>
</g>
<!-- clientX&#45;&gt;kindle -->
<g id="edge5" class="edge"><title>clientX&#45;&gt;kindle</title>
<path fill="none" stroke="black" stroke-width="2" d="M516.2,-122.405C516.2,-133.743 516.2,-148.773 516.2,-161.685"/>
<polygon fill="black" stroke="black" stroke-width="2" points="512.7,-161.905 516.2,-171.905 519.7,-161.905 512.7,-161.905"/>
<text text-anchor="middle" x="542.638" y="-142.8" font-family="Times,serif" font-size="14.00">subscribe</text>
</g>
<!-- clientY -->
<g id="node7" class="node"><title>clientY</title>
<polygon fill="#95bbe3" stroke="black" points="626.912,-122 565.487,-122 565.487,-86 626.912,-86 626.912,-122"/>
<text text-anchor="middle" x="596.2" y="-101.044" font-family="'/usr/share/fonts/truetype/wqy/wqy-microhei.ttc'" font-size="14.00">clientY</text>
</g>
<!-- clientY&#45;&gt;kindle -->
<g id="edge6" class="edge"><title>clientY&#45;&gt;kindle</title>
<path fill="none" stroke="black" stroke-width="2" d="M590.887,-122.307C587.146,-132.399 581.342,-144.892 573.2,-154 568.832,-158.886 563.619,-163.319 558.147,-167.261"/>
<polygon fill="black" stroke="black" stroke-width="2" points="555.82,-164.604 549.418,-173.045 559.687,-170.439 555.82,-164.604"/>
<text text-anchor="middle" x="609.638" y="-142.8" font-family="Times,serif" font-size="14.00">subscribe</text>
</g>
<!-- client3333 -->
<g id="node8" class="node"><title>client3333</title>
<polygon fill="#95bbe3" stroke="black" points="88.6,-122 -0.200613,-122 -0.200613,-86 88.6,-86 88.6,-122"/>
<text text-anchor="middle" x="44.1997" y="-101.044" font-family="'/usr/share/fonts/truetype/wqy/wqy-microhei.ttc'" font-size="14.00">client3333</text>
</g>
<!-- client3333&#45;&gt;ipad -->
<g id="edge7" class="edge"><title>client3333&#45;&gt;ipad</title>
<path fill="none" stroke="black" stroke-width="2" d="M67.157,-122.148C81.2001,-132.183 99.7827,-144.673 117.324,-154 128.428,-159.904 140.752,-165.464 152.517,-170.34"/>
<polygon fill="black" stroke="black" stroke-width="2" points="151.216,-173.589 161.798,-174.098 153.842,-167.101 151.216,-173.589"/>
<text text-anchor="middle" x="144.638" y="-142.8" font-family="Times,serif" font-size="14.00">subscribe</text>
</g>
<!-- client4444 -->
<g id="node9" class="node"><title>client4444</title>
<polygon fill="#95bbe3" stroke="black" points="194.6,-122 105.799,-122 105.799,-86 194.6,-86 194.6,-122"/>
<text text-anchor="middle" x="150.2" y="-101.044" font-family="'/usr/share/fonts/truetype/wqy/wqy-microhei.ttc'" font-size="14.00">client4444</text>
</g>
<!-- client4444&#45;&gt;ipad -->
<g id="edge8" class="edge"><title>client4444&#45;&gt;ipad</title>
<path fill="none" stroke="black" stroke-width="2" d="M161.181,-122.405C168.621,-134.196 178.581,-149.981 186.936,-163.224"/>
<polygon fill="black" stroke="black" stroke-width="2" points="184.117,-165.315 192.413,-171.905 190.037,-161.58 184.117,-165.315"/>
<text text-anchor="middle" x="206.638" y="-142.8" font-family="Times,serif" font-size="14.00">subscribe</text>
</g>
<!-- client5555 -->
<g id="node10" class="node"><title>client5555</title>
<polygon fill="#95bbe3" stroke="black" points="300.6,-122 211.799,-122 211.799,-86 300.6,-86 300.6,-122"/>
<text text-anchor="middle" x="256.2" y="-101.044" font-family="'/usr/share/fonts/truetype/wqy/wqy-microhei.ttc'" font-size="14.00">client5555</text>
</g>
<!-- client5555&#45;&gt;ipad -->
<g id="edge9" class="edge"><title>client5555&#45;&gt;ipad</title>
<path fill="none" stroke="black" stroke-width="2" d="M249.873,-122.438C246.003,-132.105 240.574,-144.13 234.2,-154 231.984,-157.431 229.442,-160.865 226.787,-164.168"/>
<polygon fill="black" stroke="black" stroke-width="2" points="223.904,-162.155 220.078,-172.035 229.23,-166.698 223.904,-162.155"/>
<text text-anchor="middle" x="268.638" y="-142.8" font-family="Times,serif" font-size="14.00">subscribe</text>
</g>
</g>
</svg>
