<?xml version="1.0" encoding="UTF-8" standalone="no"?>
<!DOCTYPE svg PUBLIC "-//W3C//DTD SVG 1.1//EN"
 "http://www.w3.org/Graphics/SVG/1.1/DTD/svg11.dtd">
<!-- Generated by graphviz version 2.38.0 (20140413.2041)
 -->
<!-- Title: hash_table_example Pages: 1 -->
<svg width="683pt" height="289pt"
 viewBox="0.00 0.00 682.60 288.69" xmlns="http://www.w3.org/2000/svg" xmlns:xlink="http://www.w3.org/1999/xlink">
<g id="graph0" class="graph" transform="scale(1 1) rotate(0) translate(4 284.686)">
<title>hash_table_example</title>
<polygon fill="white" stroke="none" points="-4,4 -4,-284.686 678.597,-284.686 678.597,4 -4,4"/>
<!-- dict -->
<g id="node1" class="node"><title>dict</title>
<polygon fill="#a8e270" stroke="black" points="0,-133.256 0,-280.186 107.786,-280.186 107.786,-133.256 0,-133.256"/>
<text text-anchor="middle" x="53.8931" y="-264.986" font-family="'/usr/share/fonts/truetype/wqy/wqy-microhei.ttc'" font-size="14.00">dict</text>
<polyline fill="none" stroke="black" points="0,-255.697 107.786,-255.697 "/>
<text text-anchor="middle" x="53.8931" y="-240.497" font-family="'/usr/share/fonts/truetype/wqy/wqy-microhei.ttc'" font-size="14.00">type</text>
<polyline fill="none" stroke="black" points="0,-231.209 107.786,-231.209 "/>
<text text-anchor="middle" x="53.8931" y="-216.009" font-family="'/usr/share/fonts/truetype/wqy/wqy-microhei.ttc'" font-size="14.00">privdata</text>
<polyline fill="none" stroke="black" points="0,-206.721 107.786,-206.721 "/>
<text text-anchor="middle" x="53.8931" y="-191.521" font-family="'/usr/share/fonts/truetype/wqy/wqy-microhei.ttc'" font-size="14.00">ht[2]</text>
<polyline fill="none" stroke="black" points="0,-182.232 107.786,-182.232 "/>
<text text-anchor="middle" x="53.8931" y="-167.032" font-family="'/usr/share/fonts/truetype/wqy/wqy-microhei.ttc'" font-size="14.00">rehashidx: &#45;1</text>
<polyline fill="none" stroke="black" points="0,-157.744 107.786,-157.744 "/>
<text text-anchor="middle" x="53.8931" y="-142.544" font-family="'/usr/share/fonts/truetype/wqy/wqy-microhei.ttc'" font-size="14.00">iterators: 0</text>
</g>
<!-- ht0 -->
<g id="node2" class="node"><title>ht0</title>
<polygon fill="#95bbe3" stroke="black" points="171,-143.5 171,-265.941 266.413,-265.941 266.413,-143.5 171,-143.5"/>
<text text-anchor="middle" x="218.707" y="-250.741" font-family="'/usr/share/fonts/truetype/wqy/wqy-microhei.ttc'" font-size="14.00">dictht</text>
<polyline fill="none" stroke="black" points="171,-241.453 266.413,-241.453 "/>
<text text-anchor="middle" x="218.707" y="-226.253" font-family="'/usr/share/fonts/truetype/wqy/wqy-microhei.ttc'" font-size="14.00">table</text>
<polyline fill="none" stroke="black" points="171,-216.965 266.413,-216.965 "/>
<text text-anchor="middle" x="218.707" y="-201.765" font-family="'/usr/share/fonts/truetype/wqy/wqy-microhei.ttc'" font-size="14.00">size: 4</text>
<polyline fill="none" stroke="black" points="171,-192.477 266.413,-192.477 "/>
<text text-anchor="middle" x="218.707" y="-177.277" font-family="'/usr/share/fonts/truetype/wqy/wqy-microhei.ttc'" font-size="14.00">sizemask: 3</text>
<polyline fill="none" stroke="black" points="171,-167.988 266.413,-167.988 "/>
<text text-anchor="middle" x="218.707" y="-152.788" font-family="'/usr/share/fonts/truetype/wqy/wqy-microhei.ttc'" font-size="14.00">used: 3</text>
</g>
<!-- dict&#45;&gt;ht0 -->
<g id="edge1" class="edge"><title>dict:ht&#45;&gt;ht0:dictht</title>
<path fill="none" stroke="black" stroke-width="2" d="M107.786,-194.721C142.314,-194.721 134.804,-242.345 160.793,-252.019"/>
<polygon fill="black" stroke="black" stroke-width="2" points="160.56,-255.528 171,-253.721 161.712,-248.623 160.56,-255.528"/>
<text text-anchor="middle" x="139.393" y="-249.521" font-family="Times,serif" font-size="14.00">ht[0]</text>
</g>
<!-- ht1 -->
<g id="node3" class="node"><title>ht1</title>
<polygon fill="#95bbe3" stroke="black" points="171,-0.5 171,-122.941 266.413,-122.941 266.413,-0.5 171,-0.5"/>
<text text-anchor="middle" x="218.707" y="-107.741" font-family="'/usr/share/fonts/truetype/wqy/wqy-microhei.ttc'" font-size="14.00">dictht</text>
<polyline fill="none" stroke="black" points="171,-98.4531 266.413,-98.4531 "/>
<text text-anchor="middle" x="218.707" y="-83.2531" font-family="'/usr/share/fonts/truetype/wqy/wqy-microhei.ttc'" font-size="14.00">table</text>
<polyline fill="none" stroke="black" points="171,-73.9648 266.413,-73.9648 "/>
<text text-anchor="middle" x="218.707" y="-58.7648" font-family="'/usr/share/fonts/truetype/wqy/wqy-microhei.ttc'" font-size="14.00">size: 0</text>
<polyline fill="none" stroke="black" points="171,-49.4766 266.413,-49.4766 "/>
<text text-anchor="middle" x="218.707" y="-34.2766" font-family="'/usr/share/fonts/truetype/wqy/wqy-microhei.ttc'" font-size="14.00">sizemask: 0</text>
<polyline fill="none" stroke="black" points="171,-24.9883 266.413,-24.9883 "/>
<text text-anchor="middle" x="218.707" y="-9.78828" font-family="'/usr/share/fonts/truetype/wqy/wqy-microhei.ttc'" font-size="14.00">used: 0</text>
</g>
<!-- dict&#45;&gt;ht1 -->
<g id="edge2" class="edge"><title>dict:ht&#45;&gt;ht1:dictht</title>
<path fill="none" stroke="black" stroke-width="2" d="M107.786,-194.721C127.954,-194.721 143.001,-132.119 161.768,-115.002"/>
<polygon fill="black" stroke="black" stroke-width="2" points="163.4,-118.103 171,-110.721 160.456,-111.753 163.4,-118.103"/>
<text text-anchor="middle" x="139.393" y="-181.521" font-family="Times,serif" font-size="14.00">ht[1]</text>
</g>
<!-- bucket -->
<g id="node4" class="node"><title>bucket</title>
<polygon fill="#f2f2f2" stroke="black" points="303.413,-119.256 303.413,-258.186 392.612,-258.186 392.612,-119.256 303.413,-119.256"/>
<text text-anchor="middle" x="348.013" y="-242.986" font-family="'/usr/share/fonts/truetype/wqy/wqy-microhei.ttc'" font-size="14.00">dictEntry**</text>
<text text-anchor="middle" x="348.013" y="-226.497" font-family="'/usr/share/fonts/truetype/wqy/wqy-microhei.ttc'" font-size="14.00">(bucket)</text>
<polyline fill="none" stroke="black" points="303.413,-217.209 392.612,-217.209 "/>
<text text-anchor="middle" x="348.013" y="-202.009" font-family="'/usr/share/fonts/truetype/wqy/wqy-microhei.ttc'" font-size="14.00">0</text>
<polyline fill="none" stroke="black" points="303.413,-192.721 392.612,-192.721 "/>
<text text-anchor="middle" x="348.013" y="-177.521" font-family="'/usr/share/fonts/truetype/wqy/wqy-microhei.ttc'" font-size="14.00">1</text>
<polyline fill="none" stroke="black" points="303.413,-168.232 392.612,-168.232 "/>
<text text-anchor="middle" x="348.013" y="-153.032" font-family="'/usr/share/fonts/truetype/wqy/wqy-microhei.ttc'" font-size="14.00">2</text>
<polyline fill="none" stroke="black" points="303.413,-143.744 392.612,-143.744 "/>
<text text-anchor="middle" x="348.013" y="-128.544" font-family="'/usr/share/fonts/truetype/wqy/wqy-microhei.ttc'" font-size="14.00">3</text>
</g>
<!-- ht0&#45;&gt;bucket -->
<g id="edge3" class="edge"><title>ht0:table&#45;&gt;bucket:head</title>
<path fill="none" stroke="black" stroke-width="2" d="M266.413,-228.721C279.37,-228.721 284.255,-233.996 293.428,-236.469"/>
<polygon fill="black" stroke="black" stroke-width="2" points="293.055,-239.95 303.413,-237.721 293.926,-233.004 293.055,-239.95"/>
</g>
<!-- tnull1 -->
<g id="node12" class="node"><title>tnull1</title>
<polygon fill="lightgrey" stroke="none" points="375.013,-100.721 321.013,-100.721 321.013,-64.7207 375.013,-64.7207 375.013,-100.721"/>
<text text-anchor="middle" x="348.013" y="-79.7648" font-family="'/usr/share/fonts/truetype/wqy/wqy-microhei.ttc'" font-size="14.00">NULL</text>
</g>
<!-- ht1&#45;&gt;tnull1 -->
<g id="edge4" class="edge"><title>ht1:table&#45;&gt;tnull1</title>
<path fill="none" stroke="black" stroke-width="2" d="M266.413,-85.7207C280.919,-85.7207 296.883,-85.2294 310.75,-84.6445"/>
<polygon fill="black" stroke="black" stroke-width="2" points="311.055,-88.1344 320.887,-84.1855 310.739,-81.1416 311.055,-88.1344"/>
</g>
<!-- pair_1 -->
<g id="node5" class="node"><title>pair_1</title>
<polygon fill="#fadcad" stroke="black" points="429.612,-223.232 429.612,-272.209 583.597,-272.209 583.597,-223.232 429.612,-223.232"/>
<text text-anchor="middle" x="506.604" y="-257.009" font-family="'/usr/share/fonts/truetype/wqy/wqy-microhei.ttc'" font-size="14.00">dictEntry</text>
<polyline fill="none" stroke="black" points="429.612,-247.721 583.597,-247.721 "/>
<text text-anchor="middle" x="453.578" y="-232.521" font-family="'/usr/share/fonts/truetype/wqy/wqy-microhei.ttc'" font-size="14.00">key1</text>
<polyline fill="none" stroke="black" points="477.543,-223.232 477.543,-247.721 "/>
<text text-anchor="middle" x="507.705" y="-232.521" font-family="'/usr/share/fonts/truetype/wqy/wqy-microhei.ttc'" font-size="14.00">value1</text>
<polyline fill="none" stroke="black" points="537.867,-223.232 537.867,-247.721 "/>
<text text-anchor="middle" x="560.732" y="-232.521" font-family="'/usr/share/fonts/truetype/wqy/wqy-microhei.ttc'" font-size="14.00">next</text>
</g>
<!-- bucket&#45;&gt;pair_1 -->
<g id="edge5" class="edge"><title>bucket:table0&#45;&gt;pair_1:head</title>
<path fill="none" stroke="black" stroke-width="2" d="M392.612,-204.721C417.93,-204.721 405.301,-245.34 419.946,-256.764"/>
<polygon fill="black" stroke="black" stroke-width="2" points="419.026,-260.142 429.612,-259.721 421.074,-253.448 419.026,-260.142"/>
</g>
<!-- pair_2 -->
<g id="node6" class="node"><title>pair_2</title>
<polygon fill="#fadcad" stroke="black" points="429.612,-101.232 429.612,-150.209 583.597,-150.209 583.597,-101.232 429.612,-101.232"/>
<text text-anchor="middle" x="506.604" y="-135.009" font-family="'/usr/share/fonts/truetype/wqy/wqy-microhei.ttc'" font-size="14.00">dictEntry</text>
<polyline fill="none" stroke="black" points="429.612,-125.721 583.597,-125.721 "/>
<text text-anchor="middle" x="453.578" y="-110.521" font-family="'/usr/share/fonts/truetype/wqy/wqy-microhei.ttc'" font-size="14.00">key2</text>
<polyline fill="none" stroke="black" points="477.543,-101.232 477.543,-125.721 "/>
<text text-anchor="middle" x="507.705" y="-110.521" font-family="'/usr/share/fonts/truetype/wqy/wqy-microhei.ttc'" font-size="14.00">value2</text>
<polyline fill="none" stroke="black" points="537.867,-101.232 537.867,-125.721 "/>
<text text-anchor="middle" x="560.732" y="-110.521" font-family="'/usr/share/fonts/truetype/wqy/wqy-microhei.ttc'" font-size="14.00">next</text>
</g>
<!-- bucket&#45;&gt;pair_2 -->
<g id="edge8" class="edge"><title>bucket:table2&#45;&gt;pair_2:head</title>
<path fill="none" stroke="black" stroke-width="2" d="M392.612,-155.721C406.899,-155.721 410.284,-144.734 419.802,-139.928"/>
<polygon fill="black" stroke="black" stroke-width="2" points="420.624,-143.33 429.612,-137.721 419.088,-136.501 420.624,-143.33"/>
</g>
<!-- pair_3 -->
<g id="node7" class="node"><title>pair_3</title>
<polygon fill="#fadcad" stroke="black" points="429.612,-33.2324 429.612,-82.209 583.597,-82.209 583.597,-33.2324 429.612,-33.2324"/>
<text text-anchor="middle" x="506.604" y="-67.009" font-family="'/usr/share/fonts/truetype/wqy/wqy-microhei.ttc'" font-size="14.00">dictEntry</text>
<polyline fill="none" stroke="black" points="429.612,-57.7207 583.597,-57.7207 "/>
<text text-anchor="middle" x="453.578" y="-42.5207" font-family="'/usr/share/fonts/truetype/wqy/wqy-microhei.ttc'" font-size="14.00">key3</text>
<polyline fill="none" stroke="black" points="477.543,-33.2324 477.543,-57.7207 "/>
<text text-anchor="middle" x="507.705" y="-42.5207" font-family="'/usr/share/fonts/truetype/wqy/wqy-microhei.ttc'" font-size="14.00">value3</text>
<polyline fill="none" stroke="black" points="537.867,-33.2324 537.867,-57.7207 "/>
<text text-anchor="middle" x="560.732" y="-42.5207" font-family="'/usr/share/fonts/truetype/wqy/wqy-microhei.ttc'" font-size="14.00">next</text>
</g>
<!-- bucket&#45;&gt;pair_3 -->
<g id="edge10" class="edge"><title>bucket:table3&#45;&gt;pair_3:head</title>
<path fill="none" stroke="black" stroke-width="2" d="M392.612,-131.721C420.44,-131.721 403.697,-85.0958 419.685,-72.7111"/>
<polygon fill="black" stroke="black" stroke-width="2" points="421.047,-75.9564 429.612,-69.7207 419.028,-69.2539 421.047,-75.9564"/>
</g>
<!-- null1 -->
<g id="node9" class="node"><title>null1</title>
<polygon fill="lightgrey" stroke="none" points="533.604,-204.721 479.604,-204.721 479.604,-168.721 533.604,-168.721 533.604,-204.721"/>
<text text-anchor="middle" x="506.604" y="-183.765" font-family="'/usr/share/fonts/truetype/wqy/wqy-microhei.ttc'" font-size="14.00">NULL</text>
</g>
<!-- bucket&#45;&gt;null1 -->
<g id="edge7" class="edge"><title>bucket:table1&#45;&gt;null1</title>
<path fill="none" stroke="black" stroke-width="2" d="M392.612,-180.721C418.389,-180.721 447.428,-182.297 469.612,-183.834"/>
<polygon fill="black" stroke="black" stroke-width="2" points="469.37,-187.325 479.596,-184.555 469.874,-180.344 469.37,-187.325"/>
</g>
<!-- null0 -->
<g id="node8" class="node"><title>null0</title>
<polygon fill="lightgrey" stroke="none" points="674.597,-253.721 620.597,-253.721 620.597,-217.721 674.597,-217.721 674.597,-253.721"/>
<text text-anchor="middle" x="647.597" y="-232.765" font-family="'/usr/share/fonts/truetype/wqy/wqy-microhei.ttc'" font-size="14.00">NULL</text>
</g>
<!-- pair_1&#45;&gt;null0 -->
<g id="edge6" class="edge"><title>pair_1:next&#45;&gt;null0</title>
<path fill="none" stroke="black" stroke-width="2" d="M583.597,-235.721C592.228,-235.721 601.524,-235.721 610.256,-235.721"/>
<polygon fill="black" stroke="black" stroke-width="2" points="610.543,-239.221 620.543,-235.721 610.543,-232.221 610.543,-239.221"/>
</g>
<!-- null2 -->
<g id="node10" class="node"><title>null2</title>
<polygon fill="lightgrey" stroke="none" points="674.597,-131.721 620.597,-131.721 620.597,-95.7207 674.597,-95.7207 674.597,-131.721"/>
<text text-anchor="middle" x="647.597" y="-110.765" font-family="'/usr/share/fonts/truetype/wqy/wqy-microhei.ttc'" font-size="14.00">NULL</text>
</g>
<!-- pair_2&#45;&gt;null2 -->
<g id="edge9" class="edge"><title>pair_2:next&#45;&gt;null2</title>
<path fill="none" stroke="black" stroke-width="2" d="M583.597,-113.721C592.228,-113.721 601.524,-113.721 610.256,-113.721"/>
<polygon fill="black" stroke="black" stroke-width="2" points="610.543,-117.221 620.543,-113.721 610.543,-110.221 610.543,-117.221"/>
</g>
<!-- null3 -->
<g id="node11" class="node"><title>null3</title>
<polygon fill="lightgrey" stroke="none" points="674.597,-63.7207 620.597,-63.7207 620.597,-27.7207 674.597,-27.7207 674.597,-63.7207"/>
<text text-anchor="middle" x="647.597" y="-42.7648" font-family="'/usr/share/fonts/truetype/wqy/wqy-microhei.ttc'" font-size="14.00">NULL</text>
</g>
<!-- pair_3&#45;&gt;null3 -->
<g id="edge11" class="edge"><title>pair_3:next&#45;&gt;null3</title>
<path fill="none" stroke="black" stroke-width="2" d="M583.597,-45.7207C592.228,-45.7207 601.524,-45.7207 610.256,-45.7207"/>
<polygon fill="black" stroke="black" stroke-width="2" points="610.543,-49.2208 620.543,-45.7207 610.543,-42.2208 610.543,-49.2208"/>
</g>
</g>
</svg>
