<?xml version="1.0" encoding="UTF-8" standalone="no"?>
<!DOCTYPE svg PUBLIC "-//W3C//DTD SVG 1.1//EN"
 "http://www.w3.org/Graphics/SVG/1.1/DTD/svg11.dtd">
<!-- Generated by graphviz version 2.38.0 (20140413.2041)
 -->
<!-- Title: add_first_entry_to_empty_dict Pages: 1 -->
<svg width="657pt" height="289pt"
 viewBox="0.00 0.00 656.78 288.69" xmlns="http://www.w3.org/2000/svg" xmlns:xlink="http://www.w3.org/1999/xlink">
<g id="graph0" class="graph" transform="scale(1 1) rotate(0) translate(4 284.686)">
<title>add_first_entry_to_empty_dict</title>
<polygon fill="white" stroke="none" points="-4,4 -4,-284.686 652.784,-284.686 652.784,4 -4,4"/>
<!-- dict -->
<g id="node1" class="node"><title>dict</title>
<polygon fill="#a8e270" stroke="black" points="0,-133.256 0,-280.186 81.9736,-280.186 81.9736,-133.256 0,-133.256"/>
<text text-anchor="middle" x="40.9868" y="-264.986" font-family="'/usr/share/fonts/truetype/wqy/wqy-microhei.ttc'" font-size="14.00">dict</text>
<polyline fill="none" stroke="black" points="0,-255.697 81.9736,-255.697 "/>
<text text-anchor="middle" x="40.9868" y="-240.497" font-family="'/usr/share/fonts/truetype/wqy/wqy-microhei.ttc'" font-size="14.00">type</text>
<polyline fill="none" stroke="black" points="0,-231.209 81.9736,-231.209 "/>
<text text-anchor="middle" x="40.9868" y="-216.009" font-family="'/usr/share/fonts/truetype/wqy/wqy-microhei.ttc'" font-size="14.00">privdata</text>
<polyline fill="none" stroke="black" points="0,-206.721 81.9736,-206.721 "/>
<text text-anchor="middle" x="40.9868" y="-191.521" font-family="'/usr/share/fonts/truetype/wqy/wqy-microhei.ttc'" font-size="14.00">ht[2]</text>
<polyline fill="none" stroke="black" points="0,-182.232 81.9736,-182.232 "/>
<text text-anchor="middle" x="40.9868" y="-167.032" font-family="'/usr/share/fonts/truetype/wqy/wqy-microhei.ttc'" font-size="14.00">rehashidx</text>
<polyline fill="none" stroke="black" points="0,-157.744 81.9736,-157.744 "/>
<text text-anchor="middle" x="40.9868" y="-142.544" font-family="'/usr/share/fonts/truetype/wqy/wqy-microhei.ttc'" font-size="14.00">iterators</text>
</g>
<!-- ht0 -->
<g id="node2" class="node"><title>ht0</title>
<polygon fill="#95bbe3" stroke="black" points="145.188,-143.5 145.188,-265.941 240.601,-265.941 240.601,-143.5 145.188,-143.5"/>
<text text-anchor="middle" x="192.894" y="-250.741" font-family="'/usr/share/fonts/truetype/wqy/wqy-microhei.ttc'" font-size="14.00">dictht</text>
<polyline fill="none" stroke="black" points="145.188,-241.453 240.601,-241.453 "/>
<text text-anchor="middle" x="192.894" y="-226.253" font-family="'/usr/share/fonts/truetype/wqy/wqy-microhei.ttc'" font-size="14.00">table</text>
<polyline fill="none" stroke="black" points="145.188,-216.965 240.601,-216.965 "/>
<text text-anchor="middle" x="192.894" y="-201.765" font-family="'/usr/share/fonts/truetype/wqy/wqy-microhei.ttc'" font-size="14.00">size: 4</text>
<polyline fill="none" stroke="black" points="145.188,-192.477 240.601,-192.477 "/>
<text text-anchor="middle" x="192.894" y="-177.277" font-family="'/usr/share/fonts/truetype/wqy/wqy-microhei.ttc'" font-size="14.00">sizemask: 3</text>
<polyline fill="none" stroke="black" points="145.188,-167.988 240.601,-167.988 "/>
<text text-anchor="middle" x="192.894" y="-152.788" font-family="'/usr/share/fonts/truetype/wqy/wqy-microhei.ttc'" font-size="14.00">used: 1</text>
</g>
<!-- dict&#45;&gt;ht0 -->
<g id="edge1" class="edge"><title>dict:ht&#45;&gt;ht0:dictht</title>
<path fill="none" stroke="black" stroke-width="2" d="M81.9736,-194.721C116.501,-194.721 108.992,-242.345 134.981,-252.019"/>
<polygon fill="black" stroke="black" stroke-width="2" points="134.748,-255.528 145.188,-253.721 135.899,-248.623 134.748,-255.528"/>
<text text-anchor="middle" x="113.581" y="-249.521" font-family="Times,serif" font-size="14.00">ht[0]</text>
</g>
<!-- ht1 -->
<g id="node3" class="node"><title>ht1</title>
<polygon fill="#95bbe3" stroke="black" points="145.188,-0.5 145.188,-122.941 240.601,-122.941 240.601,-0.5 145.188,-0.5"/>
<text text-anchor="middle" x="192.894" y="-107.741" font-family="'/usr/share/fonts/truetype/wqy/wqy-microhei.ttc'" font-size="14.00">dictht</text>
<polyline fill="none" stroke="black" points="145.188,-98.4531 240.601,-98.4531 "/>
<text text-anchor="middle" x="192.894" y="-83.2531" font-family="'/usr/share/fonts/truetype/wqy/wqy-microhei.ttc'" font-size="14.00">table</text>
<polyline fill="none" stroke="black" points="145.188,-73.9648 240.601,-73.9648 "/>
<text text-anchor="middle" x="192.894" y="-58.7648" font-family="'/usr/share/fonts/truetype/wqy/wqy-microhei.ttc'" font-size="14.00">size: 0</text>
<polyline fill="none" stroke="black" points="145.188,-49.4766 240.601,-49.4766 "/>
<text text-anchor="middle" x="192.894" y="-34.2766" font-family="'/usr/share/fonts/truetype/wqy/wqy-microhei.ttc'" font-size="14.00">sizemask: 0</text>
<polyline fill="none" stroke="black" points="145.188,-24.9883 240.601,-24.9883 "/>
<text text-anchor="middle" x="192.894" y="-9.78828" font-family="'/usr/share/fonts/truetype/wqy/wqy-microhei.ttc'" font-size="14.00">used: 0</text>
</g>
<!-- dict&#45;&gt;ht1 -->
<g id="edge2" class="edge"><title>dict:ht&#45;&gt;ht1:dictht</title>
<path fill="none" stroke="black" stroke-width="2" d="M81.9736,-194.721C102.142,-194.721 117.188,-132.119 135.956,-115.002"/>
<polygon fill="black" stroke="black" stroke-width="2" points="137.588,-118.103 145.188,-110.721 134.643,-111.753 137.588,-118.103"/>
<text text-anchor="middle" x="113.581" y="-181.521" font-family="Times,serif" font-size="14.00">ht[1]</text>
</g>
<!-- bucket -->
<g id="node6" class="node"><title>bucket</title>
<polygon fill="#f2f2f2" stroke="black" points="277.601,-119.256 277.601,-258.186 366.8,-258.186 366.8,-119.256 277.601,-119.256"/>
<text text-anchor="middle" x="322.2" y="-242.986" font-family="'/usr/share/fonts/truetype/wqy/wqy-microhei.ttc'" font-size="14.00">dictEntry**</text>
<text text-anchor="middle" x="322.2" y="-226.497" font-family="'/usr/share/fonts/truetype/wqy/wqy-microhei.ttc'" font-size="14.00">(bucket)</text>
<polyline fill="none" stroke="black" points="277.601,-217.209 366.8,-217.209 "/>
<text text-anchor="middle" x="322.2" y="-202.009" font-family="'/usr/share/fonts/truetype/wqy/wqy-microhei.ttc'" font-size="14.00">0</text>
<polyline fill="none" stroke="black" points="277.601,-192.721 366.8,-192.721 "/>
<text text-anchor="middle" x="322.2" y="-177.521" font-family="'/usr/share/fonts/truetype/wqy/wqy-microhei.ttc'" font-size="14.00">1</text>
<polyline fill="none" stroke="black" points="277.601,-168.232 366.8,-168.232 "/>
<text text-anchor="middle" x="322.2" y="-153.032" font-family="'/usr/share/fonts/truetype/wqy/wqy-microhei.ttc'" font-size="14.00">2</text>
<polyline fill="none" stroke="black" points="277.601,-143.744 366.8,-143.744 "/>
<text text-anchor="middle" x="322.2" y="-128.544" font-family="'/usr/share/fonts/truetype/wqy/wqy-microhei.ttc'" font-size="14.00">3</text>
</g>
<!-- ht0&#45;&gt;bucket -->
<g id="edge3" class="edge"><title>ht0:table&#45;&gt;bucket:head</title>
<path fill="none" stroke="black" stroke-width="2" d="M240.601,-228.721C253.558,-228.721 258.443,-233.996 267.616,-236.469"/>
<polygon fill="black" stroke="black" stroke-width="2" points="267.243,-239.95 277.601,-237.721 268.114,-233.004 267.243,-239.95"/>
</g>
<!-- null1 -->
<g id="node5" class="node"><title>null1</title>
<polygon fill="lightgrey" stroke="none" points="349.2,-100.721 295.2,-100.721 295.2,-64.7207 349.2,-64.7207 349.2,-100.721"/>
<text text-anchor="middle" x="322.2" y="-79.7648" font-family="'/usr/share/fonts/truetype/wqy/wqy-microhei.ttc'" font-size="14.00">NULL</text>
</g>
<!-- ht1&#45;&gt;null1 -->
<g id="edge6" class="edge"><title>ht1:table&#45;&gt;null1</title>
<path fill="none" stroke="black" stroke-width="2" d="M240.601,-85.7207C255.106,-85.7207 271.071,-85.2294 284.938,-84.6445"/>
<polygon fill="black" stroke="black" stroke-width="2" points="285.243,-88.1344 295.074,-84.1855 284.926,-81.1416 285.243,-88.1344"/>
</g>
<!-- null0 -->
<g id="node4" class="node"><title>null0</title>
<polygon fill="lightgrey" stroke="none" points="648.784,-198.721 594.784,-198.721 594.784,-162.721 648.784,-162.721 648.784,-198.721"/>
<text text-anchor="middle" x="621.784" y="-177.765" font-family="'/usr/share/fonts/truetype/wqy/wqy-microhei.ttc'" font-size="14.00">NULL</text>
</g>
<!-- entry -->
<g id="node7" class="node"><title>entry</title>
<polygon fill="#fadcad" stroke="black" points="403.8,-168.232 403.8,-217.209 557.784,-217.209 557.784,-168.232 403.8,-168.232"/>
<text text-anchor="middle" x="480.792" y="-202.009" font-family="'/usr/share/fonts/truetype/wqy/wqy-microhei.ttc'" font-size="14.00">dictEntry</text>
<polyline fill="none" stroke="black" points="403.8,-192.721 557.784,-192.721 "/>
<text text-anchor="middle" x="427.765" y="-177.521" font-family="'/usr/share/fonts/truetype/wqy/wqy-microhei.ttc'" font-size="14.00">key1</text>
<polyline fill="none" stroke="black" points="451.73,-168.232 451.73,-192.721 "/>
<text text-anchor="middle" x="481.893" y="-177.521" font-family="'/usr/share/fonts/truetype/wqy/wqy-microhei.ttc'" font-size="14.00">value1</text>
<polyline fill="none" stroke="black" points="512.055,-168.232 512.055,-192.721 "/>
<text text-anchor="middle" x="534.919" y="-177.521" font-family="'/usr/share/fonts/truetype/wqy/wqy-microhei.ttc'" font-size="14.00">next</text>
</g>
<!-- bucket&#45;&gt;entry -->
<g id="edge4" class="edge"><title>bucket:table1&#45;&gt;entry:head</title>
<path fill="none" stroke="black" stroke-width="2" d="M366.8,-180.721C382.266,-180.721 384.158,-195.664 393.897,-201.968"/>
<polygon fill="black" stroke="black" stroke-width="2" points="393.228,-205.414 403.8,-204.721 395.103,-198.67 393.228,-205.414"/>
</g>
<!-- tnull0 -->
<g id="node8" class="node"><title>tnull0</title>
<polygon fill="lightgrey" stroke="none" points="507.792,-271.721 453.792,-271.721 453.792,-235.721 507.792,-235.721 507.792,-271.721"/>
<text text-anchor="middle" x="480.792" y="-250.765" font-family="'/usr/share/fonts/truetype/wqy/wqy-microhei.ttc'" font-size="14.00">NULL</text>
</g>
<!-- bucket&#45;&gt;tnull0 -->
<g id="edge7" class="edge"><title>bucket:table0&#45;&gt;tnull0</title>
<path fill="none" stroke="black" stroke-width="2" d="M366.8,-204.721C385.932,-204.721 386.481,-218.591 403.8,-226.721 416.626,-232.742 431.188,-238.222 444.108,-242.648"/>
<polygon fill="black" stroke="black" stroke-width="2" points="443.018,-245.974 453.612,-245.819 445.233,-239.334 443.018,-245.974"/>
</g>
<!-- tnull2 -->
<g id="node9" class="node"><title>tnull2</title>
<polygon fill="lightgrey" stroke="none" points="507.792,-149.721 453.792,-149.721 453.792,-113.721 507.792,-113.721 507.792,-149.721"/>
<text text-anchor="middle" x="480.792" y="-128.765" font-family="'/usr/share/fonts/truetype/wqy/wqy-microhei.ttc'" font-size="14.00">NULL</text>
</g>
<!-- bucket&#45;&gt;tnull2 -->
<g id="edge8" class="edge"><title>bucket:table2&#45;&gt;tnull2</title>
<path fill="none" stroke="black" stroke-width="2" d="M366.8,-155.721C392.942,-155.721 421.758,-149.498 443.747,-143.39"/>
<polygon fill="black" stroke="black" stroke-width="2" points="445.012,-146.667 453.642,-140.521 443.063,-139.944 445.012,-146.667"/>
</g>
<!-- tnull3 -->
<g id="node10" class="node"><title>tnull3</title>
<polygon fill="lightgrey" stroke="none" points="507.792,-95.7207 453.792,-95.7207 453.792,-59.7207 507.792,-59.7207 507.792,-95.7207"/>
<text text-anchor="middle" x="480.792" y="-74.7648" font-family="'/usr/share/fonts/truetype/wqy/wqy-microhei.ttc'" font-size="14.00">NULL</text>
</g>
<!-- bucket&#45;&gt;tnull3 -->
<g id="edge9" class="edge"><title>bucket:table3&#45;&gt;tnull3</title>
<path fill="none" stroke="black" stroke-width="2" d="M366.8,-131.721C387.157,-131.721 385.799,-114.228 403.8,-104.721 416.428,-98.0514 431.057,-92.4104 444.088,-88.037"/>
<polygon fill="black" stroke="black" stroke-width="2" points="445.238,-91.3437 453.681,-84.9437 443.09,-84.6815 445.238,-91.3437"/>
</g>
<!-- entry&#45;&gt;null0 -->
<g id="edge5" class="edge"><title>entry:next&#45;&gt;null0</title>
<path fill="none" stroke="black" stroke-width="2" d="M557.784,-180.721C566.415,-180.721 575.712,-180.721 584.443,-180.721"/>
<polygon fill="black" stroke="black" stroke-width="2" points="584.73,-184.221 594.73,-180.721 584.73,-177.221 584.73,-184.221"/>
</g>
</g>
</svg>
