<?xml version="1.0" encoding="UTF-8" standalone="no"?>
<!DOCTYPE svg PUBLIC "-//W3C//DTD SVG 1.1//EN"
 "http://www.w3.org/Graphics/SVG/1.1/DTD/svg11.dtd">
<!-- Generated by graphviz version 2.38.0 (20140413.2041)
 -->
<!-- Title: redis_set Pages: 1 -->
<svg width="374pt" height="196pt"
 viewBox="0.00 0.00 374.31 195.88" xmlns="http://www.w3.org/2000/svg" xmlns:xlink="http://www.w3.org/1999/xlink">
<g id="graph0" class="graph" transform="scale(1 1) rotate(0) translate(4 191.885)">
<title>redis_set</title>
<polygon fill="white" stroke="none" points="-4,4 -4,-191.885 370.31,-191.885 370.31,4 -4,4"/>
<!-- REDIS_SET -->
<g id="node1" class="node"><title>REDIS_SET</title>
<polygon fill="#95bbe3" stroke="none" points="232.597,-187.839 147.525,-187.839 147.525,-149.022 232.597,-149.022 232.597,-187.839"/>
<text text-anchor="middle" x="190.061" y="-172.685" font-family="'/usr/share/fonts/truetype/wqy/wqy-microhei.ttc'" font-size="14.00">集合</text>
<text text-anchor="middle" x="190.061" y="-158.265" font-family="'/usr/share/fonts/truetype/wqy/wqy-microhei.ttc'" font-size="14.00">REDIS_SET</text>
</g>
<!-- REDIS_ENCODING_INTSET -->
<g id="node2" class="node"><title>REDIS_ENCODING_INTSET</title>
<polygon fill="#fadcad" stroke="none" points="188.183,-112.965 -0.0610748,-112.965 -0.0610748,-72.0117 188.183,-72.0117 188.183,-112.965"/>
<text text-anchor="middle" x="94.061" y="-97.7766" font-family="'/usr/share/fonts/truetype/wqy/wqy-microhei.ttc'" font-size="14.00">intset</text>
<text text-anchor="middle" x="94.061" y="-81.2883" font-family="'/usr/share/fonts/truetype/wqy/wqy-microhei.ttc'" font-size="14.00">REDIS_ENCODING_INTSET</text>
</g>
<!-- REDIS_SET&#45;&gt;REDIS_ENCODING_INTSET -->
<g id="edge1" class="edge"><title>REDIS_SET&#45;&gt;REDIS_ENCODING_INTSET</title>
<path fill="none" stroke="black" stroke-width="2" d="M165.836,-148.772C154.263,-139.858 140.222,-129.043 127.639,-119.352"/>
<polygon fill="black" stroke="black" stroke-width="2" points="129.68,-116.505 119.622,-113.176 125.408,-122.051 129.68,-116.505"/>
</g>
<!-- REDIS_ENCODING_HT -->
<g id="node3" class="node"><title>REDIS_ENCODING_HT</title>
<polygon fill="#fadcad" stroke="none" points="366.56,-111.897 205.562,-111.897 205.562,-73.0799 366.56,-73.0799 366.56,-111.897"/>
<text text-anchor="middle" x="286.061" y="-96.7424" font-family="'/usr/share/fonts/truetype/wqy/wqy-microhei.ttc'" font-size="14.00">字典</text>
<text text-anchor="middle" x="286.061" y="-82.3224" font-family="'/usr/share/fonts/truetype/wqy/wqy-microhei.ttc'" font-size="14.00">REDIS_ENCODING_HT</text>
</g>
<!-- REDIS_SET&#45;&gt;REDIS_ENCODING_HT -->
<g id="edge2" class="edge"><title>REDIS_SET&#45;&gt;REDIS_ENCODING_HT</title>
<path fill="none" stroke="black" stroke-width="2" d="M214.286,-148.772C226.224,-139.577 240.787,-128.36 253.667,-118.439"/>
<polygon fill="black" stroke="black" stroke-width="2" points="256.057,-121.016 261.844,-112.141 251.786,-115.47 256.057,-121.016"/>
</g>
<!-- intset -->
<g id="node4" class="node"><title>intset</title>
<polygon fill="lightgrey" stroke="none" points="149.985,-36 38.1374,-36 38.1374,-0 149.985,-0 149.985,-36"/>
<text text-anchor="middle" x="94.061" y="-15.0441" font-family="'/usr/share/fonts/truetype/wqy/wqy-microhei.ttc'" font-size="14.00">intset.h/intset</text>
</g>
<!-- REDIS_ENCODING_INTSET&#45;&gt;intset -->
<g id="edge3" class="edge"><title>REDIS_ENCODING_INTSET&#45;&gt;intset</title>
<path fill="none" stroke="black" stroke-width="2" d="M94.061,-71.6805C94.061,-63.8994 94.061,-54.8359 94.061,-46.4427"/>
<polygon fill="black" stroke="black" stroke-width="2" points="97.5611,-46.3166 94.061,-36.3167 90.5611,-46.3167 97.5611,-46.3166"/>
</g>
<!-- dict -->
<g id="node5" class="node"><title>dict</title>
<polygon fill="lightgrey" stroke="none" points="329.552,-36 242.57,-36 242.57,-0 329.552,-0 329.552,-36"/>
<text text-anchor="middle" x="286.061" y="-15.0441" font-family="'/usr/share/fonts/truetype/wqy/wqy-microhei.ttc'" font-size="14.00">dict.h/dict</text>
</g>
<!-- REDIS_ENCODING_HT&#45;&gt;dict -->
<g id="edge4" class="edge"><title>REDIS_ENCODING_HT&#45;&gt;dict</title>
<path fill="none" stroke="black" stroke-width="2" d="M286.061,-72.8207C286.061,-64.8282 286.061,-55.331 286.061,-46.5559"/>
<polygon fill="black" stroke="black" stroke-width="2" points="289.561,-46.3598 286.061,-36.3599 282.561,-46.3599 289.561,-46.3598"/>
</g>
</g>
</svg>
