<?xml version="1.0" encoding="UTF-8" standalone="no"?>
<!DOCTYPE svg PUBLIC "-//W3C//DTD SVG 1.1//EN"
 "http://www.w3.org/Graphics/SVG/1.1/DTD/svg11.dtd">
<!-- Generated by graphviz version 2.38.0 (20140413.2041)
 -->
<!-- Title: e Pages: 1 -->
<svg width="384pt" height="193pt"
 viewBox="0.00 0.00 384.30 193.33" xmlns="http://www.w3.org/2000/svg" xmlns:xlink="http://www.w3.org/1999/xlink">
<g id="graph0" class="graph" transform="scale(1 1) rotate(0) translate(4 189.331)">
<title>e</title>
<polygon fill="white" stroke="none" points="-4,4 -4,-189.331 380.303,-189.331 380.303,4 -4,4"/>
<!-- server -->
<g id="node1" class="node"><title>server</title>
<ellipse fill="#95bbe3" stroke="black" cx="184.303" cy="-148.265" rx="37.1311" ry="37.1311"/>
<text text-anchor="middle" x="184.303" y="-144.275" font-family="'/usr/share/fonts/truetype/wqy/wqy-microhei.ttc'" font-size="14.00">服务器</text>
</g>
<!-- cx -->
<g id="node2" class="node"><title>cx</title>
<ellipse fill="#a8e270" stroke="black" cx="49.3031" cy="-18" rx="49.107" ry="18"/>
<text text-anchor="middle" x="49.3031" y="-15.2541" font-family="'/usr/share/fonts/truetype/wqy/wqy-microhei.ttc'" font-size="14.00">客户端 X</text>
</g>
<!-- cx&#45;&gt;server -->
<g id="edge1" class="edge"><title>cx&#45;&gt;server</title>
<path fill="none" stroke="#b22222" stroke-width="2" stroke-dasharray="5,2" d="M50.6333,-46.142C52.656,-61.4428 57.4019,-80.0631 68.3031,-93.1998 88.593,-117.651 122.41,-131.655 148.312,-139.255"/>
<polygon fill="#b22222" stroke="#b22222" stroke-width="2" points="54.1151,-45.7844 49.6259,-36.1876 47.1506,-46.4893 54.1151,-45.7844"/>
<text text-anchor="middle" x="124.303" y="-81.9998" font-family="Times,serif" font-size="14.00">返回命令执行结果</text>
<text text-anchor="middle" x="124.303" y="-62.3999" font-family="Times,serif" font-size="14.00">等待命令请求</text>
</g>
<!-- cy -->
<g id="node3" class="node"><title>cy</title>
<ellipse fill="#a8e270" stroke="black" cx="184.303" cy="-18" rx="49.0504" ry="18"/>
<text text-anchor="middle" x="184.303" y="-15.2541" font-family="'/usr/share/fonts/truetype/wqy/wqy-microhei.ttc'" font-size="14.00">客户端 Y</text>
</g>
<!-- cy&#45;&gt;server -->
<g id="edge2" class="edge"><title>cy&#45;&gt;server</title>
<path fill="none" stroke="black" stroke-dasharray="1,5" d="M184.303,-36.0326C184.303,-55.0453 184.303,-86.3666 184.303,-110.936"/>
<text text-anchor="middle" x="226.303" y="-72.1999" font-family="Times,serif" font-size="14.00">等待命令请求</text>
</g>
<!-- cz -->
<g id="node4" class="node"><title>cz</title>
<ellipse fill="#a8e270" stroke="black" cx="300.303" cy="-18" rx="49.1992" ry="18"/>
<text text-anchor="middle" x="300.303" y="-15.2541" font-family="'/usr/share/fonts/truetype/wqy/wqy-microhei.ttc'" font-size="14.00">客户端 Z</text>
</g>
<!-- cz&#45;&gt;server -->
<g id="edge3" class="edge"><title>cz&#45;&gt;server</title>
<path fill="none" stroke="black" stroke-dasharray="1,5" d="M297.156,-36.2298C293.481,-52.4014 286.069,-76.5329 272.303,-93.1998 257.916,-110.619 236.373,-123.989 218.204,-133.075"/>
<text text-anchor="middle" x="334.303" y="-72.1999" font-family="Times,serif" font-size="14.00">等待命令请求</text>
</g>
</g>
</svg>
