<?xml version="1.0" encoding="UTF-8" standalone="no"?>
<!DOCTYPE svg PUBLIC "-//W3C//DTD SVG 1.1//EN"
 "http://www.w3.org/Graphics/SVG/1.1/DTD/svg11.dtd">
<!-- Generated by graphviz version 2.38.0 (20140413.2041)
 -->
<!-- Title: publish_pattern Pages: 1 -->
<svg width="438pt" height="123pt"
 viewBox="0.00 0.00 437.74 123.20" xmlns="http://www.w3.org/2000/svg" xmlns:xlink="http://www.w3.org/1999/xlink">
<g id="graph0" class="graph" transform="scale(1 1) rotate(0) translate(4 119.197)">
<title>publish_pattern</title>
<polygon fill="white" stroke="none" points="-4,4 -4,-119.197 433.743,-119.197 433.743,4 -4,4"/>
<!-- redisServer -->
<g id="node1" class="node"><title>redisServer</title>
<polygon fill="#a8e270" stroke="black" points="0,-16.7441 0,-114.697 128.991,-114.697 128.991,-16.7441 0,-16.7441"/>
<text text-anchor="middle" x="64.4956" y="-99.4973" font-family="'/usr/share/fonts/truetype/wqy/wqy-microhei.ttc'" font-size="14.00">redisServer</text>
<polyline fill="none" stroke="black" points="0,-90.209 128.991,-90.209 "/>
<text text-anchor="middle" x="64.4956" y="-75.009" font-family="'/usr/share/fonts/truetype/wqy/wqy-microhei.ttc'" font-size="14.00">...</text>
<polyline fill="none" stroke="black" points="0,-65.7207 128.991,-65.7207 "/>
<text text-anchor="middle" x="64.4956" y="-50.5207" font-family="'/usr/share/fonts/truetype/wqy/wqy-microhei.ttc'" font-size="14.00">pubsub_patterns</text>
<polyline fill="none" stroke="black" points="0,-41.2324 128.991,-41.2324 "/>
<text text-anchor="middle" x="64.4956" y="-26.0324" font-family="'/usr/share/fonts/truetype/wqy/wqy-microhei.ttc'" font-size="14.00">...</text>
</g>
<!-- pubsubPattern_1 -->
<g id="node2" class="node"><title>pubsubPattern_1</title>
<polygon fill="#95bbe3" stroke="black" points="164.991,-0.5 164.991,-106.941 279.367,-106.941 279.367,-0.5 164.991,-0.5"/>
<text text-anchor="middle" x="222.179" y="-91.7414" font-family="'/usr/share/fonts/truetype/wqy/wqy-microhei.ttc'" font-size="14.00">pubsubPattern</text>
<polyline fill="none" stroke="black" points="164.991,-82.4531 279.367,-82.4531 "/>
<text text-anchor="middle" x="222.179" y="-67.2531" font-family="'/usr/share/fonts/truetype/wqy/wqy-microhei.ttc'" font-size="14.00">client </text>
<text text-anchor="middle" x="222.179" y="-50.7648" font-family="'/usr/share/fonts/truetype/wqy/wqy-microhei.ttc'" font-size="14.00"> client123</text>
<polyline fill="none" stroke="black" points="164.991,-41.4766 279.367,-41.4766 "/>
<text text-anchor="middle" x="222.179" y="-26.2766" font-family="'/usr/share/fonts/truetype/wqy/wqy-microhei.ttc'" font-size="14.00">pattern </text>
<text text-anchor="middle" x="222.179" y="-9.78828" font-family="'/usr/share/fonts/truetype/wqy/wqy-microhei.ttc'" font-size="14.00"> tweet.shop.*</text>
</g>
<!-- redisServer&#45;&gt;pubsubPattern_1 -->
<g id="edge1" class="edge"><title>redisServer:pubsub_patterns&#45;&gt;pubsubPattern_1</title>
<path fill="none" stroke="black" stroke-width="2" d="M128.991,-53.7207C137.274,-53.7207 145.975,-53.7207 154.587,-53.7207"/>
<polygon fill="black" stroke="black" stroke-width="2" points="154.625,-57.2208 164.625,-53.7207 154.625,-50.2208 154.625,-57.2208"/>
</g>
<!-- pubsubPattern_2 -->
<g id="node3" class="node"><title>pubsubPattern_2</title>
<polygon fill="#95bbe3" stroke="black" points="315.367,-0.5 315.367,-106.941 429.743,-106.941 429.743,-0.5 315.367,-0.5"/>
<text text-anchor="middle" x="372.555" y="-91.7414" font-family="'/usr/share/fonts/truetype/wqy/wqy-microhei.ttc'" font-size="14.00">pubsubPattern</text>
<polyline fill="none" stroke="black" points="315.367,-82.4531 429.743,-82.4531 "/>
<text text-anchor="middle" x="372.555" y="-67.2531" font-family="'/usr/share/fonts/truetype/wqy/wqy-microhei.ttc'" font-size="14.00">client </text>
<text text-anchor="middle" x="372.555" y="-50.7648" font-family="'/usr/share/fonts/truetype/wqy/wqy-microhei.ttc'" font-size="14.00"> client256</text>
<polyline fill="none" stroke="black" points="315.367,-41.4766 429.743,-41.4766 "/>
<text text-anchor="middle" x="372.555" y="-26.2766" font-family="'/usr/share/fonts/truetype/wqy/wqy-microhei.ttc'" font-size="14.00">pattern </text>
<text text-anchor="middle" x="372.555" y="-9.78828" font-family="'/usr/share/fonts/truetype/wqy/wqy-microhei.ttc'" font-size="14.00"> tweet.shop.*</text>
</g>
<!-- pubsubPattern_1&#45;&gt;pubsubPattern_2 -->
<g id="edge2" class="edge"><title>pubsubPattern_1&#45;&gt;pubsubPattern_2</title>
<path fill="none" stroke="black" stroke-width="2" d="M279.697,-53.7207C287.965,-53.7207 296.543,-53.7207 304.989,-53.7207"/>
<polygon fill="black" stroke="black" stroke-width="2" points="305.194,-57.2208 315.194,-53.7207 305.194,-50.2208 305.194,-57.2208"/>
</g>
</g>
</svg>
