<?xml version="1.0" encoding="UTF-8" standalone="no"?>
<!DOCTYPE svg PUBLIC "-//W3C//DTD SVG 1.1//EN"
 "http://www.w3.org/Graphics/SVG/1.1/DTD/svg11.dtd">
<!-- Generated by graphviz version 2.38.0 (20140413.2041)
 -->
<!-- Title: db_after_insert_new_key Pages: 1 -->
<svg width="615pt" height="402pt"
 viewBox="0.00 0.00 615.22 402.46" xmlns="http://www.w3.org/2000/svg" xmlns:xlink="http://www.w3.org/1999/xlink">
<g id="graph0" class="graph" transform="scale(1 1) rotate(0) translate(4 398.465)">
<title>db_after_insert_new_key</title>
<polygon fill="white" stroke="none" points="-4,4 -4,-398.465 611.225,-398.465 611.225,4 -4,4"/>
<!-- redisDb -->
<g id="node1" class="node"><title>redisDb</title>
<polygon fill="#a8e270" stroke="black" points="0,-296.012 0,-393.965 68.1582,-393.965 68.1582,-296.012 0,-296.012"/>
<text text-anchor="middle" x="34.0791" y="-378.765" font-family="'/usr/share/fonts/truetype/wqy/wqy-microhei.ttc'" font-size="14.00">redisDb</text>
<polyline fill="none" stroke="black" points="0,-369.477 68.1582,-369.477 "/>
<text text-anchor="middle" x="34.0791" y="-354.277" font-family="'/usr/share/fonts/truetype/wqy/wqy-microhei.ttc'" font-size="14.00">id</text>
<polyline fill="none" stroke="black" points="0,-344.988 68.1582,-344.988 "/>
<text text-anchor="middle" x="34.0791" y="-329.788" font-family="'/usr/share/fonts/truetype/wqy/wqy-microhei.ttc'" font-size="14.00">dict</text>
<polyline fill="none" stroke="black" points="0,-320.5 68.1582,-320.5 "/>
<text text-anchor="middle" x="34.0791" y="-305.3" font-family="'/usr/share/fonts/truetype/wqy/wqy-microhei.ttc'" font-size="14.00">...</text>
</g>
<!-- dict -->
<g id="node2" class="node"><title>dict</title>
<polygon fill="#95bbe3" stroke="black" points="104.158,-148.547 104.158,-353.43 204.281,-353.43 204.281,-148.547 104.158,-148.547"/>
<text text-anchor="middle" x="154.22" y="-338.23" font-family="'/usr/share/fonts/truetype/wqy/wqy-microhei.ttc'" font-size="14.00">dict</text>
<text text-anchor="middle" x="154.22" y="-321.741" font-family="'/usr/share/fonts/truetype/wqy/wqy-microhei.ttc'" font-size="14.00">(key space)</text>
<polyline fill="none" stroke="black" points="104.158,-312.453 204.281,-312.453 "/>
<text text-anchor="middle" x="154.22" y="-297.253" font-family="'/usr/share/fonts/truetype/wqy/wqy-microhei.ttc'" font-size="14.00">StringObject</text>
<text text-anchor="middle" x="154.22" y="-280.765" font-family="'/usr/share/fonts/truetype/wqy/wqy-microhei.ttc'" font-size="14.00"> &quot;number&quot;</text>
<polyline fill="none" stroke="black" points="104.158,-271.477 204.281,-271.477 "/>
<text text-anchor="middle" x="154.22" y="-256.277" font-family="'/usr/share/fonts/truetype/wqy/wqy-microhei.ttc'" font-size="14.00">StringObject</text>
<text text-anchor="middle" x="154.22" y="-239.788" font-family="'/usr/share/fonts/truetype/wqy/wqy-microhei.ttc'" font-size="14.00"> &quot;date&quot;</text>
<polyline fill="none" stroke="black" points="104.158,-230.5 204.281,-230.5 "/>
<text text-anchor="middle" x="154.22" y="-215.3" font-family="'/usr/share/fonts/truetype/wqy/wqy-microhei.ttc'" font-size="14.00">StringObject</text>
<text text-anchor="middle" x="154.22" y="-198.812" font-family="'/usr/share/fonts/truetype/wqy/wqy-microhei.ttc'" font-size="14.00"> &quot;book&quot;</text>
<polyline fill="none" stroke="black" points="104.158,-189.523 204.281,-189.523 "/>
<text text-anchor="middle" x="154.22" y="-174.323" font-family="'/usr/share/fonts/truetype/wqy/wqy-microhei.ttc'" font-size="14.00">StringObject</text>
<text text-anchor="middle" x="154.22" y="-157.835" font-family="'/usr/share/fonts/truetype/wqy/wqy-microhei.ttc'" font-size="14.00"> &quot;message&quot;</text>
</g>
<!-- redisDb&#45;&gt;dict -->
<g id="edge1" class="edge"><title>redisDb:dict&#45;&gt;dict:head</title>
<path fill="none" stroke="black" stroke-width="2" d="M68.1582,-332.988C80.1582,-332.988 85.4082,-332.988 94.0332,-332.988"/>
<polygon fill="black" stroke="black" stroke-width="2" points="94.1582,-336.488 104.158,-332.988 94.1582,-329.488 94.1582,-336.488"/>
</g>
<!-- number -->
<g id="node3" class="node"><title>number</title>
<polygon fill="#fadcad" stroke="black" points="240.281,-302.5 240.281,-351.477 367.954,-351.477 367.954,-302.5 240.281,-302.5"/>
<text text-anchor="middle" x="304.118" y="-336.277" font-family="'/usr/share/fonts/truetype/wqy/wqy-microhei.ttc'" font-size="14.00">ListObject</text>
<polyline fill="none" stroke="black" points="240.281,-326.988 367.954,-326.988 "/>
<text text-anchor="middle" x="261.56" y="-311.788" font-family="'/usr/share/fonts/truetype/wqy/wqy-microhei.ttc'" font-size="14.00">123</text>
<polyline fill="none" stroke="black" points="282.839,-302.5 282.839,-326.988 "/>
<text text-anchor="middle" x="304.118" y="-311.788" font-family="'/usr/share/fonts/truetype/wqy/wqy-microhei.ttc'" font-size="14.00">456</text>
<polyline fill="none" stroke="black" points="325.396,-302.5 325.396,-326.988 "/>
<text text-anchor="middle" x="346.675" y="-311.788" font-family="'/usr/share/fonts/truetype/wqy/wqy-microhei.ttc'" font-size="14.00">789</text>
</g>
<!-- dict&#45;&gt;number -->
<g id="edge2" class="edge"><title>dict:number&#45;&gt;number:head</title>
<path fill="none" stroke="black" stroke-width="2" d="M204.281,-291.988C226.482,-291.988 218.116,-325.448 230.765,-335.904"/>
<polygon fill="black" stroke="black" stroke-width="2" points="229.689,-339.235 240.281,-338.988 231.847,-332.576 229.689,-339.235"/>
</g>
<!-- book -->
<g id="node4" class="node"><title>book</title>
<polygon fill="#f2f2f2" stroke="black" points="254.056,-68.2793 254.056,-215.697 354.179,-215.697 354.179,-68.2793 254.056,-68.2793"/>
<text text-anchor="middle" x="304.118" y="-200.497" font-family="'/usr/share/fonts/truetype/wqy/wqy-microhei.ttc'" font-size="14.00">HashObject</text>
<polyline fill="none" stroke="black" points="254.056,-191.209 354.179,-191.209 "/>
<text text-anchor="middle" x="304.118" y="-176.009" font-family="'/usr/share/fonts/truetype/wqy/wqy-microhei.ttc'" font-size="14.00">StringObject</text>
<text text-anchor="middle" x="304.118" y="-159.521" font-family="'/usr/share/fonts/truetype/wqy/wqy-microhei.ttc'" font-size="14.00"> &quot;name&quot;</text>
<polyline fill="none" stroke="black" points="254.056,-150.232 354.179,-150.232 "/>
<text text-anchor="middle" x="304.118" y="-135.032" font-family="'/usr/share/fonts/truetype/wqy/wqy-microhei.ttc'" font-size="14.00">StringObject</text>
<text text-anchor="middle" x="304.118" y="-118.544" font-family="'/usr/share/fonts/truetype/wqy/wqy-microhei.ttc'" font-size="14.00"> &quot;author&quot;</text>
<polyline fill="none" stroke="black" points="254.056,-109.256 354.179,-109.256 "/>
<text text-anchor="middle" x="304.118" y="-94.0559" font-family="'/usr/share/fonts/truetype/wqy/wqy-microhei.ttc'" font-size="14.00">StringObject</text>
<text text-anchor="middle" x="304.118" y="-77.5676" font-family="'/usr/share/fonts/truetype/wqy/wqy-microhei.ttc'" font-size="14.00"> &quot;publisher&quot;</text>
</g>
<!-- dict&#45;&gt;book -->
<g id="edge4" class="edge"><title>dict:book&#45;&gt;book:head</title>
<path fill="none" stroke="black" stroke-width="2" d="M204.281,-209.988C222.268,-209.988 228.853,-205.278 242.742,-203.585"/>
<polygon fill="black" stroke="black" stroke-width="2" points="243.335,-207.057 253.118,-202.988 242.933,-200.068 243.335,-207.057"/>
</g>
<!-- message -->
<g id="node8" class="node"><title>message</title>
<polygon fill="lightgrey" stroke="black" points="254.056,-0.5 254.056,-49.4766 354.179,-49.4766 354.179,-0.5 254.056,-0.5"/>
<text text-anchor="middle" x="304.118" y="-34.2766" font-family="'/usr/share/fonts/truetype/wqy/wqy-microhei.ttc'" font-size="14.00">StringObject</text>
<polyline fill="none" stroke="black" points="254.056,-24.9883 354.179,-24.9883 "/>
<text text-anchor="middle" x="304.118" y="-9.78828" font-family="'/usr/share/fonts/truetype/wqy/wqy-microhei.ttc'" font-size="14.00">&quot;hello moto&quot;</text>
</g>
<!-- dict&#45;&gt;message -->
<g id="edge5" class="edge"><title>dict:message&#45;&gt;message:head</title>
<path fill="none" stroke="black" stroke-width="2" d="M204.281,-168.988C262.925,-168.988 199.556,-52.9727 242.948,-38.4707"/>
<polygon fill="black" stroke="black" stroke-width="2" points="243.727,-41.8942 253.118,-36.9883 242.717,-34.9674 243.727,-41.8942"/>
</g>
<!-- date -->
<g id="node9" class="node"><title>date</title>
<polygon fill="#ffc1c1" stroke="black" points="254.056,-234.5 254.056,-283.477 354.179,-283.477 354.179,-234.5 254.056,-234.5"/>
<text text-anchor="middle" x="304.118" y="-268.277" font-family="'/usr/share/fonts/truetype/wqy/wqy-microhei.ttc'" font-size="14.00">StringObject</text>
<polyline fill="none" stroke="black" points="254.056,-258.988 354.179,-258.988 "/>
<text text-anchor="middle" x="304.118" y="-243.788" font-family="'/usr/share/fonts/truetype/wqy/wqy-microhei.ttc'" font-size="14.00">&quot;2013.2.1&quot;</text>
</g>
<!-- dict&#45;&gt;date -->
<g id="edge3" class="edge"><title>dict:date&#45;&gt;date</title>
<path fill="none" stroke="black" stroke-width="2" d="M204.281,-250.988C217.05,-250.988 230.717,-251.66 243.689,-252.614"/>
<polygon fill="black" stroke="black" stroke-width="2" points="243.666,-256.123 253.913,-253.432 244.224,-249.145 243.666,-256.123"/>
</g>
<!-- book_name -->
<g id="node5" class="node"><title>book_name</title>
<polygon fill="lightgrey" stroke="black" points="403.954,-161.5 403.954,-210.477 607.225,-210.477 607.225,-161.5 403.954,-161.5"/>
<text text-anchor="middle" x="505.589" y="-195.277" font-family="'/usr/share/fonts/truetype/wqy/wqy-microhei.ttc'" font-size="14.00">StringObject</text>
<polyline fill="none" stroke="black" points="403.954,-185.988 607.225,-185.988 "/>
<text text-anchor="middle" x="505.589" y="-170.788" font-family="'/usr/share/fonts/truetype/wqy/wqy-microhei.ttc'" font-size="14.00">&quot;Mastering C++ in 21 days&quot;</text>
</g>
<!-- book&#45;&gt;book_name -->
<g id="edge6" class="edge"><title>book:name&#45;&gt;book_name:head</title>
<path fill="none" stroke="black" stroke-width="2" d="M355.118,-170.988C376.044,-170.988 378.768,-190.21 394.006,-196.217"/>
<polygon fill="black" stroke="black" stroke-width="2" points="393.495,-199.681 403.954,-197.988 394.723,-192.789 393.495,-199.681"/>
</g>
<!-- book_author -->
<g id="node6" class="node"><title>book_author</title>
<polygon fill="lightgrey" stroke="black" points="455.528,-93.5 455.528,-142.477 555.651,-142.477 555.651,-93.5 455.528,-93.5"/>
<text text-anchor="middle" x="505.589" y="-127.277" font-family="'/usr/share/fonts/truetype/wqy/wqy-microhei.ttc'" font-size="14.00">StringObject</text>
<polyline fill="none" stroke="black" points="455.528,-117.988 555.651,-117.988 "/>
<text text-anchor="middle" x="505.589" y="-102.788" font-family="'/usr/share/fonts/truetype/wqy/wqy-microhei.ttc'" font-size="14.00">&quot;Someone&quot;</text>
</g>
<!-- book&#45;&gt;book_author -->
<g id="edge7" class="edge"><title>book:author&#45;&gt;book_author:head</title>
<path fill="none" stroke="black" stroke-width="2" d="M355.118,-129.988C395.701,-129.988 408.343,-129.988 444.342,-129.988"/>
<polygon fill="black" stroke="black" stroke-width="2" points="444.589,-133.488 454.589,-129.988 444.589,-126.488 444.589,-133.488"/>
</g>
<!-- book_publisher -->
<g id="node7" class="node"><title>book_publisher</title>
<polygon fill="lightgrey" stroke="black" points="422.387,-25.5 422.387,-74.4766 588.792,-74.4766 588.792,-25.5 422.387,-25.5"/>
<text text-anchor="middle" x="505.589" y="-59.2766" font-family="'/usr/share/fonts/truetype/wqy/wqy-microhei.ttc'" font-size="14.00">StringObject</text>
<polyline fill="none" stroke="black" points="422.387,-49.9883 588.792,-49.9883 "/>
<text text-anchor="middle" x="505.589" y="-34.7883" font-family="'/usr/share/fonts/truetype/wqy/wqy-microhei.ttc'" font-size="14.00">&quot;Oh&#45;Really? Publisher&quot;</text>
</g>
<!-- book&#45;&gt;book_publisher -->
<g id="edge8" class="edge"><title>book:publisher&#45;&gt;book_publisher:head</title>
<path fill="none" stroke="black" stroke-width="2" d="M355.118,-88.9883C383.268,-88.9883 388.669,-67.9456 411.488,-63.0137"/>
<polygon fill="black" stroke="black" stroke-width="2" points="411.994,-66.4804 421.589,-61.9883 411.287,-59.5162 411.994,-66.4804"/>
</g>
</g>
</svg>
