<?xml version="1.0" encoding="UTF-8" standalone="no"?>
<!DOCTYPE svg PUBLIC "-//W3C//DTD SVG 1.1//EN"
 "http://www.w3.org/Graphics/SVG/1.1/DTD/svg11.dtd">
<!-- Generated by graphviz version 2.38.0 (20140413.2041)
 -->
<!-- Title: db_blocking_keys Pages: 1 -->
<svg width="502pt" height="167pt"
 viewBox="0.00 0.00 502.25 167.46" xmlns="http://www.w3.org/2000/svg" xmlns:xlink="http://www.w3.org/1999/xlink">
<g id="graph0" class="graph" transform="scale(1 1) rotate(0) translate(4 163.465)">
<title>db_blocking_keys</title>
<polygon fill="white" stroke="none" points="-4,4 -4,-163.465 498.251,-163.465 498.251,4 -4,4"/>
<!-- blocking_keys -->
<g id="node1" class="node"><title>blocking_keys</title>
<polygon fill="#a8e270" stroke="black" points="0,-0.5 0,-147.43 110.726,-147.43 110.726,-0.5 0,-0.5"/>
<text text-anchor="middle" x="55.3628" y="-132.23" font-family="'/usr/share/fonts/truetype/wqy/wqy-microhei.ttc'" font-size="14.00">blocking_keys</text>
<polyline fill="none" stroke="black" points="0,-122.941 110.726,-122.941 "/>
<text text-anchor="middle" x="55.3628" y="-107.741" font-family="'/usr/share/fonts/truetype/wqy/wqy-microhei.ttc'" font-size="14.00">key1</text>
<polyline fill="none" stroke="black" points="0,-98.4531 110.726,-98.4531 "/>
<text text-anchor="middle" x="55.3628" y="-83.2531" font-family="'/usr/share/fonts/truetype/wqy/wqy-microhei.ttc'" font-size="14.00">key2</text>
<polyline fill="none" stroke="black" points="0,-73.9648 110.726,-73.9648 "/>
<text text-anchor="middle" x="55.3628" y="-58.7648" font-family="'/usr/share/fonts/truetype/wqy/wqy-microhei.ttc'" font-size="14.00">key3</text>
<polyline fill="none" stroke="black" points="0,-49.4766 110.726,-49.4766 "/>
<text text-anchor="middle" x="55.3628" y="-34.2766" font-family="'/usr/share/fonts/truetype/wqy/wqy-microhei.ttc'" font-size="14.00">...</text>
<polyline fill="none" stroke="black" points="0,-24.9883 110.726,-24.9883 "/>
<text text-anchor="middle" x="55.3628" y="-9.78828" font-family="'/usr/share/fonts/truetype/wqy/wqy-microhei.ttc'" font-size="14.00">keyN</text>
</g>
<!-- client2 -->
<g id="node4" class="node"><title>client2</title>
<polygon fill="#95bbe3" stroke="black" points="146.726,-122.965 146.726,-158.965 208.567,-158.965 208.567,-122.965 146.726,-122.965"/>
<text text-anchor="middle" x="177.646" y="-138.265" font-family="'/usr/share/fonts/truetype/wqy/wqy-microhei.ttc'" font-size="14.00">client2</text>
</g>
<!-- blocking_keys&#45;&gt;client2 -->
<g id="edge1" class="edge"><title>blocking_keys:key1&#45;&gt;client2</title>
<path fill="none" stroke="black" stroke-width="2" d="M110.726,-110.965C121.099,-110.965 131.633,-114.08 141.146,-118.304"/>
<polygon fill="black" stroke="black" stroke-width="2" points="139.761,-121.523 150.276,-122.822 142.865,-115.249 139.761,-121.523"/>
</g>
<!-- client7 -->
<g id="node6" class="node"><title>client7</title>
<polygon fill="#95bbe3" stroke="black" points="146.726,-67.9648 146.726,-103.965 208.567,-103.965 208.567,-67.9648 146.726,-67.9648"/>
<text text-anchor="middle" x="177.646" y="-83.2648" font-family="'/usr/share/fonts/truetype/wqy/wqy-microhei.ttc'" font-size="14.00">client7</text>
</g>
<!-- blocking_keys&#45;&gt;client7 -->
<g id="edge5" class="edge"><title>blocking_keys:key2&#45;&gt;client7</title>
<path fill="none" stroke="black" stroke-width="2" d="M110.726,-85.9648C119.025,-85.9648 127.912,-85.9648 136.387,-85.9648"/>
<polygon fill="black" stroke="black" stroke-width="2" points="136.455,-89.4649 146.455,-85.9648 136.455,-82.4649 136.455,-89.4649"/>
</g>
<!-- client3 -->
<g id="node8" class="node"><title>client3</title>
<polygon fill="#95bbe3" stroke="black" points="146.726,-12.9648 146.726,-48.9648 208.567,-48.9648 208.567,-12.9648 146.726,-12.9648"/>
<text text-anchor="middle" x="177.646" y="-28.2648" font-family="'/usr/share/fonts/truetype/wqy/wqy-microhei.ttc'" font-size="14.00">client3</text>
</g>
<!-- blocking_keys&#45;&gt;client3 -->
<g id="edge7" class="edge"><title>blocking_keys:key3&#45;&gt;client3</title>
<path fill="none" stroke="black" stroke-width="2" d="M110.726,-61.9648C121.651,-61.9648 132.71,-58.4345 142.568,-53.7566"/>
<polygon fill="black" stroke="black" stroke-width="2" points="144.39,-56.7531 151.608,-48.9977 141.129,-50.559 144.39,-56.7531"/>
</g>
<!-- client1 -->
<g id="node2" class="node"><title>client1</title>
<polygon fill="#95bbe3" stroke="black" points="342.409,-122.965 342.409,-158.965 404.251,-158.965 404.251,-122.965 342.409,-122.965"/>
<text text-anchor="middle" x="373.33" y="-138.265" font-family="'/usr/share/fonts/truetype/wqy/wqy-microhei.ttc'" font-size="14.00">client1</text>
</g>
<!-- null_1 -->
<g id="node5" class="node"><title>null_1</title>
<polygon fill="lightgrey" stroke="none" points="494.251,-158.965 440.251,-158.965 440.251,-122.965 494.251,-122.965 494.251,-158.965"/>
<text text-anchor="middle" x="467.251" y="-138.009" font-family="'/usr/share/fonts/truetype/wqy/wqy-microhei.ttc'" font-size="14.00">NULL</text>
</g>
<!-- client1&#45;&gt;null_1 -->
<g id="edge4" class="edge"><title>client1&#45;&gt;null_1</title>
<path fill="none" stroke="black" stroke-width="2" d="M404.428,-140.965C412.618,-140.965 421.573,-140.965 430.062,-140.965"/>
<polygon fill="black" stroke="black" stroke-width="2" points="430.102,-144.465 440.102,-140.965 430.102,-137.465 430.102,-144.465"/>
</g>
<!-- client5 -->
<g id="node3" class="node"><title>client5</title>
<polygon fill="#95bbe3" stroke="black" points="244.567,-122.965 244.567,-158.965 306.409,-158.965 306.409,-122.965 244.567,-122.965"/>
<text text-anchor="middle" x="275.488" y="-138.265" font-family="'/usr/share/fonts/truetype/wqy/wqy-microhei.ttc'" font-size="14.00">client5</text>
</g>
<!-- client5&#45;&gt;client1 -->
<g id="edge3" class="edge"><title>client5&#45;&gt;client1</title>
<path fill="none" stroke="black" stroke-width="2" d="M306.55,-140.965C314.668,-140.965 323.584,-140.965 332.16,-140.965"/>
<polygon fill="black" stroke="black" stroke-width="2" points="332.375,-144.465 342.375,-140.965 332.375,-137.465 332.375,-144.465"/>
</g>
<!-- client2&#45;&gt;client5 -->
<g id="edge2" class="edge"><title>client2&#45;&gt;client5</title>
<path fill="none" stroke="black" stroke-width="2" d="M208.708,-140.965C216.826,-140.965 225.742,-140.965 234.318,-140.965"/>
<polygon fill="black" stroke="black" stroke-width="2" points="234.533,-144.465 244.533,-140.965 234.533,-137.465 234.533,-144.465"/>
</g>
<!-- null_2 -->
<g id="node7" class="node"><title>null_2</title>
<polygon fill="lightgrey" stroke="none" points="302.488,-103.965 248.488,-103.965 248.488,-67.9648 302.488,-67.9648 302.488,-103.965"/>
<text text-anchor="middle" x="275.488" y="-83.009" font-family="'/usr/share/fonts/truetype/wqy/wqy-microhei.ttc'" font-size="14.00">NULL</text>
</g>
<!-- client7&#45;&gt;null_2 -->
<g id="edge6" class="edge"><title>client7&#45;&gt;null_2</title>
<path fill="none" stroke="black" stroke-width="2" d="M208.708,-85.9648C218.062,-85.9648 228.474,-85.9648 238.205,-85.9648"/>
<polygon fill="black" stroke="black" stroke-width="2" points="238.414,-89.4649 248.414,-85.9648 238.414,-82.4649 238.414,-89.4649"/>
</g>
<!-- client4 -->
<g id="node9" class="node"><title>client4</title>
<polygon fill="#95bbe3" stroke="black" points="244.567,-12.9648 244.567,-48.9648 306.409,-48.9648 306.409,-12.9648 244.567,-12.9648"/>
<text text-anchor="middle" x="275.488" y="-28.2648" font-family="'/usr/share/fonts/truetype/wqy/wqy-microhei.ttc'" font-size="14.00">client4</text>
</g>
<!-- client3&#45;&gt;client4 -->
<g id="edge8" class="edge"><title>client3&#45;&gt;client4</title>
<path fill="none" stroke="black" stroke-width="2" d="M208.708,-30.9648C216.826,-30.9648 225.742,-30.9648 234.318,-30.9648"/>
<polygon fill="black" stroke="black" stroke-width="2" points="234.533,-34.4649 244.533,-30.9648 234.533,-27.4649 234.533,-34.4649"/>
</g>
<!-- client6 -->
<g id="node10" class="node"><title>client6</title>
<polygon fill="#95bbe3" stroke="black" points="342.409,-12.9648 342.409,-48.9648 404.251,-48.9648 404.251,-12.9648 342.409,-12.9648"/>
<text text-anchor="middle" x="373.33" y="-28.2648" font-family="'/usr/share/fonts/truetype/wqy/wqy-microhei.ttc'" font-size="14.00">client6</text>
</g>
<!-- client4&#45;&gt;client6 -->
<g id="edge9" class="edge"><title>client4&#45;&gt;client6</title>
<path fill="none" stroke="black" stroke-width="2" d="M306.55,-30.9648C314.668,-30.9648 323.584,-30.9648 332.16,-30.9648"/>
<polygon fill="black" stroke="black" stroke-width="2" points="332.375,-34.4649 342.375,-30.9648 332.375,-27.4649 332.375,-34.4649"/>
</g>
<!-- null_3 -->
<g id="node11" class="node"><title>null_3</title>
<polygon fill="lightgrey" stroke="none" points="494.251,-48.9648 440.251,-48.9648 440.251,-12.9648 494.251,-12.9648 494.251,-48.9648"/>
<text text-anchor="middle" x="467.251" y="-28.009" font-family="'/usr/share/fonts/truetype/wqy/wqy-microhei.ttc'" font-size="14.00">NULL</text>
</g>
<!-- client6&#45;&gt;null_3 -->
<g id="edge10" class="edge"><title>client6&#45;&gt;null_3</title>
<path fill="none" stroke="black" stroke-width="2" d="M404.428,-30.9648C412.618,-30.9648 421.573,-30.9648 430.062,-30.9648"/>
<polygon fill="black" stroke="black" stroke-width="2" points="430.102,-34.4649 440.102,-30.9648 430.102,-27.4649 430.102,-34.4649"/>
</g>
</g>
</svg>
