<?xml version="1.0" encoding="UTF-8" standalone="no"?>
<!DOCTYPE svg PUBLIC "-//W3C//DTD SVG 1.1//EN"
 "http://www.w3.org/Graphics/SVG/1.1/DTD/svg11.dtd">
<!-- Generated by graphviz version 2.38.0 (20140413.2041)
 -->
<!-- Title: g Pages: 1 -->
<svg width="287pt" height="209pt"
 viewBox="0.00 0.00 286.89 208.60" xmlns="http://www.w3.org/2000/svg" xmlns:xlink="http://www.w3.org/1999/xlink">
<g id="graph0" class="graph" transform="scale(1 1) rotate(0) translate(4 204.6)">
<title>g</title>
<polygon fill="white" stroke="none" points="-4,4 -4,-204.6 282.891,-204.6 282.891,4 -4,4"/>
<!-- add -->
<g id="node1" class="node"><title>add</title>
<polygon fill="#a8e270" stroke="none" points="196.184,-200.6 54.362,-200.6 54.362,-164.6 196.184,-164.6 196.184,-200.6"/>
<text text-anchor="middle" x="125.273" y="-179.854" font-family="'/usr/share/fonts/truetype/wqy/wqy-microhei.ttc'" font-size="14.00">添加新元素到 intset</text>
</g>
<!-- upgrade_or_not -->
<g id="node2" class="node"><title>upgrade_or_not</title>
<polygon fill="#95bbe3" stroke="black" points="125.273,-127.6 0.226446,-109.6 125.273,-91.5999 250.32,-109.6 125.273,-127.6"/>
<text text-anchor="middle" x="125.273" y="-106.854" font-family="'/usr/share/fonts/truetype/wqy/wqy-microhei.ttc'" font-size="14.00">intset 需要升级？</text>
</g>
<!-- add&#45;&gt;upgrade_or_not -->
<g id="edge1" class="edge"><title>add&#45;&gt;upgrade_or_not</title>
<path fill="none" stroke="black" stroke-width="2" d="M125.273,-164.413C125.273,-156.389 125.273,-146.647 125.273,-137.669"/>
<polygon fill="black" stroke="black" stroke-width="2" points="128.773,-137.629 125.273,-127.629 121.773,-137.629 128.773,-137.629"/>
</g>
<!-- intsetAdd -->
<g id="node3" class="node"><title>intsetAdd</title>
<polygon fill="lightgrey" stroke="none" points="95.5372,-36 15.0091,-36 15.0091,-0 95.5372,-0 95.5372,-36"/>
<text text-anchor="middle" x="55.2731" y="-15.0441" font-family="'/usr/share/fonts/truetype/wqy/wqy-microhei.ttc'" font-size="14.00">intsetAdd</text>
</g>
<!-- upgrade_or_not&#45;&gt;intsetAdd -->
<g id="edge2" class="edge"><title>upgrade_or_not&#45;&gt;intsetAdd</title>
<path fill="none" stroke="black" stroke-width="2" d="M113.08,-92.9928C102.636,-79.6246 87.3934,-60.1139 75.182,-44.4833"/>
<polygon fill="black" stroke="black" stroke-width="2" points="77.6741,-41.988 68.7595,-36.2625 72.1579,-46.2975 77.6741,-41.988"/>
<text text-anchor="middle" x="118.273" y="-62.3999" font-family="Times,serif" font-size="14.00">不需要</text>
</g>
<!-- intsetUpgradeAndAdd -->
<g id="node4" class="node"><title>intsetUpgradeAndAdd</title>
<polygon fill="lightgrey" stroke="none" points="279.009,-36 113.538,-36 113.538,-0 279.009,-0 279.009,-36"/>
<text text-anchor="middle" x="196.273" y="-15.0441" font-family="'/usr/share/fonts/truetype/wqy/wqy-microhei.ttc'" font-size="14.00">intsetUpgradeAndAdd</text>
</g>
<!-- upgrade_or_not&#45;&gt;intsetUpgradeAndAdd -->
<g id="edge3" class="edge"><title>upgrade_or_not&#45;&gt;intsetUpgradeAndAdd</title>
<path fill="none" stroke="black" stroke-width="2" d="M137.64,-92.9928C148.234,-79.6246 163.694,-60.1139 176.08,-44.4833"/>
<polygon fill="black" stroke="black" stroke-width="2" points="179.127,-46.2739 182.594,-36.2625 173.64,-41.9264 179.127,-46.2739"/>
<text text-anchor="middle" x="181.273" y="-62.3999" font-family="Times,serif" font-size="14.00">需要</text>
</g>
</g>
</svg>
