<?xml version="1.0" encoding="UTF-8" standalone="no"?>
<!DOCTYPE svg PUBLIC "-//W3C//DTD SVG 1.1//EN"
 "http://www.w3.org/Graphics/SVG/1.1/DTD/svg11.dtd">
<!-- Generated by graphviz version 2.38.0 (20140413.2041)
 -->
<!-- Title: redis_zset Pages: 1 -->
<svg width="439pt" height="268pt"
 viewBox="0.00 0.00 439.03 267.88" xmlns="http://www.w3.org/2000/svg" xmlns:xlink="http://www.w3.org/1999/xlink">
<g id="graph0" class="graph" transform="scale(1 1) rotate(0) translate(4 263.885)">
<title>redis_zset</title>
<polygon fill="white" stroke="none" points="-4,4 -4,-263.885 435.025,-263.885 435.025,4 -4,4"/>
<!-- REDIS_ZSET -->
<g id="node1" class="node"><title>REDIS_ZSET</title>
<polygon fill="#95bbe3" stroke="none" points="247.252,-259.839 154.237,-259.839 154.237,-221.022 247.252,-221.022 247.252,-259.839"/>
<text text-anchor="middle" x="200.745" y="-244.685" font-family="'/usr/share/fonts/truetype/wqy/wqy-microhei.ttc'" font-size="14.00">有序集合</text>
<text text-anchor="middle" x="200.745" y="-230.265" font-family="'/usr/share/fonts/truetype/wqy/wqy-microhei.ttc'" font-size="14.00">REDIS_ZSET</text>
</g>
<!-- REDIS_ENCODING_ZIPLIST -->
<g id="node2" class="node"><title>REDIS_ENCODING_ZIPLIST</title>
<polygon fill="#fadcad" stroke="none" points="189.735,-184.965 -0.245262,-184.965 -0.245262,-144.012 189.735,-144.012 189.735,-184.965"/>
<text text-anchor="middle" x="94.7446" y="-169.777" font-family="'/usr/share/fonts/truetype/wqy/wqy-microhei.ttc'" font-size="14.00">ziplist</text>
<text text-anchor="middle" x="94.7446" y="-153.288" font-family="'/usr/share/fonts/truetype/wqy/wqy-microhei.ttc'" font-size="14.00">REDIS_ENCODING_ZIPLIST</text>
</g>
<!-- REDIS_ZSET&#45;&gt;REDIS_ENCODING_ZIPLIST -->
<g id="edge1" class="edge"><title>REDIS_ZSET&#45;&gt;REDIS_ENCODING_ZIPLIST</title>
<path fill="none" stroke="black" stroke-width="2" d="M174.27,-220.963C161.27,-211.894 145.401,-200.825 131.268,-190.966"/>
<polygon fill="black" stroke="black" stroke-width="2" points="132.938,-187.863 122.734,-185.013 128.933,-193.604 132.938,-187.863"/>
</g>
<!-- REDIS_ENCODING_SKIPLIST -->
<g id="node3" class="node"><title>REDIS_ENCODING_SKIPLIST</title>
<polygon fill="#fadcad" stroke="none" points="405.369,-183.897 208.12,-183.897 208.12,-145.08 405.369,-145.08 405.369,-183.897"/>
<text text-anchor="middle" x="306.745" y="-168.742" font-family="'/usr/share/fonts/truetype/wqy/wqy-microhei.ttc'" font-size="14.00">跳跃表</text>
<text text-anchor="middle" x="306.745" y="-154.322" font-family="'/usr/share/fonts/truetype/wqy/wqy-microhei.ttc'" font-size="14.00">REDIS_ENCODING_SKIPLIST</text>
</g>
<!-- REDIS_ZSET&#45;&gt;REDIS_ENCODING_SKIPLIST -->
<g id="edge2" class="edge"><title>REDIS_ZSET&#45;&gt;REDIS_ENCODING_SKIPLIST</title>
<path fill="none" stroke="black" stroke-width="2" d="M227.219,-220.963C240.752,-211.523 257.394,-199.914 271.95,-189.76"/>
<polygon fill="black" stroke="black" stroke-width="2" points="274.041,-192.569 280.24,-183.977 270.036,-186.828 274.041,-192.569"/>
</g>
<!-- ziplist -->
<g id="node4" class="node"><title>ziplist</title>
<polygon fill="lightgrey" stroke="none" points="122.933,-108 66.5563,-108 66.5563,-72 122.933,-72 122.933,-108"/>
<text text-anchor="middle" x="94.7446" y="-87.0441" font-family="'/usr/share/fonts/truetype/wqy/wqy-microhei.ttc'" font-size="14.00">ziplist</text>
</g>
<!-- REDIS_ENCODING_ZIPLIST&#45;&gt;ziplist -->
<g id="edge3" class="edge"><title>REDIS_ENCODING_ZIPLIST&#45;&gt;ziplist</title>
<path fill="none" stroke="black" stroke-width="2" d="M94.7446,-143.681C94.7446,-135.899 94.7446,-126.836 94.7446,-118.443"/>
<polygon fill="black" stroke="black" stroke-width="2" points="98.2447,-118.317 94.7446,-108.317 91.2447,-118.317 98.2447,-118.317"/>
</g>
<!-- zset -->
<g id="node5" class="node"><title>zset</title>
<polygon fill="lightgrey" stroke="none" points="355.1,-108 258.389,-108 258.389,-72 355.1,-72 355.1,-108"/>
<text text-anchor="middle" x="306.745" y="-87.0441" font-family="'/usr/share/fonts/truetype/wqy/wqy-microhei.ttc'" font-size="14.00">redis.h/zset</text>
</g>
<!-- REDIS_ENCODING_SKIPLIST&#45;&gt;zset -->
<g id="edge4" class="edge"><title>REDIS_ENCODING_SKIPLIST&#45;&gt;zset</title>
<path fill="none" stroke="black" stroke-width="2" d="M306.745,-144.821C306.745,-136.828 306.745,-127.331 306.745,-118.556"/>
<polygon fill="black" stroke="black" stroke-width="2" points="310.245,-118.36 306.745,-108.36 303.245,-118.36 310.245,-118.36"/>
</g>
<!-- dict -->
<g id="node6" class="node"><title>dict</title>
<polygon fill="lightgrey" stroke="none" points="288.236,-36 201.253,-36 201.253,-0 288.236,-0 288.236,-36"/>
<text text-anchor="middle" x="244.745" y="-15.0441" font-family="'/usr/share/fonts/truetype/wqy/wqy-microhei.ttc'" font-size="14.00">dict.h/dict</text>
</g>
<!-- zset&#45;&gt;dict -->
<g id="edge5" class="edge"><title>zset&#45;&gt;dict</title>
<path fill="none" stroke="black" stroke-width="2" d="M291.419,-71.6966C283.986,-63.3046 274.921,-53.0705 266.765,-43.8613"/>
<polygon fill="black" stroke="black" stroke-width="2" points="269.145,-41.2696 259.894,-36.1043 263.904,-45.9109 269.145,-41.2696"/>
</g>
<!-- zskiplist -->
<g id="node7" class="node"><title>zskiplist</title>
<polygon fill="lightgrey" stroke="none" points="430.807,-36 306.682,-36 306.682,-0 430.807,-0 430.807,-36"/>
<text text-anchor="middle" x="368.745" y="-15.0441" font-family="'/usr/share/fonts/truetype/wqy/wqy-microhei.ttc'" font-size="14.00">redis.h/zskiplist</text>
</g>
<!-- zset&#45;&gt;zskiplist -->
<g id="edge6" class="edge"><title>zset&#45;&gt;zskiplist</title>
<path fill="none" stroke="black" stroke-width="2" d="M322.07,-71.6966C329.503,-63.3046 338.568,-53.0705 346.725,-43.8613"/>
<polygon fill="black" stroke="black" stroke-width="2" points="349.585,-45.9109 353.595,-36.1043 344.345,-41.2696 349.585,-45.9109"/>
</g>
</g>
</svg>
