<?xml version="1.0" encoding="UTF-8" standalone="no"?>
<!DOCTYPE svg PUBLIC "-//W3C//DTD SVG 1.1//EN"
 "http://www.w3.org/Graphics/SVG/1.1/DTD/svg11.dtd">
<!-- Generated by graphviz version 2.38.0 (20140413.2041)
 -->
<!-- Title: propagate Pages: 1 -->
<svg width="329pt" height="555pt"
 viewBox="0.00 0.00 328.73 555.05" xmlns="http://www.w3.org/2000/svg" xmlns:xlink="http://www.w3.org/1999/xlink">
<g id="graph0" class="graph" transform="scale(1 1) rotate(0) translate(4 551.046)">
<title>propagate</title>
<polygon fill="white" stroke="none" points="-4,4 -4,-551.046 324.726,-551.046 324.726,4 -4,4"/>
<!-- exec -->
<g id="node1" class="node"><title>exec</title>
<polygon fill="#fadcad" stroke="none" points="266.296,-547.046 166.296,-547.046 166.296,-511.046 266.296,-511.046 266.296,-547.046"/>
<text text-anchor="middle" x="216.296" y="-525.056" font-family="'/usr/share/fonts/truetype/wqy/wqy-microhei.ttc'" font-size="14.00">命令执行成功</text>
</g>
<!-- aof_choice -->
<g id="node2" class="node"><title>aof_choice</title>
<polygon fill="#95bbe3" stroke="black" points="216.296,-473.943 111.936,-432.649 216.296,-391.356 320.655,-432.649 216.296,-473.943"/>
<text text-anchor="middle" x="216.296" y="-438.148" font-family="'/usr/share/fonts/truetype/wqy/wqy-microhei.ttc'" font-size="14.00">AOF</text>
<text text-anchor="middle" x="216.296" y="-421.659" font-family="'/usr/share/fonts/truetype/wqy/wqy-microhei.ttc'" font-size="14.00"> 功能已打开？</text>
</g>
<!-- exec&#45;&gt;aof_choice -->
<g id="edge1" class="edge"><title>exec&#45;&gt;aof_choice</title>
<path fill="none" stroke="black" stroke-width="2" d="M216.296,-510.732C216.296,-503.069 216.296,-493.619 216.296,-483.995"/>
<polygon fill="black" stroke="black" stroke-width="2" points="219.796,-483.969 216.296,-473.969 212.796,-483.969 219.796,-483.969"/>
</g>
<!-- propagate_aof -->
<g id="node3" class="node"><title>propagate_aof</title>
<polygon fill="#a8e270" stroke="none" points="208.628,-335.653 57.9638,-335.653 57.9638,-299.653 208.628,-299.653 208.628,-335.653"/>
<text text-anchor="middle" x="133.296" y="-314.907" font-family="'/usr/share/fonts/truetype/wqy/wqy-microhei.ttc'" font-size="14.00">传播命令到 AOF 程序</text>
</g>
<!-- aof_choice&#45;&gt;propagate_aof -->
<g id="edge2" class="edge"><title>aof_choice&#45;&gt;propagate_aof</title>
<path fill="none" stroke="black" stroke-width="2" d="M193.176,-400.174C180.186,-382.49 164.187,-360.708 151.995,-344.109"/>
<polygon fill="black" stroke="black" stroke-width="2" points="154.743,-341.939 146.002,-335.951 149.101,-346.083 154.743,-341.939"/>
<text text-anchor="middle" x="180.296" y="-362.053" font-family="Times,serif" font-size="14.00">是</text>
</g>
<!-- replication_choice -->
<g id="node4" class="node"><title>replication_choice</title>
<polygon fill="#95bbe3" stroke="black" points="210.296,-262.55 105.936,-221.256 210.296,-179.963 314.655,-221.256 210.296,-262.55"/>
<text text-anchor="middle" x="210.296" y="-226.755" font-family="'/usr/share/fonts/truetype/wqy/wqy-microhei.ttc'" font-size="14.00">REPLICATION</text>
<text text-anchor="middle" x="210.296" y="-210.266" font-family="'/usr/share/fonts/truetype/wqy/wqy-microhei.ttc'" font-size="14.00"> 功能已打开？</text>
</g>
<!-- aof_choice&#45;&gt;replication_choice -->
<g id="edge4" class="edge"><title>aof_choice&#45;&gt;replication_choice</title>
<path fill="none" stroke="black" stroke-width="2" d="M217.69,-391.773C218.336,-365.576 218.691,-330.559 217.296,-299.653 216.88,-290.448 216.188,-280.646 215.397,-271.22"/>
<polygon fill="black" stroke="black" stroke-width="2" points="218.877,-270.838 214.508,-261.186 211.904,-271.457 218.877,-270.838"/>
<text text-anchor="middle" x="224.296" y="-316.253" font-family="Times,serif" font-size="14.00">否</text>
</g>
<!-- propagate_aof&#45;&gt;replication_choice -->
<g id="edge3" class="edge"><title>propagate_aof&#45;&gt;replication_choice</title>
<path fill="none" stroke="black" stroke-width="2" d="M147.419,-299.339C156.274,-288.483 168.053,-274.043 179.021,-260.598"/>
<polygon fill="black" stroke="black" stroke-width="2" points="181.747,-262.792 185.356,-252.831 176.323,-258.368 181.747,-262.792"/>
</g>
<!-- propagate_replication -->
<g id="node5" class="node"><title>propagate_replication</title>
<polygon fill="#a8e270" stroke="none" points="210.388,-124.26 0.203707,-124.26 0.203707,-88.2599 210.388,-88.2599 210.388,-124.26"/>
<text text-anchor="middle" x="105.296" y="-103.514" font-family="'/usr/share/fonts/truetype/wqy/wqy-microhei.ttc'" font-size="14.00">传播命令到 REPLICATION 程序</text>
</g>
<!-- replication_choice&#45;&gt;propagate_replication -->
<g id="edge6" class="edge"><title>replication_choice&#45;&gt;propagate_replication</title>
<path fill="none" stroke="black" stroke-width="2" d="M182.708,-190.568C165.742,-172.309 144.256,-149.187 128.227,-131.938"/>
<polygon fill="black" stroke="black" stroke-width="2" points="130.653,-129.407 121.282,-124.464 125.526,-134.172 130.653,-129.407"/>
<text text-anchor="middle" x="162.296" y="-150.66" font-family="Times,serif" font-size="14.00">是</text>
</g>
<!-- remaind_jobs -->
<g id="node6" class="node"><title>remaind_jobs</title>
<polygon fill="#fadcad" stroke="none" points="261.296,-51.3906 147.296,-51.3906 147.296,0.130637 261.296,0.130637 261.296,-51.3906"/>
<text text-anchor="middle" x="204.296" y="-36.0599" font-family="'/usr/share/fonts/truetype/wqy/wqy-microhei.ttc'" font-size="14.00">处理后续步骤：</text>
<text text-anchor="middle" x="204.296" y="-21.64" font-family="'/usr/share/fonts/truetype/wqy/wqy-microhei.ttc'" font-size="14.00">清理资源、</text>
<text text-anchor="middle" x="204.296" y="-7.21998" font-family="'/usr/share/fonts/truetype/wqy/wqy-microhei.ttc'" font-size="14.00">等等</text>
</g>
<!-- replication_choice&#45;&gt;remaind_jobs -->
<g id="edge5" class="edge"><title>replication_choice&#45;&gt;remaind_jobs</title>
<path fill="none" stroke="black" stroke-width="2" d="M216.638,-182.323C220.139,-155.89 223.084,-119.846 219.296,-88.2599 218.231,-79.3798 216.332,-69.931 214.235,-61.1681"/>
<polygon fill="black" stroke="black" stroke-width="2" points="217.575,-60.102 211.721,-51.2716 210.791,-61.8255 217.575,-60.102"/>
<text text-anchor="middle" x="227.296" y="-104.86" font-family="Times,serif" font-size="14.00">否</text>
</g>
<!-- propagate_replication&#45;&gt;remaind_jobs -->
<g id="edge7" class="edge"><title>propagate_replication&#45;&gt;remaind_jobs</title>
<path fill="none" stroke="black" stroke-width="2" d="M126.777,-88.1984C137.986,-79.2962 152.052,-68.1242 165.115,-57.7492"/>
<polygon fill="black" stroke="black" stroke-width="2" points="167.43,-60.3798 173.084,-51.4196 163.077,-54.8983 167.43,-60.3798"/>
</g>
</g>
</svg>
