<?xml version="1.0" encoding="UTF-8" standalone="no"?>
<!DOCTYPE svg PUBLIC "-//W3C//DTD SVG 1.1//EN"
 "http://www.w3.org/Graphics/SVG/1.1/DTD/svg11.dtd">
<!-- Generated by graphviz version 2.38.0 (20140413.2041)
 -->
<!-- Title: shared_integer Pages: 1 -->
<svg width="558pt" height="118pt"
 viewBox="0.00 0.00 558.33 118.00" xmlns="http://www.w3.org/2000/svg" xmlns:xlink="http://www.w3.org/1999/xlink">
<g id="graph0" class="graph" transform="scale(1 1) rotate(0) translate(4 114)">
<title>shared_integer</title>
<polygon fill="white" stroke="none" points="-4,4 -4,-114 554.329,-114 554.329,4 -4,4"/>
<!-- list_a -->
<g id="node1" class="node"><title>list_a</title>
<polygon fill="#a8e270" stroke="black" points="154.122,-73.5 154.122,-109.5 349.611,-109.5 349.611,-73.5 154.122,-73.5"/>
<text text-anchor="middle" x="166.952" y="-88.5441" font-family="'/usr/share/fonts/truetype/wqy/wqy-microhei.ttc'" font-size="14.00">A</text>
<polyline fill="none" stroke="black" points="179.781,-73.5 179.781,-109.5 "/>
<text text-anchor="middle" x="223.191" y="-88.5441" font-family="'/usr/share/fonts/truetype/wqy/wqy-microhei.ttc'" font-size="14.00">20130101</text>
<polyline fill="none" stroke="black" points="266.602,-73.5 266.602,-109.5 "/>
<text text-anchor="middle" x="277.975" y="-88.5441" font-family="'/usr/share/fonts/truetype/wqy/wqy-microhei.ttc'" font-size="14.00">*</text>
<polyline fill="none" stroke="black" points="289.349,-73.5 289.349,-109.5 "/>
<text text-anchor="middle" x="319.48" y="-88.5441" font-family="'/usr/share/fonts/truetype/wqy/wqy-microhei.ttc'" font-size="14.00">10086</text>
</g>
<!-- sl -->
<g id="node4" class="node"><title>sl</title>
<polygon fill="lightgrey" stroke="black" points="15.9038,-0.5 15.9038,-36.5 471.83,-36.5 471.83,-0.5 15.9038,-0.5"/>
<text text-anchor="middle" x="26.1187" y="-15.5441" font-family="'/usr/share/fonts/truetype/wqy/wqy-microhei.ttc'" font-size="14.00"> </text>
<polyline fill="none" stroke="black" points="36.3335,-0.5 36.3335,-36.5 "/>
<text text-anchor="middle" x="48.7598" y="-15.5441" font-family="'/usr/share/fonts/truetype/wqy/wqy-microhei.ttc'" font-size="14.00">0</text>
<polyline fill="none" stroke="black" points="61.186,-0.5 61.186,-36.5 "/>
<text text-anchor="middle" x="75.8306" y="-15.5441" font-family="'/usr/share/fonts/truetype/wqy/wqy-microhei.ttc'" font-size="14.00">...</text>
<polyline fill="none" stroke="black" points="90.4751,-0.5 90.4751,-36.5 "/>
<text text-anchor="middle" x="107.328" y="-15.5441" font-family="'/usr/share/fonts/truetype/wqy/wqy-microhei.ttc'" font-size="14.00">81</text>
<polyline fill="none" stroke="black" points="124.18,-0.5 124.18,-36.5 "/>
<text text-anchor="middle" x="138.825" y="-15.5441" font-family="'/usr/share/fonts/truetype/wqy/wqy-microhei.ttc'" font-size="14.00">...</text>
<polyline fill="none" stroke="black" points="153.469,-0.5 153.469,-36.5 "/>
<text text-anchor="middle" x="174.748" y="-15.5441" font-family="'/usr/share/fonts/truetype/wqy/wqy-microhei.ttc'" font-size="14.00">100</text>
<polyline fill="none" stroke="black" points="196.027,-0.5 196.027,-36.5 "/>
<text text-anchor="middle" x="217.306" y="-15.5441" font-family="'/usr/share/fonts/truetype/wqy/wqy-microhei.ttc'" font-size="14.00">123</text>
<polyline fill="none" stroke="black" points="238.584,-0.5 238.584,-36.5 "/>
<text text-anchor="middle" x="253.229" y="-15.5441" font-family="'/usr/share/fonts/truetype/wqy/wqy-microhei.ttc'" font-size="14.00">...</text>
<polyline fill="none" stroke="black" points="267.874,-0.5 267.874,-36.5 "/>
<text text-anchor="middle" x="289.152" y="-15.5441" font-family="'/usr/share/fonts/truetype/wqy/wqy-microhei.ttc'" font-size="14.00">300</text>
<polyline fill="none" stroke="black" points="310.431,-0.5 310.431,-36.5 "/>
<text text-anchor="middle" x="325.076" y="-15.5441" font-family="'/usr/share/fonts/truetype/wqy/wqy-microhei.ttc'" font-size="14.00">...</text>
<polyline fill="none" stroke="black" points="339.72,-0.5 339.72,-36.5 "/>
<text text-anchor="middle" x="360.999" y="-15.5441" font-family="'/usr/share/fonts/truetype/wqy/wqy-microhei.ttc'" font-size="14.00">999</text>
<polyline fill="none" stroke="black" points="382.278,-0.5 382.278,-36.5 "/>
<text text-anchor="middle" x="396.922" y="-15.5441" font-family="'/usr/share/fonts/truetype/wqy/wqy-microhei.ttc'" font-size="14.00">...</text>
<polyline fill="none" stroke="black" points="411.567,-0.5 411.567,-36.5 "/>
<text text-anchor="middle" x="441.698" y="-15.5441" font-family="'/usr/share/fonts/truetype/wqy/wqy-microhei.ttc'" font-size="14.00">10000</text>
</g>
<!-- list_a&#45;&gt;sl -->
<g id="edge1" class="edge"><title>list_a:300&#45;&gt;sl:300</title>
<path fill="none" stroke="#a8e270" stroke-width="2" d="M277.867,-73C277.867,-60.3216 284.184,-55.7927 287.244,-47.0617"/>
<polygon fill="#a8e270" stroke="#a8e270" stroke-width="2" points="290.729,-47.4298 288.867,-37 283.819,-46.315 290.729,-47.4298"/>
</g>
<!-- list_b -->
<g id="node2" class="node"><title>list_b</title>
<polygon fill="#95bbe3" stroke="black" points="367.404,-73.5 367.404,-109.5 550.329,-109.5 550.329,-73.5 367.404,-73.5"/>
<text text-anchor="middle" x="379.431" y="-88.5441" font-family="'/usr/share/fonts/truetype/wqy/wqy-microhei.ttc'" font-size="14.00">B</text>
<polyline fill="none" stroke="black" points="391.457,-73.5 391.457,-109.5 "/>
<text text-anchor="middle" x="402.831" y="-88.5441" font-family="'/usr/share/fonts/truetype/wqy/wqy-microhei.ttc'" font-size="14.00">*</text>
<polyline fill="none" stroke="black" points="414.204,-73.5 414.204,-109.5 "/>
<text text-anchor="middle" x="470.893" y="-88.5441" font-family="'/usr/share/fonts/truetype/wqy/wqy-microhei.ttc'" font-size="14.00">12345678910</text>
<polyline fill="none" stroke="black" points="527.582,-73.5 527.582,-109.5 "/>
<text text-anchor="middle" x="538.956" y="-88.5441" font-family="'/usr/share/fonts/truetype/wqy/wqy-microhei.ttc'" font-size="14.00">*</text>
</g>
<!-- list_b&#45;&gt;sl -->
<g id="edge2" class="edge"><title>list_b:81&#45;&gt;sl:81</title>
<path fill="none" stroke="#95bbe3" stroke-width="2" d="M402.867,-73C402.867,-10.4907 139.448,-92.8503 109.608,-46.7519"/>
<polygon fill="#95bbe3" stroke="#95bbe3" stroke-width="2" points="112.942,-45.6797 106.867,-37 106.204,-47.5741 112.942,-45.6797"/>
</g>
<!-- list_b&#45;&gt;sl -->
<g id="edge3" class="edge"><title>list_b:999&#45;&gt;sl:999</title>
<path fill="none" stroke="#95bbe3" stroke-width="2" d="M538.867,-73C538.867,3.92946 377.163,-106.407 362.003,-47.0339"/>
<polygon fill="#95bbe3" stroke="#95bbe3" stroke-width="2" points="365.47,-46.5424 360.867,-37 358.515,-47.3304 365.47,-46.5424"/>
</g>
<!-- list_c -->
<g id="node3" class="node"><title>list_c</title>
<polygon fill="#fadcad" stroke="black" points="0,-73.5 0,-109.5 135.733,-109.5 135.733,-73.5 0,-73.5"/>
<text text-anchor="middle" x="12.8433" y="-88.5441" font-family="'/usr/share/fonts/truetype/wqy/wqy-microhei.ttc'" font-size="14.00">C</text>
<polyline fill="none" stroke="black" points="25.6865,-73.5 25.6865,-109.5 "/>
<text text-anchor="middle" x="37.0601" y="-88.5441" font-family="'/usr/share/fonts/truetype/wqy/wqy-microhei.ttc'" font-size="14.00">*</text>
<polyline fill="none" stroke="black" points="48.4336,-73.5 48.4336,-109.5 "/>
<text text-anchor="middle" x="59.8071" y="-88.5441" font-family="'/usr/share/fonts/truetype/wqy/wqy-microhei.ttc'" font-size="14.00">*</text>
<polyline fill="none" stroke="black" points="71.1807,-73.5 71.1807,-109.5 "/>
<text text-anchor="middle" x="92.0835" y="-88.5441" font-family="'/usr/share/fonts/truetype/wqy/wqy-microhei.ttc'" font-size="14.00">&#45;25</text>
<polyline fill="none" stroke="black" points="112.986,-73.5 112.986,-109.5 "/>
<text text-anchor="middle" x="124.36" y="-88.5441" font-family="'/usr/share/fonts/truetype/wqy/wqy-microhei.ttc'" font-size="14.00">*</text>
</g>
<!-- list_c&#45;&gt;sl -->
<g id="edge4" class="edge"><title>list_c:100&#45;&gt;sl:100</title>
<path fill="none" stroke="#fadcad" stroke-width="2" d="M36.8667,-73C36.8667,-13.5757 158.156,-89.6416 173.317,-47.1536"/>
<polygon fill="#fadcad" stroke="#fadcad" stroke-width="2" points="176.818,-47.4136 174.867,-37 169.898,-46.3574 176.818,-47.4136"/>
</g>
<!-- list_c&#45;&gt;sl -->
<g id="edge5" class="edge"><title>list_c:0&#45;&gt;sl:0</title>
<path fill="none" stroke="#fadcad" stroke-width="2" d="M59.8667,-73C59.8667,-60.3216 53.5496,-55.7927 50.4898,-47.0617"/>
<polygon fill="#fadcad" stroke="#fadcad" stroke-width="2" points="53.9147,-46.315 48.8667,-37 47.004,-47.4298 53.9147,-46.315"/>
</g>
<!-- list_c&#45;&gt;sl -->
<g id="edge6" class="edge"><title>list_c:123&#45;&gt;sl:123</title>
<path fill="none" stroke="#fadcad" stroke-width="2" d="M136.867,-91.5C145.825,-91.5 138.711,-79.5076 144.867,-73 166.668,-49.9538 206.418,-67.6033 215.143,-46.954"/>
<polygon fill="#fadcad" stroke="#fadcad" stroke-width="2" points="218.61,-47.4505 216.867,-37 211.712,-46.2564 218.61,-47.4505"/>
</g>
</g>
</svg>
