<?xml version="1.0" encoding="UTF-8" standalone="no"?>
<!DOCTYPE svg PUBLIC "-//W3C//DTD SVG 1.1//EN"
 "http://www.w3.org/Graphics/SVG/1.1/DTD/svg11.dtd">
<!-- Generated by graphviz version 2.38.0 (20140413.2041)
 -->
<!-- Title: dictAdd Pages: 1 -->
<svg width="593pt" height="965pt"
 viewBox="0.00 0.00 593.29 964.79" xmlns="http://www.w3.org/2000/svg" xmlns:xlink="http://www.w3.org/1999/xlink">
<g id="graph0" class="graph" transform="scale(1 1) rotate(0) translate(4 960.786)">
<title>dictAdd</title>
<polygon fill="white" stroke="none" points="-4,4 -4,-960.786 589.287,-960.786 589.287,4 -4,4"/>
<!-- start -->
<g id="node1" class="node"><title>start</title>
<polygon fill="#a8e270" stroke="none" points="143.965,-956.786 75.8667,-956.786 75.8667,-920.786 143.965,-920.786 143.965,-956.786"/>
<text text-anchor="middle" x="109.916" y="-935.83" font-family="'/usr/share/fonts/truetype/wqy/wqy-microhei.ttc'" font-size="14.00">dictAdd</text>
</g>
<!-- key_exists_or_not -->
<g id="node2" class="node"><title>key_exists_or_not</title>
<polygon fill="#95bbe3" stroke="black" points="109.916,-883.786 19.6624,-865.786 109.916,-847.786 200.17,-865.786 109.916,-883.786"/>
<text text-anchor="middle" x="109.916" y="-861.796" font-family="'/usr/share/fonts/truetype/wqy/wqy-microhei.ttc'" font-size="14.00">键已经存在？</text>
</g>
<!-- start&#45;&gt;key_exists_or_not -->
<g id="edge1" class="edge"><title>start&#45;&gt;key_exists_or_not</title>
<path fill="none" stroke="black" stroke-width="2" d="M109.916,-920.598C109.916,-912.575 109.916,-902.833 109.916,-893.855"/>
<polygon fill="black" stroke="black" stroke-width="2" points="113.416,-893.814 109.916,-883.814 106.416,-893.814 113.416,-893.814"/>
</g>
<!-- return_null_if_key_exists -->
<g id="node3" class="node"><title>return_null_if_key_exists</title>
<polygon fill="lightgrey" stroke="none" points="101.748,-770.619 0.0838461,-770.619 0.0838461,-730.959 101.748,-730.959 101.748,-770.619"/>
<text text-anchor="middle" x="50.916" y="-755.253" font-family="'/usr/share/fonts/truetype/wqy/wqy-microhei.ttc'" font-size="14.00">返回 NULL ，</text>
<text text-anchor="middle" x="50.916" y="-738.345" font-family="'/usr/share/fonts/truetype/wqy/wqy-microhei.ttc'" font-size="14.00">表示添加失败</text>
</g>
<!-- key_exists_or_not&#45;&gt;return_null_if_key_exists -->
<g id="edge2" class="edge"><title>key_exists_or_not&#45;&gt;return_null_if_key_exists</title>
<path fill="none" stroke="black" stroke-width="2" d="M101.712,-849.074C92.3897,-831.219 76.9913,-801.728 65.5878,-779.888"/>
<polygon fill="black" stroke="black" stroke-width="2" points="68.5514,-778.002 60.8204,-770.758 62.3464,-781.242 68.5514,-778.002"/>
<text text-anchor="middle" x="97.916" y="-818.586" font-family="Times,serif" font-size="14.00">是</text>
</g>
<!-- dict_empty_or_not -->
<g id="node4" class="node"><title>dict_empty_or_not</title>
<polygon fill="#95bbe3" stroke="black" points="251.916,-792.082 119.557,-750.789 251.916,-709.496 384.275,-750.789 251.916,-792.082"/>
<text text-anchor="middle" x="251.916" y="-756.287" font-family="'/usr/share/fonts/truetype/wqy/wqy-microhei.ttc'" font-size="14.00">ht[0]</text>
<text text-anchor="middle" x="251.916" y="-739.799" font-family="'/usr/share/fonts/truetype/wqy/wqy-microhei.ttc'" font-size="14.00"> 未分配任何空间？</text>
</g>
<!-- key_exists_or_not&#45;&gt;dict_empty_or_not -->
<g id="edge3" class="edge"><title>key_exists_or_not&#45;&gt;dict_empty_or_not</title>
<path fill="none" stroke="black" stroke-width="2" d="M127.045,-851.156C146.85,-835.395 180.223,-808.839 207.488,-787.143"/>
<polygon fill="black" stroke="black" stroke-width="2" points="209.718,-789.841 215.364,-780.875 205.36,-784.363 209.718,-789.841"/>
<text text-anchor="middle" x="182.916" y="-818.586" font-family="Times,serif" font-size="14.00">否</text>
</g>
<!-- init_hash_table_one -->
<g id="node5" class="node"><title>init_hash_table_one</title>
<polygon fill="lightgrey" stroke="none" points="244.229,-653.793 149.603,-653.793 149.603,-617.793 244.229,-617.793 244.229,-653.793"/>
<text text-anchor="middle" x="196.916" y="-633.047" font-family="'/usr/share/fonts/truetype/wqy/wqy-microhei.ttc'" font-size="14.00">初始化 ht[0]</text>
</g>
<!-- dict_empty_or_not&#45;&gt;init_hash_table_one -->
<g id="edge4" class="edge"><title>dict_empty_or_not&#45;&gt;init_hash_table_one</title>
<path fill="none" stroke="black" stroke-width="2" d="M234.815,-714.656C226.744,-698.075 217.272,-678.614 209.817,-663.297"/>
<polygon fill="black" stroke="black" stroke-width="2" points="212.767,-661.36 205.243,-653.901 206.473,-664.424 212.767,-661.36"/>
<text text-anchor="middle" x="228.916" y="-680.193" font-family="Times,serif" font-size="14.00">是</text>
</g>
<!-- need_rehash_or_not -->
<g id="node6" class="node"><title>need_rehash_or_not</title>
<polygon fill="#95bbe3" stroke="black" points="252.916,-580.793 143.095,-562.793 252.916,-544.793 362.737,-562.793 252.916,-580.793"/>
<text text-anchor="middle" x="252.916" y="-560.047" font-family="'/usr/share/fonts/truetype/wqy/wqy-microhei.ttc'" font-size="14.00">需要 rehash ？</text>
</g>
<!-- dict_empty_or_not&#45;&gt;need_rehash_or_not -->
<g id="edge6" class="edge"><title>dict_empty_or_not&#45;&gt;need_rehash_or_not</title>
<path fill="none" stroke="black" stroke-width="2" d="M252.428,-709.622C252.622,-692.428 252.821,-672.126 252.916,-653.793 253.026,-632.732 253.02,-608.899 252.99,-591.052"/>
<polygon fill="black" stroke="black" stroke-width="2" points="256.49,-591.039 252.969,-581.046 249.49,-591.054 256.49,-591.039"/>
<text text-anchor="middle" x="259.916" y="-634.393" font-family="Times,serif" font-size="14.00">否</text>
</g>
<!-- init_hash_table_one&#45;&gt;need_rehash_or_not -->
<g id="edge5" class="edge"><title>init_hash_table_one&#45;&gt;need_rehash_or_not</title>
<path fill="none" stroke="black" stroke-width="2" d="M210.472,-617.606C217.755,-608.371 226.834,-596.861 234.724,-586.858"/>
<polygon fill="black" stroke="black" stroke-width="2" points="237.561,-588.913 241.006,-578.893 232.065,-584.578 237.561,-588.913"/>
</g>
<!-- begin_incremental_rehash -->
<g id="node7" class="node"><title>begin_incremental_rehash</title>
<polygon fill="lightgrey" stroke="none" points="270.886,-467.993 130.946,-467.993 130.946,-431.993 270.886,-431.993 270.886,-467.993"/>
<text text-anchor="middle" x="200.916" y="-447.247" font-family="'/usr/share/fonts/truetype/wqy/wqy-microhei.ttc'" font-size="14.00">开始渐进式 rehash </text>
</g>
<!-- need_rehash_or_not&#45;&gt;begin_incremental_rehash -->
<g id="edge7" class="edge"><title>need_rehash_or_not&#45;&gt;begin_incremental_rehash</title>
<path fill="none" stroke="black" stroke-width="2" d="M218.232,-550.437C207.372,-545.06 196.608,-537.419 190.378,-526.793 181.723,-512.031 184.444,-492.938 189.285,-477.607"/>
<polygon fill="black" stroke="black" stroke-width="2" points="192.592,-478.754 192.674,-468.16 186.003,-476.391 192.592,-478.754"/>
<text text-anchor="middle" x="246.685" y="-515.593" font-family="Times,serif" font-size="14.00">需要，</text>
<text text-anchor="middle" x="246.685" y="-495.993" font-family="Times,serif" font-size="14.00">并且 rehash 未进行</text>
</g>
<!-- rehashing_or_not -->
<g id="node8" class="node"><title>rehashing_or_not</title>
<polygon fill="#95bbe3" stroke="black" points="281.916,-393.29 177.557,-351.996 281.916,-310.703 386.275,-351.996 281.916,-393.29"/>
<text text-anchor="middle" x="281.916" y="-357.495" font-family="'/usr/share/fonts/truetype/wqy/wqy-microhei.ttc'" font-size="14.00">rehash</text>
<text text-anchor="middle" x="281.916" y="-341.006" font-family="'/usr/share/fonts/truetype/wqy/wqy-microhei.ttc'" font-size="14.00"> 正在进行中？</text>
</g>
<!-- need_rehash_or_not&#45;&gt;rehashing_or_not -->
<g id="edge9" class="edge"><title>need_rehash_or_not&#45;&gt;rehashing_or_not</title>
<path fill="none" stroke="black" stroke-width="2" d="M281.076,-549.227C290.036,-543.714 298.913,-536.295 303.916,-526.793 325.184,-486.403 313.952,-433.634 301.018,-396.885"/>
<polygon fill="black" stroke="black" stroke-width="2" points="304.277,-395.607 297.532,-387.437 297.71,-398.03 304.277,-395.607"/>
<text text-anchor="middle" x="378.685" y="-458.393" font-family="Times,serif" font-size="14.00">不需要，</text>
<text text-anchor="middle" x="378.685" y="-438.793" font-family="Times,serif" font-size="14.00">或者 rehash 正在进行</text>
</g>
<!-- begin_incremental_rehash&#45;&gt;rehashing_or_not -->
<g id="edge8" class="edge"><title>begin_incremental_rehash&#45;&gt;rehashing_or_not</title>
<path fill="none" stroke="black" stroke-width="2" d="M215.397,-431.831C224.996,-420.455 237.976,-405.072 249.922,-390.914"/>
<polygon fill="black" stroke="black" stroke-width="2" points="252.65,-393.108 256.424,-383.208 247.3,-388.593 252.65,-393.108"/>
</g>
<!-- is_rehashing -->
<g id="node9" class="node"><title>is_rehashing</title>
<polygon fill="lightgrey" stroke="none" points="328.158,-255 89.6737,-255 89.6737,-219 328.158,-219 328.158,-255"/>
<text text-anchor="middle" x="208.916" y="-234.254" font-family="'/usr/share/fonts/truetype/wqy/wqy-microhei.ttc'" font-size="14.00">选择 ht[1] 作为新键值对的添加目标</text>
</g>
<!-- rehashing_or_not&#45;&gt;is_rehashing -->
<g id="edge10" class="edge"><title>rehashing_or_not&#45;&gt;is_rehashing</title>
<path fill="none" stroke="black" stroke-width="2" d="M260.997,-318.616C249.693,-301.118 235.934,-279.82 225.397,-263.511"/>
<polygon fill="black" stroke="black" stroke-width="2" points="228.277,-261.519 219.911,-255.019 222.398,-265.318 228.277,-261.519"/>
<text text-anchor="middle" x="249.916" y="-281.4" font-family="Times,serif" font-size="14.00">是</text>
</g>
<!-- not_rehashing -->
<g id="node10" class="node"><title>not_rehashing</title>
<polygon fill="lightgrey" stroke="none" points="585.158,-255 346.674,-255 346.674,-219 585.158,-219 585.158,-255"/>
<text text-anchor="middle" x="465.916" y="-234.254" font-family="'/usr/share/fonts/truetype/wqy/wqy-microhei.ttc'" font-size="14.00">选择 ht[0] 作为新键值对的添加目标</text>
</g>
<!-- rehashing_or_not&#45;&gt;not_rehashing -->
<g id="edge11" class="edge"><title>rehashing_or_not&#45;&gt;not_rehashing</title>
<path fill="none" stroke="black" stroke-width="2" d="M321.841,-326.478C353.779,-306.864 398.202,-279.584 429.248,-260.518"/>
<polygon fill="black" stroke="black" stroke-width="2" points="431.337,-263.343 438.027,-255.127 427.674,-257.378 431.337,-263.343"/>
<text text-anchor="middle" x="412.916" y="-281.4" font-family="Times,serif" font-size="14.00">否</text>
</g>
<!-- calc_hash_code_and_index_by_key -->
<g id="node11" class="node"><title>calc_hash_code_and_index_by_key</title>
<polygon fill="lightgrey" stroke="none" points="499.916,-182 231.916,-182 231.916,-146 499.916,-146 499.916,-182"/>
<text text-anchor="middle" x="365.916" y="-160.01" font-family="'/usr/share/fonts/truetype/wqy/wqy-microhei.ttc'" font-size="14.00">根据给定键，计算出哈希值，以及索引值</text>
</g>
<!-- is_rehashing&#45;&gt;calc_hash_code_and_index_by_key -->
<g id="edge12" class="edge"><title>is_rehashing&#45;&gt;calc_hash_code_and_index_by_key</title>
<path fill="none" stroke="black" stroke-width="2" d="M246.521,-218.994C268.208,-209.186 295.673,-196.766 318.792,-186.311"/>
<polygon fill="black" stroke="black" stroke-width="2" points="320.404,-189.423 328.073,-182.114 317.52,-183.045 320.404,-189.423"/>
</g>
<!-- not_rehashing&#45;&gt;calc_hash_code_and_index_by_key -->
<g id="edge13" class="edge"><title>not_rehashing&#45;&gt;calc_hash_code_and_index_by_key</title>
<path fill="none" stroke="black" stroke-width="2" d="M441.964,-218.994C428.948,-209.753 412.666,-198.192 398.51,-188.142"/>
<polygon fill="black" stroke="black" stroke-width="2" points="400.2,-185.049 390.02,-182.114 396.147,-190.757 400.2,-185.049"/>
</g>
<!-- create_entry_and_assoc_key_and_value -->
<g id="node12" class="node"><title>create_entry_and_assoc_key_and_value</title>
<polygon fill="lightgrey" stroke="none" points="491.981,-109 239.851,-109 239.851,-73 491.981,-73 491.981,-109"/>
<text text-anchor="middle" x="365.916" y="-88.2541" font-family="'/usr/share/fonts/truetype/wqy/wqy-microhei.ttc'" font-size="14.00">创建新 dictEntry ，并保存给定键值对</text>
</g>
<!-- calc_hash_code_and_index_by_key&#45;&gt;create_entry_and_assoc_key_and_value -->
<g id="edge14" class="edge"><title>calc_hash_code_and_index_by_key&#45;&gt;create_entry_and_assoc_key_and_value</title>
<path fill="none" stroke="black" stroke-width="2" d="M365.916,-145.813C365.916,-137.789 365.916,-128.047 365.916,-119.069"/>
<polygon fill="black" stroke="black" stroke-width="2" points="369.416,-119.029 365.916,-109.029 362.416,-119.029 369.416,-119.029"/>
</g>
<!-- add_entry_to_hashtable -->
<g id="node13" class="node"><title>add_entry_to_hashtable</title>
<polygon fill="lightgrey" stroke="none" points="499.916,-36 231.916,-36 231.916,-0 499.916,-0 499.916,-36"/>
<text text-anchor="middle" x="365.916" y="-14.01" font-family="'/usr/share/fonts/truetype/wqy/wqy-microhei.ttc'" font-size="14.00">根据索引值，将新节点添加到目标哈希表</text>
</g>
<!-- create_entry_and_assoc_key_and_value&#45;&gt;add_entry_to_hashtable -->
<g id="edge15" class="edge"><title>create_entry_and_assoc_key_and_value&#45;&gt;add_entry_to_hashtable</title>
<path fill="none" stroke="black" stroke-width="2" d="M365.916,-72.8129C365.916,-64.7895 365.916,-55.0475 365.916,-46.0691"/>
<polygon fill="black" stroke="black" stroke-width="2" points="369.416,-46.0288 365.916,-36.0288 362.416,-46.0289 369.416,-46.0288"/>
</g>
</g>
</svg>
