<?xml version="1.0" encoding="UTF-8" standalone="no"?>
<!DOCTYPE svg PUBLIC "-//W3C//DTD SVG 1.1//EN"
 "http://www.w3.org/Graphics/SVG/1.1/DTD/svg11.dtd">
<!-- Generated by graphviz version 2.38.0 (20140413.2041)
 -->
<!-- Title: rehash_step_one Pages: 1 -->
<svg width="674pt" height="694pt"
 viewBox="0.00 0.00 674.50 693.99" xmlns="http://www.w3.org/2000/svg" xmlns:xlink="http://www.w3.org/1999/xlink">
<g id="graph0" class="graph" transform="scale(1 1) rotate(0) translate(4 689.988)">
<title>rehash_step_one</title>
<polygon fill="white" stroke="none" points="-4,4 -4,-689.988 670.496,-689.988 670.496,4 -4,4"/>
<!-- dict -->
<g id="node1" class="node"><title>dict</title>
<polygon fill="#a8e270" stroke="black" points="0,-477.535 0,-624.465 99.6855,-624.465 99.6855,-477.535 0,-477.535"/>
<text text-anchor="middle" x="49.8428" y="-609.265" font-family="'/usr/share/fonts/truetype/wqy/wqy-microhei.ttc'" font-size="14.00">dict</text>
<polyline fill="none" stroke="black" points="0,-599.977 99.6855,-599.977 "/>
<text text-anchor="middle" x="49.8428" y="-584.777" font-family="'/usr/share/fonts/truetype/wqy/wqy-microhei.ttc'" font-size="14.00">type</text>
<polyline fill="none" stroke="black" points="0,-575.488 99.6855,-575.488 "/>
<text text-anchor="middle" x="49.8428" y="-560.288" font-family="'/usr/share/fonts/truetype/wqy/wqy-microhei.ttc'" font-size="14.00">privdata</text>
<polyline fill="none" stroke="black" points="0,-551 99.6855,-551 "/>
<text text-anchor="middle" x="49.8428" y="-535.8" font-family="'/usr/share/fonts/truetype/wqy/wqy-microhei.ttc'" font-size="14.00">ht[2]</text>
<polyline fill="none" stroke="black" points="0,-526.512 99.6855,-526.512 "/>
<text text-anchor="middle" x="49.8428" y="-511.312" font-family="'/usr/share/fonts/truetype/wqy/wqy-microhei.ttc'" font-size="14.00">rehashidx: 0</text>
<polyline fill="none" stroke="black" points="0,-502.023 99.6855,-502.023 "/>
<text text-anchor="middle" x="49.8428" y="-486.823" font-family="'/usr/share/fonts/truetype/wqy/wqy-microhei.ttc'" font-size="14.00">iterators</text>
</g>
<!-- ht0 -->
<g id="node2" class="node"><title>ht0</title>
<polygon fill="#95bbe3" stroke="black" points="162.899,-490.779 162.899,-613.221 258.312,-613.221 258.312,-490.779 162.899,-490.779"/>
<text text-anchor="middle" x="210.606" y="-598.021" font-family="'/usr/share/fonts/truetype/wqy/wqy-microhei.ttc'" font-size="14.00">dictht</text>
<polyline fill="none" stroke="black" points="162.899,-588.732 258.312,-588.732 "/>
<text text-anchor="middle" x="210.606" y="-573.532" font-family="'/usr/share/fonts/truetype/wqy/wqy-microhei.ttc'" font-size="14.00">table</text>
<polyline fill="none" stroke="black" points="162.899,-564.244 258.312,-564.244 "/>
<text text-anchor="middle" x="210.606" y="-549.044" font-family="'/usr/share/fonts/truetype/wqy/wqy-microhei.ttc'" font-size="14.00">size: 4</text>
<polyline fill="none" stroke="black" points="162.899,-539.756 258.312,-539.756 "/>
<text text-anchor="middle" x="210.606" y="-524.556" font-family="'/usr/share/fonts/truetype/wqy/wqy-microhei.ttc'" font-size="14.00">sizemask: 3</text>
<polyline fill="none" stroke="black" points="162.899,-515.268 258.312,-515.268 "/>
<text text-anchor="middle" x="210.606" y="-500.068" font-family="'/usr/share/fonts/truetype/wqy/wqy-microhei.ttc'" font-size="14.00">used: 4</text>
</g>
<!-- dict&#45;&gt;ht0 -->
<g id="edge1" class="edge"><title>dict:ht&#45;&gt;ht0:dictht</title>
<path fill="none" stroke="black" stroke-width="2" d="M99.6855,-539C135.195,-539 126.049,-589.482 152.837,-599.342"/>
<polygon fill="black" stroke="black" stroke-width="2" points="152.463,-602.827 162.899,-601 153.602,-595.92 152.463,-602.827"/>
<text text-anchor="middle" x="131.292" y="-596.8" font-family="Times,serif" font-size="14.00">ht[0]</text>
</g>
<!-- ht1 -->
<g id="node3" class="node"><title>ht1</title>
<polygon fill="#95bbe3" stroke="black" points="162.899,-340.779 162.899,-463.221 258.312,-463.221 258.312,-340.779 162.899,-340.779"/>
<text text-anchor="middle" x="210.606" y="-448.021" font-family="'/usr/share/fonts/truetype/wqy/wqy-microhei.ttc'" font-size="14.00">dictht</text>
<polyline fill="none" stroke="black" points="162.899,-438.732 258.312,-438.732 "/>
<text text-anchor="middle" x="210.606" y="-423.532" font-family="'/usr/share/fonts/truetype/wqy/wqy-microhei.ttc'" font-size="14.00">table</text>
<polyline fill="none" stroke="black" points="162.899,-414.244 258.312,-414.244 "/>
<text text-anchor="middle" x="210.606" y="-399.044" font-family="'/usr/share/fonts/truetype/wqy/wqy-microhei.ttc'" font-size="14.00">size: 8</text>
<polyline fill="none" stroke="black" points="162.899,-389.756 258.312,-389.756 "/>
<text text-anchor="middle" x="210.606" y="-374.556" font-family="'/usr/share/fonts/truetype/wqy/wqy-microhei.ttc'" font-size="14.00">sizemask: 7</text>
<polyline fill="none" stroke="black" points="162.899,-365.268 258.312,-365.268 "/>
<text text-anchor="middle" x="210.606" y="-350.068" font-family="'/usr/share/fonts/truetype/wqy/wqy-microhei.ttc'" font-size="14.00">used: 0</text>
</g>
<!-- dict&#45;&gt;ht1 -->
<g id="edge2" class="edge"><title>dict:ht&#45;&gt;ht1:dictht</title>
<path fill="none" stroke="black" stroke-width="2" d="M99.6855,-539C120.566,-539 134.663,-472.823 153.741,-455.244"/>
<polygon fill="black" stroke="black" stroke-width="2" points="155.298,-458.38 162.899,-451 152.355,-452.029 155.298,-458.38"/>
<text text-anchor="middle" x="131.292" y="-524.8" font-family="Times,serif" font-size="14.00">ht[1]</text>
</g>
<!-- bucket -->
<g id="node4" class="node"><title>bucket</title>
<polygon fill="#f2f2f2" stroke="black" points="295.312,-500.535 295.312,-639.465 384.512,-639.465 384.512,-500.535 295.312,-500.535"/>
<text text-anchor="middle" x="339.912" y="-624.265" font-family="'/usr/share/fonts/truetype/wqy/wqy-microhei.ttc'" font-size="14.00">dictEntry**</text>
<text text-anchor="middle" x="339.912" y="-607.777" font-family="'/usr/share/fonts/truetype/wqy/wqy-microhei.ttc'" font-size="14.00">(bucket)</text>
<polyline fill="none" stroke="black" points="295.312,-598.488 384.512,-598.488 "/>
<text text-anchor="middle" x="339.912" y="-583.288" font-family="'/usr/share/fonts/truetype/wqy/wqy-microhei.ttc'" font-size="14.00">0</text>
<polyline fill="none" stroke="black" points="295.312,-574 384.512,-574 "/>
<text text-anchor="middle" x="339.912" y="-558.8" font-family="'/usr/share/fonts/truetype/wqy/wqy-microhei.ttc'" font-size="14.00">1</text>
<polyline fill="none" stroke="black" points="295.312,-549.512 384.512,-549.512 "/>
<text text-anchor="middle" x="339.912" y="-534.312" font-family="'/usr/share/fonts/truetype/wqy/wqy-microhei.ttc'" font-size="14.00">2</text>
<polyline fill="none" stroke="black" points="295.312,-525.023 384.512,-525.023 "/>
<text text-anchor="middle" x="339.912" y="-509.823" font-family="'/usr/share/fonts/truetype/wqy/wqy-microhei.ttc'" font-size="14.00">3</text>
</g>
<!-- ht0&#45;&gt;bucket -->
<g id="edge3" class="edge"><title>ht0:table&#45;&gt;bucket:head</title>
<path fill="none" stroke="black" stroke-width="2" d="M258.312,-576C279.388,-576 273.465,-606.048 285.682,-615.908"/>
<polygon fill="black" stroke="black" stroke-width="2" points="284.721,-619.275 295.312,-619 286.861,-612.61 284.721,-619.275"/>
</g>
<!-- bucket1 -->
<g id="node5" class="node"><title>bucket1</title>
<polygon fill="#f2f2f2" stroke="black" points="295.312,-123.559 295.312,-360.441 384.512,-360.441 384.512,-123.559 295.312,-123.559"/>
<text text-anchor="middle" x="339.912" y="-345.241" font-family="'/usr/share/fonts/truetype/wqy/wqy-microhei.ttc'" font-size="14.00">dictEntry**</text>
<text text-anchor="middle" x="339.912" y="-328.753" font-family="'/usr/share/fonts/truetype/wqy/wqy-microhei.ttc'" font-size="14.00">(bucket)</text>
<polyline fill="none" stroke="black" points="295.312,-319.465 384.512,-319.465 "/>
<text text-anchor="middle" x="339.912" y="-304.265" font-family="'/usr/share/fonts/truetype/wqy/wqy-microhei.ttc'" font-size="14.00">0</text>
<polyline fill="none" stroke="black" points="295.312,-294.977 384.512,-294.977 "/>
<text text-anchor="middle" x="339.912" y="-279.777" font-family="'/usr/share/fonts/truetype/wqy/wqy-microhei.ttc'" font-size="14.00">1</text>
<polyline fill="none" stroke="black" points="295.312,-270.488 384.512,-270.488 "/>
<text text-anchor="middle" x="339.912" y="-255.288" font-family="'/usr/share/fonts/truetype/wqy/wqy-microhei.ttc'" font-size="14.00">2</text>
<polyline fill="none" stroke="black" points="295.312,-246 384.512,-246 "/>
<text text-anchor="middle" x="339.912" y="-230.8" font-family="'/usr/share/fonts/truetype/wqy/wqy-microhei.ttc'" font-size="14.00">3</text>
<polyline fill="none" stroke="black" points="295.312,-221.512 384.512,-221.512 "/>
<text text-anchor="middle" x="339.912" y="-206.312" font-family="'/usr/share/fonts/truetype/wqy/wqy-microhei.ttc'" font-size="14.00">4</text>
<polyline fill="none" stroke="black" points="295.312,-197.023 384.512,-197.023 "/>
<text text-anchor="middle" x="339.912" y="-181.823" font-family="'/usr/share/fonts/truetype/wqy/wqy-microhei.ttc'" font-size="14.00">5</text>
<polyline fill="none" stroke="black" points="295.312,-172.535 384.512,-172.535 "/>
<text text-anchor="middle" x="339.912" y="-157.335" font-family="'/usr/share/fonts/truetype/wqy/wqy-microhei.ttc'" font-size="14.00">6</text>
<polyline fill="none" stroke="black" points="295.312,-148.047 384.512,-148.047 "/>
<text text-anchor="middle" x="339.912" y="-132.847" font-family="'/usr/share/fonts/truetype/wqy/wqy-microhei.ttc'" font-size="14.00">7</text>
</g>
<!-- ht1&#45;&gt;bucket1 -->
<g id="edge4" class="edge"><title>ht1:table&#45;&gt;bucket1:head</title>
<path fill="none" stroke="black" stroke-width="2" d="M258.312,-426C295.859,-426 261.892,-355.977 285.471,-342.3"/>
<polygon fill="black" stroke="black" stroke-width="2" points="286.372,-345.684 295.312,-340 284.778,-338.868 286.372,-345.684"/>
</g>
<!-- pair_1 -->
<g id="node6" class="node"><title>pair_1</title>
<polygon fill="#fadcad" stroke="black" points="421.512,-636.512 421.512,-685.488 575.496,-685.488 575.496,-636.512 421.512,-636.512"/>
<text text-anchor="middle" x="498.504" y="-670.288" font-family="'/usr/share/fonts/truetype/wqy/wqy-microhei.ttc'" font-size="14.00">dictEntry</text>
<polyline fill="none" stroke="black" points="421.512,-661 575.496,-661 "/>
<text text-anchor="middle" x="445.477" y="-645.8" font-family="'/usr/share/fonts/truetype/wqy/wqy-microhei.ttc'" font-size="14.00">key1</text>
<polyline fill="none" stroke="black" points="469.442,-636.512 469.442,-661 "/>
<text text-anchor="middle" x="499.604" y="-645.8" font-family="'/usr/share/fonts/truetype/wqy/wqy-microhei.ttc'" font-size="14.00">value1</text>
<polyline fill="none" stroke="black" points="529.767,-636.512 529.767,-661 "/>
<text text-anchor="middle" x="552.631" y="-645.8" font-family="'/usr/share/fonts/truetype/wqy/wqy-microhei.ttc'" font-size="14.00">next</text>
</g>
<!-- bucket&#45;&gt;pair_1 -->
<g id="edge5" class="edge"><title>bucket:table0&#45;&gt;pair_1:head</title>
<path fill="none" stroke="black" stroke-width="2" d="M384.512,-586C422.427,-586 387.831,-656.838 411.584,-670.673"/>
<polygon fill="black" stroke="black" stroke-width="2" points="410.977,-674.126 421.512,-673 412.574,-667.31 410.977,-674.126"/>
</g>
<!-- pair_2 -->
<g id="node7" class="node"><title>pair_2</title>
<polygon fill="#fadcad" stroke="black" points="421.512,-500.512 421.512,-549.488 575.496,-549.488 575.496,-500.512 421.512,-500.512"/>
<text text-anchor="middle" x="498.504" y="-534.288" font-family="'/usr/share/fonts/truetype/wqy/wqy-microhei.ttc'" font-size="14.00">dictEntry</text>
<polyline fill="none" stroke="black" points="421.512,-525 575.496,-525 "/>
<text text-anchor="middle" x="445.477" y="-509.8" font-family="'/usr/share/fonts/truetype/wqy/wqy-microhei.ttc'" font-size="14.00">key2</text>
<polyline fill="none" stroke="black" points="469.442,-500.512 469.442,-525 "/>
<text text-anchor="middle" x="499.604" y="-509.8" font-family="'/usr/share/fonts/truetype/wqy/wqy-microhei.ttc'" font-size="14.00">value2</text>
<polyline fill="none" stroke="black" points="529.767,-500.512 529.767,-525 "/>
<text text-anchor="middle" x="552.631" y="-509.8" font-family="'/usr/share/fonts/truetype/wqy/wqy-microhei.ttc'" font-size="14.00">next</text>
</g>
<!-- bucket&#45;&gt;pair_2 -->
<g id="edge9" class="edge"><title>bucket:table2&#45;&gt;pair_2:head</title>
<path fill="none" stroke="black" stroke-width="2" d="M384.512,-537C396.974,-537 402.353,-537 411.384,-537"/>
<polygon fill="black" stroke="black" stroke-width="2" points="411.512,-540.5 421.512,-537 411.512,-533.5 411.512,-540.5"/>
</g>
<!-- pair_3 -->
<g id="node8" class="node"><title>pair_3</title>
<polygon fill="#fadcad" stroke="black" points="421.512,-432.512 421.512,-481.488 575.496,-481.488 575.496,-432.512 421.512,-432.512"/>
<text text-anchor="middle" x="498.504" y="-466.288" font-family="'/usr/share/fonts/truetype/wqy/wqy-microhei.ttc'" font-size="14.00">dictEntry</text>
<polyline fill="none" stroke="black" points="421.512,-457 575.496,-457 "/>
<text text-anchor="middle" x="445.477" y="-441.8" font-family="'/usr/share/fonts/truetype/wqy/wqy-microhei.ttc'" font-size="14.00">key3</text>
<polyline fill="none" stroke="black" points="469.442,-432.512 469.442,-457 "/>
<text text-anchor="middle" x="499.604" y="-441.8" font-family="'/usr/share/fonts/truetype/wqy/wqy-microhei.ttc'" font-size="14.00">value3</text>
<polyline fill="none" stroke="black" points="529.767,-432.512 529.767,-457 "/>
<text text-anchor="middle" x="552.631" y="-441.8" font-family="'/usr/share/fonts/truetype/wqy/wqy-microhei.ttc'" font-size="14.00">next</text>
</g>
<!-- bucket&#45;&gt;pair_3 -->
<g id="edge11" class="edge"><title>bucket:table3&#45;&gt;pair_3:head</title>
<path fill="none" stroke="black" stroke-width="2" d="M384.512,-513C405.871,-513 399.521,-482.253 411.788,-472.164"/>
<polygon fill="black" stroke="black" stroke-width="2" points="413.086,-475.423 421.512,-469 410.919,-468.766 413.086,-475.423"/>
</g>
<!-- pair_4 -->
<g id="node9" class="node"><title>pair_4</title>
<polygon fill="#fadcad" stroke="black" points="421.512,-568.512 421.512,-617.488 575.496,-617.488 575.496,-568.512 421.512,-568.512"/>
<text text-anchor="middle" x="498.504" y="-602.288" font-family="'/usr/share/fonts/truetype/wqy/wqy-microhei.ttc'" font-size="14.00">dictEntry</text>
<polyline fill="none" stroke="black" points="421.512,-593 575.496,-593 "/>
<text text-anchor="middle" x="445.477" y="-577.8" font-family="'/usr/share/fonts/truetype/wqy/wqy-microhei.ttc'" font-size="14.00">key4</text>
<polyline fill="none" stroke="black" points="469.442,-568.512 469.442,-593 "/>
<text text-anchor="middle" x="499.604" y="-577.8" font-family="'/usr/share/fonts/truetype/wqy/wqy-microhei.ttc'" font-size="14.00">value4</text>
<polyline fill="none" stroke="black" points="529.767,-568.512 529.767,-593 "/>
<text text-anchor="middle" x="552.631" y="-577.8" font-family="'/usr/share/fonts/truetype/wqy/wqy-microhei.ttc'" font-size="14.00">next</text>
</g>
<!-- bucket&#45;&gt;pair_4 -->
<g id="edge7" class="edge"><title>bucket:table1&#45;&gt;pair_4:head</title>
<path fill="none" stroke="black" stroke-width="2" d="M384.512,-562C405.588,-562 399.664,-592.048 411.881,-601.908"/>
<polygon fill="black" stroke="black" stroke-width="2" points="410.92,-605.275 421.512,-605 413.061,-598.61 410.92,-605.275"/>
</g>
<!-- null10 -->
<g id="node14" class="node"><title>null10</title>
<polygon fill="lightgrey" stroke="none" points="525.504,-414 471.504,-414 471.504,-378 525.504,-378 525.504,-414"/>
<text text-anchor="middle" x="498.504" y="-393.044" font-family="'/usr/share/fonts/truetype/wqy/wqy-microhei.ttc'" font-size="14.00">NULL</text>
</g>
<!-- bucket1&#45;&gt;null10 -->
<g id="edge13" class="edge"><title>bucket1:table0&#45;&gt;null10</title>
<path fill="none" stroke="black" stroke-width="2" d="M384.512,-307C416.601,-307 396.703,-348.647 421.512,-369 432.898,-378.341 447.757,-384.564 461.312,-388.655"/>
<polygon fill="black" stroke="black" stroke-width="2" points="460.777,-392.136 471.345,-391.383 462.614,-385.382 460.777,-392.136"/>
</g>
<!-- null11 -->
<g id="node15" class="node"><title>null11</title>
<polygon fill="lightgrey" stroke="none" points="525.504,-360 471.504,-360 471.504,-324 525.504,-324 525.504,-360"/>
<text text-anchor="middle" x="498.504" y="-339.044" font-family="'/usr/share/fonts/truetype/wqy/wqy-microhei.ttc'" font-size="14.00">NULL</text>
</g>
<!-- bucket1&#45;&gt;null11 -->
<g id="edge14" class="edge"><title>bucket1:table1&#45;&gt;null11</title>
<path fill="none" stroke="black" stroke-width="2" d="M384.512,-283C406.253,-283 402.723,-304.061 421.512,-315 433.95,-322.241 448.652,-328.021 461.795,-332.345"/>
<polygon fill="black" stroke="black" stroke-width="2" points="460.889,-335.728 471.477,-335.368 462.975,-329.047 460.889,-335.728"/>
</g>
<!-- null12 -->
<g id="node16" class="node"><title>null12</title>
<polygon fill="lightgrey" stroke="none" points="525.504,-306 471.504,-306 471.504,-270 525.504,-270 525.504,-306"/>
<text text-anchor="middle" x="498.504" y="-285.044" font-family="'/usr/share/fonts/truetype/wqy/wqy-microhei.ttc'" font-size="14.00">NULL</text>
</g>
<!-- bucket1&#45;&gt;null12 -->
<g id="edge15" class="edge"><title>bucket1:table2&#45;&gt;null12</title>
<path fill="none" stroke="black" stroke-width="2" d="M384.512,-258C410.913,-258 439.657,-265.746 461.547,-273.365"/>
<polygon fill="black" stroke="black" stroke-width="2" points="460.495,-276.707 471.089,-276.829 462.883,-270.127 460.495,-276.707"/>
</g>
<!-- null13 -->
<g id="node17" class="node"><title>null13</title>
<polygon fill="lightgrey" stroke="none" points="525.504,-252 471.504,-252 471.504,-216 525.504,-216 525.504,-252"/>
<text text-anchor="middle" x="498.504" y="-231.044" font-family="'/usr/share/fonts/truetype/wqy/wqy-microhei.ttc'" font-size="14.00">NULL</text>
</g>
<!-- bucket1&#45;&gt;null13 -->
<g id="edge16" class="edge"><title>bucket1:table3&#45;&gt;null13</title>
<path fill="none" stroke="black" stroke-width="2" d="M384.512,-234C410.136,-234 439.029,-234 461.184,-234"/>
<polygon fill="black" stroke="black" stroke-width="2" points="461.474,-237.5 471.474,-234 461.474,-230.5 461.474,-237.5"/>
</g>
<!-- null14 -->
<g id="node18" class="node"><title>null14</title>
<polygon fill="lightgrey" stroke="none" points="525.504,-198 471.504,-198 471.504,-162 525.504,-162 525.504,-198"/>
<text text-anchor="middle" x="498.504" y="-177.044" font-family="'/usr/share/fonts/truetype/wqy/wqy-microhei.ttc'" font-size="14.00">NULL</text>
</g>
<!-- bucket1&#45;&gt;null14 -->
<g id="edge17" class="edge"><title>bucket1:table4&#45;&gt;null14</title>
<path fill="none" stroke="black" stroke-width="2" d="M384.512,-209C410.856,-209 439.601,-201.513 461.505,-194.147"/>
<polygon fill="black" stroke="black" stroke-width="2" points="462.776,-197.41 471.055,-190.799 460.46,-190.805 462.776,-197.41"/>
</g>
<!-- null15 -->
<g id="node19" class="node"><title>null15</title>
<polygon fill="lightgrey" stroke="none" points="525.504,-144 471.504,-144 471.504,-108 525.504,-108 525.504,-144"/>
<text text-anchor="middle" x="498.504" y="-123.044" font-family="'/usr/share/fonts/truetype/wqy/wqy-microhei.ttc'" font-size="14.00">NULL</text>
</g>
<!-- bucket1&#45;&gt;null15 -->
<g id="edge18" class="edge"><title>bucket1:table5&#45;&gt;null15</title>
<path fill="none" stroke="black" stroke-width="2" d="M384.512,-185C406.253,-185 402.723,-163.939 421.512,-153 433.95,-145.759 448.652,-139.979 461.795,-135.655"/>
<polygon fill="black" stroke="black" stroke-width="2" points="462.975,-138.953 471.477,-132.632 460.889,-132.272 462.975,-138.953"/>
</g>
<!-- null16 -->
<g id="node20" class="node"><title>null16</title>
<polygon fill="lightgrey" stroke="none" points="525.504,-90 471.504,-90 471.504,-54 525.504,-54 525.504,-90"/>
<text text-anchor="middle" x="498.504" y="-69.0441" font-family="'/usr/share/fonts/truetype/wqy/wqy-microhei.ttc'" font-size="14.00">NULL</text>
</g>
<!-- bucket1&#45;&gt;null16 -->
<g id="edge19" class="edge"><title>bucket1:table6&#45;&gt;null16</title>
<path fill="none" stroke="black" stroke-width="2" d="M384.512,-160C416.22,-160 396.926,-119.024 421.512,-99 432.931,-89.6997 447.796,-83.4838 461.347,-79.3878"/>
<polygon fill="black" stroke="black" stroke-width="2" points="462.648,-82.6608 471.375,-76.6527 460.806,-75.9075 462.648,-82.6608"/>
</g>
<!-- null17 -->
<g id="node21" class="node"><title>null17</title>
<polygon fill="lightgrey" stroke="none" points="525.504,-36 471.504,-36 471.504,-0 525.504,-0 525.504,-36"/>
<text text-anchor="middle" x="498.504" y="-15.0441" font-family="'/usr/share/fonts/truetype/wqy/wqy-microhei.ttc'" font-size="14.00">NULL</text>
</g>
<!-- bucket1&#45;&gt;null17 -->
<g id="edge20" class="edge"><title>bucket1:table7&#45;&gt;null17</title>
<path fill="none" stroke="black" stroke-width="2" d="M384.512,-136C428.171,-136 389.956,-75.173 421.512,-45 432.423,-34.5665 447.625,-28.1321 461.567,-24.179"/>
<polygon fill="black" stroke="black" stroke-width="2" points="462.563,-27.5376 471.416,-21.7173 460.866,-20.7464 462.563,-27.5376"/>
</g>
<!-- null0 -->
<g id="node10" class="node"><title>null0</title>
<polygon fill="lightgrey" stroke="none" points="666.496,-667 612.496,-667 612.496,-631 666.496,-631 666.496,-667"/>
<text text-anchor="middle" x="639.496" y="-646.044" font-family="'/usr/share/fonts/truetype/wqy/wqy-microhei.ttc'" font-size="14.00">NULL</text>
</g>
<!-- pair_1&#45;&gt;null0 -->
<g id="edge6" class="edge"><title>pair_1:next&#45;&gt;null0</title>
<path fill="none" stroke="black" stroke-width="2" d="M575.496,-649C584.127,-649 593.424,-649 602.155,-649"/>
<polygon fill="black" stroke="black" stroke-width="2" points="602.442,-652.5 612.442,-649 602.442,-645.5 602.442,-652.5"/>
</g>
<!-- null2 -->
<g id="node12" class="node"><title>null2</title>
<polygon fill="lightgrey" stroke="none" points="666.496,-531 612.496,-531 612.496,-495 666.496,-495 666.496,-531"/>
<text text-anchor="middle" x="639.496" y="-510.044" font-family="'/usr/share/fonts/truetype/wqy/wqy-microhei.ttc'" font-size="14.00">NULL</text>
</g>
<!-- pair_2&#45;&gt;null2 -->
<g id="edge10" class="edge"><title>pair_2:next&#45;&gt;null2</title>
<path fill="none" stroke="black" stroke-width="2" d="M575.496,-513C584.127,-513 593.424,-513 602.155,-513"/>
<polygon fill="black" stroke="black" stroke-width="2" points="602.442,-516.5 612.442,-513 602.442,-509.5 602.442,-516.5"/>
</g>
<!-- null3 -->
<g id="node13" class="node"><title>null3</title>
<polygon fill="lightgrey" stroke="none" points="666.496,-463 612.496,-463 612.496,-427 666.496,-427 666.496,-463"/>
<text text-anchor="middle" x="639.496" y="-442.044" font-family="'/usr/share/fonts/truetype/wqy/wqy-microhei.ttc'" font-size="14.00">NULL</text>
</g>
<!-- pair_3&#45;&gt;null3 -->
<g id="edge12" class="edge"><title>pair_3:next&#45;&gt;null3</title>
<path fill="none" stroke="black" stroke-width="2" d="M575.496,-445C584.127,-445 593.424,-445 602.155,-445"/>
<polygon fill="black" stroke="black" stroke-width="2" points="602.442,-448.5 612.442,-445 602.442,-441.5 602.442,-448.5"/>
</g>
<!-- null1 -->
<g id="node11" class="node"><title>null1</title>
<polygon fill="lightgrey" stroke="none" points="666.496,-599 612.496,-599 612.496,-563 666.496,-563 666.496,-599"/>
<text text-anchor="middle" x="639.496" y="-578.044" font-family="'/usr/share/fonts/truetype/wqy/wqy-microhei.ttc'" font-size="14.00">NULL</text>
</g>
<!-- pair_4&#45;&gt;null1 -->
<g id="edge8" class="edge"><title>pair_4:next&#45;&gt;null1</title>
<path fill="none" stroke="black" stroke-width="2" d="M575.496,-581C584.127,-581 593.424,-581 602.155,-581"/>
<polygon fill="black" stroke="black" stroke-width="2" points="602.442,-584.5 612.442,-581 602.442,-577.5 602.442,-584.5"/>
</g>
</g>
</svg>
