<?xml version="1.0" encoding="UTF-8" standalone="no"?>
<!DOCTYPE svg PUBLIC "-//W3C//DTD SVG 1.1//EN"
 "http://www.w3.org/Graphics/SVG/1.1/DTD/svg11.dtd">
<!-- Generated by graphviz version 2.38.0 (20140413.2041)
 -->
<!-- Title: e Pages: 1 -->
<svg width="398pt" height="193pt"
 viewBox="0.00 0.00 398.30 193.33" xmlns="http://www.w3.org/2000/svg" xmlns:xlink="http://www.w3.org/1999/xlink">
<g id="graph0" class="graph" transform="scale(1 1) rotate(0) translate(4 189.331)">
<title>e</title>
<polygon fill="white" stroke="none" points="-4,4 -4,-189.331 394.303,-189.331 394.303,4 -4,4"/>
<!-- server -->
<g id="node1" class="node"><title>server</title>
<ellipse fill="#95bbe3" stroke="black" cx="198.303" cy="-148.265" rx="37.1311" ry="37.1311"/>
<text text-anchor="middle" x="198.303" y="-144.275" font-family="'/usr/share/fonts/truetype/wqy/wqy-microhei.ttc'" font-size="14.00">服务器</text>
</g>
<!-- cx -->
<g id="node2" class="node"><title>cx</title>
<ellipse fill="#a8e270" stroke="black" cx="49.3031" cy="-18" rx="49.107" ry="18"/>
<text text-anchor="middle" x="49.3031" y="-15.2541" font-family="'/usr/share/fonts/truetype/wqy/wqy-microhei.ttc'" font-size="14.00">客户端 X</text>
</g>
<!-- cx&#45;&gt;server -->
<g id="edge1" class="edge"><title>cx&#45;&gt;server</title>
<path fill="none" stroke="black" stroke-dasharray="1,5" d="M49.4581,-36.0015C50.4851,-52.4643 54.4625,-77.2165 68.3031,-93.1998 92.1447,-120.733 132.272,-134.531 161.651,-141.255"/>
<text text-anchor="middle" x="131.303" y="-81.9998" font-family="Times,serif" font-size="14.00">等待将命令结果返回</text>
<text text-anchor="middle" x="131.303" y="-62.3999" font-family="Times,serif" font-size="14.00">等待命令请求</text>
</g>
<!-- cy -->
<g id="node3" class="node"><title>cy</title>
<ellipse fill="#a8e270" stroke="black" cx="198.303" cy="-18" rx="49.0504" ry="18"/>
<text text-anchor="middle" x="198.303" y="-15.2541" font-family="'/usr/share/fonts/truetype/wqy/wqy-microhei.ttc'" font-size="14.00">客户端 Y</text>
</g>
<!-- cy&#45;&gt;server -->
<g id="edge2" class="edge"><title>cy&#45;&gt;server</title>
<path fill="none" stroke="black" stroke-dasharray="1,5" d="M198.303,-36.0326C198.303,-55.0453 198.303,-86.3666 198.303,-110.936"/>
<text text-anchor="middle" x="240.303" y="-72.1999" font-family="Times,serif" font-size="14.00">等待命令请求</text>
</g>
<!-- cz -->
<g id="node4" class="node"><title>cz</title>
<ellipse fill="#a8e270" stroke="black" cx="314.303" cy="-18" rx="49.1992" ry="18"/>
<text text-anchor="middle" x="314.303" y="-15.2541" font-family="'/usr/share/fonts/truetype/wqy/wqy-microhei.ttc'" font-size="14.00">客户端 Z</text>
</g>
<!-- cz&#45;&gt;server -->
<g id="edge3" class="edge"><title>cz&#45;&gt;server</title>
<path fill="none" stroke="black" stroke-dasharray="1,5" d="M311.156,-36.2298C307.481,-52.4014 300.069,-76.5329 286.303,-93.1998 271.916,-110.619 250.373,-123.989 232.204,-133.075"/>
<text text-anchor="middle" x="348.303" y="-72.1999" font-family="Times,serif" font-size="14.00">等待命令请求</text>
</g>
</g>
</svg>
