<?xml version="1.0" encoding="UTF-8" standalone="no"?>
<!DOCTYPE svg PUBLIC "-//W3C//DTD SVG 1.1//EN"
 "http://www.w3.org/Graphics/SVG/1.1/DTD/svg11.dtd">
<!-- Generated by graphviz version 2.38.0 (20140413.2041)
 -->
<!-- Title: db Pages: 1 -->
<svg width="347pt" height="223pt"
 viewBox="0.00 0.00 347.39 223.44" xmlns="http://www.w3.org/2000/svg" xmlns:xlink="http://www.w3.org/1999/xlink">
<g id="graph0" class="graph" transform="scale(1 1) rotate(0) translate(4 219.441)">
<title>db</title>
<polygon fill="white" stroke="none" points="-4,4 -4,-219.441 343.394,-219.441 343.394,4 -4,4"/>
<!-- dict -->
<g id="node1" class="node"><title>dict</title>
<polygon fill="#a8e270" stroke="black" points="0,-43.0352 0,-214.941 100.123,-214.941 100.123,-43.0352 0,-43.0352"/>
<text text-anchor="middle" x="50.0615" y="-199.741" font-family="'/usr/share/fonts/truetype/wqy/wqy-microhei.ttc'" font-size="14.00">dict</text>
<polyline fill="none" stroke="black" points="0,-190.453 100.123,-190.453 "/>
<text text-anchor="middle" x="50.0615" y="-175.253" font-family="'/usr/share/fonts/truetype/wqy/wqy-microhei.ttc'" font-size="14.00">StringObject</text>
<text text-anchor="middle" x="50.0615" y="-158.765" font-family="'/usr/share/fonts/truetype/wqy/wqy-microhei.ttc'" font-size="14.00"> &quot;number&quot;</text>
<polyline fill="none" stroke="black" points="0,-149.477 100.123,-149.477 "/>
<text text-anchor="middle" x="50.0615" y="-134.277" font-family="'/usr/share/fonts/truetype/wqy/wqy-microhei.ttc'" font-size="14.00">NULL</text>
<polyline fill="none" stroke="black" points="0,-124.988 100.123,-124.988 "/>
<text text-anchor="middle" x="50.0615" y="-109.788" font-family="'/usr/share/fonts/truetype/wqy/wqy-microhei.ttc'" font-size="14.00">StringObject</text>
<text text-anchor="middle" x="50.0615" y="-93.3" font-family="'/usr/share/fonts/truetype/wqy/wqy-microhei.ttc'" font-size="14.00"> &quot;book&quot;</text>
<polyline fill="none" stroke="black" points="0,-84.0117 100.123,-84.0117 "/>
<text text-anchor="middle" x="50.0615" y="-68.8117" font-family="'/usr/share/fonts/truetype/wqy/wqy-microhei.ttc'" font-size="14.00">StringObject</text>
<text text-anchor="middle" x="50.0615" y="-52.3234" font-family="'/usr/share/fonts/truetype/wqy/wqy-microhei.ttc'" font-size="14.00"> &quot;message&quot;</text>
</g>
<!-- number -->
<g id="node2" class="node"><title>number</title>
<polygon fill="lightgrey" stroke="black" points="187.697,-136.5 187.697,-185.477 287.82,-185.477 287.82,-136.5 187.697,-136.5"/>
<text text-anchor="middle" x="237.758" y="-170.277" font-family="'/usr/share/fonts/truetype/wqy/wqy-microhei.ttc'" font-size="14.00">StringObject</text>
<polyline fill="none" stroke="black" points="187.697,-160.988 287.82,-160.988 "/>
<text text-anchor="middle" x="237.758" y="-145.788" font-family="'/usr/share/fonts/truetype/wqy/wqy-microhei.ttc'" font-size="14.00">10086</text>
</g>
<!-- dict&#45;&gt;number -->
<g id="edge1" class="edge"><title>dict:number&#45;&gt;number:head</title>
<path fill="none" stroke="black" stroke-width="2" d="M100.123,-169.988C135.039,-169.988 146.18,-172.452 176.638,-172.914"/>
<polygon fill="black" stroke="black" stroke-width="2" points="176.733,-176.415 186.758,-172.988 176.784,-169.415 176.733,-176.415"/>
</g>
<!-- book -->
<g id="node3" class="node"><title>book</title>
<polygon fill="lightgrey" stroke="black" points="136.123,-68.5 136.123,-117.477 339.394,-117.477 339.394,-68.5 136.123,-68.5"/>
<text text-anchor="middle" x="237.758" y="-102.277" font-family="'/usr/share/fonts/truetype/wqy/wqy-microhei.ttc'" font-size="14.00">StringObject</text>
<polyline fill="none" stroke="black" points="136.123,-92.9883 339.394,-92.9883 "/>
<text text-anchor="middle" x="237.758" y="-77.7883" font-family="'/usr/share/fonts/truetype/wqy/wqy-microhei.ttc'" font-size="14.00">&quot;Mastering C++ in 21 days&quot;</text>
</g>
<!-- dict&#45;&gt;book -->
<g id="edge2" class="edge"><title>dict:book&#45;&gt;book:head</title>
<path fill="none" stroke="black" stroke-width="2" d="M100.123,-104.988C112.123,-104.988 117.373,-104.988 125.998,-104.988"/>
<polygon fill="black" stroke="black" stroke-width="2" points="126.123,-108.488 136.123,-104.988 126.123,-101.488 126.123,-108.488"/>
</g>
<!-- message -->
<g id="node4" class="node"><title>message</title>
<polygon fill="lightgrey" stroke="black" points="187.697,-0.5 187.697,-49.4766 287.82,-49.4766 287.82,-0.5 187.697,-0.5"/>
<text text-anchor="middle" x="237.758" y="-34.2766" font-family="'/usr/share/fonts/truetype/wqy/wqy-microhei.ttc'" font-size="14.00">StringObject</text>
<polyline fill="none" stroke="black" points="187.697,-24.9883 287.82,-24.9883 "/>
<text text-anchor="middle" x="237.758" y="-9.78828" font-family="'/usr/share/fonts/truetype/wqy/wqy-microhei.ttc'" font-size="14.00">&quot;hello moto&quot;</text>
</g>
<!-- dict&#45;&gt;message -->
<g id="edge3" class="edge"><title>dict:message&#45;&gt;message:head</title>
<path fill="none" stroke="black" stroke-width="2" d="M100.123,-63.9883C136.831,-63.9883 145.077,-41.6219 176.67,-37.6029"/>
<polygon fill="black" stroke="black" stroke-width="2" points="176.99,-41.09 186.758,-36.9883 176.564,-34.103 176.99,-41.09"/>
</g>
</g>
</svg>
