<?xml version="1.0" encoding="UTF-8" standalone="no"?>
<!DOCTYPE svg PUBLIC "-//W3C//DTD SVG 1.1//EN"
 "http://www.w3.org/Graphics/SVG/1.1/DTD/svg11.dtd">
<!-- Generated by graphviz version 2.38.0 (20140413.2041)
 -->
<!-- Title: zset Pages: 1 -->
<svg width="577pt" height="515pt"
 viewBox="0.00 0.00 576.97 515.40" xmlns="http://www.w3.org/2000/svg" xmlns:xlink="http://www.w3.org/1999/xlink">
<g id="graph0" class="graph" transform="scale(1 1) rotate(0) translate(4 511.397)">
<title>zset</title>
<polygon fill="white" stroke="none" points="-4,4 -4,-511.397 572.973,-511.397 572.973,4 -4,4"/>
<text text-anchor="middle" x="284.486" y="-31.9998" font-family="Times,serif" font-size="14.00">在实际中，字典和跳跃表通过指针来共享元素的 member 和 score</text>
<text text-anchor="middle" x="284.486" y="-12.3999" font-family="Times,serif" font-size="14.00">图中对每个元素都重复显示了一遍，只是为了展示的方便</text>
<!-- zset -->
<g id="node1" class="node"><title>zset</title>
<polygon fill="lightgrey" stroke="black" points="0,-324.432 0,-397.897 71.2412,-397.897 71.2412,-324.432 0,-324.432"/>
<text text-anchor="middle" x="35.6206" y="-382.697" font-family="'/usr/share/fonts/truetype/wqy/wqy-microhei.ttc'" font-size="14.00">zset</text>
<polyline fill="none" stroke="black" points="0,-373.409 71.2412,-373.409 "/>
<text text-anchor="middle" x="35.6206" y="-358.209" font-family="'/usr/share/fonts/truetype/wqy/wqy-microhei.ttc'" font-size="14.00">dict</text>
<polyline fill="none" stroke="black" points="0,-348.921 71.2412,-348.921 "/>
<text text-anchor="middle" x="35.6206" y="-333.721" font-family="'/usr/share/fonts/truetype/wqy/wqy-microhei.ttc'" font-size="14.00">zskiplist</text>
</g>
<!-- skiplist -->
<g id="node2" class="node"><title>skiplist</title>
<polygon fill="#fadcad" stroke="black" points="107.241,-95.2115 107.241,-275.118 194.232,-275.118 194.232,-95.2115 107.241,-95.2115"/>
<text text-anchor="middle" x="150.737" y="-259.918" font-family="'/usr/share/fonts/truetype/wqy/wqy-microhei.ttc'" font-size="14.00">zskipNode</text>
<polyline fill="none" stroke="black" points="107.241,-250.63 194.232,-250.63 "/>
<text text-anchor="middle" x="150.737" y="-235.43" font-family="'/usr/share/fonts/truetype/wqy/wqy-microhei.ttc'" font-size="14.00"> </text>
<polyline fill="none" stroke="black" points="107.241,-226.141 194.232,-226.141 "/>
<text text-anchor="middle" x="150.737" y="-210.941" font-family="'/usr/share/fonts/truetype/wqy/wqy-microhei.ttc'" font-size="14.00"> </text>
<polyline fill="none" stroke="black" points="107.241,-201.653 194.232,-201.653 "/>
<text text-anchor="middle" x="150.737" y="-186.453" font-family="'/usr/share/fonts/truetype/wqy/wqy-microhei.ttc'" font-size="14.00"> </text>
<polyline fill="none" stroke="black" points="107.241,-177.165 194.232,-177.165 "/>
<text text-anchor="middle" x="150.737" y="-161.965" font-family="'/usr/share/fonts/truetype/wqy/wqy-microhei.ttc'" font-size="14.00">score</text>
<text text-anchor="middle" x="150.737" y="-145.476" font-family="'/usr/share/fonts/truetype/wqy/wqy-microhei.ttc'" font-size="14.00"> NULL</text>
<polyline fill="none" stroke="black" points="107.241,-136.188 194.232,-136.188 "/>
<text text-anchor="middle" x="150.737" y="-120.988" font-family="'/usr/share/fonts/truetype/wqy/wqy-microhei.ttc'" font-size="14.00">robj</text>
<text text-anchor="middle" x="150.737" y="-104.5" font-family="'/usr/share/fonts/truetype/wqy/wqy-microhei.ttc'" font-size="14.00"> NULL</text>
</g>
<!-- zset&#45;&gt;skiplist -->
<g id="edge2" class="edge"><title>zset:zskiplist&#45;&gt;skiplist:head</title>
<path fill="none" stroke="black" stroke-width="2" d="M71.2412,-337.165C103.672,-337.165 78.1373,-278.981 97.4355,-265.798"/>
<polygon fill="black" stroke="black" stroke-width="2" points="98.4914,-269.139 107.241,-263.165 96.6756,-262.378 98.4914,-269.139"/>
</g>
<!-- dict -->
<g id="node6" class="node"><title>dict</title>
<polygon fill="#a8e270" stroke="black" points="123.142,-350.188 123.142,-448.141 178.332,-448.141 178.332,-350.188 123.142,-350.188"/>
<text text-anchor="middle" x="150.737" y="-432.941" font-family="'/usr/share/fonts/truetype/wqy/wqy-microhei.ttc'" font-size="14.00">dictht</text>
<polyline fill="none" stroke="black" points="123.142,-423.653 178.332,-423.653 "/>
<text text-anchor="middle" x="150.737" y="-408.453" font-family="'/usr/share/fonts/truetype/wqy/wqy-microhei.ttc'" font-size="14.00">...</text>
<polyline fill="none" stroke="black" points="123.142,-399.165 178.332,-399.165 "/>
<text text-anchor="middle" x="150.737" y="-383.965" font-family="'/usr/share/fonts/truetype/wqy/wqy-microhei.ttc'" font-size="14.00">table</text>
<polyline fill="none" stroke="black" points="123.142,-374.676 178.332,-374.676 "/>
<text text-anchor="middle" x="150.737" y="-359.476" font-family="'/usr/share/fonts/truetype/wqy/wqy-microhei.ttc'" font-size="14.00">...</text>
</g>
<!-- zset&#45;&gt;dict -->
<g id="edge1" class="edge"><title>zset:dict&#45;&gt;dict:head</title>
<path fill="none" stroke="black" stroke-width="2" d="M71.2412,-361.165C107.501,-361.165 86.719,-422.231 111.838,-434.159"/>
<polygon fill="black" stroke="black" stroke-width="2" points="111.241,-437.609 121.737,-436.165 112.631,-430.748 111.241,-437.609"/>
</g>
<!-- six -->
<g id="node3" class="node"><title>six</title>
<polygon fill="#fadcad" stroke="black" points="231.336,-95.2115 231.336,-275.118 318.328,-275.118 318.328,-95.2115 231.336,-95.2115"/>
<text text-anchor="middle" x="274.832" y="-259.918" font-family="'/usr/share/fonts/truetype/wqy/wqy-microhei.ttc'" font-size="14.00">zskipNode</text>
<polyline fill="none" stroke="black" points="231.336,-250.63 318.328,-250.63 "/>
<text text-anchor="middle" x="274.832" y="-235.43" font-family="'/usr/share/fonts/truetype/wqy/wqy-microhei.ttc'" font-size="14.00"> </text>
<polyline fill="none" stroke="black" points="231.336,-226.141 318.328,-226.141 "/>
<text text-anchor="middle" x="274.832" y="-210.941" font-family="'/usr/share/fonts/truetype/wqy/wqy-microhei.ttc'" font-size="14.00"> </text>
<polyline fill="none" stroke="black" points="231.336,-201.653 318.328,-201.653 "/>
<text text-anchor="middle" x="274.832" y="-186.453" font-family="'/usr/share/fonts/truetype/wqy/wqy-microhei.ttc'" font-size="14.00"> </text>
<polyline fill="none" stroke="black" points="231.336,-177.165 318.328,-177.165 "/>
<text text-anchor="middle" x="274.832" y="-161.965" font-family="'/usr/share/fonts/truetype/wqy/wqy-microhei.ttc'" font-size="14.00">score</text>
<text text-anchor="middle" x="274.832" y="-145.476" font-family="'/usr/share/fonts/truetype/wqy/wqy-microhei.ttc'" font-size="14.00"> 6</text>
<polyline fill="none" stroke="black" points="231.336,-136.188 318.328,-136.188 "/>
<text text-anchor="middle" x="274.832" y="-120.988" font-family="'/usr/share/fonts/truetype/wqy/wqy-microhei.ttc'" font-size="14.00">robj</text>
<text text-anchor="middle" x="274.832" y="-104.5" font-family="'/usr/share/fonts/truetype/wqy/wqy-microhei.ttc'" font-size="14.00"> x</text>
</g>
<!-- skiplist&#45;&gt;six -->
<g id="edge3" class="edge"><title>skiplist:3&#45;&gt;six:3</title>
<path fill="none" stroke="black" stroke-width="2" d="M194.232,-238.165C206.559,-238.165 211.88,-238.165 220.814,-238.165"/>
<polygon fill="black" stroke="black" stroke-width="2" points="220.832,-241.665 230.832,-238.165 220.832,-234.665 220.832,-241.665"/>
</g>
<!-- skiplist&#45;&gt;six -->
<g id="edge4" class="edge"><title>skiplist:2&#45;&gt;six:2</title>
<path fill="none" stroke="black" stroke-width="2" d="M194.232,-214.165C206.559,-214.165 211.88,-214.165 220.814,-214.165"/>
<polygon fill="black" stroke="black" stroke-width="2" points="220.832,-217.665 230.832,-214.165 220.832,-210.665 220.832,-217.665"/>
</g>
<!-- skiplist&#45;&gt;six -->
<g id="edge5" class="edge"><title>skiplist:1&#45;&gt;six:1</title>
<path fill="none" stroke="black" stroke-width="2" d="M194.232,-189.165C206.559,-189.165 211.88,-189.165 220.814,-189.165"/>
<polygon fill="black" stroke="black" stroke-width="2" points="220.832,-192.665 230.832,-189.165 220.832,-185.665 220.832,-192.665"/>
</g>
<!-- ten -->
<g id="node4" class="node"><title>ten</title>
<polygon fill="#fadcad" stroke="black" points="357.211,-47.6998 357.211,-178.63 444.202,-178.63 444.202,-47.6998 357.211,-47.6998"/>
<text text-anchor="middle" x="400.707" y="-163.43" font-family="'/usr/share/fonts/truetype/wqy/wqy-microhei.ttc'" font-size="14.00">zskipNode</text>
<polyline fill="none" stroke="black" points="357.211,-154.141 444.202,-154.141 "/>
<text text-anchor="middle" x="400.707" y="-138.941" font-family="'/usr/share/fonts/truetype/wqy/wqy-microhei.ttc'" font-size="14.00"> </text>
<polyline fill="none" stroke="black" points="357.211,-129.653 444.202,-129.653 "/>
<text text-anchor="middle" x="400.707" y="-114.453" font-family="'/usr/share/fonts/truetype/wqy/wqy-microhei.ttc'" font-size="14.00">score</text>
<text text-anchor="middle" x="400.707" y="-97.9647" font-family="'/usr/share/fonts/truetype/wqy/wqy-microhei.ttc'" font-size="14.00"> 10</text>
<polyline fill="none" stroke="black" points="357.211,-88.6764 444.202,-88.6764 "/>
<text text-anchor="middle" x="400.707" y="-73.4764" font-family="'/usr/share/fonts/truetype/wqy/wqy-microhei.ttc'" font-size="14.00">robj</text>
<text text-anchor="middle" x="400.707" y="-56.9881" font-family="'/usr/share/fonts/truetype/wqy/wqy-microhei.ttc'" font-size="14.00"> y</text>
</g>
<!-- six&#45;&gt;ten -->
<g id="edge6" class="edge"><title>six:1&#45;&gt;ten:1</title>
<path fill="none" stroke="black" stroke-width="2" d="M318.832,-189.165C341.467,-189.165 333.77,-155.705 346.927,-145.248"/>
<polygon fill="black" stroke="black" stroke-width="2" points="348.222,-148.51 356.707,-142.165 346.117,-141.834 348.222,-148.51"/>
</g>
<!-- fiften -->
<g id="node5" class="node"><title>fiften</title>
<polygon fill="#fadcad" stroke="black" points="481.981,-88.2115 481.981,-268.118 568.973,-268.118 568.973,-88.2115 481.981,-88.2115"/>
<text text-anchor="middle" x="525.477" y="-252.918" font-family="'/usr/share/fonts/truetype/wqy/wqy-microhei.ttc'" font-size="14.00">zskipNode</text>
<polyline fill="none" stroke="black" points="481.981,-243.63 568.973,-243.63 "/>
<text text-anchor="middle" x="525.477" y="-228.43" font-family="'/usr/share/fonts/truetype/wqy/wqy-microhei.ttc'" font-size="14.00"> </text>
<polyline fill="none" stroke="black" points="481.981,-219.141 568.973,-219.141 "/>
<text text-anchor="middle" x="525.477" y="-203.941" font-family="'/usr/share/fonts/truetype/wqy/wqy-microhei.ttc'" font-size="14.00"> </text>
<polyline fill="none" stroke="black" points="481.981,-194.653 568.973,-194.653 "/>
<text text-anchor="middle" x="525.477" y="-179.453" font-family="'/usr/share/fonts/truetype/wqy/wqy-microhei.ttc'" font-size="14.00"> </text>
<polyline fill="none" stroke="black" points="481.981,-170.165 568.973,-170.165 "/>
<text text-anchor="middle" x="525.477" y="-154.965" font-family="'/usr/share/fonts/truetype/wqy/wqy-microhei.ttc'" font-size="14.00">score</text>
<text text-anchor="middle" x="525.477" y="-138.476" font-family="'/usr/share/fonts/truetype/wqy/wqy-microhei.ttc'" font-size="14.00"> 15</text>
<polyline fill="none" stroke="black" points="481.981,-129.188 568.973,-129.188 "/>
<text text-anchor="middle" x="525.477" y="-113.988" font-family="'/usr/share/fonts/truetype/wqy/wqy-microhei.ttc'" font-size="14.00">robj</text>
<text text-anchor="middle" x="525.477" y="-97.4998" font-family="'/usr/share/fonts/truetype/wqy/wqy-microhei.ttc'" font-size="14.00"> z</text>
</g>
<!-- six&#45;&gt;fiften -->
<g id="edge7" class="edge"><title>six:2&#45;&gt;fiften:2</title>
<path fill="none" stroke="black" stroke-width="2" d="M318.832,-214.165C387.866,-214.165 407.516,-207.832 471.728,-207.213"/>
<polygon fill="black" stroke="black" stroke-width="2" points="471.998,-210.712 481.981,-207.165 471.965,-203.712 471.998,-210.712"/>
</g>
<!-- six&#45;&gt;fiften -->
<g id="edge8" class="edge"><title>six:3&#45;&gt;fiften:3</title>
<path fill="none" stroke="black" stroke-width="2" d="M318.832,-238.165C387.866,-238.165 407.516,-231.832 471.728,-231.213"/>
<polygon fill="black" stroke="black" stroke-width="2" points="471.998,-234.712 481.981,-231.165 471.965,-227.712 471.998,-234.712"/>
</g>
<!-- ten&#45;&gt;fiften -->
<g id="edge9" class="edge"><title>ten:1&#45;&gt;fiften:1</title>
<path fill="none" stroke="black" stroke-width="2" d="M444.707,-142.165C464.83,-142.165 460.522,-169.596 472.247,-179.026"/>
<polygon fill="black" stroke="black" stroke-width="2" points="471.39,-182.427 481.981,-182.165 473.538,-175.765 471.39,-182.427"/>
</g>
<!-- bucket -->
<g id="node7" class="node"><title>bucket</title>
<polygon fill="#95bbe3" stroke="black" points="230.232,-342.944 230.232,-457.385 319.432,-457.385 319.432,-342.944 230.232,-342.944"/>
<text text-anchor="middle" x="274.832" y="-442.185" font-family="'/usr/share/fonts/truetype/wqy/wqy-microhei.ttc'" font-size="14.00">dictEntry**</text>
<text text-anchor="middle" x="274.832" y="-425.697" font-family="'/usr/share/fonts/truetype/wqy/wqy-microhei.ttc'" font-size="14.00">(bucket)</text>
<polyline fill="none" stroke="black" points="230.232,-416.409 319.432,-416.409 "/>
<text text-anchor="middle" x="274.832" y="-401.209" font-family="'/usr/share/fonts/truetype/wqy/wqy-microhei.ttc'" font-size="14.00">0</text>
<polyline fill="none" stroke="black" points="230.232,-391.921 319.432,-391.921 "/>
<text text-anchor="middle" x="274.832" y="-376.721" font-family="'/usr/share/fonts/truetype/wqy/wqy-microhei.ttc'" font-size="14.00">1</text>
<polyline fill="none" stroke="black" points="230.232,-367.432 319.432,-367.432 "/>
<text text-anchor="middle" x="274.832" y="-352.232" font-family="'/usr/share/fonts/truetype/wqy/wqy-microhei.ttc'" font-size="14.00">2</text>
</g>
<!-- dict&#45;&gt;bucket -->
<g id="edge10" class="edge"><title>dict:table&#45;&gt;bucket:head</title>
<path fill="none" stroke="black" stroke-width="2" d="M179.737,-387.165C207.372,-387.165 201.126,-425.446 220.29,-435.016"/>
<polygon fill="black" stroke="black" stroke-width="2" points="219.719,-438.473 230.232,-437.165 221.197,-431.631 219.719,-438.473"/>
</g>
<!-- entry_x -->
<g id="node8" class="node"><title>entry_x</title>
<polygon fill="#f2f2f2" stroke="black" points="355.432,-441.432 355.432,-506.897 445.981,-506.897 445.981,-441.432 355.432,-441.432"/>
<text text-anchor="middle" x="400.707" y="-491.697" font-family="'/usr/share/fonts/truetype/wqy/wqy-microhei.ttc'" font-size="14.00">dictEntry</text>
<polyline fill="none" stroke="black" points="355.432,-482.409 445.981,-482.409 "/>
<text text-anchor="middle" x="374.971" y="-467.209" font-family="'/usr/share/fonts/truetype/wqy/wqy-microhei.ttc'" font-size="14.00">key</text>
<text text-anchor="middle" x="374.971" y="-450.721" font-family="'/usr/share/fonts/truetype/wqy/wqy-microhei.ttc'" font-size="14.00"> x</text>
<polyline fill="none" stroke="black" points="394.51,-441.432 394.51,-482.409 "/>
<text text-anchor="middle" x="420.246" y="-467.209" font-family="'/usr/share/fonts/truetype/wqy/wqy-microhei.ttc'" font-size="14.00">value</text>
<text text-anchor="middle" x="420.246" y="-450.721" font-family="'/usr/share/fonts/truetype/wqy/wqy-microhei.ttc'" font-size="14.00"> 6</text>
</g>
<!-- bucket&#45;&gt;entry_x -->
<g id="edge11" class="edge"><title>bucket:0&#45;&gt;entry_x:head</title>
<path fill="none" stroke="black" stroke-width="2" d="M319.432,-404.165C358.474,-404.165 320.936,-478.081 345.62,-491.94"/>
<polygon fill="black" stroke="black" stroke-width="2" points="344.905,-495.367 355.432,-494.165 346.453,-488.54 344.905,-495.367"/>
</g>
<!-- entry_y -->
<g id="node9" class="node"><title>entry_y</title>
<polygon fill="#f2f2f2" stroke="black" points="355.432,-357.432 355.432,-422.897 445.981,-422.897 445.981,-357.432 355.432,-357.432"/>
<text text-anchor="middle" x="400.707" y="-407.697" font-family="'/usr/share/fonts/truetype/wqy/wqy-microhei.ttc'" font-size="14.00">dictEntry</text>
<polyline fill="none" stroke="black" points="355.432,-398.409 445.981,-398.409 "/>
<text text-anchor="middle" x="374.971" y="-383.209" font-family="'/usr/share/fonts/truetype/wqy/wqy-microhei.ttc'" font-size="14.00">key</text>
<text text-anchor="middle" x="374.971" y="-366.721" font-family="'/usr/share/fonts/truetype/wqy/wqy-microhei.ttc'" font-size="14.00"> y</text>
<polyline fill="none" stroke="black" points="394.51,-357.432 394.51,-398.409 "/>
<text text-anchor="middle" x="420.246" y="-383.209" font-family="'/usr/share/fonts/truetype/wqy/wqy-microhei.ttc'" font-size="14.00">value</text>
<text text-anchor="middle" x="420.246" y="-366.721" font-family="'/usr/share/fonts/truetype/wqy/wqy-microhei.ttc'" font-size="14.00"> 10</text>
</g>
<!-- bucket&#45;&gt;entry_y -->
<g id="edge12" class="edge"><title>bucket:1&#45;&gt;entry_y:head</title>
<path fill="none" stroke="black" stroke-width="2" d="M319.432,-380.165C336.191,-380.165 335.803,-399.59 345.864,-407.178"/>
<polygon fill="black" stroke="black" stroke-width="2" points="344.843,-410.526 355.432,-410.165 346.929,-403.844 344.843,-410.526"/>
</g>
<!-- entry_z -->
<g id="node10" class="node"><title>entry_z</title>
<polygon fill="#f2f2f2" stroke="black" points="355.432,-273.432 355.432,-338.897 445.981,-338.897 445.981,-273.432 355.432,-273.432"/>
<text text-anchor="middle" x="400.707" y="-323.697" font-family="'/usr/share/fonts/truetype/wqy/wqy-microhei.ttc'" font-size="14.00">dictEntry</text>
<polyline fill="none" stroke="black" points="355.432,-314.409 445.981,-314.409 "/>
<text text-anchor="middle" x="374.971" y="-299.209" font-family="'/usr/share/fonts/truetype/wqy/wqy-microhei.ttc'" font-size="14.00">key</text>
<text text-anchor="middle" x="374.971" y="-282.721" font-family="'/usr/share/fonts/truetype/wqy/wqy-microhei.ttc'" font-size="14.00"> z</text>
<polyline fill="none" stroke="black" points="394.51,-273.432 394.51,-314.409 "/>
<text text-anchor="middle" x="420.246" y="-299.209" font-family="'/usr/share/fonts/truetype/wqy/wqy-microhei.ttc'" font-size="14.00">value</text>
<text text-anchor="middle" x="420.246" y="-282.721" font-family="'/usr/share/fonts/truetype/wqy/wqy-microhei.ttc'" font-size="14.00"> 15</text>
</g>
<!-- bucket&#45;&gt;entry_z -->
<g id="edge13" class="edge"><title>bucket:2&#45;&gt;entry_z:head</title>
<path fill="none" stroke="black" stroke-width="2" d="M319.432,-355.165C335.804,-355.165 335.897,-336.749 345.655,-329.268"/>
<polygon fill="black" stroke="black" stroke-width="2" points="346.959,-332.526 355.432,-326.165 344.841,-325.854 346.959,-332.526"/>
</g>
</g>
</svg>
