<?xml version="1.0" encoding="UTF-8" standalone="no"?>
<!DOCTYPE svg PUBLIC "-//W3C//DTD SVG 1.1//EN"
 "http://www.w3.org/Graphics/SVG/1.1/DTD/svg11.dtd">
<!-- Generated by graphviz version 2.38.0 (20140413.2041)
 -->
<!-- Title: db Pages: 1 -->
<svg width="615pt" height="354pt"
 viewBox="0.00 0.00 615.22 354.46" xmlns="http://www.w3.org/2000/svg" xmlns:xlink="http://www.w3.org/1999/xlink">
<g id="graph0" class="graph" transform="scale(1 1) rotate(0) translate(4 350.465)">
<title>db</title>
<polygon fill="white" stroke="none" points="-4,4 -4,-350.465 611.225,-350.465 611.225,4 -4,4"/>
<!-- redisDb -->
<g id="node1" class="node"><title>redisDb</title>
<polygon fill="#a8e270" stroke="black" points="0,-248.012 0,-345.965 68.1582,-345.965 68.1582,-248.012 0,-248.012"/>
<text text-anchor="middle" x="34.0791" y="-330.765" font-family="'/usr/share/fonts/truetype/wqy/wqy-microhei.ttc'" font-size="14.00">redisDb</text>
<polyline fill="none" stroke="black" points="0,-321.477 68.1582,-321.477 "/>
<text text-anchor="middle" x="34.0791" y="-306.277" font-family="'/usr/share/fonts/truetype/wqy/wqy-microhei.ttc'" font-size="14.00">id</text>
<polyline fill="none" stroke="black" points="0,-296.988 68.1582,-296.988 "/>
<text text-anchor="middle" x="34.0791" y="-281.788" font-family="'/usr/share/fonts/truetype/wqy/wqy-microhei.ttc'" font-size="14.00">dict</text>
<polyline fill="none" stroke="black" points="0,-272.5 68.1582,-272.5 "/>
<text text-anchor="middle" x="34.0791" y="-257.3" font-family="'/usr/share/fonts/truetype/wqy/wqy-microhei.ttc'" font-size="14.00">...</text>
</g>
<!-- dict -->
<g id="node2" class="node"><title>dict</title>
<polygon fill="#ffc1c1" stroke="black" points="104.158,-134.035 104.158,-305.941 204.281,-305.941 204.281,-134.035 104.158,-134.035"/>
<text text-anchor="middle" x="154.22" y="-290.741" font-family="'/usr/share/fonts/truetype/wqy/wqy-microhei.ttc'" font-size="14.00">dict</text>
<text text-anchor="middle" x="154.22" y="-274.253" font-family="'/usr/share/fonts/truetype/wqy/wqy-microhei.ttc'" font-size="14.00">(key space)</text>
<polyline fill="none" stroke="black" points="104.158,-264.965 204.281,-264.965 "/>
<text text-anchor="middle" x="154.22" y="-249.765" font-family="'/usr/share/fonts/truetype/wqy/wqy-microhei.ttc'" font-size="14.00">StringObject</text>
<text text-anchor="middle" x="154.22" y="-233.277" font-family="'/usr/share/fonts/truetype/wqy/wqy-microhei.ttc'" font-size="14.00"> &quot;number&quot;</text>
<polyline fill="none" stroke="black" points="104.158,-223.988 204.281,-223.988 "/>
<text text-anchor="middle" x="154.22" y="-208.788" font-family="'/usr/share/fonts/truetype/wqy/wqy-microhei.ttc'" font-size="14.00">NULL</text>
<polyline fill="none" stroke="black" points="104.158,-199.5 204.281,-199.5 "/>
<text text-anchor="middle" x="154.22" y="-184.3" font-family="'/usr/share/fonts/truetype/wqy/wqy-microhei.ttc'" font-size="14.00">StringObject</text>
<text text-anchor="middle" x="154.22" y="-167.812" font-family="'/usr/share/fonts/truetype/wqy/wqy-microhei.ttc'" font-size="14.00"> &quot;book&quot;</text>
<polyline fill="none" stroke="black" points="104.158,-158.523 204.281,-158.523 "/>
<text text-anchor="middle" x="154.22" y="-143.323" font-family="'/usr/share/fonts/truetype/wqy/wqy-microhei.ttc'" font-size="14.00">NULL</text>
</g>
<!-- redisDb&#45;&gt;dict -->
<g id="edge1" class="edge"><title>redisDb:dict&#45;&gt;dict:head</title>
<path fill="none" stroke="black" stroke-width="2" d="M68.1582,-284.988C80.1582,-284.988 85.4082,-284.988 94.0332,-284.988"/>
<polygon fill="black" stroke="black" stroke-width="2" points="94.1582,-288.488 104.158,-284.988 94.1582,-281.488 94.1582,-288.488"/>
</g>
<!-- number -->
<g id="node3" class="node"><title>number</title>
<polygon fill="#fadcad" stroke="black" points="240.281,-209.5 240.281,-258.477 367.954,-258.477 367.954,-209.5 240.281,-209.5"/>
<text text-anchor="middle" x="304.118" y="-243.277" font-family="'/usr/share/fonts/truetype/wqy/wqy-microhei.ttc'" font-size="14.00">ListObject</text>
<polyline fill="none" stroke="black" points="240.281,-233.988 367.954,-233.988 "/>
<text text-anchor="middle" x="261.56" y="-218.788" font-family="'/usr/share/fonts/truetype/wqy/wqy-microhei.ttc'" font-size="14.00">123</text>
<polyline fill="none" stroke="black" points="282.839,-209.5 282.839,-233.988 "/>
<text text-anchor="middle" x="304.118" y="-218.788" font-family="'/usr/share/fonts/truetype/wqy/wqy-microhei.ttc'" font-size="14.00">456</text>
<polyline fill="none" stroke="black" points="325.396,-209.5 325.396,-233.988 "/>
<text text-anchor="middle" x="346.675" y="-218.788" font-family="'/usr/share/fonts/truetype/wqy/wqy-microhei.ttc'" font-size="14.00">789</text>
</g>
<!-- dict&#45;&gt;number -->
<g id="edge2" class="edge"><title>dict:number&#45;&gt;number:head</title>
<path fill="none" stroke="black" stroke-width="2" d="M204.281,-243.988C216.3,-243.988 221.527,-245.113 230.149,-245.676"/>
<polygon fill="black" stroke="black" stroke-width="2" points="230.178,-249.178 240.281,-245.988 230.394,-242.182 230.178,-249.178"/>
</g>
<!-- book -->
<g id="node4" class="node"><title>book</title>
<polygon fill="#f2f2f2" stroke="black" points="254.056,-43.2793 254.056,-190.697 354.179,-190.697 354.179,-43.2793 254.056,-43.2793"/>
<text text-anchor="middle" x="304.118" y="-175.497" font-family="'/usr/share/fonts/truetype/wqy/wqy-microhei.ttc'" font-size="14.00">HashObject</text>
<polyline fill="none" stroke="black" points="254.056,-166.209 354.179,-166.209 "/>
<text text-anchor="middle" x="304.118" y="-151.009" font-family="'/usr/share/fonts/truetype/wqy/wqy-microhei.ttc'" font-size="14.00">StringObject</text>
<text text-anchor="middle" x="304.118" y="-134.521" font-family="'/usr/share/fonts/truetype/wqy/wqy-microhei.ttc'" font-size="14.00"> &quot;name&quot;</text>
<polyline fill="none" stroke="black" points="254.056,-125.232 354.179,-125.232 "/>
<text text-anchor="middle" x="304.118" y="-110.032" font-family="'/usr/share/fonts/truetype/wqy/wqy-microhei.ttc'" font-size="14.00">StringObject</text>
<text text-anchor="middle" x="304.118" y="-93.5441" font-family="'/usr/share/fonts/truetype/wqy/wqy-microhei.ttc'" font-size="14.00"> &quot;author&quot;</text>
<polyline fill="none" stroke="black" points="254.056,-84.2559 354.179,-84.2559 "/>
<text text-anchor="middle" x="304.118" y="-69.0559" font-family="'/usr/share/fonts/truetype/wqy/wqy-microhei.ttc'" font-size="14.00">StringObject</text>
<text text-anchor="middle" x="304.118" y="-52.5676" font-family="'/usr/share/fonts/truetype/wqy/wqy-microhei.ttc'" font-size="14.00"> &quot;publisher&quot;</text>
</g>
<!-- dict&#45;&gt;book -->
<g id="edge3" class="edge"><title>dict:book&#45;&gt;book:head</title>
<path fill="none" stroke="black" stroke-width="2" d="M204.281,-178.988C222.09,-178.988 228.935,-178.315 242.804,-178.074"/>
<polygon fill="black" stroke="black" stroke-width="2" points="243.147,-181.571 253.118,-177.988 243.089,-174.571 243.147,-181.571"/>
</g>
<!-- book_name -->
<g id="node5" class="node"><title>book_name</title>
<polygon fill="lightgrey" stroke="black" points="403.954,-136.5 403.954,-185.477 607.225,-185.477 607.225,-136.5 403.954,-136.5"/>
<text text-anchor="middle" x="505.589" y="-170.277" font-family="'/usr/share/fonts/truetype/wqy/wqy-microhei.ttc'" font-size="14.00">StringObject</text>
<polyline fill="none" stroke="black" points="403.954,-160.988 607.225,-160.988 "/>
<text text-anchor="middle" x="505.589" y="-145.788" font-family="'/usr/share/fonts/truetype/wqy/wqy-microhei.ttc'" font-size="14.00">&quot;Mastering C++ in 21 days&quot;</text>
</g>
<!-- book&#45;&gt;book_name -->
<g id="edge4" class="edge"><title>book:name&#45;&gt;book_name:head</title>
<path fill="none" stroke="black" stroke-width="2" d="M355.118,-145.988C376.044,-145.988 378.768,-165.21 394.006,-171.217"/>
<polygon fill="black" stroke="black" stroke-width="2" points="393.495,-174.681 403.954,-172.988 394.723,-167.789 393.495,-174.681"/>
</g>
<!-- book_author -->
<g id="node6" class="node"><title>book_author</title>
<polygon fill="lightgrey" stroke="black" points="455.528,-68.5 455.528,-117.477 555.651,-117.477 555.651,-68.5 455.528,-68.5"/>
<text text-anchor="middle" x="505.589" y="-102.277" font-family="'/usr/share/fonts/truetype/wqy/wqy-microhei.ttc'" font-size="14.00">StringObject</text>
<polyline fill="none" stroke="black" points="455.528,-92.9883 555.651,-92.9883 "/>
<text text-anchor="middle" x="505.589" y="-77.7883" font-family="'/usr/share/fonts/truetype/wqy/wqy-microhei.ttc'" font-size="14.00">&quot;Someone&quot;</text>
</g>
<!-- book&#45;&gt;book_author -->
<g id="edge5" class="edge"><title>book:author&#45;&gt;book_author:head</title>
<path fill="none" stroke="black" stroke-width="2" d="M355.118,-104.988C395.701,-104.988 408.343,-104.988 444.342,-104.988"/>
<polygon fill="black" stroke="black" stroke-width="2" points="444.589,-108.488 454.589,-104.988 444.589,-101.488 444.589,-108.488"/>
</g>
<!-- book_publisher -->
<g id="node7" class="node"><title>book_publisher</title>
<polygon fill="lightgrey" stroke="black" points="422.387,-0.5 422.387,-49.4766 588.792,-49.4766 588.792,-0.5 422.387,-0.5"/>
<text text-anchor="middle" x="505.589" y="-34.2766" font-family="'/usr/share/fonts/truetype/wqy/wqy-microhei.ttc'" font-size="14.00">StringObject</text>
<polyline fill="none" stroke="black" points="422.387,-24.9883 588.792,-24.9883 "/>
<text text-anchor="middle" x="505.589" y="-9.78828" font-family="'/usr/share/fonts/truetype/wqy/wqy-microhei.ttc'" font-size="14.00">&quot;Oh&#45;Really? Publisher&quot;</text>
</g>
<!-- book&#45;&gt;book_publisher -->
<g id="edge6" class="edge"><title>book:publisher&#45;&gt;book_publisher:head</title>
<path fill="none" stroke="black" stroke-width="2" d="M355.118,-63.9883C383.268,-63.9883 388.669,-42.9456 411.488,-38.0137"/>
<polygon fill="black" stroke="black" stroke-width="2" points="411.994,-41.4804 421.589,-36.9883 411.287,-34.5162 411.994,-41.4804"/>
</g>
</g>
</svg>
