<?xml version="1.0" encoding="UTF-8" standalone="no"?>
<!DOCTYPE svg PUBLIC "-//W3C//DTD SVG 1.1//EN"
 "http://www.w3.org/Graphics/SVG/1.1/DTD/svg11.dtd">
<!-- Generated by graphviz version 2.38.0 (20140413.2041)
 -->
<!-- Title: rehash_step Pages: 1 -->
<svg width="433pt" height="282pt"
 viewBox="0.00 0.00 432.58 281.60" xmlns="http://www.w3.org/2000/svg" xmlns:xlink="http://www.w3.org/1999/xlink">
<g id="graph0" class="graph" transform="scale(1 1) rotate(0) translate(4 277.6)">
<title>rehash_step</title>
<polygon fill="white" stroke="none" points="-4,4 -4,-277.6 428.577,-277.6 428.577,4 -4,4"/>
<!-- dictAdd -->
<g id="node1" class="node"><title>dictAdd</title>
<polygon fill="#a8e270" stroke="none" points="72.5767,-273.6 4.47801,-273.6 4.47801,-237.6 72.5767,-237.6 72.5767,-273.6"/>
<text text-anchor="middle" x="38.5273" y="-252.644" font-family="'/usr/share/fonts/truetype/wqy/wqy-microhei.ttc'" font-size="14.00">dictAdd</text>
</g>
<!-- rehashing_or_not -->
<g id="node5" class="node"><title>rehashing_or_not</title>
<polygon fill="#95bbe3" stroke="black" points="172.527,-200.6 35.3612,-182.6 172.527,-164.6 309.693,-182.6 172.527,-200.6"/>
<text text-anchor="middle" x="172.527" y="-179.854" font-family="'/usr/share/fonts/truetype/wqy/wqy-microhei.ttc'" font-size="14.00">正在进行 rehash ？</text>
</g>
<!-- dictAdd&#45;&gt;rehashing_or_not -->
<g id="edge1" class="edge"><title>dictAdd&#45;&gt;rehashing_or_not</title>
<path fill="none" stroke="black" stroke-width="2" d="M70.6237,-237.594C90.7668,-226.921 116.75,-213.154 137.437,-202.193"/>
<polygon fill="black" stroke="black" stroke-width="2" points="139.332,-205.15 146.529,-197.375 136.054,-198.964 139.332,-205.15"/>
</g>
<!-- dictFind -->
<g id="node2" class="node"><title>dictFind</title>
<polygon fill="#a8e270" stroke="none" points="160.709,-273.6 90.3455,-273.6 90.3455,-237.6 160.709,-237.6 160.709,-273.6"/>
<text text-anchor="middle" x="125.527" y="-252.644" font-family="'/usr/share/fonts/truetype/wqy/wqy-microhei.ttc'" font-size="14.00">dictFind</text>
</g>
<!-- dictFind&#45;&gt;rehashing_or_not -->
<g id="edge2" class="edge"><title>dictFind&#45;&gt;rehashing_or_not</title>
<path fill="none" stroke="black" stroke-width="2" d="M136.905,-237.413C142.729,-228.615 149.921,-217.75 156.314,-208.092"/>
<polygon fill="black" stroke="black" stroke-width="2" points="159.298,-209.926 161.899,-199.655 153.461,-206.062 159.298,-209.926"/>
</g>
<!-- dictDelete -->
<g id="node3" class="node"><title>dictDelete</title>
<polygon fill="#a8e270" stroke="none" points="262.949,-273.6 178.105,-273.6 178.105,-237.6 262.949,-237.6 262.949,-273.6"/>
<text text-anchor="middle" x="220.527" y="-252.644" font-family="'/usr/share/fonts/truetype/wqy/wqy-microhei.ttc'" font-size="14.00">dictDelete</text>
</g>
<!-- dictDelete&#45;&gt;rehashing_or_not -->
<g id="edge3" class="edge"><title>dictDelete&#45;&gt;rehashing_or_not</title>
<path fill="none" stroke="black" stroke-width="2" d="M208.908,-237.413C202.96,-228.615 195.615,-217.75 189.085,-208.092"/>
<polygon fill="black" stroke="black" stroke-width="2" points="191.882,-205.98 183.382,-199.655 186.083,-209.9 191.882,-205.98"/>
</g>
<!-- dictGetRandomKey -->
<g id="node4" class="node"><title>dictGetRandomKey</title>
<polygon fill="#a8e270" stroke="none" points="424.626,-273.6 280.429,-273.6 280.429,-237.6 424.626,-237.6 424.626,-273.6"/>
<text text-anchor="middle" x="352.527" y="-252.644" font-family="'/usr/share/fonts/truetype/wqy/wqy-microhei.ttc'" font-size="14.00">dictGetRandomKey</text>
</g>
<!-- dictGetRandomKey&#45;&gt;rehashing_or_not -->
<g id="edge4" class="edge"><title>dictGetRandomKey&#45;&gt;rehashing_or_not</title>
<path fill="none" stroke="black" stroke-width="2" d="M309.413,-237.594C280.757,-226.291 243.304,-211.517 214.819,-200.282"/>
<polygon fill="black" stroke="black" stroke-width="2" points="215.734,-196.88 205.147,-196.466 213.165,-203.392 215.734,-196.88"/>
</g>
<!-- _dictRehashStep -->
<g id="node6" class="node"><title>_dictRehashStep</title>
<polygon fill="#a8e270" stroke="none" points="235.415,-109 109.64,-109 109.64,-73 235.415,-73 235.415,-109"/>
<text text-anchor="middle" x="172.527" y="-88.0441" font-family="'/usr/share/fonts/truetype/wqy/wqy-microhei.ttc'" font-size="14.00">_dictRehashStep</text>
</g>
<!-- rehashing_or_not&#45;&gt;_dictRehashStep -->
<g id="edge5" class="edge"><title>rehashing_or_not&#45;&gt;_dictRehashStep</title>
<path fill="none" stroke="black" stroke-width="2" d="M172.527,-164.324C172.527,-151.557 172.527,-133.92 172.527,-119.26"/>
<polygon fill="black" stroke="black" stroke-width="2" points="176.027,-119.223 172.527,-109.223 169.027,-119.223 176.027,-119.223"/>
<text text-anchor="middle" x="179.527" y="-135.4" font-family="Times,serif" font-size="14.00">是</text>
</g>
<!-- one_index -->
<g id="node7" class="node"><title>one_index</title>
<polygon fill="lightgrey" stroke="none" points="345.082,-36 -0.0273481,-36 -0.0273481,-0 345.082,-0 345.082,-36"/>
<text text-anchor="middle" x="172.527" y="-15.2541" font-family="'/usr/share/fonts/truetype/wqy/wqy-microhei.ttc'" font-size="14.00">将 ht[0] 第一个不为空索引上的所有节点迁移至 ht[1]</text>
</g>
<!-- _dictRehashStep&#45;&gt;one_index -->
<g id="edge6" class="edge"><title>_dictRehashStep&#45;&gt;one_index</title>
<path fill="none" stroke="black" stroke-width="2" d="M172.527,-72.8129C172.527,-64.7895 172.527,-55.0475 172.527,-46.0691"/>
<polygon fill="black" stroke="black" stroke-width="2" points="176.027,-46.0288 172.527,-36.0288 169.027,-46.0289 176.027,-46.0288"/>
</g>
</g>
</svg>
