<?xml version="1.0" encoding="UTF-8" standalone="no"?>
<!DOCTYPE svg PUBLIC "-//W3C//DTD SVG 1.1//EN"
 "http://www.w3.org/Graphics/SVG/1.1/DTD/svg11.dtd">
<!-- Generated by graphviz version 2.38.0 (20140413.2041)
 -->
<!-- Title: p Pages: 1 -->
<svg width="260pt" height="227pt"
 viewBox="0.00 0.00 260.42 227.20" xmlns="http://www.w3.org/2000/svg" xmlns:xlink="http://www.w3.org/1999/xlink">
<g id="graph0" class="graph" transform="scale(1 1) rotate(0) translate(4 223.2)">
<title>p</title>
<polygon fill="white" stroke="none" points="-4,4 -4,-223.2 256.416,-223.2 256.416,4 -4,4"/>
<!-- client -->
<g id="node1" class="node"><title>client</title>
<ellipse fill="#95bbe3" stroke="black" cx="116.416" cy="-201.2" rx="37.1311" ry="18"/>
<text text-anchor="middle" x="116.416" y="-197.21" font-family="'/usr/share/fonts/truetype/wqy/wqy-microhei.ttc'" font-size="14.00">客户端</text>
</g>
<!-- server -->
<g id="node2" class="node"><title>server</title>
<ellipse fill="#a8e270" stroke="black" cx="116.416" cy="-109.6" rx="37.1311" ry="18"/>
<text text-anchor="middle" x="116.416" y="-105.61" font-family="'/usr/share/fonts/truetype/wqy/wqy-microhei.ttc'" font-size="14.00">服务器</text>
</g>
<!-- client&#45;&gt;server -->
<g id="edge1" class="edge"><title>client&#45;&gt;server</title>
<path fill="none" stroke="black" stroke-width="2" stroke-dasharray="5,2" d="M116.416,-182.924C116.416,-170.157 116.416,-152.52 116.416,-137.86"/>
<polygon fill="black" stroke="black" stroke-width="2" points="119.916,-137.823 116.416,-127.823 112.916,-137.823 119.916,-137.823"/>
<text text-anchor="middle" x="144.416" y="-154" font-family="Times,serif" font-size="14.00">命令请求</text>
</g>
<!-- current_aof -->
<g id="node3" class="node"><title>current_aof</title>
<polygon fill="#fadcad" stroke="black" points="108.748,-36 0.083855,-36 0.083855,-0 108.748,-0 108.748,-36"/>
<text text-anchor="middle" x="54.416" y="-15.2541" font-family="'/usr/share/fonts/truetype/wqy/wqy-microhei.ttc'" font-size="14.00">现有 AOF 文件</text>
</g>
<!-- server&#45;&gt;current_aof -->
<g id="edge2" class="edge"><title>server&#45;&gt;current_aof</title>
<path fill="none" stroke="black" stroke-width="2" stroke-dasharray="5,2" d="M94.5723,-94.5702C87.0214,-88.8299 79.0505,-81.6403 73.416,-73.5999 67.7245,-65.4781 63.596,-55.4915 60.6718,-46.2898"/>
<polygon fill="black" stroke="black" stroke-width="2" points="63.9563,-45.0426 57.8629,-36.3754 57.2213,-46.9507 63.9563,-45.0426"/>
<text text-anchor="middle" x="115.416" y="-62.3999" font-family="Times,serif" font-size="14.00">命令协议内容</text>
</g>
<!-- aof_rewrite_buf -->
<g id="node4" class="node"><title>aof_rewrite_buf</title>
<polygon fill="#fadcad" stroke="black" points="231.819,-36 127.013,-36 127.013,-0 231.819,-0 231.819,-36"/>
<text text-anchor="middle" x="179.416" y="-15.2541" font-family="'/usr/share/fonts/truetype/wqy/wqy-microhei.ttc'" font-size="14.00">AOF 重写缓存</text>
</g>
<!-- server&#45;&gt;aof_rewrite_buf -->
<g id="edge3" class="edge"><title>server&#45;&gt;aof_rewrite_buf</title>
<path fill="none" stroke="black" stroke-width="2" stroke-dasharray="5,2" d="M137.024,-94.2541C144.2,-88.4796 151.841,-81.3492 157.416,-73.5999 163.377,-65.3142 168.035,-55.1831 171.5,-45.9077"/>
<polygon fill="black" stroke="black" stroke-width="2" points="174.859,-46.9012 174.796,-36.3066 168.238,-44.628 174.859,-46.9012"/>
<text text-anchor="middle" x="210.416" y="-62.3999" font-family="Times,serif" font-size="14.00">命令协议内容</text>
</g>
</g>
</svg>
