<?xml version="1.0" encoding="UTF-8" standalone="no"?>
<!DOCTYPE svg PUBLIC "-//W3C//DTD SVG 1.1//EN"
 "http://www.w3.org/Graphics/SVG/1.1/DTD/svg11.dtd">
<!-- Generated by graphviz version 2.38.0 (20140413.2041)
 -->
<!-- Title: blpop_decide_block_or_not Pages: 1 -->
<svg width="417pt" height="300pt"
 viewBox="0.00 0.00 417.39 300.20" xmlns="http://www.w3.org/2000/svg" xmlns:xlink="http://www.w3.org/1999/xlink">
<g id="graph0" class="graph" transform="scale(1 1) rotate(0) translate(4 296.2)">
<title>blpop_decide_block_or_not</title>
<polygon fill="white" stroke="none" points="-4,4 -4,-296.2 413.393,-296.2 413.393,4 -4,4"/>
<!-- call_blpop -->
<g id="node1" class="node"><title>call_blpop</title>
<polygon fill="#a8e270" stroke="none" points="195.179,-292.2 109.422,-292.2 109.422,-256.2 195.179,-256.2 195.179,-292.2"/>
<text text-anchor="middle" x="152.301" y="-271.244" font-family="'/usr/share/fonts/truetype/wqy/wqy-microhei.ttc'" font-size="14.00">BLPOP key</text>
</g>
<!-- wrong_type_or_not -->
<g id="node2" class="node"><title>wrong_type_or_not</title>
<polygon fill="#95bbe3" stroke="black" points="152.301,-219.2 0.199059,-201.2 152.301,-183.2 304.402,-201.2 152.301,-219.2"/>
<text text-anchor="middle" x="152.301" y="-198.454" font-family="'/usr/share/fonts/truetype/wqy/wqy-microhei.ttc'" font-size="14.00">key 非空且不是列表？</text>
</g>
<!-- call_blpop&#45;&gt;wrong_type_or_not -->
<g id="edge1" class="edge"><title>call_blpop&#45;&gt;wrong_type_or_not</title>
<path fill="none" stroke="black" stroke-width="2" d="M152.301,-256.013C152.301,-247.989 152.301,-238.247 152.301,-229.269"/>
<polygon fill="black" stroke="black" stroke-width="2" points="155.801,-229.229 152.301,-219.229 148.801,-229.229 155.801,-229.229"/>
</g>
<!-- return_wrong_type -->
<g id="node3" class="node"><title>return_wrong_type</title>
<polygon fill="lightgrey" stroke="none" points="150.301,-127.6 50.3007,-127.6 50.3007,-91.5999 150.301,-91.5999 150.301,-127.6"/>
<text text-anchor="middle" x="100.301" y="-105.61" font-family="'/usr/share/fonts/truetype/wqy/wqy-microhei.ttc'" font-size="14.00">返回类型错误</text>
</g>
<!-- wrong_type_or_not&#45;&gt;return_wrong_type -->
<g id="edge2" class="edge"><title>wrong_type_or_not&#45;&gt;return_wrong_type</title>
<path fill="none" stroke="black" stroke-width="2" d="M143.004,-184.181C135.359,-171.009 124.374,-152.08 115.459,-136.72"/>
<polygon fill="black" stroke="black" stroke-width="2" points="118.272,-134.592 110.225,-127.7 112.217,-138.106 118.272,-134.592"/>
<text text-anchor="middle" x="138.301" y="-154" font-family="Times,serif" font-size="14.00">是</text>
</g>
<!-- key_empty_or_not -->
<g id="node4" class="node"><title>key_empty_or_not</title>
<polygon fill="#95bbe3" stroke="black" points="272.301,-127.6 168.705,-109.6 272.301,-91.5999 375.897,-109.6 272.301,-127.6"/>
<text text-anchor="middle" x="272.301" y="-106.854" font-family="'/usr/share/fonts/truetype/wqy/wqy-microhei.ttc'" font-size="14.00">key 是否为空?</text>
</g>
<!-- wrong_type_or_not&#45;&gt;key_empty_or_not -->
<g id="edge3" class="edge"><title>wrong_type_or_not&#45;&gt;key_empty_or_not</title>
<path fill="none" stroke="black" stroke-width="2" d="M172.116,-185.404C192.186,-170.419 223.357,-147.145 245.597,-130.539"/>
<polygon fill="black" stroke="black" stroke-width="2" points="247.722,-133.32 253.641,-124.532 243.534,-127.711 247.722,-133.32"/>
<text text-anchor="middle" x="229.301" y="-154" font-family="Times,serif" font-size="14.00">否</text>
</g>
<!-- block_client -->
<g id="node5" class="node"><title>block_client</title>
<polygon fill="lightgrey" stroke="none" points="249.301,-36 163.301,-36 163.301,-0 249.301,-0 249.301,-36"/>
<text text-anchor="middle" x="206.301" y="-14.01" font-family="'/usr/share/fonts/truetype/wqy/wqy-microhei.ttc'" font-size="14.00">阻塞客户端</text>
</g>
<!-- key_empty_or_not&#45;&gt;block_client -->
<g id="edge4" class="edge"><title>key_empty_or_not&#45;&gt;block_client</title>
<path fill="none" stroke="black" stroke-width="2" d="M261.105,-93.4005C251.237,-80.0041 236.661,-60.2161 225.021,-44.4145"/>
<polygon fill="black" stroke="black" stroke-width="2" points="227.654,-42.0876 218.905,-36.1119 222.018,-46.2391 227.654,-42.0876"/>
<text text-anchor="middle" x="251.301" y="-62.3999" font-family="Times,serif" font-size="14.00">是</text>
</g>
<!-- lpop -->
<g id="node6" class="node"><title>lpop</title>
<polygon fill="#a8e270" stroke="none" points="409.485,-36 267.116,-36 267.116,-0 409.485,-0 409.485,-36"/>
<text text-anchor="middle" x="338.301" y="-15.2541" font-family="'/usr/share/fonts/truetype/wqy/wqy-microhei.ttc'" font-size="14.00">执行 LPOP key 命令</text>
</g>
<!-- key_empty_or_not&#45;&gt;lpop -->
<g id="edge5" class="edge"><title>key_empty_or_not&#45;&gt;lpop</title>
<path fill="none" stroke="black" stroke-width="2" d="M283.497,-93.4005C293.365,-80.0041 307.941,-60.2161 319.58,-44.4145"/>
<polygon fill="black" stroke="black" stroke-width="2" points="322.583,-46.2391 325.696,-36.1119 316.947,-42.0876 322.583,-46.2391"/>
<text text-anchor="middle" x="317.301" y="-62.3999" font-family="Times,serif" font-size="14.00">否</text>
</g>
</g>
</svg>
