<?xml version="1.0" encoding="UTF-8" standalone="no"?>
<!DOCTYPE svg PUBLIC "-//W3C//DTD SVG 1.1//EN"
 "http://www.w3.org/Graphics/SVG/1.1/DTD/svg11.dtd">
<!-- Generated by graphviz version 2.38.0 (20140413.2041)
 -->
<!-- Title: pattern_relation Pages: 1 -->
<svg width="644pt" height="289pt"
 viewBox="0.00 0.00 644.08 289.00" xmlns="http://www.w3.org/2000/svg" xmlns:xlink="http://www.w3.org/1999/xlink">
<g id="graph0" class="graph" transform="scale(1 1) rotate(0) translate(4 285)">
<title>pattern_relation</title>
<polygon fill="white" stroke="none" points="-4,4 -4,-285 640.076,-285 640.076,4 -4,4"/>
<!-- kindle -->
<g id="node1" class="node"><title>kindle</title>
<ellipse fill="#a8e270" stroke="black" cx="516.2" cy="-190" rx="92.7103" ry="18"/>
<text text-anchor="middle" x="516.2" y="-187.044" font-family="'/usr/share/fonts/truetype/wqy/wqy-microhei.ttc'" font-size="14.00">tweet.shop.kindle</text>
</g>
<!-- ipad -->
<g id="node2" class="node"><title>ipad</title>
<ellipse fill="#a8e270" stroke="black" cx="203.2" cy="-190" rx="84.2406" ry="18"/>
<text text-anchor="middle" x="203.2" y="-187.044" font-family="'/usr/share/fonts/truetype/wqy/wqy-microhei.ttc'" font-size="14.00">tweet.shop.ipad</text>
</g>
<!-- publish -->
<g id="node11" class="node"><title>publish</title>
<polygon fill="#fadcad" stroke="none" points="326.142,-281 80.2579,-281 80.2579,-245 326.142,-245 326.142,-281"/>
<text text-anchor="middle" x="203.2" y="-260.044" font-family="'/usr/share/fonts/truetype/wqy/wqy-microhei.ttc'" font-size="14.00">PUBLISH tweet.shop.ipad message</text>
</g>
<!-- ipad&#45;&gt;publish -->
<g id="edge10" class="edge"><title>ipad&#45;&gt;publish</title>
<path fill="none" stroke="#b22222" stroke-width="2" stroke-dasharray="5,2" d="M203.2,-218.247C203.2,-227.235 203.2,-236.971 203.2,-244.971"/>
<polygon fill="#b22222" stroke="#b22222" stroke-width="2" points="206.7,-218.187 203.2,-208.187 199.7,-218.187 206.7,-218.187"/>
</g>
<!-- pattern -->
<g id="node3" class="node"><title>pattern</title>
<polygon fill="lightgrey" stroke="black" points="467.89,-96.5442 467.89,-111.456 424.138,-122 362.262,-122 318.509,-111.456 318.509,-96.5442 362.262,-86 424.138,-86 467.89,-96.5442"/>
<text text-anchor="middle" x="393.2" y="-101.044" font-family="'/usr/share/fonts/truetype/wqy/wqy-microhei.ttc'" font-size="14.00">tweet.shop.*</text>
</g>
<!-- pattern&#45;&gt;kindle -->
<g id="edge1" class="edge"><title>pattern&#45;&gt;kindle</title>
<path fill="none" stroke="black" stroke-width="2" d="M418.387,-122.201C437.206,-135.053 463.091,-152.731 483.506,-166.673"/>
<polygon fill="black" stroke="black" stroke-width="2" points="481.652,-169.645 491.884,-172.394 485.6,-163.864 481.652,-169.645"/>
<text text-anchor="middle" x="479.303" y="-142.8" font-family="Times,serif" font-size="14.00">match</text>
</g>
<!-- pattern&#45;&gt;ipad -->
<g id="edge2" class="edge"><title>pattern&#45;&gt;ipad</title>
<path fill="none" stroke="#b22222" stroke-width="2" stroke-dasharray="5,2" d="M350.552,-126.012C332.112,-134.909 310.213,-145.224 290.2,-154 274.544,-160.865 257.095,-167.987 241.958,-174"/>
<polygon fill="#b22222" stroke="#b22222" stroke-width="2" points="352.104,-129.149 359.576,-121.638 349.051,-122.85 352.104,-129.149"/>
</g>
<!-- client123 -->
<g id="node4" class="node"><title>client123</title>
<polygon fill="#95bbe3" stroke="black" points="383.748,-36 304.652,-36 304.652,-0 383.748,-0 383.748,-36"/>
<text text-anchor="middle" x="344.2" y="-15.0441" font-family="'/usr/share/fonts/truetype/wqy/wqy-microhei.ttc'" font-size="14.00">client123</text>
</g>
<!-- client123&#45;&gt;pattern -->
<g id="edge3" class="edge"><title>client123&#45;&gt;pattern</title>
<path fill="none" stroke="#b22222" stroke-width="2" stroke-dasharray="5,2" d="M359.44,-45.1259C367.19,-58.4124 376.39,-74.184 383.228,-85.9048"/>
<polygon fill="#b22222" stroke="#b22222" stroke-width="2" points="362.415,-43.2791 354.353,-36.4049 356.368,-46.8062 362.415,-43.2791"/>
<text text-anchor="middle" x="395.914" y="-56.8" font-family="Times,serif" font-size="14.00">message</text>
</g>
<!-- client256 -->
<g id="node5" class="node"><title>client256</title>
<polygon fill="#95bbe3" stroke="black" points="481.748,-36 402.652,-36 402.652,-0 481.748,-0 481.748,-36"/>
<text text-anchor="middle" x="442.2" y="-15.0441" font-family="'/usr/share/fonts/truetype/wqy/wqy-microhei.ttc'" font-size="14.00">client256</text>
</g>
<!-- client256&#45;&gt;pattern -->
<g id="edge4" class="edge"><title>client256&#45;&gt;pattern</title>
<path fill="none" stroke="#b22222" stroke-width="2" stroke-dasharray="5,2" d="M431.502,-45.8643C428.21,-53.219 424.35,-61.0697 420.2,-68 416.573,-74.0574 412.065,-80.2813 407.779,-85.7697"/>
<polygon fill="#b22222" stroke="#b22222" stroke-width="2" points="434.889,-46.8459 435.612,-36.2757 428.455,-44.0881 434.889,-46.8459"/>
<text text-anchor="middle" x="450.914" y="-56.8" font-family="Times,serif" font-size="14.00">message</text>
</g>
<!-- clientX -->
<g id="node6" class="node"><title>clientX</title>
<polygon fill="#95bbe3" stroke="black" points="546.953,-122 485.446,-122 485.446,-86 546.953,-86 546.953,-122"/>
<text text-anchor="middle" x="516.2" y="-101.044" font-family="'/usr/share/fonts/truetype/wqy/wqy-microhei.ttc'" font-size="14.00">clientX</text>
</g>
<!-- clientX&#45;&gt;kindle -->
<g id="edge5" class="edge"><title>clientX&#45;&gt;kindle</title>
<path fill="none" stroke="black" stroke-width="2" d="M516.2,-122.405C516.2,-133.743 516.2,-148.773 516.2,-161.685"/>
<polygon fill="black" stroke="black" stroke-width="2" points="512.7,-161.905 516.2,-171.905 519.7,-161.905 512.7,-161.905"/>
<text text-anchor="middle" x="542.638" y="-142.8" font-family="Times,serif" font-size="14.00">subscribe</text>
</g>
<!-- clientY -->
<g id="node7" class="node"><title>clientY</title>
<polygon fill="#95bbe3" stroke="black" points="626.912,-122 565.487,-122 565.487,-86 626.912,-86 626.912,-122"/>
<text text-anchor="middle" x="596.2" y="-101.044" font-family="'/usr/share/fonts/truetype/wqy/wqy-microhei.ttc'" font-size="14.00">clientY</text>
</g>
<!-- clientY&#45;&gt;kindle -->
<g id="edge6" class="edge"><title>clientY&#45;&gt;kindle</title>
<path fill="none" stroke="black" stroke-width="2" d="M590.887,-122.307C587.146,-132.399 581.342,-144.892 573.2,-154 568.832,-158.886 563.619,-163.319 558.147,-167.261"/>
<polygon fill="black" stroke="black" stroke-width="2" points="555.82,-164.604 549.418,-173.045 559.687,-170.439 555.82,-164.604"/>
<text text-anchor="middle" x="609.638" y="-142.8" font-family="Times,serif" font-size="14.00">subscribe</text>
</g>
<!-- client3333 -->
<g id="node8" class="node"><title>client3333</title>
<polygon fill="#95bbe3" stroke="black" points="88.6,-122 -0.200613,-122 -0.200613,-86 88.6,-86 88.6,-122"/>
<text text-anchor="middle" x="44.1997" y="-101.044" font-family="'/usr/share/fonts/truetype/wqy/wqy-microhei.ttc'" font-size="14.00">client3333</text>
</g>
<!-- client3333&#45;&gt;ipad -->
<g id="edge7" class="edge"><title>client3333&#45;&gt;ipad</title>
<path fill="none" stroke="#b22222" stroke-width="2" stroke-dasharray="5,2" d="M78.0487,-127.631C91.6797,-136.339 107.714,-146.083 122.772,-154 136.251,-161.086 151.471,-167.977 165.017,-173.744"/>
<polygon fill="#b22222" stroke="#b22222" stroke-width="2" points="79.771,-124.577 69.4727,-122.088 75.971,-130.455 79.771,-124.577"/>
<text text-anchor="middle" x="146.914" y="-142.8" font-family="Times,serif" font-size="14.00">message</text>
</g>
<!-- client4444 -->
<g id="node9" class="node"><title>client4444</title>
<polygon fill="#95bbe3" stroke="black" points="194.6,-122 105.799,-122 105.799,-86 194.6,-86 194.6,-122"/>
<text text-anchor="middle" x="150.2" y="-101.044" font-family="'/usr/share/fonts/truetype/wqy/wqy-microhei.ttc'" font-size="14.00">client4444</text>
</g>
<!-- client4444&#45;&gt;ipad -->
<g id="edge8" class="edge"><title>client4444&#45;&gt;ipad</title>
<path fill="none" stroke="#b22222" stroke-width="2" stroke-dasharray="5,2" d="M166.684,-131.126C175.067,-144.412 185.018,-160.184 192.413,-171.905"/>
<polygon fill="#b22222" stroke="#b22222" stroke-width="2" points="169.478,-128.994 161.181,-122.405 163.557,-132.73 169.478,-128.994"/>
<text text-anchor="middle" x="203.914" y="-142.8" font-family="Times,serif" font-size="14.00">message</text>
</g>
<!-- client5555 -->
<g id="node10" class="node"><title>client5555</title>
<polygon fill="#95bbe3" stroke="black" points="300.6,-122 211.799,-122 211.799,-86 300.6,-86 300.6,-122"/>
<text text-anchor="middle" x="256.2" y="-101.044" font-family="'/usr/share/fonts/truetype/wqy/wqy-microhei.ttc'" font-size="14.00">client5555</text>
</g>
<!-- client5555&#45;&gt;ipad -->
<g id="edge9" class="edge"><title>client5555&#45;&gt;ipad</title>
<path fill="none" stroke="#b22222" stroke-width="2" stroke-dasharray="5,2" d="M243.997,-131.337C240.196,-138.835 235.789,-146.892 231.2,-154 227.232,-160.145 222.403,-166.497 217.881,-172.074"/>
<polygon fill="#b22222" stroke="#b22222" stroke-width="2" points="247.191,-132.772 248.456,-122.253 240.907,-129.688 247.191,-132.772"/>
<text text-anchor="middle" x="262.914" y="-142.8" font-family="Times,serif" font-size="14.00">message</text>
</g>
</g>
</svg>
