<?xml version="1.0" encoding="UTF-8" standalone="no"?>
<!DOCTYPE svg PUBLIC "-//W3C//DTD SVG 1.1//EN"
 "http://www.w3.org/Graphics/SVG/1.1/DTD/svg11.dtd">
<!-- Generated by graphviz version 2.38.0 (20140413.2041)
 -->
<!-- Title: pubsub_relation Pages: 1 -->
<svg width="239pt" height="130pt"
 viewBox="0.00 0.00 238.80 130.00" xmlns="http://www.w3.org/2000/svg" xmlns:xlink="http://www.w3.org/1999/xlink">
<g id="graph0" class="graph" transform="scale(1 1) rotate(0) translate(4 126)">
<title>pubsub_relation</title>
<polygon fill="white" stroke="none" points="-4,4 -4,-126 234.797,-126 234.797,4 -4,4"/>
<!-- channel1 -->
<g id="node1" class="node"><title>channel1</title>
<ellipse fill="#a8e270" stroke="black" cx="110.921" cy="-104" rx="52.9579" ry="18"/>
<text text-anchor="middle" x="110.921" y="-101.044" font-family="'/usr/share/fonts/truetype/wqy/wqy-microhei.ttc'" font-size="14.00">channel1</text>
</g>
<!-- client2 -->
<g id="node2" class="node"><title>client2</title>
<polygon fill="#95bbe3" stroke="black" points="61.7629,-36 0.0788997,-36 0.0788997,-0 61.7629,-0 61.7629,-36"/>
<text text-anchor="middle" x="30.9209" y="-15.0441" font-family="'/usr/share/fonts/truetype/wqy/wqy-microhei.ttc'" font-size="14.00">client2</text>
</g>
<!-- client2&#45;&gt;channel1 -->
<g id="edge1" class="edge"><title>client2&#45;&gt;channel1</title>
<path fill="none" stroke="black" stroke-width="2" d="M36.2851,-36.3036C40.054,-46.3944 45.8896,-58.8879 54.0449,-68 59.3185,-73.8923 65.8191,-79.1292 72.5186,-83.6418"/>
<polygon fill="black" stroke="black" stroke-width="2" points="70.6989,-86.6318 81.0336,-88.965 74.4096,-80.6962 70.6989,-86.6318"/>
<text text-anchor="middle" x="81.3589" y="-56.8" font-family="Times,serif" font-size="14.00">subscribe</text>
</g>
<!-- client5 -->
<g id="node3" class="node"><title>client5</title>
<polygon fill="#95bbe3" stroke="black" points="141.763,-36 80.0789,-36 80.0789,-0 141.763,-0 141.763,-36"/>
<text text-anchor="middle" x="110.921" y="-15.0441" font-family="'/usr/share/fonts/truetype/wqy/wqy-microhei.ttc'" font-size="14.00">client5</text>
</g>
<!-- client5&#45;&gt;channel1 -->
<g id="edge2" class="edge"><title>client5&#45;&gt;channel1</title>
<path fill="none" stroke="black" stroke-width="2" d="M110.921,-36.4049C110.921,-47.7428 110.921,-62.7729 110.921,-75.6847"/>
<polygon fill="black" stroke="black" stroke-width="2" points="107.421,-75.9048 110.921,-85.9048 114.421,-75.9049 107.421,-75.9048"/>
<text text-anchor="middle" x="137.359" y="-56.8" font-family="Times,serif" font-size="14.00">subscribe</text>
</g>
<!-- client1 -->
<g id="node4" class="node"><title>client1</title>
<polygon fill="#95bbe3" stroke="black" points="221.763,-36 160.079,-36 160.079,-0 221.763,-0 221.763,-36"/>
<text text-anchor="middle" x="190.921" y="-15.0441" font-family="'/usr/share/fonts/truetype/wqy/wqy-microhei.ttc'" font-size="14.00">client1</text>
</g>
<!-- client1&#45;&gt;channel1 -->
<g id="edge3" class="edge"><title>client1&#45;&gt;channel1</title>
<path fill="none" stroke="black" stroke-width="2" d="M185.608,-36.3068C181.867,-46.3988 176.063,-58.8923 167.921,-68 162.642,-73.9045 156.13,-79.1472 149.417,-83.6615"/>
<polygon fill="black" stroke="black" stroke-width="2" points="147.516,-80.7226 140.884,-88.9851 151.221,-86.6616 147.516,-80.7226"/>
<text text-anchor="middle" x="204.359" y="-56.8" font-family="Times,serif" font-size="14.00">subscribe</text>
</g>
</g>
</svg>
