<?xml version="1.0" encoding="UTF-8" standalone="no"?>
<!DOCTYPE svg PUBLIC "-//W3C//DTD SVG 1.1//EN"
 "http://www.w3.org/Graphics/SVG/1.1/DTD/svg11.dtd">
<!-- Generated by graphviz version 2.38.0 (20140413.2041)
 -->
<!-- Title: expire_check Pages: 1 -->
<svg width="222pt" height="254pt"
 viewBox="0.00 0.00 222.08 254.05" xmlns="http://www.w3.org/2000/svg" xmlns:xlink="http://www.w3.org/1999/xlink">
<g id="graph0" class="graph" transform="scale(1 1) rotate(0) translate(4 250.049)">
<title>expire_check</title>
<polygon fill="white" stroke="none" points="-4,4 -4,-250.049 218.079,-250.049 218.079,4 -4,4"/>
<!-- write_commands -->
<g id="node1" class="node"><title>write_commands</title>
<polygon fill="#fadcad" stroke="none" points="81.3873,-245.867 0.203569,-245.867 0.203569,-170.599 81.3873,-170.599 81.3873,-245.867"/>
<text text-anchor="middle" x="40.7954" y="-230.849" font-family="'/usr/share/fonts/truetype/wqy/wqy-microhei.ttc'" font-size="14.00">SET 、</text>
<text text-anchor="middle" x="40.7954" y="-213.941" font-family="'/usr/share/fonts/truetype/wqy/wqy-microhei.ttc'" font-size="14.00"> LPUSH 、</text>
<text text-anchor="middle" x="40.7954" y="-197.033" font-family="'/usr/share/fonts/truetype/wqy/wqy-microhei.ttc'" font-size="14.00"> SADD 、 </text>
<text text-anchor="middle" x="40.7954" y="-180.125" font-family="'/usr/share/fonts/truetype/wqy/wqy-microhei.ttc'" font-size="14.00"> 等等</text>
</g>
<!-- expire_if_needed -->
<g id="node3" class="node"><title>expire_if_needed</title>
<polygon fill="#a8e270" stroke="black" points="187.357,-114.725 10.2339,-114.725 10.2339,-73.0913 187.357,-73.0913 187.357,-114.725"/>
<text text-anchor="middle" x="98.7954" y="-99.6165" font-family="'/usr/share/fonts/truetype/wqy/wqy-microhei.ttc'" font-size="14.00">调用 expire_if_needed() </text>
<text text-anchor="middle" x="98.7954" y="-82.7083" font-family="'/usr/share/fonts/truetype/wqy/wqy-microhei.ttc'" font-size="14.00"> 删除过期键</text>
</g>
<!-- write_commands&#45;&gt;expire_if_needed -->
<g id="edge1" class="edge"><title>write_commands&#45;&gt;expire_if_needed</title>
<path fill="none" stroke="black" stroke-width="2" d="M59.7868,-170.454C67.5713,-155.378 76.4524,-138.178 83.7722,-124.003"/>
<polygon fill="black" stroke="black" stroke-width="2" points="87.0794,-125.226 88.5576,-114.735 80.8596,-122.015 87.0794,-125.226"/>
<text text-anchor="middle" x="99.7954" y="-141.216" font-family="Times,serif" font-size="14.00">写请求</text>
</g>
<!-- read_commands -->
<g id="node2" class="node"><title>read_commands</title>
<polygon fill="#fadcad" stroke="none" points="213.864,-245.867 99.7272,-245.867 99.7272,-170.599 213.864,-170.599 213.864,-245.867"/>
<text text-anchor="middle" x="156.795" y="-230.849" font-family="'/usr/share/fonts/truetype/wqy/wqy-microhei.ttc'" font-size="14.00">GET 、</text>
<text text-anchor="middle" x="156.795" y="-213.941" font-family="'/usr/share/fonts/truetype/wqy/wqy-microhei.ttc'" font-size="14.00"> LRANGE 、</text>
<text text-anchor="middle" x="156.795" y="-197.033" font-family="'/usr/share/fonts/truetype/wqy/wqy-microhei.ttc'" font-size="14.00"> SMEMBERS 、 </text>
<text text-anchor="middle" x="156.795" y="-180.125" font-family="'/usr/share/fonts/truetype/wqy/wqy-microhei.ttc'" font-size="14.00"> 等等</text>
</g>
<!-- read_commands&#45;&gt;expire_if_needed -->
<g id="edge2" class="edge"><title>read_commands&#45;&gt;expire_if_needed</title>
<path fill="none" stroke="black" stroke-width="2" d="M142.716,-170.599C137.568,-158.342 131.379,-144.764 124.795,-132.817 123.087,-129.717 121.191,-126.554 119.223,-123.442"/>
<polygon fill="black" stroke="black" stroke-width="2" points="122.015,-121.319 113.582,-114.904 116.174,-125.177 122.015,-121.319"/>
<text text-anchor="middle" x="154.795" y="-141.216" font-family="Times,serif" font-size="14.00">读请求</text>
</g>
<!-- process -->
<g id="node4" class="node"><title>process</title>
<polygon fill="lightgrey" stroke="none" points="169.795,-36 27.7954,-36 27.7954,-0 169.795,-0 169.795,-36"/>
<text text-anchor="middle" x="98.7954" y="-14.01" font-family="'/usr/share/fonts/truetype/wqy/wqy-microhei.ttc'" font-size="14.00">执行实际的命令流程</text>
</g>
<!-- expire_if_needed&#45;&gt;process -->
<g id="edge3" class="edge"><title>expire_if_needed&#45;&gt;process</title>
<path fill="none" stroke="black" stroke-width="2" d="M98.7954,-72.7125C98.7954,-64.5692 98.7954,-55.0485 98.7954,-46.3031"/>
<polygon fill="black" stroke="black" stroke-width="2" points="102.296,-46.165 98.7954,-36.1651 95.2955,-46.1651 102.296,-46.165"/>
</g>
</g>
</svg>
