<?xml version="1.0" encoding="UTF-8" standalone="no"?>
<!DOCTYPE svg PUBLIC "-//W3C//DTD SVG 1.1//EN"
 "http://www.w3.org/Graphics/SVG/1.1/DTD/svg11.dtd">
<!-- Generated by graphviz version 2.38.0 (20140413.2041)
 -->
<!-- Title: e Pages: 1 -->
<svg width="360pt" height="174pt"
 viewBox="0.00 0.00 360.30 173.73" xmlns="http://www.w3.org/2000/svg" xmlns:xlink="http://www.w3.org/1999/xlink">
<g id="graph0" class="graph" transform="scale(1 1) rotate(0) translate(4 169.731)">
<title>e</title>
<polygon fill="white" stroke="none" points="-4,4 -4,-169.731 356.303,-169.731 356.303,4 -4,4"/>
<!-- server -->
<g id="node1" class="node"><title>server</title>
<ellipse fill="#95bbe3" stroke="black" cx="166.303" cy="-128.665" rx="37.1311" ry="37.1311"/>
<text text-anchor="middle" x="166.303" y="-124.675" font-family="'/usr/share/fonts/truetype/wqy/wqy-microhei.ttc'" font-size="14.00">服务器</text>
</g>
<!-- cx -->
<g id="node2" class="node"><title>cx</title>
<ellipse fill="#a8e270" stroke="black" cx="49.3031" cy="-18" rx="49.107" ry="18"/>
<text text-anchor="middle" x="49.3031" y="-15.2541" font-family="'/usr/share/fonts/truetype/wqy/wqy-microhei.ttc'" font-size="14.00">客户端 X</text>
</g>
<!-- cx&#45;&gt;server -->
<g id="edge1" class="edge"><title>cx&#45;&gt;server</title>
<path fill="none" stroke="black" stroke-dasharray="1,5" d="M55.5383,-35.9749C60.4175,-47.5627 68.0894,-62.725 78.3031,-73.5999 93.6474,-89.9375 114.988,-103.211 132.811,-112.517"/>
<text text-anchor="middle" x="120.303" y="-62.3999" font-family="Times,serif" font-size="14.00">等待命令请求</text>
</g>
<!-- cy -->
<g id="node3" class="node"><title>cy</title>
<ellipse fill="#a8e270" stroke="black" cx="166.303" cy="-18" rx="49.0504" ry="18"/>
<text text-anchor="middle" x="166.303" y="-15.2541" font-family="'/usr/share/fonts/truetype/wqy/wqy-microhei.ttc'" font-size="14.00">客户端 Y</text>
</g>
<!-- cy&#45;&gt;server -->
<g id="edge2" class="edge"><title>cy&#45;&gt;server</title>
<path fill="none" stroke="black" stroke-dasharray="1,5" d="M166.303,-36.459C166.303,-51.2176 166.303,-72.8492 166.303,-91.3421"/>
<text text-anchor="middle" x="208.303" y="-62.3999" font-family="Times,serif" font-size="14.00">等待命令请求</text>
</g>
<!-- cz -->
<g id="node4" class="node"><title>cz</title>
<ellipse fill="#a8e270" stroke="black" cx="282.303" cy="-18" rx="49.1992" ry="18"/>
<text text-anchor="middle" x="282.303" y="-15.2541" font-family="'/usr/share/fonts/truetype/wqy/wqy-microhei.ttc'" font-size="14.00">客户端 Z</text>
</g>
<!-- cz&#45;&gt;server -->
<g id="edge3" class="edge"><title>cz&#45;&gt;server</title>
<path fill="none" stroke="black" stroke-dasharray="1,5" d="M276.407,-35.9804C271.753,-47.5707 264.362,-62.7338 254.303,-73.5999 239.077,-90.0475 217.739,-103.323 199.888,-112.603"/>
<text text-anchor="middle" x="310.303" y="-62.3999" font-family="Times,serif" font-size="14.00">等待命令请求</text>
</g>
</g>
</svg>
