<?xml version="1.0" encoding="UTF-8" standalone="no"?>
<!DOCTYPE svg PUBLIC "-//W3C//DTD SVG 1.1//EN"
 "http://www.w3.org/Graphics/SVG/1.1/DTD/svg11.dtd">
<!-- Generated by graphviz version 2.38.0 (20140413.2041)
 -->
<!-- Title: g Pages: 1 -->
<svg width="512pt" height="156pt"
 viewBox="0.00 0.00 511.81 155.93" xmlns="http://www.w3.org/2000/svg" xmlns:xlink="http://www.w3.org/1999/xlink">
<g id="graph0" class="graph" transform="scale(1 1) rotate(0) translate(4 151.93)">
<title>g</title>
<polygon fill="white" stroke="none" points="-4,4 -4,-151.93 507.81,-151.93 507.81,4 -4,4"/>
<!-- redisServer -->
<g id="node1" class="node"><title>redisServer</title>
<polygon fill="#a8e270" stroke="black" points="0,-36.9883 0,-134.941 90.6621,-134.941 90.6621,-36.9883 0,-36.9883"/>
<text text-anchor="middle" x="45.3311" y="-119.741" font-family="'/usr/share/fonts/truetype/wqy/wqy-microhei.ttc'" font-size="14.00">redisServer</text>
<polyline fill="none" stroke="black" points="0,-110.453 90.6621,-110.453 "/>
<text text-anchor="middle" x="45.3311" y="-95.2531" font-family="'/usr/share/fonts/truetype/wqy/wqy-microhei.ttc'" font-size="14.00">...</text>
<polyline fill="none" stroke="black" points="0,-85.9648 90.6621,-85.9648 "/>
<text text-anchor="middle" x="45.3311" y="-70.7648" font-family="'/usr/share/fonts/truetype/wqy/wqy-microhei.ttc'" font-size="14.00">slowlog</text>
<polyline fill="none" stroke="black" points="0,-61.4766 90.6621,-61.4766 "/>
<text text-anchor="middle" x="45.3311" y="-46.2766" font-family="'/usr/share/fonts/truetype/wqy/wqy-microhei.ttc'" font-size="14.00">...</text>
</g>
<!-- slowlog_1 -->
<g id="node2" class="node"><title>slowlog_1</title>
<polygon fill="#95bbe3" stroke="black" points="126.662,-0.5 126.662,-147.43 228.378,-147.43 228.378,-0.5 126.662,-0.5"/>
<text text-anchor="middle" x="177.52" y="-132.23" font-family="'/usr/share/fonts/truetype/wqy/wqy-microhei.ttc'" font-size="14.00">slowlogEntry</text>
<polyline fill="none" stroke="black" points="126.662,-122.941 228.378,-122.941 "/>
<text text-anchor="middle" x="177.52" y="-107.741" font-family="'/usr/share/fonts/truetype/wqy/wqy-microhei.ttc'" font-size="14.00">argv</text>
<polyline fill="none" stroke="black" points="126.662,-98.4531 228.378,-98.4531 "/>
<text text-anchor="middle" x="177.52" y="-83.2531" font-family="'/usr/share/fonts/truetype/wqy/wqy-microhei.ttc'" font-size="14.00">argc</text>
<polyline fill="none" stroke="black" points="126.662,-73.9648 228.378,-73.9648 "/>
<text text-anchor="middle" x="177.52" y="-58.7648" font-family="'/usr/share/fonts/truetype/wqy/wqy-microhei.ttc'" font-size="14.00">id</text>
<polyline fill="none" stroke="black" points="126.662,-49.4766 228.378,-49.4766 "/>
<text text-anchor="middle" x="177.52" y="-34.2766" font-family="'/usr/share/fonts/truetype/wqy/wqy-microhei.ttc'" font-size="14.00">duration</text>
<polyline fill="none" stroke="black" points="126.662,-24.9883 228.378,-24.9883 "/>
<text text-anchor="middle" x="177.52" y="-9.78828" font-family="'/usr/share/fonts/truetype/wqy/wqy-microhei.ttc'" font-size="14.00">time</text>
</g>
<!-- redisServer&#45;&gt;slowlog_1 -->
<g id="edge1" class="edge"><title>redisServer:slowlog&#45;&gt;slowlog_1</title>
<path fill="none" stroke="black" stroke-width="2" d="M90.6621,-73.9648C99.0187,-73.9648 107.833,-73.9648 116.503,-73.9648"/>
<polygon fill="black" stroke="black" stroke-width="2" points="116.58,-77.4649 126.58,-73.9648 116.58,-70.4649 116.58,-77.4649"/>
</g>
<!-- slowlog_2 -->
<g id="node3" class="node"><title>slowlog_2</title>
<polygon fill="#95bbe3" stroke="black" points="264.378,-0.5 264.378,-147.43 366.094,-147.43 366.094,-0.5 264.378,-0.5"/>
<text text-anchor="middle" x="315.236" y="-132.23" font-family="'/usr/share/fonts/truetype/wqy/wqy-microhei.ttc'" font-size="14.00">slowlogEntry</text>
<polyline fill="none" stroke="black" points="264.378,-122.941 366.094,-122.941 "/>
<text text-anchor="middle" x="315.236" y="-107.741" font-family="'/usr/share/fonts/truetype/wqy/wqy-microhei.ttc'" font-size="14.00">argv</text>
<polyline fill="none" stroke="black" points="264.378,-98.4531 366.094,-98.4531 "/>
<text text-anchor="middle" x="315.236" y="-83.2531" font-family="'/usr/share/fonts/truetype/wqy/wqy-microhei.ttc'" font-size="14.00">argc</text>
<polyline fill="none" stroke="black" points="264.378,-73.9648 366.094,-73.9648 "/>
<text text-anchor="middle" x="315.236" y="-58.7648" font-family="'/usr/share/fonts/truetype/wqy/wqy-microhei.ttc'" font-size="14.00">id</text>
<polyline fill="none" stroke="black" points="264.378,-49.4766 366.094,-49.4766 "/>
<text text-anchor="middle" x="315.236" y="-34.2766" font-family="'/usr/share/fonts/truetype/wqy/wqy-microhei.ttc'" font-size="14.00">duration</text>
<polyline fill="none" stroke="black" points="264.378,-24.9883 366.094,-24.9883 "/>
<text text-anchor="middle" x="315.236" y="-9.78828" font-family="'/usr/share/fonts/truetype/wqy/wqy-microhei.ttc'" font-size="14.00">time</text>
</g>
<!-- slowlog_1&#45;&gt;slowlog_2 -->
<g id="edge2" class="edge"><title>slowlog_1&#45;&gt;slowlog_2</title>
<path fill="none" stroke="black" stroke-width="2" d="M228.67,-73.9648C236.937,-73.9648 245.581,-73.9648 254.063,-73.9648"/>
<polygon fill="black" stroke="black" stroke-width="2" points="254.292,-77.4649 264.292,-73.9648 254.292,-70.4649 254.292,-77.4649"/>
</g>
<!-- slowlog_3 -->
<g id="node4" class="node"><title>slowlog_3</title>
<polygon fill="#95bbe3" stroke="black" points="402.094,-0.5 402.094,-147.43 503.81,-147.43 503.81,-0.5 402.094,-0.5"/>
<text text-anchor="middle" x="452.952" y="-132.23" font-family="'/usr/share/fonts/truetype/wqy/wqy-microhei.ttc'" font-size="14.00">slowlogEntry</text>
<polyline fill="none" stroke="black" points="402.094,-122.941 503.81,-122.941 "/>
<text text-anchor="middle" x="452.952" y="-107.741" font-family="'/usr/share/fonts/truetype/wqy/wqy-microhei.ttc'" font-size="14.00">argv</text>
<polyline fill="none" stroke="black" points="402.094,-98.4531 503.81,-98.4531 "/>
<text text-anchor="middle" x="452.952" y="-83.2531" font-family="'/usr/share/fonts/truetype/wqy/wqy-microhei.ttc'" font-size="14.00">argc</text>
<polyline fill="none" stroke="black" points="402.094,-73.9648 503.81,-73.9648 "/>
<text text-anchor="middle" x="452.952" y="-58.7648" font-family="'/usr/share/fonts/truetype/wqy/wqy-microhei.ttc'" font-size="14.00">id</text>
<polyline fill="none" stroke="black" points="402.094,-49.4766 503.81,-49.4766 "/>
<text text-anchor="middle" x="452.952" y="-34.2766" font-family="'/usr/share/fonts/truetype/wqy/wqy-microhei.ttc'" font-size="14.00">duration</text>
<polyline fill="none" stroke="black" points="402.094,-24.9883 503.81,-24.9883 "/>
<text text-anchor="middle" x="452.952" y="-9.78828" font-family="'/usr/share/fonts/truetype/wqy/wqy-microhei.ttc'" font-size="14.00">time</text>
</g>
<!-- slowlog_2&#45;&gt;slowlog_3 -->
<g id="edge3" class="edge"><title>slowlog_2&#45;&gt;slowlog_3</title>
<path fill="none" stroke="black" stroke-width="2" d="M366.386,-73.9648C374.653,-73.9648 383.297,-73.9648 391.779,-73.9648"/>
<polygon fill="black" stroke="black" stroke-width="2" points="392.008,-77.4649 402.008,-73.9648 392.008,-70.4649 392.008,-77.4649"/>
</g>
</g>
</svg>
