<?xml version="1.0" encoding="UTF-8" standalone="no"?>
<!DOCTYPE svg PUBLIC "-//W3C//DTD SVG 1.1//EN"
 "http://www.w3.org/Graphics/SVG/1.1/DTD/svg11.dtd">
<!-- Generated by graphviz version 2.38.0 (20140413.2041)
 -->
<!-- Title: dirty_cas Pages: 1 -->
<svg width="618pt" height="157pt"
 viewBox="0.00 0.00 617.67 157.22" xmlns="http://www.w3.org/2000/svg" xmlns:xlink="http://www.w3.org/1999/xlink">
<g id="graph0" class="graph" transform="scale(1 1) rotate(0) translate(4 153.222)">
<title>dirty_cas</title>
<polygon fill="white" stroke="none" points="-4,4 -4,-153.222 613.674,-153.222 613.674,4 -4,4"/>
<text text-anchor="middle" x="304.837" y="-12.3999" font-family="Times,serif" font-size="14.00">客户端状态的切换</text>
<!-- normal -->
<g id="node1" class="node"><title>normal</title>
<ellipse fill="#fadcad" stroke="black" cx="54.9592" cy="-88.4111" rx="54.9184" ry="54.9184"/>
<text text-anchor="middle" x="54.9592" y="-84.4211" font-family="'/usr/share/fonts/truetype/wqy/wqy-microhei.ttc'" font-size="14.00">非事务状态</text>
</g>
<!-- transaction -->
<g id="node2" class="node"><title>transaction</title>
<ellipse fill="#a8e270" stroke="black" cx="282.418" cy="-88.4111" rx="46.0246" ry="46.0246"/>
<text text-anchor="middle" x="282.418" y="-84.4211" font-family="'/usr/share/fonts/truetype/wqy/wqy-microhei.ttc'" font-size="14.00">事务状态</text>
</g>
<!-- normal&#45;&gt;transaction -->
<g id="edge1" class="edge"><title>normal&#45;&gt;transaction</title>
<path fill="none" stroke="black" stroke-width="2" d="M109.962,-88.4111C145.059,-88.4111 190.692,-88.4111 226.056,-88.4111"/>
<polygon fill="black" stroke="black" stroke-width="2" points="226.208,-91.9112 236.208,-88.4111 226.208,-84.9112 226.208,-91.9112"/>
<text text-anchor="middle" x="173.162" y="-110.811" font-family="Times,serif" font-size="14.00">打开选项</text>
<text text-anchor="middle" x="173.162" y="-91.2111" font-family="Times,serif" font-size="14.00">REDIS_MULTI</text>
</g>
<!-- dirty_cas -->
<g id="node3" class="node"><title>dirty_cas</title>
<ellipse fill="#b22222" stroke="black" cx="548.863" cy="-88.4111" rx="60.623" ry="60.623"/>
<text text-anchor="middle" x="548.863" y="-91.6311" font-family="'/usr/share/fonts/truetype/wqy/wqy-microhei.ttc'" font-size="14.00">事务安全性</text>
<text text-anchor="middle" x="548.863" y="-77.2111" font-family="'/usr/share/fonts/truetype/wqy/wqy-microhei.ttc'" font-size="14.00">已被破坏</text>
</g>
<!-- transaction&#45;&gt;dirty_cas -->
<g id="edge2" class="edge"><title>transaction&#45;&gt;dirty_cas</title>
<path fill="none" stroke="black" stroke-width="2" d="M328.577,-88.4111C369.532,-88.4111 430.548,-88.4111 477.827,-88.4111"/>
<polygon fill="black" stroke="black" stroke-width="2" points="477.999,-91.9112 487.999,-88.4111 477.999,-84.9112 477.999,-91.9112"/>
<text text-anchor="middle" x="408.241" y="-110.811" font-family="Times,serif" font-size="14.00">打开选项</text>
<text text-anchor="middle" x="408.241" y="-91.2111" font-family="Times,serif" font-size="14.00">REDIS_DIRTY_CAS</text>
</g>
</g>
</svg>
