<?xml version="1.0" encoding="UTF-8" standalone="no"?>
<!DOCTYPE svg PUBLIC "-//W3C//DTD SVG 1.1//EN"
 "http://www.w3.org/Graphics/SVG/1.1/DTD/svg11.dtd">
<!-- Generated by graphviz version 2.38.0 (20140413.2041)
 -->
<!-- Title: datatype Pages: 1 -->
<svg width="502pt" height="389pt"
 viewBox="0.00 0.00 502.04 388.91" xmlns="http://www.w3.org/2000/svg" xmlns:xlink="http://www.w3.org/1999/xlink">
<g id="graph0" class="graph" transform="scale(1 1) rotate(0) translate(4 384.908)">
<title>datatype</title>
<polygon fill="white" stroke="none" points="-4,4 -4,-384.908 498.035,-384.908 498.035,4 -4,4"/>
<!-- redisObject -->
<g id="node1" class="node"><title>redisObject</title>
<polygon fill="#a8e270" stroke="none" points="93.0205,-208.454 -0.00683694,-208.454 -0.00683694,-172.454 93.0205,-172.454 93.0205,-208.454"/>
<text text-anchor="middle" x="46.5068" y="-187.498" font-family="'/usr/share/fonts/truetype/wqy/wqy-microhei.ttc'" font-size="14.00">redisObject</text>
</g>
<!-- REDIS_STRING -->
<g id="node2" class="node"><title>REDIS_STRING</title>
<polygon fill="#95bbe3" stroke="none" points="239.705,-323.863 129.117,-323.863 129.117,-285.046 239.705,-285.046 239.705,-323.863"/>
<text text-anchor="middle" x="184.411" y="-308.708" font-family="'/usr/share/fonts/truetype/wqy/wqy-microhei.ttc'" font-size="14.00">字符串</text>
<text text-anchor="middle" x="184.411" y="-294.288" font-family="'/usr/share/fonts/truetype/wqy/wqy-microhei.ttc'" font-size="14.00">REDIS_STRING</text>
</g>
<!-- redisObject&#45;&gt;REDIS_STRING -->
<g id="edge1" class="edge"><title>redisObject&#45;&gt;REDIS_STRING</title>
<path fill="none" stroke="black" stroke-width="2" d="M62.0077,-208.674C77.2989,-227.087 102.771,-255.584 129.014,-275.454 130.816,-276.819 132.691,-278.156 134.615,-279.46"/>
<polygon fill="black" stroke="black" stroke-width="2" points="132.967,-282.56 143.287,-284.957 136.715,-276.647 132.967,-282.56"/>
</g>
<!-- REDIS_LIST -->
<g id="node3" class="node"><title>REDIS_LIST</title>
<polygon fill="#95bbe3" stroke="none" points="228.857,-266.863 139.964,-266.863 139.964,-228.046 228.857,-228.046 228.857,-266.863"/>
<text text-anchor="middle" x="184.411" y="-251.708" font-family="'/usr/share/fonts/truetype/wqy/wqy-microhei.ttc'" font-size="14.00">列表</text>
<text text-anchor="middle" x="184.411" y="-237.288" font-family="'/usr/share/fonts/truetype/wqy/wqy-microhei.ttc'" font-size="14.00">REDIS_LIST</text>
</g>
<!-- redisObject&#45;&gt;REDIS_LIST -->
<g id="edge2" class="edge"><title>redisObject&#45;&gt;REDIS_LIST</title>
<path fill="none" stroke="black" stroke-width="2" d="M90.5077,-208.489C103.148,-213.791 117.126,-219.653 130.319,-225.187"/>
<polygon fill="black" stroke="black" stroke-width="2" points="129.18,-228.504 139.755,-229.145 131.887,-222.049 129.18,-228.504"/>
</g>
<!-- REDIS_SET -->
<g id="node4" class="node"><title>REDIS_SET</title>
<polygon fill="#95bbe3" stroke="none" points="226.947,-95.8625 141.875,-95.8625 141.875,-57.0458 226.947,-57.0458 226.947,-95.8625"/>
<text text-anchor="middle" x="184.411" y="-80.7083" font-family="'/usr/share/fonts/truetype/wqy/wqy-microhei.ttc'" font-size="14.00">集合</text>
<text text-anchor="middle" x="184.411" y="-66.2883" font-family="'/usr/share/fonts/truetype/wqy/wqy-microhei.ttc'" font-size="14.00">REDIS_SET</text>
</g>
<!-- redisObject&#45;&gt;REDIS_SET -->
<g id="edge3" class="edge"><title>redisObject&#45;&gt;REDIS_SET</title>
<path fill="none" stroke="black" stroke-width="2" d="M62.0077,-172.235C77.2989,-153.821 102.771,-125.325 129.014,-105.454 130.816,-104.089 132.691,-102.752 134.615,-101.448"/>
<polygon fill="black" stroke="black" stroke-width="2" points="136.715,-104.261 143.287,-95.9508 132.967,-98.3487 136.715,-104.261"/>
</g>
<!-- REDIS_ZSET -->
<g id="node5" class="node"><title>REDIS_ZSET</title>
<polygon fill="#95bbe3" stroke="none" points="230.918,-209.863 137.903,-209.863 137.903,-171.046 230.918,-171.046 230.918,-209.863"/>
<text text-anchor="middle" x="184.411" y="-194.708" font-family="'/usr/share/fonts/truetype/wqy/wqy-microhei.ttc'" font-size="14.00">有序集合</text>
<text text-anchor="middle" x="184.411" y="-180.288" font-family="'/usr/share/fonts/truetype/wqy/wqy-microhei.ttc'" font-size="14.00">REDIS_ZSET</text>
</g>
<!-- redisObject&#45;&gt;REDIS_ZSET -->
<g id="edge4" class="edge"><title>redisObject&#45;&gt;REDIS_ZSET</title>
<path fill="none" stroke="black" stroke-width="2" d="M93.1389,-190.454C104.12,-190.454 115.976,-190.454 127.371,-190.454"/>
<polygon fill="black" stroke="black" stroke-width="2" points="127.668,-193.954 137.668,-190.454 127.668,-186.954 127.668,-193.954"/>
</g>
<!-- REDIS_HASH -->
<g id="node6" class="node"><title>REDIS_HASH</title>
<polygon fill="#95bbe3" stroke="none" points="234.186,-152.863 134.635,-152.863 134.635,-114.046 234.186,-114.046 234.186,-152.863"/>
<text text-anchor="middle" x="184.411" y="-137.708" font-family="'/usr/share/fonts/truetype/wqy/wqy-microhei.ttc'" font-size="14.00">哈希表</text>
<text text-anchor="middle" x="184.411" y="-123.288" font-family="'/usr/share/fonts/truetype/wqy/wqy-microhei.ttc'" font-size="14.00">REDIS_HASH</text>
</g>
<!-- redisObject&#45;&gt;REDIS_HASH -->
<g id="edge5" class="edge"><title>redisObject&#45;&gt;REDIS_HASH</title>
<path fill="none" stroke="black" stroke-width="2" d="M90.5077,-172.419C102.282,-167.481 115.216,-162.056 127.596,-156.864"/>
<polygon fill="black" stroke="black" stroke-width="2" points="129.057,-160.046 136.925,-152.951 126.35,-153.591 129.057,-160.046"/>
</g>
<!-- REDIS_ENCODING_RAW -->
<g id="node7" class="node"><title>REDIS_ENCODING_RAW</title>
<polygon fill="#fadcad" stroke="none" points="471.266,-323.863 298.576,-323.863 298.576,-285.046 471.266,-285.046 471.266,-323.863"/>
<text text-anchor="middle" x="384.921" y="-308.708" font-family="'/usr/share/fonts/truetype/wqy/wqy-microhei.ttc'" font-size="14.00">字符串</text>
<text text-anchor="middle" x="384.921" y="-294.288" font-family="'/usr/share/fonts/truetype/wqy/wqy-microhei.ttc'" font-size="14.00">REDIS_ENCODING_RAW</text>
</g>
<!-- REDIS_STRING&#45;&gt;REDIS_ENCODING_RAW -->
<g id="edge6" class="edge"><title>REDIS_STRING&#45;&gt;REDIS_ENCODING_RAW</title>
<path fill="none" stroke="black" stroke-width="2" d="M239.917,-304.454C254.935,-304.454 271.682,-304.454 288.293,-304.454"/>
<polygon fill="black" stroke="black" stroke-width="2" points="288.602,-307.954 298.602,-304.454 288.602,-300.954 288.602,-307.954"/>
</g>
<!-- REDIS_ENCODING_INT -->
<g id="node8" class="node"><title>REDIS_ENCODING_INT</title>
<polygon fill="#fadcad" stroke="none" points="467.008,-380.863 302.835,-380.863 302.835,-342.046 467.008,-342.046 467.008,-380.863"/>
<text text-anchor="middle" x="384.921" y="-365.708" font-family="'/usr/share/fonts/truetype/wqy/wqy-microhei.ttc'" font-size="14.00">整数</text>
<text text-anchor="middle" x="384.921" y="-351.288" font-family="'/usr/share/fonts/truetype/wqy/wqy-microhei.ttc'" font-size="14.00">REDIS_ENCODING_INT</text>
</g>
<!-- REDIS_STRING&#45;&gt;REDIS_ENCODING_INT -->
<g id="edge7" class="edge"><title>REDIS_STRING&#45;&gt;REDIS_ENCODING_INT</title>
<path fill="none" stroke="black" stroke-width="2" d="M239.804,-321.672C251.646,-325.317 264.127,-329.08 275.808,-332.454 283.725,-334.741 291.986,-337.066 300.259,-339.354"/>
<polygon fill="black" stroke="black" stroke-width="2" points="299.387,-342.744 309.957,-342.018 301.242,-335.994 299.387,-342.744"/>
</g>
<!-- REDIS_ENCODING_LINKEDLIST -->
<g id="node10" class="node"><title>REDIS_ENCODING_LINKEDLIST</title>
<polygon fill="#fadcad" stroke="none" points="494.149,-266.863 275.694,-266.863 275.694,-228.046 494.149,-228.046 494.149,-266.863"/>
<text text-anchor="middle" x="384.921" y="-251.708" font-family="'/usr/share/fonts/truetype/wqy/wqy-microhei.ttc'" font-size="14.00">双端链表</text>
<text text-anchor="middle" x="384.921" y="-237.288" font-family="'/usr/share/fonts/truetype/wqy/wqy-microhei.ttc'" font-size="14.00">REDIS_ENCODING_LINKEDLIST</text>
</g>
<!-- REDIS_LIST&#45;&gt;REDIS_ENCODING_LINKEDLIST -->
<g id="edge8" class="edge"><title>REDIS_LIST&#45;&gt;REDIS_ENCODING_LINKEDLIST</title>
<path fill="none" stroke="black" stroke-width="2" d="M228.975,-247.454C239.962,-247.454 252.294,-247.454 265.079,-247.454"/>
<polygon fill="black" stroke="black" stroke-width="2" points="265.411,-250.954 275.411,-247.454 265.411,-243.954 265.411,-250.954"/>
</g>
<!-- REDIS_ENCODING_ZIPLIST -->
<g id="node11" class="node"><title>REDIS_ENCODING_ZIPLIST</title>
<polygon fill="#fadcad" stroke="none" points="479.911,-152.863 289.931,-152.863 289.931,-114.046 479.911,-114.046 479.911,-152.863"/>
<text text-anchor="middle" x="384.921" y="-137.708" font-family="'/usr/share/fonts/truetype/wqy/wqy-microhei.ttc'" font-size="14.00">压缩列表</text>
<text text-anchor="middle" x="384.921" y="-123.288" font-family="'/usr/share/fonts/truetype/wqy/wqy-microhei.ttc'" font-size="14.00">REDIS_ENCODING_ZIPLIST</text>
</g>
<!-- REDIS_LIST&#45;&gt;REDIS_ENCODING_ZIPLIST -->
<g id="edge9" class="edge"><title>REDIS_LIST&#45;&gt;REDIS_ENCODING_ZIPLIST</title>
<path fill="none" stroke="black" stroke-width="2" d="M227.306,-228.025C231.757,-225.131 236.03,-221.935 239.808,-218.454 261.565,-198.402 251.913,-179.904 275.808,-162.454 277.97,-160.875 280.214,-159.381 282.522,-157.969"/>
<polygon fill="black" stroke="black" stroke-width="2" points="284.642,-160.798 291.721,-152.916 281.271,-154.663 284.642,-160.798"/>
</g>
<!-- REDIS_ENCODING_HT -->
<g id="node9" class="node"><title>REDIS_ENCODING_HT</title>
<polygon fill="#fadcad" stroke="none" points="465.42,-95.8625 304.423,-95.8625 304.423,-57.0458 465.42,-57.0458 465.42,-95.8625"/>
<text text-anchor="middle" x="384.921" y="-80.7083" font-family="'/usr/share/fonts/truetype/wqy/wqy-microhei.ttc'" font-size="14.00">字典</text>
<text text-anchor="middle" x="384.921" y="-66.2883" font-family="'/usr/share/fonts/truetype/wqy/wqy-microhei.ttc'" font-size="14.00">REDIS_ENCODING_HT</text>
</g>
<!-- REDIS_SET&#45;&gt;REDIS_ENCODING_HT -->
<g id="edge10" class="edge"><title>REDIS_SET&#45;&gt;REDIS_ENCODING_HT</title>
<path fill="none" stroke="black" stroke-width="2" d="M227.025,-76.4541C246.722,-76.4541 271.054,-76.4541 294.628,-76.4541"/>
<polygon fill="black" stroke="black" stroke-width="2" points="294.669,-79.9542 304.669,-76.4541 294.669,-72.9542 294.669,-79.9542"/>
</g>
<!-- REDIS_ENCODING_INTSET -->
<g id="node12" class="node"><title>REDIS_ENCODING_INTSET</title>
<polygon fill="#fadcad" stroke="none" points="479.043,-38.8625 290.799,-38.8625 290.799,-0.04576 479.043,-0.04576 479.043,-38.8625"/>
<text text-anchor="middle" x="384.921" y="-23.7083" font-family="'/usr/share/fonts/truetype/wqy/wqy-microhei.ttc'" font-size="14.00">整数集合</text>
<text text-anchor="middle" x="384.921" y="-9.28828" font-family="'/usr/share/fonts/truetype/wqy/wqy-microhei.ttc'" font-size="14.00">REDIS_ENCODING_INTSET</text>
</g>
<!-- REDIS_SET&#45;&gt;REDIS_ENCODING_INTSET -->
<g id="edge11" class="edge"><title>REDIS_SET&#45;&gt;REDIS_ENCODING_INTSET</title>
<path fill="none" stroke="black" stroke-width="2" d="M227.165,-63.1549C242.432,-58.3891 259.866,-53.0594 275.808,-48.4541 283.725,-46.167 291.986,-43.8419 300.259,-41.5541"/>
<polygon fill="black" stroke="black" stroke-width="2" points="301.242,-44.914 309.957,-38.8901 299.387,-38.164 301.242,-44.914"/>
</g>
<!-- REDIS_ZSET&#45;&gt;REDIS_ENCODING_ZIPLIST -->
<g id="edge13" class="edge"><title>REDIS_ZSET&#45;&gt;REDIS_ENCODING_ZIPLIST</title>
<path fill="none" stroke="black" stroke-width="2" d="M231.296,-175.868C245.527,-171.445 261.286,-166.649 275.808,-162.454 283.725,-160.167 291.986,-157.842 300.259,-155.554"/>
<polygon fill="black" stroke="black" stroke-width="2" points="301.242,-158.914 309.957,-152.89 299.387,-152.164 301.242,-158.914"/>
</g>
<!-- REDIS_ENCODING_SKIPLIST -->
<g id="node13" class="node"><title>REDIS_ENCODING_SKIPLIST</title>
<polygon fill="#fadcad" stroke="none" points="483.546,-209.863 286.297,-209.863 286.297,-171.046 483.546,-171.046 483.546,-209.863"/>
<text text-anchor="middle" x="384.921" y="-194.708" font-family="'/usr/share/fonts/truetype/wqy/wqy-microhei.ttc'" font-size="14.00">跳跃表</text>
<text text-anchor="middle" x="384.921" y="-180.288" font-family="'/usr/share/fonts/truetype/wqy/wqy-microhei.ttc'" font-size="14.00">REDIS_ENCODING_SKIPLIST</text>
</g>
<!-- REDIS_ZSET&#45;&gt;REDIS_ENCODING_SKIPLIST -->
<g id="edge12" class="edge"><title>REDIS_ZSET&#45;&gt;REDIS_ENCODING_SKIPLIST</title>
<path fill="none" stroke="black" stroke-width="2" d="M230.953,-190.454C244.474,-190.454 259.899,-190.454 275.629,-190.454"/>
<polygon fill="black" stroke="black" stroke-width="2" points="275.993,-193.954 285.993,-190.454 275.993,-186.954 275.993,-193.954"/>
</g>
<!-- REDIS_HASH&#45;&gt;REDIS_ENCODING_HT -->
<g id="edge14" class="edge"><title>REDIS_HASH&#45;&gt;REDIS_ENCODING_HT</title>
<path fill="none" stroke="black" stroke-width="2" d="M234.099,-117.998C247.578,-113.822 262.233,-109.375 275.808,-105.454 283.725,-103.167 291.986,-100.842 300.259,-98.5541"/>
<polygon fill="black" stroke="black" stroke-width="2" points="301.242,-101.914 309.957,-95.8901 299.387,-95.164 301.242,-101.914"/>
</g>
<!-- REDIS_HASH&#45;&gt;REDIS_ENCODING_ZIPLIST -->
<g id="edge15" class="edge"><title>REDIS_HASH&#45;&gt;REDIS_ENCODING_ZIPLIST</title>
<path fill="none" stroke="black" stroke-width="2" d="M234.226,-133.454C248.069,-133.454 263.695,-133.454 279.496,-133.454"/>
<polygon fill="black" stroke="black" stroke-width="2" points="279.888,-136.954 289.888,-133.454 279.888,-129.954 279.888,-136.954"/>
</g>
</g>
</svg>
