<?xml version="1.0" encoding="UTF-8" standalone="no"?>
<!DOCTYPE svg PUBLIC "-//W3C//DTD SVG 1.1//EN"
 "http://www.w3.org/Graphics/SVG/1.1/DTD/svg11.dtd">
<!-- Generated by graphviz version 2.38.0 (20140413.2041)
 -->
<!-- Title: persistent Pages: 1 -->
<svg width="451pt" height="84pt"
 viewBox="0.00 0.00 450.75 84.27" xmlns="http://www.w3.org/2000/svg" xmlns:xlink="http://www.w3.org/1999/xlink">
<g id="graph0" class="graph" transform="scale(1 1) rotate(0) translate(4 80.2653)">
<title>persistent</title>
<polygon fill="white" stroke="none" points="-4,4 -4,-80.2653 446.752,-80.2653 446.752,4 -4,4"/>
<!-- client -->
<g id="node1" class="node"><title>client</title>
<ellipse fill="#fadcad" stroke="black" cx="37.0655" cy="-37.0655" rx="37.1311" ry="37.1311"/>
<text text-anchor="middle" x="37.0655" y="-33.0755" font-family="'/usr/share/fonts/truetype/wqy/wqy-microhei.ttc'" font-size="14.00">客户端</text>
</g>
<!-- server -->
<g id="node2" class="node"><title>server</title>
<ellipse fill="#a8e270" stroke="black" cx="203.196" cy="-37.0655" rx="37.1311" ry="37.1311"/>
<text text-anchor="middle" x="203.196" y="-33.0755" font-family="'/usr/share/fonts/truetype/wqy/wqy-microhei.ttc'" font-size="14.00">服务器</text>
</g>
<!-- client&#45;&gt;server -->
<g id="edge1" class="edge"><title>client&#45;&gt;server</title>
<path fill="none" stroke="black" stroke-width="2" stroke-dasharray="5,2" d="M74.4915,-37.0655C98.3971,-37.0655 129.879,-37.0655 155.603,-37.0655"/>
<polygon fill="black" stroke="black" stroke-width="2" points="155.872,-40.5656 165.872,-37.0655 155.872,-33.5656 155.872,-40.5656"/>
<text text-anchor="middle" x="120.131" y="-45.4654" font-family="Times,serif" font-size="14.00">命令请求</text>
</g>
<!-- aof -->
<g id="node3" class="node"><title>aof</title>
<ellipse fill="#95bbe3" stroke="black" cx="408.507" cy="-37.0655" rx="34.4917" ry="34.4917"/>
<text text-anchor="middle" x="408.507" y="-42.5638" font-family="'/usr/share/fonts/truetype/wqy/wqy-microhei.ttc'" font-size="14.00">AOF </text>
<text text-anchor="middle" x="408.507" y="-26.0755" font-family="'/usr/share/fonts/truetype/wqy/wqy-microhei.ttc'" font-size="14.00"> 文件</text>
</g>
<!-- server&#45;&gt;aof -->
<g id="edge2" class="edge"><title>server&#45;&gt;aof</title>
<path fill="none" stroke="black" stroke-width="2" stroke-dasharray="5,2" d="M240.544,-37.0655C275.058,-37.0655 326.988,-37.0655 363.755,-37.0655"/>
<polygon fill="black" stroke="black" stroke-width="2" points="364.169,-40.5656 374.169,-37.0655 364.169,-33.5656 364.169,-40.5656"/>
<text text-anchor="middle" x="307.262" y="-65.0653" font-family="Times,serif" font-size="14.00">网络协议格式的</text>
<text text-anchor="middle" x="307.262" y="-45.4654" font-family="Times,serif" font-size="14.00">命令内容</text>
</g>
</g>
</svg>
