<?xml version="1.0" encoding="UTF-8" standalone="no"?>
<!DOCTYPE svg PUBLIC "-//W3C//DTD SVG 1.1//EN"
 "http://www.w3.org/Graphics/SVG/1.1/DTD/svg11.dtd">
<!-- Generated by graphviz version 2.38.0 (20140413.2041)
 -->
<!-- Title: db Pages: 1 -->
<svg width="615pt" height="379pt"
 viewBox="0.00 0.00 615.22 379.46" xmlns="http://www.w3.org/2000/svg" xmlns:xlink="http://www.w3.org/1999/xlink">
<g id="graph0" class="graph" transform="scale(1 1) rotate(0) translate(4 375.465)">
<title>db</title>
<polygon fill="white" stroke="none" points="-4,4 -4,-375.465 611.225,-375.465 611.225,4 -4,4"/>
<!-- redisDb -->
<g id="node1" class="node"><title>redisDb</title>
<polygon fill="#a8e270" stroke="black" points="0,-273.012 0,-370.965 68.1582,-370.965 68.1582,-273.012 0,-273.012"/>
<text text-anchor="middle" x="34.0791" y="-355.765" font-family="'/usr/share/fonts/truetype/wqy/wqy-microhei.ttc'" font-size="14.00">redisDb</text>
<polyline fill="none" stroke="black" points="0,-346.477 68.1582,-346.477 "/>
<text text-anchor="middle" x="34.0791" y="-331.277" font-family="'/usr/share/fonts/truetype/wqy/wqy-microhei.ttc'" font-size="14.00">id</text>
<polyline fill="none" stroke="black" points="0,-321.988 68.1582,-321.988 "/>
<text text-anchor="middle" x="34.0791" y="-306.788" font-family="'/usr/share/fonts/truetype/wqy/wqy-microhei.ttc'" font-size="14.00">dict</text>
<polyline fill="none" stroke="black" points="0,-297.5 68.1582,-297.5 "/>
<text text-anchor="middle" x="34.0791" y="-282.3" font-family="'/usr/share/fonts/truetype/wqy/wqy-microhei.ttc'" font-size="14.00">...</text>
</g>
<!-- dict -->
<g id="node2" class="node"><title>dict</title>
<polygon fill="#95bbe3" stroke="black" points="104.158,-141.791 104.158,-330.186 204.281,-330.186 204.281,-141.791 104.158,-141.791"/>
<text text-anchor="middle" x="154.22" y="-314.986" font-family="'/usr/share/fonts/truetype/wqy/wqy-microhei.ttc'" font-size="14.00">dict</text>
<text text-anchor="middle" x="154.22" y="-298.497" font-family="'/usr/share/fonts/truetype/wqy/wqy-microhei.ttc'" font-size="14.00">(key space)</text>
<polyline fill="none" stroke="black" points="104.158,-289.209 204.281,-289.209 "/>
<text text-anchor="middle" x="154.22" y="-274.009" font-family="'/usr/share/fonts/truetype/wqy/wqy-microhei.ttc'" font-size="14.00">StringObject</text>
<text text-anchor="middle" x="154.22" y="-257.521" font-family="'/usr/share/fonts/truetype/wqy/wqy-microhei.ttc'" font-size="14.00"> &quot;number&quot;</text>
<polyline fill="none" stroke="black" points="104.158,-248.232 204.281,-248.232 "/>
<text text-anchor="middle" x="154.22" y="-233.032" font-family="'/usr/share/fonts/truetype/wqy/wqy-microhei.ttc'" font-size="14.00">NULL</text>
<polyline fill="none" stroke="black" points="104.158,-223.744 204.281,-223.744 "/>
<text text-anchor="middle" x="154.22" y="-208.544" font-family="'/usr/share/fonts/truetype/wqy/wqy-microhei.ttc'" font-size="14.00">StringObject</text>
<text text-anchor="middle" x="154.22" y="-192.056" font-family="'/usr/share/fonts/truetype/wqy/wqy-microhei.ttc'" font-size="14.00"> &quot;book&quot;</text>
<polyline fill="none" stroke="black" points="104.158,-182.768 204.281,-182.768 "/>
<text text-anchor="middle" x="154.22" y="-167.568" font-family="'/usr/share/fonts/truetype/wqy/wqy-microhei.ttc'" font-size="14.00">StringObject</text>
<text text-anchor="middle" x="154.22" y="-151.079" font-family="'/usr/share/fonts/truetype/wqy/wqy-microhei.ttc'" font-size="14.00"> &quot;message&quot;</text>
</g>
<!-- redisDb&#45;&gt;dict -->
<g id="edge1" class="edge"><title>redisDb:dict&#45;&gt;dict:head</title>
<path fill="none" stroke="black" stroke-width="2" d="M68.1582,-309.988C80.1582,-309.988 85.4082,-309.988 94.0332,-309.988"/>
<polygon fill="black" stroke="black" stroke-width="2" points="94.1582,-313.488 104.158,-309.988 94.1582,-306.488 94.1582,-313.488"/>
</g>
<!-- number -->
<g id="node3" class="node"><title>number</title>
<polygon fill="#fadcad" stroke="black" points="240.281,-234.5 240.281,-283.477 367.954,-283.477 367.954,-234.5 240.281,-234.5"/>
<text text-anchor="middle" x="304.118" y="-268.277" font-family="'/usr/share/fonts/truetype/wqy/wqy-microhei.ttc'" font-size="14.00">ListObject</text>
<polyline fill="none" stroke="black" points="240.281,-258.988 367.954,-258.988 "/>
<text text-anchor="middle" x="261.56" y="-243.788" font-family="'/usr/share/fonts/truetype/wqy/wqy-microhei.ttc'" font-size="14.00">123</text>
<polyline fill="none" stroke="black" points="282.839,-234.5 282.839,-258.988 "/>
<text text-anchor="middle" x="304.118" y="-243.788" font-family="'/usr/share/fonts/truetype/wqy/wqy-microhei.ttc'" font-size="14.00">456</text>
<polyline fill="none" stroke="black" points="325.396,-234.5 325.396,-258.988 "/>
<text text-anchor="middle" x="346.675" y="-243.788" font-family="'/usr/share/fonts/truetype/wqy/wqy-microhei.ttc'" font-size="14.00">789</text>
</g>
<!-- dict&#45;&gt;number -->
<g id="edge2" class="edge"><title>dict:number&#45;&gt;number:head</title>
<path fill="none" stroke="black" stroke-width="2" d="M204.281,-268.988C216.3,-268.988 221.527,-270.113 230.149,-270.676"/>
<polygon fill="black" stroke="black" stroke-width="2" points="230.178,-274.178 240.281,-270.988 230.394,-267.182 230.178,-274.178"/>
</g>
<!-- book -->
<g id="node4" class="node"><title>book</title>
<polygon fill="#f2f2f2" stroke="black" points="254.056,-68.2793 254.056,-215.697 354.179,-215.697 354.179,-68.2793 254.056,-68.2793"/>
<text text-anchor="middle" x="304.118" y="-200.497" font-family="'/usr/share/fonts/truetype/wqy/wqy-microhei.ttc'" font-size="14.00">HashObject</text>
<polyline fill="none" stroke="black" points="254.056,-191.209 354.179,-191.209 "/>
<text text-anchor="middle" x="304.118" y="-176.009" font-family="'/usr/share/fonts/truetype/wqy/wqy-microhei.ttc'" font-size="14.00">StringObject</text>
<text text-anchor="middle" x="304.118" y="-159.521" font-family="'/usr/share/fonts/truetype/wqy/wqy-microhei.ttc'" font-size="14.00"> &quot;name&quot;</text>
<polyline fill="none" stroke="black" points="254.056,-150.232 354.179,-150.232 "/>
<text text-anchor="middle" x="304.118" y="-135.032" font-family="'/usr/share/fonts/truetype/wqy/wqy-microhei.ttc'" font-size="14.00">StringObject</text>
<text text-anchor="middle" x="304.118" y="-118.544" font-family="'/usr/share/fonts/truetype/wqy/wqy-microhei.ttc'" font-size="14.00"> &quot;author&quot;</text>
<polyline fill="none" stroke="black" points="254.056,-109.256 354.179,-109.256 "/>
<text text-anchor="middle" x="304.118" y="-94.0559" font-family="'/usr/share/fonts/truetype/wqy/wqy-microhei.ttc'" font-size="14.00">StringObject</text>
<text text-anchor="middle" x="304.118" y="-77.5676" font-family="'/usr/share/fonts/truetype/wqy/wqy-microhei.ttc'" font-size="14.00"> &quot;publisher&quot;</text>
</g>
<!-- dict&#45;&gt;book -->
<g id="edge3" class="edge"><title>dict:book&#45;&gt;book:head</title>
<path fill="none" stroke="black" stroke-width="2" d="M204.281,-202.988C222.086,-202.988 228.937,-202.988 242.805,-202.988"/>
<polygon fill="black" stroke="black" stroke-width="2" points="243.118,-206.488 253.118,-202.988 243.118,-199.488 243.118,-206.488"/>
</g>
<!-- message -->
<g id="node8" class="node"><title>message</title>
<polygon fill="#ffc1c1" stroke="black" points="254.056,-0.5 254.056,-49.4766 354.179,-49.4766 354.179,-0.5 254.056,-0.5"/>
<text text-anchor="middle" x="304.118" y="-34.2766" font-family="'/usr/share/fonts/truetype/wqy/wqy-microhei.ttc'" font-size="14.00">StringObject</text>
<polyline fill="none" stroke="black" points="254.056,-24.9883 354.179,-24.9883 "/>
<text text-anchor="middle" x="304.118" y="-9.78828" font-family="'/usr/share/fonts/truetype/wqy/wqy-microhei.ttc'" font-size="14.00">&quot;blah blah&quot;</text>
</g>
<!-- dict&#45;&gt;message -->
<g id="edge4" class="edge"><title>dict:message&#45;&gt;message:head</title>
<path fill="none" stroke="black" stroke-width="2" d="M204.281,-161.988C260.082,-161.988 202.014,-52.5823 243.136,-38.4792"/>
<polygon fill="black" stroke="black" stroke-width="2" points="243.744,-41.9273 253.118,-36.9883 242.71,-35.0041 243.744,-41.9273"/>
</g>
<!-- book_name -->
<g id="node5" class="node"><title>book_name</title>
<polygon fill="lightgrey" stroke="black" points="403.954,-161.5 403.954,-210.477 607.225,-210.477 607.225,-161.5 403.954,-161.5"/>
<text text-anchor="middle" x="505.589" y="-195.277" font-family="'/usr/share/fonts/truetype/wqy/wqy-microhei.ttc'" font-size="14.00">StringObject</text>
<polyline fill="none" stroke="black" points="403.954,-185.988 607.225,-185.988 "/>
<text text-anchor="middle" x="505.589" y="-170.788" font-family="'/usr/share/fonts/truetype/wqy/wqy-microhei.ttc'" font-size="14.00">&quot;Mastering C++ in 21 days&quot;</text>
</g>
<!-- book&#45;&gt;book_name -->
<g id="edge5" class="edge"><title>book:name&#45;&gt;book_name:head</title>
<path fill="none" stroke="black" stroke-width="2" d="M355.118,-170.988C376.044,-170.988 378.768,-190.21 394.006,-196.217"/>
<polygon fill="black" stroke="black" stroke-width="2" points="393.495,-199.681 403.954,-197.988 394.723,-192.789 393.495,-199.681"/>
</g>
<!-- book_author -->
<g id="node6" class="node"><title>book_author</title>
<polygon fill="lightgrey" stroke="black" points="455.528,-93.5 455.528,-142.477 555.651,-142.477 555.651,-93.5 455.528,-93.5"/>
<text text-anchor="middle" x="505.589" y="-127.277" font-family="'/usr/share/fonts/truetype/wqy/wqy-microhei.ttc'" font-size="14.00">StringObject</text>
<polyline fill="none" stroke="black" points="455.528,-117.988 555.651,-117.988 "/>
<text text-anchor="middle" x="505.589" y="-102.788" font-family="'/usr/share/fonts/truetype/wqy/wqy-microhei.ttc'" font-size="14.00">&quot;Someone&quot;</text>
</g>
<!-- book&#45;&gt;book_author -->
<g id="edge6" class="edge"><title>book:author&#45;&gt;book_author:head</title>
<path fill="none" stroke="black" stroke-width="2" d="M355.118,-129.988C395.701,-129.988 408.343,-129.988 444.342,-129.988"/>
<polygon fill="black" stroke="black" stroke-width="2" points="444.589,-133.488 454.589,-129.988 444.589,-126.488 444.589,-133.488"/>
</g>
<!-- book_publisher -->
<g id="node7" class="node"><title>book_publisher</title>
<polygon fill="lightgrey" stroke="black" points="422.387,-25.5 422.387,-74.4766 588.792,-74.4766 588.792,-25.5 422.387,-25.5"/>
<text text-anchor="middle" x="505.589" y="-59.2766" font-family="'/usr/share/fonts/truetype/wqy/wqy-microhei.ttc'" font-size="14.00">StringObject</text>
<polyline fill="none" stroke="black" points="422.387,-49.9883 588.792,-49.9883 "/>
<text text-anchor="middle" x="505.589" y="-34.7883" font-family="'/usr/share/fonts/truetype/wqy/wqy-microhei.ttc'" font-size="14.00">&quot;Oh&#45;Really? Publisher&quot;</text>
</g>
<!-- book&#45;&gt;book_publisher -->
<g id="edge7" class="edge"><title>book:publisher&#45;&gt;book_publisher:head</title>
<path fill="none" stroke="black" stroke-width="2" d="M355.118,-88.9883C383.268,-88.9883 388.669,-67.9456 411.488,-63.0137"/>
<polygon fill="black" stroke="black" stroke-width="2" points="411.994,-66.4804 421.589,-61.9883 411.287,-59.5162 411.994,-66.4804"/>
</g>
</g>
</svg>
