<?xml version="1.0" encoding="UTF-8" standalone="no"?>
<!DOCTYPE svg PUBLIC "-//W3C//DTD SVG 1.1//EN"
 "http://www.w3.org/Graphics/SVG/1.1/DTD/svg11.dtd">
<!-- Generated by graphviz version 2.38.0 (20140413.2041)
 -->
<!-- Title: persistent Pages: 1 -->
<svg width="295pt" height="110pt"
 viewBox="0.00 0.00 295.07 109.82" xmlns="http://www.w3.org/2000/svg" xmlns:xlink="http://www.w3.org/1999/xlink">
<g id="graph0" class="graph" transform="scale(1 1) rotate(0) translate(4 105.823)">
<title>persistent</title>
<polygon fill="white" stroke="none" points="-4,4 -4,-105.823 291.074,-105.823 291.074,4 -4,4"/>
<!-- redis_object -->
<g id="node1" class="node"><title>redis_object</title>
<ellipse fill="#a8e270" stroke="black" cx="50.9117" cy="-50.9117" rx="50.8235" ry="50.8235"/>
<text text-anchor="middle" x="50.9117" y="-54.1317" font-family="'/usr/share/fonts/truetype/wqy/wqy-microhei.ttc'" font-size="14.00">内存中的</text>
<text text-anchor="middle" x="50.9117" y="-39.7117" font-family="'/usr/share/fonts/truetype/wqy/wqy-microhei.ttc'" font-size="14.00">数据对象</text>
</g>
<!-- rdb -->
<g id="node2" class="node"><title>rdb</title>
<ellipse fill="#95bbe3" stroke="black" cx="236.163" cy="-50.9117" rx="50.8235" ry="50.8235"/>
<text text-anchor="middle" x="236.163" y="-55.3758" font-family="'/usr/share/fonts/truetype/wqy/wqy-microhei.ttc'" font-size="14.00">磁盘中的</text>
<text text-anchor="middle" x="236.163" y="-40.9558" font-family="'/usr/share/fonts/truetype/wqy/wqy-microhei.ttc'" font-size="14.00">RDB文件</text>
</g>
<!-- redis_object&#45;&gt;rdb -->
<g id="edge1" class="edge"><title>redis_object&#45;&gt;rdb</title>
<path fill="none" stroke="black" stroke-width="2" d="M101.986,-50.9117C124.51,-50.9117 151.284,-50.9117 174.898,-50.9117"/>
<polygon fill="black" stroke="black" stroke-width="2" points="175.149,-54.4118 185.149,-50.9117 175.149,-47.4118 175.149,-54.4118"/>
<text text-anchor="middle" x="143.537" y="-53.7117" font-family="Times,serif" font-size="14.00">rdbSave</text>
</g>
<!-- rdb&#45;&gt;redis_object -->
<g id="edge2" class="edge"><title>rdb&#45;&gt;redis_object</title>
<path fill="none" stroke="black" stroke-width="2" d="M187.241,-36.5658C180.58,-35.0554 173.782,-33.7626 167.251,-32.9117 146.349,-30.1886 140.726,-30.1886 119.823,-32.9117 116.558,-33.3371 113.225,-33.8731 109.877,-34.4914"/>
<polygon fill="black" stroke="black" stroke-width="2" points="108.919,-31.1154 99.8334,-36.5658 110.335,-37.9707 108.919,-31.1154"/>
<text text-anchor="middle" x="143.537" y="-35.7117" font-family="Times,serif" font-size="14.00">rdbLoad</text>
</g>
</g>
</svg>
