<?xml version="1.0" encoding="UTF-8" standalone="no"?>
<!DOCTYPE svg PUBLIC "-//W3C//DTD SVG 1.1//EN"
 "http://www.w3.org/Graphics/SVG/1.1/DTD/svg11.dtd">
<!-- Generated by graphviz version 2.38.0 (20140413.2041)
 -->
<!-- Title: redis_string Pages: 1 -->
<svg width="510pt" height="266pt"
 viewBox="0.00 0.00 509.88 265.82" xmlns="http://www.w3.org/2000/svg" xmlns:xlink="http://www.w3.org/1999/xlink">
<g id="graph0" class="graph" transform="scale(1 1) rotate(0) translate(4 261.817)">
<title>redis_string</title>
<polygon fill="white" stroke="none" points="-4,4 -4,-261.817 505.876,-261.817 505.876,4 -4,4"/>
<!-- REDIS_STRING -->
<g id="node1" class="node"><title>REDIS_STRING</title>
<polygon fill="#95bbe3" stroke="none" points="380.878,-257.771 270.289,-257.771 270.289,-218.954 380.878,-218.954 380.878,-257.771"/>
<text text-anchor="middle" x="325.583" y="-242.617" font-family="'/usr/share/fonts/truetype/wqy/wqy-microhei.ttc'" font-size="14.00">字符串</text>
<text text-anchor="middle" x="325.583" y="-228.197" font-family="'/usr/share/fonts/truetype/wqy/wqy-microhei.ttc'" font-size="14.00">REDIS_STRING</text>
</g>
<!-- REDIS_ENCODING_RAW -->
<g id="node2" class="node"><title>REDIS_ENCODING_RAW</title>
<polygon fill="#fadcad" stroke="none" points="318.929,-182.863 146.238,-182.863 146.238,-144.046 318.929,-144.046 318.929,-182.863"/>
<text text-anchor="middle" x="232.583" y="-167.708" font-family="'/usr/share/fonts/truetype/wqy/wqy-microhei.ttc'" font-size="14.00">字符串</text>
<text text-anchor="middle" x="232.583" y="-153.288" font-family="'/usr/share/fonts/truetype/wqy/wqy-microhei.ttc'" font-size="14.00">REDIS_ENCODING_RAW</text>
</g>
<!-- REDIS_STRING&#45;&gt;REDIS_ENCODING_RAW -->
<g id="edge1" class="edge"><title>REDIS_STRING&#45;&gt;REDIS_ENCODING_RAW</title>
<path fill="none" stroke="black" stroke-width="2" d="M301.634,-218.587C290.264,-209.674 276.522,-198.9 264.301,-189.319"/>
<polygon fill="black" stroke="black" stroke-width="2" points="266.16,-186.329 256.13,-182.914 261.841,-191.838 266.16,-186.329"/>
</g>
<!-- REDIS_ENCODING_INT -->
<g id="node3" class="node"><title>REDIS_ENCODING_INT</title>
<polygon fill="#fadcad" stroke="none" points="501.67,-182.863 337.497,-182.863 337.497,-144.046 501.67,-144.046 501.67,-182.863"/>
<text text-anchor="middle" x="419.583" y="-167.708" font-family="'/usr/share/fonts/truetype/wqy/wqy-microhei.ttc'" font-size="14.00">整数</text>
<text text-anchor="middle" x="419.583" y="-153.288" font-family="'/usr/share/fonts/truetype/wqy/wqy-microhei.ttc'" font-size="14.00">REDIS_ENCODING_INT</text>
</g>
<!-- REDIS_STRING&#45;&gt;REDIS_ENCODING_INT -->
<g id="edge2" class="edge"><title>REDIS_STRING&#45;&gt;REDIS_ENCODING_INT</title>
<path fill="none" stroke="black" stroke-width="2" d="M349.791,-218.587C361.393,-209.588 375.44,-198.693 387.881,-189.043"/>
<polygon fill="black" stroke="black" stroke-width="2" points="390.027,-191.808 395.784,-182.914 385.737,-186.277 390.027,-191.808"/>
</g>
<!-- sdshdr -->
<g id="node4" class="node"><title>sdshdr</title>
<polygon fill="lightgrey" stroke="none" points="260.071,-108 199.096,-108 199.096,-72 260.071,-72 260.071,-108"/>
<text text-anchor="middle" x="229.583" y="-87.0441" font-family="'/usr/share/fonts/truetype/wqy/wqy-microhei.ttc'" font-size="14.00">sdshdr</text>
</g>
<!-- REDIS_ENCODING_RAW&#45;&gt;sdshdr -->
<g id="edge3" class="edge"><title>REDIS_ENCODING_RAW&#45;&gt;sdshdr</title>
<path fill="none" stroke="black" stroke-width="2" d="M231.795,-143.68C231.473,-136.005 231.094,-126.971 230.741,-118.572"/>
<polygon fill="black" stroke="black" stroke-width="2" points="234.231,-118.267 230.315,-108.423 227.238,-118.561 234.231,-118.267"/>
</g>
<!-- long -->
<g id="node5" class="node"><title>long</title>
<polygon fill="lightgrey" stroke="none" points="447.583,-108 393.583,-108 393.583,-72 447.583,-72 447.583,-108"/>
<text text-anchor="middle" x="420.583" y="-87.0441" font-family="'/usr/share/fonts/truetype/wqy/wqy-microhei.ttc'" font-size="14.00">long</text>
</g>
<!-- REDIS_ENCODING_INT&#45;&gt;long -->
<g id="edge4" class="edge"><title>REDIS_ENCODING_INT&#45;&gt;long</title>
<path fill="none" stroke="black" stroke-width="2" d="M419.846,-143.68C419.954,-136.005 420.08,-126.971 420.198,-118.572"/>
<polygon fill="black" stroke="black" stroke-width="2" points="423.699,-118.471 420.34,-108.423 416.7,-118.373 423.699,-118.471"/>
</g>
<!-- sds -->
<g id="node6" class="node"><title>sds</title>
<polygon fill="lightgrey" stroke="none" points="81.2507,-36 -0.0836682,-36 -0.0836682,-0 81.2507,-0 81.2507,-36"/>
<text text-anchor="middle" x="40.5835" y="-15.0441" font-family="'/usr/share/fonts/truetype/wqy/wqy-microhei.ttc'" font-size="14.00">sds/char*</text>
</g>
<!-- sdshdr&#45;&gt;sds -->
<g id="edge5" class="edge"><title>sdshdr&#45;&gt;sds</title>
<path fill="none" stroke="black" stroke-width="2" d="M198.797,-77.5975C169.54,-66.7616 125.032,-50.2771 90.6672,-37.5495"/>
<polygon fill="black" stroke="black" stroke-width="2" points="91.8579,-34.2582 81.2648,-34.0671 89.4266,-40.8225 91.8579,-34.2582"/>
</g>
<!-- long_long -->
<g id="node7" class="node"><title>long_long</title>
<polygon fill="lightgrey" stroke="none" points="179.643,-36 99.5237,-36 99.5237,-0 179.643,-0 179.643,-36"/>
<text text-anchor="middle" x="139.583" y="-15.0441" font-family="'/usr/share/fonts/truetype/wqy/wqy-microhei.ttc'" font-size="14.00">long long</text>
</g>
<!-- sdshdr&#45;&gt;long_long -->
<g id="edge6" class="edge"><title>sdshdr&#45;&gt;long_long</title>
<path fill="none" stroke="black" stroke-width="2" d="M207.336,-71.6966C196.002,-62.8807 182.053,-52.0321 169.765,-42.4742"/>
<polygon fill="black" stroke="black" stroke-width="2" points="171.617,-39.481 161.575,-36.1043 167.32,-45.0065 171.617,-39.481"/>
</g>
<!-- double -->
<g id="node8" class="node"><title>double</title>
<polygon fill="lightgrey" stroke="none" points="260.842,-36 198.325,-36 198.325,-0 260.842,-0 260.842,-36"/>
<text text-anchor="middle" x="229.583" y="-15.0441" font-family="'/usr/share/fonts/truetype/wqy/wqy-microhei.ttc'" font-size="14.00">double</text>
</g>
<!-- sdshdr&#45;&gt;double -->
<g id="edge7" class="edge"><title>sdshdr&#45;&gt;double</title>
<path fill="none" stroke="black" stroke-width="2" d="M229.583,-71.6966C229.583,-63.9827 229.583,-54.7125 229.583,-46.1124"/>
<polygon fill="black" stroke="black" stroke-width="2" points="233.084,-46.1043 229.583,-36.1043 226.084,-46.1044 233.084,-46.1043"/>
</g>
<!-- long_double -->
<g id="node9" class="node"><title>long_double</title>
<polygon fill="lightgrey" stroke="none" points="376.336,-36 278.831,-36 278.831,-0 376.336,-0 376.336,-36"/>
<text text-anchor="middle" x="327.583" y="-15.0441" font-family="'/usr/share/fonts/truetype/wqy/wqy-microhei.ttc'" font-size="14.00">long double</text>
</g>
<!-- sdshdr&#45;&gt;long_double -->
<g id="edge8" class="edge"><title>sdshdr&#45;&gt;long_double</title>
<path fill="none" stroke="black" stroke-width="2" d="M253.557,-71.8761C266.133,-62.8931 281.716,-51.7625 295.336,-42.0341"/>
<polygon fill="black" stroke="black" stroke-width="2" points="297.415,-44.8502 303.518,-36.1898 293.346,-39.1541 297.415,-44.8502"/>
</g>
<!-- long_type -->
<g id="node10" class="node"><title>long_type</title>
<polygon fill="lightgrey" stroke="none" points="448.583,-36 394.583,-36 394.583,-0 448.583,-0 448.583,-36"/>
<text text-anchor="middle" x="421.583" y="-15.0441" font-family="'/usr/share/fonts/truetype/wqy/wqy-microhei.ttc'" font-size="14.00">long</text>
</g>
<!-- long&#45;&gt;long_type -->
<g id="edge9" class="edge"><title>long&#45;&gt;long_type</title>
<path fill="none" stroke="black" stroke-width="2" d="M420.831,-71.6966C420.941,-63.9827 421.073,-54.7125 421.196,-46.1124"/>
<polygon fill="black" stroke="black" stroke-width="2" points="424.696,-46.1533 421.339,-36.1043 417.697,-46.0533 424.696,-46.1533"/>
</g>
</g>
</svg>
