<?xml version="1.0" encoding="UTF-8" standalone="no"?>
<!DOCTYPE svg PUBLIC "-//W3C//DTD SVG 1.1//EN"
 "http://www.w3.org/Graphics/SVG/1.1/DTD/svg11.dtd">
<!-- Generated by graphviz version 2.38.0 (20140413.2041)
 -->
<!-- Title: update_ready_keys Pages: 1 -->
<svg width="682pt" height="170pt"
 viewBox="0.00 0.00 681.85 170.20" xmlns="http://www.w3.org/2000/svg" xmlns:xlink="http://www.w3.org/1999/xlink">
<g id="graph0" class="graph" transform="scale(1 1) rotate(0) translate(4 166.197)">
<title>update_ready_keys</title>
<polygon fill="white" stroke="none" points="-4,4 -4,-166.197 677.853,-166.197 677.853,4 -4,4"/>
<!-- redisServer -->
<g id="node1" class="node"><title>redisServer</title>
<polygon fill="#a8e270" stroke="black" points="0,-43.7441 0,-141.697 90.6621,-141.697 90.6621,-43.7441 0,-43.7441"/>
<text text-anchor="middle" x="45.3311" y="-126.497" font-family="'/usr/share/fonts/truetype/wqy/wqy-microhei.ttc'" font-size="14.00">redisServer</text>
<polyline fill="none" stroke="black" points="0,-117.209 90.6621,-117.209 "/>
<text text-anchor="middle" x="45.3311" y="-102.009" font-family="'/usr/share/fonts/truetype/wqy/wqy-microhei.ttc'" font-size="14.00">...</text>
<polyline fill="none" stroke="black" points="0,-92.7207 90.6621,-92.7207 "/>
<text text-anchor="middle" x="45.3311" y="-77.5207" font-family="'/usr/share/fonts/truetype/wqy/wqy-microhei.ttc'" font-size="14.00">ready_keys</text>
<polyline fill="none" stroke="black" points="0,-68.2324 90.6621,-68.2324 "/>
<text text-anchor="middle" x="45.3311" y="-53.0324" font-family="'/usr/share/fonts/truetype/wqy/wqy-microhei.ttc'" font-size="14.00">...</text>
</g>
<!-- listNode -->
<g id="node3" class="node"><title>listNode</title>
<polygon fill="#fadcad" stroke="black" points="143.779,-44.2324 143.779,-93.209 286.525,-93.209 286.525,-44.2324 143.779,-44.2324"/>
<text text-anchor="middle" x="215.152" y="-78.009" font-family="'/usr/share/fonts/truetype/wqy/wqy-microhei.ttc'" font-size="14.00">listNode</text>
<polyline fill="none" stroke="black" points="143.779,-68.7207 286.525,-68.7207 "/>
<text text-anchor="middle" x="166.552" y="-53.5207" font-family="'/usr/share/fonts/truetype/wqy/wqy-microhei.ttc'" font-size="14.00">prev</text>
<polyline fill="none" stroke="black" points="189.324,-44.2324 189.324,-68.7207 "/>
<text text-anchor="middle" x="212.189" y="-53.5207" font-family="'/usr/share/fonts/truetype/wqy/wqy-microhei.ttc'" font-size="14.00">next</text>
<polyline fill="none" stroke="black" points="235.054,-44.2324 235.054,-68.7207 "/>
<text text-anchor="middle" x="260.79" y="-53.5207" font-family="'/usr/share/fonts/truetype/wqy/wqy-microhei.ttc'" font-size="14.00">value</text>
</g>
<!-- redisServer&#45;&gt;listNode -->
<g id="edge1" class="edge"><title>redisServer:ready_keys&#45;&gt;listNode:head</title>
<path fill="none" stroke="black" stroke-width="2" d="M90.6621,-80.7207C110.397,-80.7207 117.759,-80.7207 133.433,-80.7207"/>
<polygon fill="black" stroke="black" stroke-width="2" points="133.779,-84.2208 143.779,-80.7207 133.779,-77.2208 133.779,-84.2208"/>
<text text-anchor="middle" x="117.221" y="-83.5207" font-family="Times,serif" font-size="14.00">list</text>
</g>
<!-- readyList -->
<g id="node2" class="node"><title>readyList</title>
<polygon fill="#95bbe3" stroke="black" points="323.525,-67.9883 323.525,-141.453 399.948,-141.453 399.948,-67.9883 323.525,-67.9883"/>
<text text-anchor="middle" x="361.737" y="-126.253" font-family="'/usr/share/fonts/truetype/wqy/wqy-microhei.ttc'" font-size="14.00">readyList</text>
<polyline fill="none" stroke="black" points="323.525,-116.965 399.948,-116.965 "/>
<text text-anchor="middle" x="361.737" y="-101.765" font-family="'/usr/share/fonts/truetype/wqy/wqy-microhei.ttc'" font-size="14.00">db</text>
<polyline fill="none" stroke="black" points="323.525,-92.4766 399.948,-92.4766 "/>
<text text-anchor="middle" x="361.737" y="-77.2766" font-family="'/usr/share/fonts/truetype/wqy/wqy-microhei.ttc'" font-size="14.00">key</text>
</g>
<!-- redisDb -->
<g id="node5" class="node"><title>redisDb</title>
<polygon fill="#ffc1c1" stroke="black" points="436.948,-63.7441 436.948,-161.697 505.106,-161.697 505.106,-63.7441 436.948,-63.7441"/>
<text text-anchor="middle" x="471.027" y="-146.497" font-family="'/usr/share/fonts/truetype/wqy/wqy-microhei.ttc'" font-size="14.00">redisDb</text>
<polyline fill="none" stroke="black" points="436.948,-137.209 505.106,-137.209 "/>
<text text-anchor="middle" x="471.027" y="-122.009" font-family="'/usr/share/fonts/truetype/wqy/wqy-microhei.ttc'" font-size="14.00">...</text>
<polyline fill="none" stroke="black" points="436.948,-112.721 505.106,-112.721 "/>
<text text-anchor="middle" x="471.027" y="-97.5207" font-family="'/usr/share/fonts/truetype/wqy/wqy-microhei.ttc'" font-size="14.00">dict</text>
<polyline fill="none" stroke="black" points="436.948,-88.2324 505.106,-88.2324 "/>
<text text-anchor="middle" x="471.027" y="-73.0324" font-family="'/usr/share/fonts/truetype/wqy/wqy-microhei.ttc'" font-size="14.00">...</text>
</g>
<!-- readyList&#45;&gt;redisDb -->
<g id="edge5" class="edge"><title>readyList:db&#45;&gt;redisDb:head</title>
<path fill="none" stroke="black" stroke-width="2" d="M399.948,-104.721C421.593,-104.721 414.812,-136.166 427.13,-146.484"/>
<polygon fill="black" stroke="black" stroke-width="2" points="426.355,-149.914 436.948,-149.721 428.547,-143.266 426.355,-149.914"/>
</g>
<!-- dict -->
<g id="node6" class="node"><title>dict</title>
<polygon fill="#f2f2f2" stroke="black" points="542.106,-0.5 542.106,-114.941 673.853,-114.941 673.853,-0.5 542.106,-0.5"/>
<text text-anchor="middle" x="607.979" y="-99.7414" font-family="'/usr/share/fonts/truetype/wqy/wqy-microhei.ttc'" font-size="14.00">dict</text>
<text text-anchor="middle" x="607.979" y="-83.2531" font-family="'/usr/share/fonts/truetype/wqy/wqy-microhei.ttc'" font-size="14.00">(key space of DB)</text>
<polyline fill="none" stroke="black" points="542.106,-73.9648 673.853,-73.9648 "/>
<text text-anchor="middle" x="607.979" y="-58.7648" font-family="'/usr/share/fonts/truetype/wqy/wqy-microhei.ttc'" font-size="14.00">...</text>
<polyline fill="none" stroke="black" points="542.106,-49.4766 673.853,-49.4766 "/>
<text text-anchor="middle" x="607.979" y="-34.2766" font-family="'/usr/share/fonts/truetype/wqy/wqy-microhei.ttc'" font-size="14.00">key3</text>
<polyline fill="none" stroke="black" points="542.106,-24.9883 673.853,-24.9883 "/>
<text text-anchor="middle" x="607.979" y="-9.78828" font-family="'/usr/share/fonts/truetype/wqy/wqy-microhei.ttc'" font-size="14.00">...</text>
</g>
<!-- readyList&#45;&gt;dict -->
<g id="edge7" class="edge"><title>readyList:key&#45;&gt;dict:key3</title>
<path fill="none" stroke="black" stroke-width="2" d="M399.948,-80.7207C420.047,-80.7207 418.332,-62.2951 436.948,-54.7207 477.547,-38.2029 492.526,-37.6986 532.091,-37.7148"/>
<polygon fill="black" stroke="black" stroke-width="2" points="532.104,-41.2147 542.106,-37.7207 532.109,-34.2147 532.104,-41.2147"/>
</g>
<!-- listNode&#45;&gt;readyList -->
<g id="edge4" class="edge"><title>listNode:value&#45;&gt;readyList:head</title>
<path fill="none" stroke="black" stroke-width="2" d="M286.525,-56.7207C318.428,-56.7207 294.557,-113.332 313.823,-126.158"/>
<polygon fill="black" stroke="black" stroke-width="2" points="312.963,-129.551 323.525,-128.721 314.751,-122.783 312.963,-129.551"/>
</g>
<!-- null -->
<g id="node4" class="node"><title>null</title>
<polygon fill="lightgrey" stroke="none" points="388.737,-49.7207 334.737,-49.7207 334.737,-13.7207 388.737,-13.7207 388.737,-49.7207"/>
<text text-anchor="middle" x="361.737" y="-28.7648" font-family="'/usr/share/fonts/truetype/wqy/wqy-microhei.ttc'" font-size="14.00">NULL</text>
</g>
<!-- listNode&#45;&gt;null -->
<g id="edge2" class="edge"><title>listNode:next&#45;&gt;null</title>
<path fill="none" stroke="black" stroke-width="2" d="M212.152,-43.7207C212.152,-2.21919 264.247,-47.016 305.525,-42.7207 311.628,-42.0856 318.059,-41.1005 324.289,-39.9752"/>
<polygon fill="black" stroke="black" stroke-width="2" points="325.345,-43.3351 334.491,-37.986 324.006,-36.4645 325.345,-43.3351"/>
</g>
<!-- listNode&#45;&gt;null -->
<g id="edge3" class="edge"><title>listNode:prev&#45;&gt;null</title>
<path fill="none" stroke="black" stroke-width="2" d="M166.152,-43.7207C166.152,19.1797 268.697,-2.92036 324.904,-19.7579"/>
<polygon fill="black" stroke="black" stroke-width="2" points="323.907,-23.1131 334.494,-22.7143 325.969,-16.4237 323.907,-23.1131"/>
</g>
<!-- redisDb&#45;&gt;dict -->
<g id="edge6" class="edge"><title>redisDb:dict&#45;&gt;dict:head</title>
<path fill="none" stroke="black" stroke-width="2" d="M505.106,-100.721C517.731,-100.721 522.903,-97.275 531.917,-95.606"/>
<polygon fill="black" stroke="black" stroke-width="2" points="532.447,-99.0733 542.106,-94.7207 531.841,-92.0996 532.447,-99.0733"/>
</g>
</g>
</svg>
