<?xml version="1.0" encoding="UTF-8" standalone="no"?>
<!DOCTYPE svg PUBLIC "-//W3C//DTD SVG 1.1//EN"
 "http://www.w3.org/Graphics/SVG/1.1/DTD/svg11.dtd">
<!-- Generated by graphviz version 2.38.0 (20140413.2041)
 -->
<!-- Title: rehash_step_three Pages: 1 -->
<svg width="674pt" height="694pt"
 viewBox="0.00 0.00 674.50 694.00" xmlns="http://www.w3.org/2000/svg" xmlns:xlink="http://www.w3.org/1999/xlink">
<g id="graph0" class="graph" transform="scale(1 1) rotate(0) translate(4 690)">
<title>rehash_step_three</title>
<polygon fill="white" stroke="none" points="-4,4 -4,-690 670.496,-690 670.496,4 -4,4"/>
<!-- dict -->
<g id="node1" class="node"><title>dict</title>
<polygon fill="#a8e270" stroke="black" points="0,-504.535 0,-651.465 99.6855,-651.465 99.6855,-504.535 0,-504.535"/>
<text text-anchor="middle" x="49.8428" y="-636.265" font-family="'/usr/share/fonts/truetype/wqy/wqy-microhei.ttc'" font-size="14.00">dict</text>
<polyline fill="none" stroke="black" points="0,-626.977 99.6855,-626.977 "/>
<text text-anchor="middle" x="49.8428" y="-611.777" font-family="'/usr/share/fonts/truetype/wqy/wqy-microhei.ttc'" font-size="14.00">type</text>
<polyline fill="none" stroke="black" points="0,-602.488 99.6855,-602.488 "/>
<text text-anchor="middle" x="49.8428" y="-587.288" font-family="'/usr/share/fonts/truetype/wqy/wqy-microhei.ttc'" font-size="14.00">privdata</text>
<polyline fill="none" stroke="black" points="0,-578 99.6855,-578 "/>
<text text-anchor="middle" x="49.8428" y="-562.8" font-family="'/usr/share/fonts/truetype/wqy/wqy-microhei.ttc'" font-size="14.00">ht[2]</text>
<polyline fill="none" stroke="black" points="0,-553.512 99.6855,-553.512 "/>
<text text-anchor="middle" x="49.8428" y="-538.312" font-family="'/usr/share/fonts/truetype/wqy/wqy-microhei.ttc'" font-size="14.00">rehashidx: 3</text>
<polyline fill="none" stroke="black" points="0,-529.023 99.6855,-529.023 "/>
<text text-anchor="middle" x="49.8428" y="-513.823" font-family="'/usr/share/fonts/truetype/wqy/wqy-microhei.ttc'" font-size="14.00">iterators</text>
</g>
<!-- ht0 -->
<g id="node2" class="node"><title>ht0</title>
<polygon fill="#95bbe3" stroke="black" points="162.899,-516.779 162.899,-639.221 258.312,-639.221 258.312,-516.779 162.899,-516.779"/>
<text text-anchor="middle" x="210.606" y="-624.021" font-family="'/usr/share/fonts/truetype/wqy/wqy-microhei.ttc'" font-size="14.00">dictht</text>
<polyline fill="none" stroke="black" points="162.899,-614.732 258.312,-614.732 "/>
<text text-anchor="middle" x="210.606" y="-599.532" font-family="'/usr/share/fonts/truetype/wqy/wqy-microhei.ttc'" font-size="14.00">table</text>
<polyline fill="none" stroke="black" points="162.899,-590.244 258.312,-590.244 "/>
<text text-anchor="middle" x="210.606" y="-575.044" font-family="'/usr/share/fonts/truetype/wqy/wqy-microhei.ttc'" font-size="14.00">size: 4</text>
<polyline fill="none" stroke="black" points="162.899,-565.756 258.312,-565.756 "/>
<text text-anchor="middle" x="210.606" y="-550.556" font-family="'/usr/share/fonts/truetype/wqy/wqy-microhei.ttc'" font-size="14.00">sizemask: 3</text>
<polyline fill="none" stroke="black" points="162.899,-541.268 258.312,-541.268 "/>
<text text-anchor="middle" x="210.606" y="-526.068" font-family="'/usr/share/fonts/truetype/wqy/wqy-microhei.ttc'" font-size="14.00">used: 0</text>
</g>
<!-- dict&#45;&gt;ht0 -->
<g id="edge1" class="edge"><title>dict:ht&#45;&gt;ht0:dictht</title>
<path fill="none" stroke="black" stroke-width="2" d="M99.6855,-566C134.916,-566 126.247,-615.668 152.903,-625.368"/>
<polygon fill="black" stroke="black" stroke-width="2" points="152.466,-628.843 162.899,-627 153.594,-621.935 152.466,-628.843"/>
<text text-anchor="middle" x="131.292" y="-622.8" font-family="Times,serif" font-size="14.00">ht[0]</text>
</g>
<!-- ht1 -->
<g id="node3" class="node"><title>ht1</title>
<polygon fill="#95bbe3" stroke="black" points="162.899,-367.779 162.899,-490.221 258.312,-490.221 258.312,-367.779 162.899,-367.779"/>
<text text-anchor="middle" x="210.606" y="-475.021" font-family="'/usr/share/fonts/truetype/wqy/wqy-microhei.ttc'" font-size="14.00">dictht</text>
<polyline fill="none" stroke="black" points="162.899,-465.732 258.312,-465.732 "/>
<text text-anchor="middle" x="210.606" y="-450.532" font-family="'/usr/share/fonts/truetype/wqy/wqy-microhei.ttc'" font-size="14.00">table</text>
<polyline fill="none" stroke="black" points="162.899,-441.244 258.312,-441.244 "/>
<text text-anchor="middle" x="210.606" y="-426.044" font-family="'/usr/share/fonts/truetype/wqy/wqy-microhei.ttc'" font-size="14.00">size: 8</text>
<polyline fill="none" stroke="black" points="162.899,-416.756 258.312,-416.756 "/>
<text text-anchor="middle" x="210.606" y="-401.556" font-family="'/usr/share/fonts/truetype/wqy/wqy-microhei.ttc'" font-size="14.00">sizemask: 7</text>
<polyline fill="none" stroke="black" points="162.899,-392.268 258.312,-392.268 "/>
<text text-anchor="middle" x="210.606" y="-377.068" font-family="'/usr/share/fonts/truetype/wqy/wqy-microhei.ttc'" font-size="14.00">used: 4</text>
</g>
<!-- dict&#45;&gt;ht1 -->
<g id="edge2" class="edge"><title>dict:ht&#45;&gt;ht1:dictht</title>
<path fill="none" stroke="black" stroke-width="2" d="M99.6855,-566C120.566,-566 134.663,-499.823 153.741,-482.244"/>
<polygon fill="black" stroke="black" stroke-width="2" points="155.298,-485.38 162.899,-478 152.355,-479.029 155.298,-485.38"/>
<text text-anchor="middle" x="131.292" y="-551.8" font-family="Times,serif" font-size="14.00">ht[1]</text>
</g>
<!-- bucket -->
<g id="node4" class="node"><title>bucket</title>
<polygon fill="#f2f2f2" stroke="black" points="295.312,-523.535 295.312,-662.465 384.512,-662.465 384.512,-523.535 295.312,-523.535"/>
<text text-anchor="middle" x="339.912" y="-647.265" font-family="'/usr/share/fonts/truetype/wqy/wqy-microhei.ttc'" font-size="14.00">dictEntry**</text>
<text text-anchor="middle" x="339.912" y="-630.777" font-family="'/usr/share/fonts/truetype/wqy/wqy-microhei.ttc'" font-size="14.00">(bucket)</text>
<polyline fill="none" stroke="black" points="295.312,-621.488 384.512,-621.488 "/>
<text text-anchor="middle" x="339.912" y="-606.288" font-family="'/usr/share/fonts/truetype/wqy/wqy-microhei.ttc'" font-size="14.00">0</text>
<polyline fill="none" stroke="black" points="295.312,-597 384.512,-597 "/>
<text text-anchor="middle" x="339.912" y="-581.8" font-family="'/usr/share/fonts/truetype/wqy/wqy-microhei.ttc'" font-size="14.00">1</text>
<polyline fill="none" stroke="black" points="295.312,-572.512 384.512,-572.512 "/>
<text text-anchor="middle" x="339.912" y="-557.312" font-family="'/usr/share/fonts/truetype/wqy/wqy-microhei.ttc'" font-size="14.00">2</text>
<polyline fill="none" stroke="black" points="295.312,-548.023 384.512,-548.023 "/>
<text text-anchor="middle" x="339.912" y="-532.823" font-family="'/usr/share/fonts/truetype/wqy/wqy-microhei.ttc'" font-size="14.00">3</text>
</g>
<!-- ht0&#45;&gt;bucket -->
<g id="edge3" class="edge"><title>ht0:table&#45;&gt;bucket:head</title>
<path fill="none" stroke="black" stroke-width="2" d="M258.312,-602C278.367,-602 273.973,-629.432 285.623,-638.861"/>
<polygon fill="black" stroke="black" stroke-width="2" points="284.721,-642.248 295.312,-642 286.878,-635.589 284.721,-642.248"/>
</g>
<!-- bucket1 -->
<g id="node5" class="node"><title>bucket1</title>
<polygon fill="#f2f2f2" stroke="black" points="295.312,-156.559 295.312,-393.441 384.512,-393.441 384.512,-156.559 295.312,-156.559"/>
<text text-anchor="middle" x="339.912" y="-378.241" font-family="'/usr/share/fonts/truetype/wqy/wqy-microhei.ttc'" font-size="14.00">dictEntry**</text>
<text text-anchor="middle" x="339.912" y="-361.753" font-family="'/usr/share/fonts/truetype/wqy/wqy-microhei.ttc'" font-size="14.00">(bucket)</text>
<polyline fill="none" stroke="black" points="295.312,-352.465 384.512,-352.465 "/>
<text text-anchor="middle" x="339.912" y="-337.265" font-family="'/usr/share/fonts/truetype/wqy/wqy-microhei.ttc'" font-size="14.00">0</text>
<polyline fill="none" stroke="black" points="295.312,-327.977 384.512,-327.977 "/>
<text text-anchor="middle" x="339.912" y="-312.777" font-family="'/usr/share/fonts/truetype/wqy/wqy-microhei.ttc'" font-size="14.00">1</text>
<polyline fill="none" stroke="black" points="295.312,-303.488 384.512,-303.488 "/>
<text text-anchor="middle" x="339.912" y="-288.288" font-family="'/usr/share/fonts/truetype/wqy/wqy-microhei.ttc'" font-size="14.00">2</text>
<polyline fill="none" stroke="black" points="295.312,-279 384.512,-279 "/>
<text text-anchor="middle" x="339.912" y="-263.8" font-family="'/usr/share/fonts/truetype/wqy/wqy-microhei.ttc'" font-size="14.00">3</text>
<polyline fill="none" stroke="black" points="295.312,-254.512 384.512,-254.512 "/>
<text text-anchor="middle" x="339.912" y="-239.312" font-family="'/usr/share/fonts/truetype/wqy/wqy-microhei.ttc'" font-size="14.00">4</text>
<polyline fill="none" stroke="black" points="295.312,-230.023 384.512,-230.023 "/>
<text text-anchor="middle" x="339.912" y="-214.823" font-family="'/usr/share/fonts/truetype/wqy/wqy-microhei.ttc'" font-size="14.00">5</text>
<polyline fill="none" stroke="black" points="295.312,-205.535 384.512,-205.535 "/>
<text text-anchor="middle" x="339.912" y="-190.335" font-family="'/usr/share/fonts/truetype/wqy/wqy-microhei.ttc'" font-size="14.00">6</text>
<polyline fill="none" stroke="black" points="295.312,-181.047 384.512,-181.047 "/>
<text text-anchor="middle" x="339.912" y="-165.847" font-family="'/usr/share/fonts/truetype/wqy/wqy-microhei.ttc'" font-size="14.00">7</text>
</g>
<!-- ht1&#45;&gt;bucket1 -->
<g id="edge4" class="edge"><title>ht1:table&#45;&gt;bucket1:head</title>
<path fill="none" stroke="black" stroke-width="2" d="M258.312,-453C293.355,-453 263.965,-388.985 285.416,-375.482"/>
<polygon fill="black" stroke="black" stroke-width="2" points="286.464,-378.827 295.312,-373 284.761,-372.038 286.464,-378.827"/>
</g>
<!-- null0 -->
<g id="node10" class="node"><title>null0</title>
<polygon fill="lightgrey" stroke="none" points="525.504,-686 471.504,-686 471.504,-650 525.504,-650 525.504,-686"/>
<text text-anchor="middle" x="498.504" y="-665.044" font-family="'/usr/share/fonts/truetype/wqy/wqy-microhei.ttc'" font-size="14.00">NULL</text>
</g>
<!-- bucket&#45;&gt;null0 -->
<g id="edge5" class="edge"><title>bucket:table0&#45;&gt;null0</title>
<path fill="none" stroke="black" stroke-width="2" d="M384.512,-609C406.253,-609 402.723,-630.061 421.512,-641 433.95,-648.241 448.652,-654.021 461.795,-658.345"/>
<polygon fill="black" stroke="black" stroke-width="2" points="460.889,-661.728 471.477,-661.368 462.975,-655.047 460.889,-661.728"/>
</g>
<!-- null1 -->
<g id="node11" class="node"><title>null1</title>
<polygon fill="lightgrey" stroke="none" points="525.504,-632 471.504,-632 471.504,-596 525.504,-596 525.504,-632"/>
<text text-anchor="middle" x="498.504" y="-611.044" font-family="'/usr/share/fonts/truetype/wqy/wqy-microhei.ttc'" font-size="14.00">NULL</text>
</g>
<!-- bucket&#45;&gt;null1 -->
<g id="edge6" class="edge"><title>bucket:table1&#45;&gt;null1</title>
<path fill="none" stroke="black" stroke-width="2" d="M384.512,-585C410.856,-585 439.601,-592.487 461.505,-599.853"/>
<polygon fill="black" stroke="black" stroke-width="2" points="460.46,-603.195 471.055,-603.201 462.776,-596.59 460.46,-603.195"/>
</g>
<!-- null2 -->
<g id="node12" class="node"><title>null2</title>
<polygon fill="lightgrey" stroke="none" points="525.504,-578 471.504,-578 471.504,-542 525.504,-542 525.504,-578"/>
<text text-anchor="middle" x="498.504" y="-557.044" font-family="'/usr/share/fonts/truetype/wqy/wqy-microhei.ttc'" font-size="14.00">NULL</text>
</g>
<!-- bucket&#45;&gt;null2 -->
<g id="edge7" class="edge"><title>bucket:table2&#45;&gt;null2</title>
<path fill="none" stroke="black" stroke-width="2" d="M384.512,-560C410.136,-560 439.029,-560 461.184,-560"/>
<polygon fill="black" stroke="black" stroke-width="2" points="461.474,-563.5 471.474,-560 461.474,-556.5 461.474,-563.5"/>
</g>
<!-- null3 -->
<g id="node13" class="node"><title>null3</title>
<polygon fill="lightgrey" stroke="none" points="525.504,-524 471.504,-524 471.504,-488 525.504,-488 525.504,-524"/>
<text text-anchor="middle" x="498.504" y="-503.044" font-family="'/usr/share/fonts/truetype/wqy/wqy-microhei.ttc'" font-size="14.00">NULL</text>
</g>
<!-- bucket&#45;&gt;null3 -->
<g id="edge8" class="edge"><title>bucket:table3&#45;&gt;null3</title>
<path fill="none" stroke="black" stroke-width="2" d="M384.512,-536C410.913,-536 439.657,-528.254 461.547,-520.635"/>
<polygon fill="black" stroke="black" stroke-width="2" points="462.883,-523.873 471.089,-517.171 460.495,-517.293 462.883,-523.873"/>
</g>
<!-- pair_1 -->
<g id="node6" class="node"><title>pair_1</title>
<polygon fill="#ffc1c1" stroke="black" points="421.512,-54.5117 421.512,-103.488 575.496,-103.488 575.496,-54.5117 421.512,-54.5117"/>
<text text-anchor="middle" x="498.504" y="-88.2883" font-family="'/usr/share/fonts/truetype/wqy/wqy-microhei.ttc'" font-size="14.00">dictEntry</text>
<polyline fill="none" stroke="black" points="421.512,-79 575.496,-79 "/>
<text text-anchor="middle" x="445.477" y="-63.8" font-family="'/usr/share/fonts/truetype/wqy/wqy-microhei.ttc'" font-size="14.00">key1</text>
<polyline fill="none" stroke="black" points="469.442,-54.5117 469.442,-79 "/>
<text text-anchor="middle" x="499.604" y="-63.8" font-family="'/usr/share/fonts/truetype/wqy/wqy-microhei.ttc'" font-size="14.00">value1</text>
<polyline fill="none" stroke="black" points="529.767,-54.5117 529.767,-79 "/>
<text text-anchor="middle" x="552.631" y="-63.8" font-family="'/usr/share/fonts/truetype/wqy/wqy-microhei.ttc'" font-size="14.00">next</text>
</g>
<!-- bucket1&#45;&gt;pair_1 -->
<g id="edge18" class="edge"><title>bucket1:table6&#45;&gt;pair_1:head</title>
<path fill="none" stroke="black" stroke-width="2" d="M384.512,-193C428.78,-193 382.317,-107.048 411.699,-92.9465"/>
<polygon fill="black" stroke="black" stroke-width="2" points="412.384,-96.3789 421.512,-91 411.022,-89.5127 412.384,-96.3789"/>
</g>
<!-- pair_2 -->
<g id="node7" class="node"><title>pair_2</title>
<polygon fill="#ffc1c1" stroke="black" points="421.512,-230.512 421.512,-279.488 575.496,-279.488 575.496,-230.512 421.512,-230.512"/>
<text text-anchor="middle" x="498.504" y="-264.288" font-family="'/usr/share/fonts/truetype/wqy/wqy-microhei.ttc'" font-size="14.00">dictEntry</text>
<polyline fill="none" stroke="black" points="421.512,-255 575.496,-255 "/>
<text text-anchor="middle" x="445.477" y="-239.8" font-family="'/usr/share/fonts/truetype/wqy/wqy-microhei.ttc'" font-size="14.00">key2</text>
<polyline fill="none" stroke="black" points="469.442,-230.512 469.442,-255 "/>
<text text-anchor="middle" x="499.604" y="-239.8" font-family="'/usr/share/fonts/truetype/wqy/wqy-microhei.ttc'" font-size="14.00">value2</text>
<polyline fill="none" stroke="black" points="529.767,-230.512 529.767,-255 "/>
<text text-anchor="middle" x="552.631" y="-239.8" font-family="'/usr/share/fonts/truetype/wqy/wqy-microhei.ttc'" font-size="14.00">next</text>
</g>
<!-- bucket1&#45;&gt;pair_2 -->
<g id="edge14" class="edge"><title>bucket1:table3&#45;&gt;pair_2:head</title>
<path fill="none" stroke="black" stroke-width="2" d="M384.512,-267C396.974,-267 402.353,-267 411.384,-267"/>
<polygon fill="black" stroke="black" stroke-width="2" points="411.512,-270.5 421.512,-267 411.512,-263.5 411.512,-270.5"/>
</g>
<!-- pair_3 -->
<g id="node8" class="node"><title>pair_3</title>
<polygon fill="#ffc1c1" stroke="black" points="421.512,-420.512 421.512,-469.488 575.496,-469.488 575.496,-420.512 421.512,-420.512"/>
<text text-anchor="middle" x="498.504" y="-454.288" font-family="'/usr/share/fonts/truetype/wqy/wqy-microhei.ttc'" font-size="14.00">dictEntry</text>
<polyline fill="none" stroke="black" points="421.512,-445 575.496,-445 "/>
<text text-anchor="middle" x="445.477" y="-429.8" font-family="'/usr/share/fonts/truetype/wqy/wqy-microhei.ttc'" font-size="14.00">key3</text>
<polyline fill="none" stroke="black" points="469.442,-420.512 469.442,-445 "/>
<text text-anchor="middle" x="499.604" y="-429.8" font-family="'/usr/share/fonts/truetype/wqy/wqy-microhei.ttc'" font-size="14.00">value3</text>
<polyline fill="none" stroke="black" points="529.767,-420.512 529.767,-445 "/>
<text text-anchor="middle" x="552.631" y="-429.8" font-family="'/usr/share/fonts/truetype/wqy/wqy-microhei.ttc'" font-size="14.00">next</text>
</g>
<!-- bucket1&#45;&gt;pair_3 -->
<g id="edge9" class="edge"><title>bucket1:table0&#45;&gt;pair_3:head</title>
<path fill="none" stroke="black" stroke-width="2" d="M384.512,-340C408.266,-340 398.02,-428.78 413.008,-451.669"/>
<polygon fill="black" stroke="black" stroke-width="2" points="411.18,-454.654 421.512,-457 414.898,-448.723 411.18,-454.654"/>
</g>
<!-- pair_4 -->
<g id="node9" class="node"><title>pair_4</title>
<polygon fill="#ffc1c1" stroke="black" points="421.512,-352.512 421.512,-401.488 575.496,-401.488 575.496,-352.512 421.512,-352.512"/>
<text text-anchor="middle" x="498.504" y="-386.288" font-family="'/usr/share/fonts/truetype/wqy/wqy-microhei.ttc'" font-size="14.00">dictEntry</text>
<polyline fill="none" stroke="black" points="421.512,-377 575.496,-377 "/>
<text text-anchor="middle" x="445.477" y="-361.8" font-family="'/usr/share/fonts/truetype/wqy/wqy-microhei.ttc'" font-size="14.00">key4</text>
<polyline fill="none" stroke="black" points="469.442,-352.512 469.442,-377 "/>
<text text-anchor="middle" x="499.604" y="-361.8" font-family="'/usr/share/fonts/truetype/wqy/wqy-microhei.ttc'" font-size="14.00">value4</text>
<polyline fill="none" stroke="black" points="529.767,-352.512 529.767,-377 "/>
<text text-anchor="middle" x="552.631" y="-361.8" font-family="'/usr/share/fonts/truetype/wqy/wqy-microhei.ttc'" font-size="14.00">next</text>
</g>
<!-- bucket1&#45;&gt;pair_4 -->
<g id="edge11" class="edge"><title>bucket1:table1&#45;&gt;pair_4:head</title>
<path fill="none" stroke="black" stroke-width="2" d="M384.512,-316C416.765,-316 392.311,-373.398 411.717,-386.402"/>
<polygon fill="black" stroke="black" stroke-width="2" points="410.949,-389.819 421.512,-389 412.743,-383.053 410.949,-389.819"/>
</g>
<!-- null12 -->
<g id="node16" class="node"><title>null12</title>
<polygon fill="lightgrey" stroke="none" points="525.504,-334 471.504,-334 471.504,-298 525.504,-298 525.504,-334"/>
<text text-anchor="middle" x="498.504" y="-313.044" font-family="'/usr/share/fonts/truetype/wqy/wqy-microhei.ttc'" font-size="14.00">NULL</text>
</g>
<!-- bucket1&#45;&gt;null12 -->
<g id="edge13" class="edge"><title>bucket1:table2&#45;&gt;null12</title>
<path fill="none" stroke="black" stroke-width="2" d="M384.512,-291C410.82,-291 439.778,-297.541 461.791,-303.931"/>
<polygon fill="black" stroke="black" stroke-width="2" points="460.797,-307.287 471.382,-306.833 462.824,-300.587 460.797,-307.287"/>
</g>
<!-- null14 -->
<g id="node18" class="node"><title>null14</title>
<polygon fill="lightgrey" stroke="none" points="525.504,-212 471.504,-212 471.504,-176 525.504,-176 525.504,-212"/>
<text text-anchor="middle" x="498.504" y="-191.044" font-family="'/usr/share/fonts/truetype/wqy/wqy-microhei.ttc'" font-size="14.00">NULL</text>
</g>
<!-- bucket1&#45;&gt;null14 -->
<g id="edge16" class="edge"><title>bucket1:table4&#45;&gt;null14</title>
<path fill="none" stroke="black" stroke-width="2" d="M384.512,-242C403.42,-242 404.315,-228.862 421.512,-221 434.398,-215.108 448.972,-209.655 461.886,-205.215"/>
<polygon fill="black" stroke="black" stroke-width="2" points="463.016,-208.528 471.381,-202.026 460.787,-201.892 463.016,-208.528"/>
</g>
<!-- null15 -->
<g id="node19" class="node"><title>null15</title>
<polygon fill="lightgrey" stroke="none" points="525.504,-158 471.504,-158 471.504,-122 525.504,-122 525.504,-158"/>
<text text-anchor="middle" x="498.504" y="-137.044" font-family="'/usr/share/fonts/truetype/wqy/wqy-microhei.ttc'" font-size="14.00">NULL</text>
</g>
<!-- bucket1&#45;&gt;null15 -->
<g id="edge17" class="edge"><title>bucket1:table5&#45;&gt;null15</title>
<path fill="none" stroke="black" stroke-width="2" d="M384.512,-218C412.515,-218 399.088,-183.775 421.512,-167 433.215,-158.245 448.01,-152.14 461.429,-147.981"/>
<polygon fill="black" stroke="black" stroke-width="2" points="462.683,-151.263 471.348,-145.167 460.772,-144.529 462.683,-151.263"/>
</g>
<!-- null17 -->
<g id="node21" class="node"><title>null17</title>
<polygon fill="lightgrey" stroke="none" points="525.504,-36 471.504,-36 471.504,-0 525.504,-0 525.504,-36"/>
<text text-anchor="middle" x="498.504" y="-15.0441" font-family="'/usr/share/fonts/truetype/wqy/wqy-microhei.ttc'" font-size="14.00">NULL</text>
</g>
<!-- bucket1&#45;&gt;null17 -->
<g id="edge20" class="edge"><title>bucket1:table7&#45;&gt;null17</title>
<path fill="none" stroke="black" stroke-width="2" d="M384.512,-169C416.205,-169 393.331,-130.334 402.512,-100 410.004,-75.247 403.305,-63.3671 421.512,-45 432.14,-34.278 447.297,-27.7982 461.282,-23.8891"/>
<polygon fill="black" stroke="black" stroke-width="2" points="462.292,-27.2453 471.177,-21.4731 460.632,-20.4451 462.292,-27.2453"/>
</g>
<!-- null16 -->
<g id="node20" class="node"><title>null16</title>
<polygon fill="lightgrey" stroke="none" points="666.496,-85 612.496,-85 612.496,-49 666.496,-49 666.496,-85"/>
<text text-anchor="middle" x="639.496" y="-64.0441" font-family="'/usr/share/fonts/truetype/wqy/wqy-microhei.ttc'" font-size="14.00">NULL</text>
</g>
<!-- pair_1&#45;&gt;null16 -->
<g id="edge19" class="edge"><title>pair_1:next&#45;&gt;null16</title>
<path fill="none" stroke="black" stroke-width="2" d="M575.496,-67C584.127,-67 593.424,-67 602.155,-67"/>
<polygon fill="black" stroke="black" stroke-width="2" points="602.442,-70.5001 612.442,-67 602.442,-63.5001 602.442,-70.5001"/>
</g>
<!-- null13 -->
<g id="node17" class="node"><title>null13</title>
<polygon fill="lightgrey" stroke="none" points="666.496,-261 612.496,-261 612.496,-225 666.496,-225 666.496,-261"/>
<text text-anchor="middle" x="639.496" y="-240.044" font-family="'/usr/share/fonts/truetype/wqy/wqy-microhei.ttc'" font-size="14.00">NULL</text>
</g>
<!-- pair_2&#45;&gt;null13 -->
<g id="edge15" class="edge"><title>pair_2:next&#45;&gt;null13</title>
<path fill="none" stroke="black" stroke-width="2" d="M575.496,-243C584.127,-243 593.424,-243 602.155,-243"/>
<polygon fill="black" stroke="black" stroke-width="2" points="602.442,-246.5 612.442,-243 602.442,-239.5 602.442,-246.5"/>
</g>
<!-- null10 -->
<g id="node14" class="node"><title>null10</title>
<polygon fill="lightgrey" stroke="none" points="666.496,-451 612.496,-451 612.496,-415 666.496,-415 666.496,-451"/>
<text text-anchor="middle" x="639.496" y="-430.044" font-family="'/usr/share/fonts/truetype/wqy/wqy-microhei.ttc'" font-size="14.00">NULL</text>
</g>
<!-- pair_3&#45;&gt;null10 -->
<g id="edge10" class="edge"><title>pair_3:next&#45;&gt;null10</title>
<path fill="none" stroke="black" stroke-width="2" d="M575.496,-433C584.127,-433 593.424,-433 602.155,-433"/>
<polygon fill="black" stroke="black" stroke-width="2" points="602.442,-436.5 612.442,-433 602.442,-429.5 602.442,-436.5"/>
</g>
<!-- null11 -->
<g id="node15" class="node"><title>null11</title>
<polygon fill="lightgrey" stroke="none" points="666.496,-383 612.496,-383 612.496,-347 666.496,-347 666.496,-383"/>
<text text-anchor="middle" x="639.496" y="-362.044" font-family="'/usr/share/fonts/truetype/wqy/wqy-microhei.ttc'" font-size="14.00">NULL</text>
</g>
<!-- pair_4&#45;&gt;null11 -->
<g id="edge12" class="edge"><title>pair_4:next&#45;&gt;null11</title>
<path fill="none" stroke="black" stroke-width="2" d="M575.496,-365C584.127,-365 593.424,-365 602.155,-365"/>
<polygon fill="black" stroke="black" stroke-width="2" points="602.442,-368.5 612.442,-365 602.442,-361.5 602.442,-368.5"/>
</g>
</g>
</svg>
