<?xml version="1.0" encoding="UTF-8" standalone="no"?>
<!DOCTYPE svg PUBLIC "-//W3C//DTD SVG 1.1//EN"
 "http://www.w3.org/Graphics/SVG/1.1/DTD/svg11.dtd">
<!-- Generated by graphviz version 2.38.0 (20140413.2041)
 -->
<!-- Title: hash_table_example Pages: 1 -->
<svg width="509pt" height="253pt"
 viewBox="0.00 0.00 508.60 252.99" xmlns="http://www.w3.org/2000/svg" xmlns:xlink="http://www.w3.org/1999/xlink">
<g id="graph0" class="graph" transform="scale(1 1) rotate(0) translate(4 248.988)">
<title>hash_table_example</title>
<polygon fill="white" stroke="none" points="-4,4 -4,-248.988 504.597,-248.988 504.597,4 -4,4"/>
<!-- ht1 -->
<g id="node1" class="node"><title>ht1</title>
<polygon fill="#95bbe3" stroke="black" points="0,-118.779 0,-241.221 95.4131,-241.221 95.4131,-118.779 0,-118.779"/>
<text text-anchor="middle" x="47.7065" y="-226.021" font-family="'/usr/share/fonts/truetype/wqy/wqy-microhei.ttc'" font-size="14.00">dictht</text>
<polyline fill="none" stroke="black" points="0,-216.732 95.4131,-216.732 "/>
<text text-anchor="middle" x="47.7065" y="-201.532" font-family="'/usr/share/fonts/truetype/wqy/wqy-microhei.ttc'" font-size="14.00">table</text>
<polyline fill="none" stroke="black" points="0,-192.244 95.4131,-192.244 "/>
<text text-anchor="middle" x="47.7065" y="-177.044" font-family="'/usr/share/fonts/truetype/wqy/wqy-microhei.ttc'" font-size="14.00">size: 4</text>
<polyline fill="none" stroke="black" points="0,-167.756 95.4131,-167.756 "/>
<text text-anchor="middle" x="47.7065" y="-152.556" font-family="'/usr/share/fonts/truetype/wqy/wqy-microhei.ttc'" font-size="14.00">sizemask: 3</text>
<polyline fill="none" stroke="black" points="0,-143.268 95.4131,-143.268 "/>
<text text-anchor="middle" x="47.7065" y="-128.068" font-family="'/usr/share/fonts/truetype/wqy/wqy-microhei.ttc'" font-size="14.00">used: 3</text>
</g>
<!-- bucket -->
<g id="node2" class="node"><title>bucket</title>
<polygon fill="#f2f2f2" stroke="black" points="131.413,-85.5352 131.413,-224.465 220.612,-224.465 220.612,-85.5352 131.413,-85.5352"/>
<text text-anchor="middle" x="176.013" y="-209.265" font-family="'/usr/share/fonts/truetype/wqy/wqy-microhei.ttc'" font-size="14.00">dictEntry**</text>
<text text-anchor="middle" x="176.013" y="-192.777" font-family="'/usr/share/fonts/truetype/wqy/wqy-microhei.ttc'" font-size="14.00">(bucket)</text>
<polyline fill="none" stroke="black" points="131.413,-183.488 220.612,-183.488 "/>
<text text-anchor="middle" x="176.013" y="-168.288" font-family="'/usr/share/fonts/truetype/wqy/wqy-microhei.ttc'" font-size="14.00">0</text>
<polyline fill="none" stroke="black" points="131.413,-159 220.612,-159 "/>
<text text-anchor="middle" x="176.013" y="-143.8" font-family="'/usr/share/fonts/truetype/wqy/wqy-microhei.ttc'" font-size="14.00">1</text>
<polyline fill="none" stroke="black" points="131.413,-134.512 220.612,-134.512 "/>
<text text-anchor="middle" x="176.013" y="-119.312" font-family="'/usr/share/fonts/truetype/wqy/wqy-microhei.ttc'" font-size="14.00">2</text>
<polyline fill="none" stroke="black" points="131.413,-110.023 220.612,-110.023 "/>
<text text-anchor="middle" x="176.013" y="-94.8234" font-family="'/usr/share/fonts/truetype/wqy/wqy-microhei.ttc'" font-size="14.00">3</text>
</g>
<!-- ht1&#45;&gt;bucket -->
<g id="edge1" class="edge"><title>ht1:table&#45;&gt;bucket:head</title>
<path fill="none" stroke="black" stroke-width="2" d="M95.4131,-204C107.413,-204 112.663,-204 121.288,-204"/>
<polygon fill="black" stroke="black" stroke-width="2" points="121.413,-207.5 131.413,-204 121.413,-200.5 121.413,-207.5"/>
</g>
<!-- pair_1 -->
<g id="node3" class="node"><title>pair_1</title>
<polygon fill="#fadcad" stroke="black" points="256.612,-195.512 256.612,-244.488 410.597,-244.488 410.597,-195.512 256.612,-195.512"/>
<text text-anchor="middle" x="333.604" y="-229.288" font-family="'/usr/share/fonts/truetype/wqy/wqy-microhei.ttc'" font-size="14.00">dictEntry</text>
<polyline fill="none" stroke="black" points="256.612,-220 410.597,-220 "/>
<text text-anchor="middle" x="280.578" y="-204.8" font-family="'/usr/share/fonts/truetype/wqy/wqy-microhei.ttc'" font-size="14.00">key1</text>
<polyline fill="none" stroke="black" points="304.543,-195.512 304.543,-220 "/>
<text text-anchor="middle" x="334.705" y="-204.8" font-family="'/usr/share/fonts/truetype/wqy/wqy-microhei.ttc'" font-size="14.00">value1</text>
<polyline fill="none" stroke="black" points="364.867,-195.512 364.867,-220 "/>
<text text-anchor="middle" x="387.732" y="-204.8" font-family="'/usr/share/fonts/truetype/wqy/wqy-microhei.ttc'" font-size="14.00">next</text>
</g>
<!-- bucket&#45;&gt;pair_1 -->
<g id="edge2" class="edge"><title>bucket:table0&#45;&gt;pair_1:head</title>
<path fill="none" stroke="black" stroke-width="2" d="M220.612,-171C247.912,-171 231.263,-216.873 246.888,-229.058"/>
<polygon fill="black" stroke="black" stroke-width="2" points="246.027,-232.454 256.612,-232 248.054,-225.754 246.027,-232.454"/>
</g>
<!-- pair_2 -->
<g id="node4" class="node"><title>pair_2</title>
<polygon fill="#fadcad" stroke="black" points="256.612,-73.5117 256.612,-122.488 410.597,-122.488 410.597,-73.5117 256.612,-73.5117"/>
<text text-anchor="middle" x="333.604" y="-107.288" font-family="'/usr/share/fonts/truetype/wqy/wqy-microhei.ttc'" font-size="14.00">dictEntry</text>
<polyline fill="none" stroke="black" points="256.612,-98 410.597,-98 "/>
<text text-anchor="middle" x="280.578" y="-82.8" font-family="'/usr/share/fonts/truetype/wqy/wqy-microhei.ttc'" font-size="14.00">key2</text>
<polyline fill="none" stroke="black" points="304.543,-73.5117 304.543,-98 "/>
<text text-anchor="middle" x="334.705" y="-82.8" font-family="'/usr/share/fonts/truetype/wqy/wqy-microhei.ttc'" font-size="14.00">value2</text>
<polyline fill="none" stroke="black" points="364.867,-73.5117 364.867,-98 "/>
<text text-anchor="middle" x="387.732" y="-82.8" font-family="'/usr/share/fonts/truetype/wqy/wqy-microhei.ttc'" font-size="14.00">next</text>
</g>
<!-- bucket&#45;&gt;pair_2 -->
<g id="edge5" class="edge"><title>bucket:table2&#45;&gt;pair_2:head</title>
<path fill="none" stroke="black" stroke-width="2" d="M220.612,-122C233.393,-122 237.792,-115.109 246.512,-111.771"/>
<polygon fill="black" stroke="black" stroke-width="2" points="247.367,-115.174 256.612,-110 246.158,-108.279 247.367,-115.174"/>
</g>
<!-- pair_3 -->
<g id="node5" class="node"><title>pair_3</title>
<polygon fill="#fadcad" stroke="black" points="256.612,-5.51172 256.612,-54.4883 410.597,-54.4883 410.597,-5.51172 256.612,-5.51172"/>
<text text-anchor="middle" x="333.604" y="-39.2883" font-family="'/usr/share/fonts/truetype/wqy/wqy-microhei.ttc'" font-size="14.00">dictEntry</text>
<polyline fill="none" stroke="black" points="256.612,-30 410.597,-30 "/>
<text text-anchor="middle" x="280.578" y="-14.8" font-family="'/usr/share/fonts/truetype/wqy/wqy-microhei.ttc'" font-size="14.00">key3</text>
<polyline fill="none" stroke="black" points="304.543,-5.51172 304.543,-30 "/>
<text text-anchor="middle" x="334.705" y="-14.8" font-family="'/usr/share/fonts/truetype/wqy/wqy-microhei.ttc'" font-size="14.00">value3</text>
<polyline fill="none" stroke="black" points="364.867,-5.51172 364.867,-30 "/>
<text text-anchor="middle" x="387.732" y="-14.8" font-family="'/usr/share/fonts/truetype/wqy/wqy-microhei.ttc'" font-size="14.00">next</text>
</g>
<!-- bucket&#45;&gt;pair_3 -->
<g id="edge7" class="edge"><title>bucket:table3&#45;&gt;pair_3:head</title>
<path fill="none" stroke="black" stroke-width="2" d="M220.612,-98C246.04,-98 232.499,-56.6426 246.967,-45.0108"/>
<polygon fill="black" stroke="black" stroke-width="2" points="248.109,-48.3207 256.612,-42 246.024,-41.6387 248.109,-48.3207"/>
</g>
<!-- null1 -->
<g id="node7" class="node"><title>null1</title>
<polygon fill="lightgrey" stroke="none" points="360.604,-177 306.604,-177 306.604,-141 360.604,-141 360.604,-177"/>
<text text-anchor="middle" x="333.604" y="-156.044" font-family="'/usr/share/fonts/truetype/wqy/wqy-microhei.ttc'" font-size="14.00">NULL</text>
</g>
<!-- bucket&#45;&gt;null1 -->
<g id="edge4" class="edge"><title>bucket:table1&#45;&gt;null1</title>
<path fill="none" stroke="black" stroke-width="2" d="M220.612,-147C245.987,-147 274.413,-150.083 296.277,-153.124"/>
<polygon fill="black" stroke="black" stroke-width="2" points="296.041,-156.627 306.441,-154.6 297.047,-149.699 296.041,-156.627"/>
</g>
<!-- null0 -->
<g id="node6" class="node"><title>null0</title>
<polygon fill="lightgrey" stroke="none" points="500.597,-226 446.597,-226 446.597,-190 500.597,-190 500.597,-226"/>
<text text-anchor="middle" x="473.597" y="-205.044" font-family="'/usr/share/fonts/truetype/wqy/wqy-microhei.ttc'" font-size="14.00">NULL</text>
</g>
<!-- pair_1&#45;&gt;null0 -->
<g id="edge3" class="edge"><title>pair_1:next&#45;&gt;null0</title>
<path fill="none" stroke="black" stroke-width="2" d="M410.597,-208C418.846,-208 427.713,-208 436.088,-208"/>
<polygon fill="black" stroke="black" stroke-width="2" points="436.351,-211.5 446.351,-208 436.351,-204.5 436.351,-211.5"/>
</g>
<!-- null2 -->
<g id="node8" class="node"><title>null2</title>
<polygon fill="lightgrey" stroke="none" points="500.597,-104 446.597,-104 446.597,-68 500.597,-68 500.597,-104"/>
<text text-anchor="middle" x="473.597" y="-83.0441" font-family="'/usr/share/fonts/truetype/wqy/wqy-microhei.ttc'" font-size="14.00">NULL</text>
</g>
<!-- pair_2&#45;&gt;null2 -->
<g id="edge6" class="edge"><title>pair_2:next&#45;&gt;null2</title>
<path fill="none" stroke="black" stroke-width="2" d="M410.597,-86C418.846,-86 427.713,-86 436.088,-86"/>
<polygon fill="black" stroke="black" stroke-width="2" points="436.351,-89.5001 446.351,-86 436.351,-82.5001 436.351,-89.5001"/>
</g>
<!-- null3 -->
<g id="node9" class="node"><title>null3</title>
<polygon fill="lightgrey" stroke="none" points="500.597,-36 446.597,-36 446.597,-0 500.597,-0 500.597,-36"/>
<text text-anchor="middle" x="473.597" y="-15.0441" font-family="'/usr/share/fonts/truetype/wqy/wqy-microhei.ttc'" font-size="14.00">NULL</text>
</g>
<!-- pair_3&#45;&gt;null3 -->
<g id="edge8" class="edge"><title>pair_3:next&#45;&gt;null3</title>
<path fill="none" stroke="black" stroke-width="2" d="M410.597,-18C418.846,-18 427.713,-18 436.088,-18"/>
<polygon fill="black" stroke="black" stroke-width="2" points="436.351,-21.5001 446.351,-18 436.351,-14.5001 436.351,-21.5001"/>
</g>
</g>
</svg>
