<?xml version="1.0" encoding="UTF-8" standalone="no"?>
<!DOCTYPE svg PUBLIC "-//W3C//DTD SVG 1.1//EN"
 "http://www.w3.org/Graphics/SVG/1.1/DTD/svg11.dtd">
<!-- Generated by graphviz version 2.38.0 (20140413.2041)
 -->
<!-- Title: db_with_expire_time Pages: 1 -->
<svg width="619pt" height="434pt"
 viewBox="0.00 0.00 618.63 434.20" xmlns="http://www.w3.org/2000/svg" xmlns:xlink="http://www.w3.org/1999/xlink">
<g id="graph0" class="graph" transform="scale(1 1) rotate(0) translate(4 430.197)">
<title>db_with_expire_time</title>
<polygon fill="white" stroke="none" points="-4,4 -4,-430.197 614.635,-430.197 614.635,4 -4,4"/>
<!-- redisDb -->
<g id="node1" class="node"><title>redisDb</title>
<polygon fill="#a8e270" stroke="black" points="0,-220.988 0,-343.43 68.1582,-343.43 68.1582,-220.988 0,-220.988"/>
<text text-anchor="middle" x="34.0791" y="-328.23" font-family="'/usr/share/fonts/truetype/wqy/wqy-microhei.ttc'" font-size="14.00">redisDb</text>
<polyline fill="none" stroke="black" points="0,-318.941 68.1582,-318.941 "/>
<text text-anchor="middle" x="34.0791" y="-303.741" font-family="'/usr/share/fonts/truetype/wqy/wqy-microhei.ttc'" font-size="14.00">id</text>
<polyline fill="none" stroke="black" points="0,-294.453 68.1582,-294.453 "/>
<text text-anchor="middle" x="34.0791" y="-279.253" font-family="'/usr/share/fonts/truetype/wqy/wqy-microhei.ttc'" font-size="14.00">dict</text>
<polyline fill="none" stroke="black" points="0,-269.965 68.1582,-269.965 "/>
<text text-anchor="middle" x="34.0791" y="-254.765" font-family="'/usr/share/fonts/truetype/wqy/wqy-microhei.ttc'" font-size="14.00">expires</text>
<polyline fill="none" stroke="black" points="0,-245.477 68.1582,-245.477 "/>
<text text-anchor="middle" x="34.0791" y="-230.277" font-family="'/usr/share/fonts/truetype/wqy/wqy-microhei.ttc'" font-size="14.00">...</text>
</g>
<!-- dict -->
<g id="node2" class="node"><title>dict</title>
<polygon fill="#95bbe3" stroke="black" points="104.158,-229.012 104.158,-417.406 204.281,-417.406 204.281,-229.012 104.158,-229.012"/>
<text text-anchor="middle" x="154.22" y="-402.206" font-family="'/usr/share/fonts/truetype/wqy/wqy-microhei.ttc'" font-size="14.00">dict</text>
<text text-anchor="middle" x="154.22" y="-385.718" font-family="'/usr/share/fonts/truetype/wqy/wqy-microhei.ttc'" font-size="14.00">(key space)</text>
<polyline fill="none" stroke="black" points="104.158,-376.43 204.281,-376.43 "/>
<text text-anchor="middle" x="154.22" y="-361.23" font-family="'/usr/share/fonts/truetype/wqy/wqy-microhei.ttc'" font-size="14.00">StringObject</text>
<text text-anchor="middle" x="154.22" y="-344.741" font-family="'/usr/share/fonts/truetype/wqy/wqy-microhei.ttc'" font-size="14.00"> &quot;number&quot;</text>
<polyline fill="none" stroke="black" points="104.158,-335.453 204.281,-335.453 "/>
<text text-anchor="middle" x="154.22" y="-320.253" font-family="'/usr/share/fonts/truetype/wqy/wqy-microhei.ttc'" font-size="14.00">NULL</text>
<polyline fill="none" stroke="black" points="104.158,-310.965 204.281,-310.965 "/>
<text text-anchor="middle" x="154.22" y="-295.765" font-family="'/usr/share/fonts/truetype/wqy/wqy-microhei.ttc'" font-size="14.00">StringObject</text>
<text text-anchor="middle" x="154.22" y="-279.277" font-family="'/usr/share/fonts/truetype/wqy/wqy-microhei.ttc'" font-size="14.00"> &quot;book&quot;</text>
<polyline fill="none" stroke="black" points="104.158,-269.988 204.281,-269.988 "/>
<text text-anchor="middle" x="154.22" y="-254.788" font-family="'/usr/share/fonts/truetype/wqy/wqy-microhei.ttc'" font-size="14.00">StringObject</text>
<text text-anchor="middle" x="154.22" y="-238.3" font-family="'/usr/share/fonts/truetype/wqy/wqy-microhei.ttc'" font-size="14.00"> &quot;message&quot;</text>
</g>
<!-- redisDb&#45;&gt;dict -->
<g id="edge1" class="edge"><title>redisDb:dict&#45;&gt;dict:head</title>
<path fill="none" stroke="black" stroke-width="2" d="M68.1582,-282.209C117.74,-282.209 60.4705,-380.772 94.1917,-395.403"/>
<polygon fill="black" stroke="black" stroke-width="2" points="93.6943,-398.869 104.158,-397.209 94.9427,-391.982 93.6943,-398.869"/>
</g>
<!-- expires -->
<g id="node9" class="node"><title>expires</title>
<polygon fill="#95bbe3" stroke="black" points="104.158,-0.5 104.158,-155.918 204.281,-155.918 204.281,-0.5 104.158,-0.5"/>
<text text-anchor="middle" x="154.22" y="-140.718" font-family="'/usr/share/fonts/truetype/wqy/wqy-microhei.ttc'" font-size="14.00">dict</text>
<polyline fill="none" stroke="black" points="104.158,-131.43 204.281,-131.43 "/>
<text text-anchor="middle" x="154.22" y="-116.23" font-family="'/usr/share/fonts/truetype/wqy/wqy-microhei.ttc'" font-size="14.00">StringObject</text>
<text text-anchor="middle" x="154.22" y="-99.7414" font-family="'/usr/share/fonts/truetype/wqy/wqy-microhei.ttc'" font-size="14.00"> &quot;number&quot;</text>
<polyline fill="none" stroke="black" points="104.158,-90.4531 204.281,-90.4531 "/>
<text text-anchor="middle" x="154.22" y="-75.2531" font-family="'/usr/share/fonts/truetype/wqy/wqy-microhei.ttc'" font-size="14.00">NULL</text>
<polyline fill="none" stroke="black" points="104.158,-65.9648 204.281,-65.9648 "/>
<text text-anchor="middle" x="154.22" y="-50.7648" font-family="'/usr/share/fonts/truetype/wqy/wqy-microhei.ttc'" font-size="14.00">StringObject</text>
<text text-anchor="middle" x="154.22" y="-34.2766" font-family="'/usr/share/fonts/truetype/wqy/wqy-microhei.ttc'" font-size="14.00"> &quot;book&quot;</text>
<polyline fill="none" stroke="black" points="104.158,-24.9883 204.281,-24.9883 "/>
<text text-anchor="middle" x="154.22" y="-9.78828" font-family="'/usr/share/fonts/truetype/wqy/wqy-microhei.ttc'" font-size="14.00">NULL</text>
</g>
<!-- redisDb&#45;&gt;expires -->
<g id="edge8" class="edge"><title>redisDb:expires&#45;&gt;expires:head</title>
<path fill="none" stroke="black" stroke-width="2" d="M68.1582,-258.209C117.74,-258.209 60.4705,-159.646 94.1917,-145.015"/>
<polygon fill="black" stroke="black" stroke-width="2" points="94.9427,-148.436 104.158,-143.209 93.6943,-141.549 94.9427,-148.436"/>
</g>
<!-- number -->
<g id="node3" class="node"><title>number</title>
<polygon fill="#fadcad" stroke="black" points="241.986,-376.721 241.986,-425.697 369.659,-425.697 369.659,-376.721 241.986,-376.721"/>
<text text-anchor="middle" x="305.823" y="-410.497" font-family="'/usr/share/fonts/truetype/wqy/wqy-microhei.ttc'" font-size="14.00">ListObject</text>
<polyline fill="none" stroke="black" points="241.986,-401.209 369.659,-401.209 "/>
<text text-anchor="middle" x="263.265" y="-386.009" font-family="'/usr/share/fonts/truetype/wqy/wqy-microhei.ttc'" font-size="14.00">123</text>
<polyline fill="none" stroke="black" points="284.544,-376.721 284.544,-401.209 "/>
<text text-anchor="middle" x="305.823" y="-386.009" font-family="'/usr/share/fonts/truetype/wqy/wqy-microhei.ttc'" font-size="14.00">456</text>
<polyline fill="none" stroke="black" points="327.102,-376.721 327.102,-401.209 "/>
<text text-anchor="middle" x="348.38" y="-386.009" font-family="'/usr/share/fonts/truetype/wqy/wqy-microhei.ttc'" font-size="14.00">789</text>
</g>
<!-- dict&#45;&gt;number -->
<g id="edge2" class="edge"><title>dict:number&#45;&gt;number:head</title>
<path fill="none" stroke="black" stroke-width="2" d="M204.281,-356.209C230.142,-356.209 216.318,-398.305 231.017,-410.144"/>
<polygon fill="black" stroke="black" stroke-width="2" points="230.234,-413.567 240.823,-413.209 232.322,-406.885 230.234,-413.567"/>
</g>
<!-- book -->
<g id="node4" class="node"><title>book</title>
<polygon fill="#f2f2f2" stroke="black" points="255.761,-210.5 255.761,-357.918 355.884,-357.918 355.884,-210.5 255.761,-210.5"/>
<text text-anchor="middle" x="305.823" y="-342.718" font-family="'/usr/share/fonts/truetype/wqy/wqy-microhei.ttc'" font-size="14.00">HashObject</text>
<polyline fill="none" stroke="black" points="255.761,-333.43 355.884,-333.43 "/>
<text text-anchor="middle" x="305.823" y="-318.23" font-family="'/usr/share/fonts/truetype/wqy/wqy-microhei.ttc'" font-size="14.00">StringObject</text>
<text text-anchor="middle" x="305.823" y="-301.741" font-family="'/usr/share/fonts/truetype/wqy/wqy-microhei.ttc'" font-size="14.00"> &quot;name&quot;</text>
<polyline fill="none" stroke="black" points="255.761,-292.453 355.884,-292.453 "/>
<text text-anchor="middle" x="305.823" y="-277.253" font-family="'/usr/share/fonts/truetype/wqy/wqy-microhei.ttc'" font-size="14.00">StringObject</text>
<text text-anchor="middle" x="305.823" y="-260.765" font-family="'/usr/share/fonts/truetype/wqy/wqy-microhei.ttc'" font-size="14.00"> &quot;author&quot;</text>
<polyline fill="none" stroke="black" points="255.761,-251.477 355.884,-251.477 "/>
<text text-anchor="middle" x="305.823" y="-236.277" font-family="'/usr/share/fonts/truetype/wqy/wqy-microhei.ttc'" font-size="14.00">StringObject</text>
<text text-anchor="middle" x="305.823" y="-219.788" font-family="'/usr/share/fonts/truetype/wqy/wqy-microhei.ttc'" font-size="14.00"> &quot;publisher&quot;</text>
</g>
<!-- dict&#45;&gt;book -->
<g id="edge3" class="edge"><title>dict:book&#45;&gt;book:head</title>
<path fill="none" stroke="black" stroke-width="2" d="M204.281,-290.209C233.589,-290.209 224.667,-333.074 245.015,-343.12"/>
<polygon fill="black" stroke="black" stroke-width="2" points="244.313,-346.549 254.823,-345.209 245.771,-339.703 244.313,-346.549"/>
</g>
<!-- message -->
<g id="node8" class="node"><title>message</title>
<polygon fill="lightgrey" stroke="black" points="255.761,-142.721 255.761,-191.697 355.884,-191.697 355.884,-142.721 255.761,-142.721"/>
<text text-anchor="middle" x="305.823" y="-176.497" font-family="'/usr/share/fonts/truetype/wqy/wqy-microhei.ttc'" font-size="14.00">StringObject</text>
<polyline fill="none" stroke="black" points="255.761,-167.209 355.884,-167.209 "/>
<text text-anchor="middle" x="305.823" y="-152.009" font-family="'/usr/share/fonts/truetype/wqy/wqy-microhei.ttc'" font-size="14.00">&quot;hello moto&quot;</text>
</g>
<!-- dict&#45;&gt;message -->
<g id="edge4" class="edge"><title>dict:message&#45;&gt;message:head</title>
<path fill="none" stroke="black" stroke-width="2" d="M204.281,-249.209C238.757,-249.209 221.106,-192.706 244.994,-181.228"/>
<polygon fill="black" stroke="black" stroke-width="2" points="245.732,-184.65 254.823,-179.209 244.323,-177.793 245.732,-184.65"/>
</g>
<!-- book_name -->
<g id="node5" class="node"><title>book_name</title>
<polygon fill="lightgrey" stroke="black" points="407.364,-303.721 407.364,-352.697 610.635,-352.697 610.635,-303.721 407.364,-303.721"/>
<text text-anchor="middle" x="509" y="-337.497" font-family="'/usr/share/fonts/truetype/wqy/wqy-microhei.ttc'" font-size="14.00">StringObject</text>
<polyline fill="none" stroke="black" points="407.364,-328.209 610.635,-328.209 "/>
<text text-anchor="middle" x="509" y="-313.009" font-family="'/usr/share/fonts/truetype/wqy/wqy-microhei.ttc'" font-size="14.00">&quot;Mastering C++ in 21 days&quot;</text>
</g>
<!-- book&#45;&gt;book_name -->
<g id="edge5" class="edge"><title>book:name&#45;&gt;book_name:head</title>
<path fill="none" stroke="black" stroke-width="2" d="M356.823,-313.209C378.311,-313.209 381.388,-332.431 397.123,-338.437"/>
<polygon fill="black" stroke="black" stroke-width="2" points="396.914,-341.953 407.364,-340.209 398.107,-335.056 396.914,-341.953"/>
</g>
<!-- book_author -->
<g id="node6" class="node"><title>book_author</title>
<polygon fill="lightgrey" stroke="black" points="458.938,-235.721 458.938,-284.697 559.061,-284.697 559.061,-235.721 458.938,-235.721"/>
<text text-anchor="middle" x="509" y="-269.497" font-family="'/usr/share/fonts/truetype/wqy/wqy-microhei.ttc'" font-size="14.00">StringObject</text>
<polyline fill="none" stroke="black" points="458.938,-260.209 559.061,-260.209 "/>
<text text-anchor="middle" x="509" y="-245.009" font-family="'/usr/share/fonts/truetype/wqy/wqy-microhei.ttc'" font-size="14.00">&quot;Someone&quot;</text>
</g>
<!-- book&#45;&gt;book_author -->
<g id="edge6" class="edge"><title>book:author&#45;&gt;book_author:head</title>
<path fill="none" stroke="black" stroke-width="2" d="M356.823,-272.209C398.101,-272.209 410.961,-272.209 447.577,-272.209"/>
<polygon fill="black" stroke="black" stroke-width="2" points="448,-275.709 458,-272.209 447.999,-268.709 448,-275.709"/>
</g>
<!-- book_publisher -->
<g id="node7" class="node"><title>book_publisher</title>
<polygon fill="lightgrey" stroke="black" points="425.797,-167.721 425.797,-216.697 592.202,-216.697 592.202,-167.721 425.797,-167.721"/>
<text text-anchor="middle" x="509" y="-201.497" font-family="'/usr/share/fonts/truetype/wqy/wqy-microhei.ttc'" font-size="14.00">StringObject</text>
<polyline fill="none" stroke="black" points="425.797,-192.209 592.202,-192.209 "/>
<text text-anchor="middle" x="509" y="-177.009" font-family="'/usr/share/fonts/truetype/wqy/wqy-microhei.ttc'" font-size="14.00">&quot;Oh&#45;Really? Publisher&quot;</text>
</g>
<!-- book&#45;&gt;book_publisher -->
<g id="edge7" class="edge"><title>book:publisher&#45;&gt;book_publisher:head</title>
<path fill="none" stroke="black" stroke-width="2" d="M356.823,-231.209C385.721,-231.209 391.351,-209.98 414.977,-205.17"/>
<polygon fill="black" stroke="black" stroke-width="2" points="415.379,-208.648 425,-204.209 414.711,-201.679 415.379,-208.648"/>
</g>
<!-- expire_of_number -->
<g id="node10" class="node"><title>expire_of_number</title>
<polygon fill="lightgrey" stroke="black" points="240.281,-74.7207 240.281,-123.697 371.364,-123.697 371.364,-74.7207 240.281,-74.7207"/>
<text text-anchor="middle" x="305.823" y="-108.497" font-family="'/usr/share/fonts/truetype/wqy/wqy-microhei.ttc'" font-size="14.00">long long</text>
<polyline fill="none" stroke="black" points="240.281,-99.209 371.364,-99.209 "/>
<text text-anchor="middle" x="305.823" y="-84.009" font-family="'/usr/share/fonts/truetype/wqy/wqy-microhei.ttc'" font-size="14.00">1360454400000</text>
</g>
<!-- expires&#45;&gt;expire_of_number -->
<g id="edge9" class="edge"><title>expires:number&#45;&gt;expire_of_number:head</title>
<path fill="none" stroke="black" stroke-width="2" d="M204.281,-111.209C216.281,-111.209 221.531,-111.209 230.156,-111.209"/>
<polygon fill="black" stroke="black" stroke-width="2" points="230.281,-114.709 240.281,-111.209 230.281,-107.709 230.281,-114.709"/>
</g>
<!-- expire_of_book -->
<g id="node11" class="node"><title>expire_of_book</title>
<polygon fill="lightgrey" stroke="black" points="240.281,-6.7207 240.281,-55.6973 371.364,-55.6973 371.364,-6.7207 240.281,-6.7207"/>
<text text-anchor="middle" x="305.823" y="-40.4973" font-family="'/usr/share/fonts/truetype/wqy/wqy-microhei.ttc'" font-size="14.00">long long</text>
<polyline fill="none" stroke="black" points="240.281,-31.209 371.364,-31.209 "/>
<text text-anchor="middle" x="305.823" y="-16.009" font-family="'/usr/share/fonts/truetype/wqy/wqy-microhei.ttc'" font-size="14.00">1360800000000</text>
</g>
<!-- expires&#45;&gt;expire_of_book -->
<g id="edge10" class="edge"><title>expires:book&#45;&gt;expire_of_book:head</title>
<path fill="none" stroke="black" stroke-width="2" d="M204.281,-45.209C216.3,-45.209 221.527,-44.084 230.149,-43.5215"/>
<polygon fill="black" stroke="black" stroke-width="2" points="230.394,-47.0157 240.281,-43.209 230.178,-40.019 230.394,-47.0157"/>
</g>
</g>
</svg>
