<?xml version="1.0" encoding="UTF-8" standalone="no"?>
<!DOCTYPE svg PUBLIC "-//W3C//DTD SVG 1.1//EN"
 "http://www.w3.org/Graphics/SVG/1.1/DTD/svg11.dtd">
<!-- Generated by graphviz version 2.38.0 (20140413.2041)
 -->
<!-- Title: good_performance_hash Pages: 1 -->
<svg width="250pt" height="333pt"
 viewBox="0.00 0.00 249.79 332.99" xmlns="http://www.w3.org/2000/svg" xmlns:xlink="http://www.w3.org/1999/xlink">
<g id="graph0" class="graph" transform="scale(1 1) rotate(0) translate(4 328.988)">
<title>good_performance_hash</title>
<polygon fill="white" stroke="none" points="-4,4 -4,-328.988 245.787,-328.988 245.787,4 -4,4"/>
<!-- bucket -->
<g id="node1" class="node"><title>bucket</title>
<polygon fill="#f2f2f2" stroke="black" points="0,-63.0469 0,-283.441 61.7871,-283.441 61.7871,-63.0469 0,-63.0469"/>
<text text-anchor="middle" x="30.8936" y="-268.241" font-family="'/usr/share/fonts/truetype/wqy/wqy-microhei.ttc'" font-size="14.00">bucket</text>
<polyline fill="none" stroke="black" points="0,-258.953 61.7871,-258.953 "/>
<text text-anchor="middle" x="30.8936" y="-243.753" font-family="'/usr/share/fonts/truetype/wqy/wqy-microhei.ttc'" font-size="14.00">0</text>
<polyline fill="none" stroke="black" points="0,-234.465 61.7871,-234.465 "/>
<text text-anchor="middle" x="30.8936" y="-219.265" font-family="'/usr/share/fonts/truetype/wqy/wqy-microhei.ttc'" font-size="14.00">1</text>
<polyline fill="none" stroke="black" points="0,-209.977 61.7871,-209.977 "/>
<text text-anchor="middle" x="30.8936" y="-194.777" font-family="'/usr/share/fonts/truetype/wqy/wqy-microhei.ttc'" font-size="14.00">2</text>
<polyline fill="none" stroke="black" points="0,-185.488 61.7871,-185.488 "/>
<text text-anchor="middle" x="30.8936" y="-170.288" font-family="'/usr/share/fonts/truetype/wqy/wqy-microhei.ttc'" font-size="14.00">3</text>
<polyline fill="none" stroke="black" points="0,-161 61.7871,-161 "/>
<text text-anchor="middle" x="30.8936" y="-145.8" font-family="'/usr/share/fonts/truetype/wqy/wqy-microhei.ttc'" font-size="14.00">4</text>
<polyline fill="none" stroke="black" points="0,-136.512 61.7871,-136.512 "/>
<text text-anchor="middle" x="30.8936" y="-121.312" font-family="'/usr/share/fonts/truetype/wqy/wqy-microhei.ttc'" font-size="14.00">5</text>
<polyline fill="none" stroke="black" points="0,-112.023 61.7871,-112.023 "/>
<text text-anchor="middle" x="30.8936" y="-96.8234" font-family="'/usr/share/fonts/truetype/wqy/wqy-microhei.ttc'" font-size="14.00">6</text>
<polyline fill="none" stroke="black" points="0,-87.5352 61.7871,-87.5352 "/>
<text text-anchor="middle" x="30.8936" y="-72.3352" font-family="'/usr/share/fonts/truetype/wqy/wqy-microhei.ttc'" font-size="14.00">7</text>
</g>
<!-- node0 -->
<g id="node2" class="node"><title>node0</title>
<polygon fill="#fadcad" stroke="black" points="97.7871,-300 97.7871,-324.488 151.787,-324.488 151.787,-300 97.7871,-300"/>
<text text-anchor="middle" x="124.787" y="-309.288" font-family="'/usr/share/fonts/truetype/wqy/wqy-microhei.ttc'" font-size="14.00">Entry</text>
</g>
<!-- bucket&#45;&gt;node0 -->
<g id="edge1" class="edge"><title>bucket:0&#45;&gt;node0</title>
<path fill="none" stroke="black" stroke-width="2" d="M61.7871,-246.244C87.3996,-246.244 79.7187,-273.091 97.7871,-291.244 98.4318,-291.892 99.0956,-292.539 99.7737,-293.184"/>
<polygon fill="black" stroke="black" stroke-width="2" points="97.5528,-295.892 107.368,-299.882 102.183,-290.642 97.5528,-295.892"/>
</g>
<!-- node1 -->
<g id="node4" class="node"><title>node1</title>
<polygon fill="#fadcad" stroke="black" points="97.7871,-257 97.7871,-281.488 151.787,-281.488 151.787,-257 97.7871,-257"/>
<text text-anchor="middle" x="124.787" y="-266.288" font-family="'/usr/share/fonts/truetype/wqy/wqy-microhei.ttc'" font-size="14.00">Entry</text>
</g>
<!-- bucket&#45;&gt;node1 -->
<g id="edge3" class="edge"><title>bucket:1&#45;&gt;node1</title>
<path fill="none" stroke="black" stroke-width="2" d="M61.7871,-222.244C64.2313,-222.244 83.7375,-237.274 100.227,-250.335"/>
<polygon fill="black" stroke="black" stroke-width="2" points="98.4654,-253.406 108.469,-256.895 102.825,-247.929 98.4654,-253.406"/>
</g>
<!-- node2 -->
<g id="node6" class="node"><title>node2</title>
<polygon fill="lightgrey" stroke="none" points="151.787,-238.737 97.7871,-238.737 97.7871,-213.751 151.787,-213.751 151.787,-238.737"/>
<text text-anchor="middle" x="124.787" y="-223.288" font-family="'/usr/share/fonts/truetype/wqy/wqy-microhei.ttc'" font-size="14.00">NULL</text>
</g>
<!-- bucket&#45;&gt;node2 -->
<g id="edge5" class="edge"><title>bucket:2&#45;&gt;node2</title>
<path fill="none" stroke="black" stroke-width="2" d="M61.7871,-197.244C74.8772,-197.244 88.1817,-202.614 99.0923,-208.732"/>
<polygon fill="black" stroke="black" stroke-width="2" points="97.2776,-211.725 107.637,-213.946 100.924,-205.749 97.2776,-211.725"/>
</g>
<!-- node3 -->
<g id="node7" class="node"><title>node3</title>
<polygon fill="#fadcad" stroke="black" points="97.7871,-171 97.7871,-195.488 151.787,-195.488 151.787,-171 97.7871,-171"/>
<text text-anchor="middle" x="124.787" y="-180.288" font-family="'/usr/share/fonts/truetype/wqy/wqy-microhei.ttc'" font-size="14.00">Entry</text>
</g>
<!-- bucket&#45;&gt;node3 -->
<g id="edge6" class="edge"><title>bucket:3&#45;&gt;node3</title>
<path fill="none" stroke="black" stroke-width="2" d="M61.7871,-173.244C70.2361,-173.244 79.251,-174.16 87.7151,-175.438"/>
<polygon fill="black" stroke="black" stroke-width="2" points="87.2452,-178.909 97.6912,-177.139 88.4216,-172.008 87.2452,-178.909"/>
</g>
<!-- node4 -->
<g id="node9" class="node"><title>node4</title>
<polygon fill="lightgrey" stroke="none" points="151.787,-152.737 97.7871,-152.737 97.7871,-127.751 151.787,-127.751 151.787,-152.737"/>
<text text-anchor="middle" x="124.787" y="-137.288" font-family="'/usr/share/fonts/truetype/wqy/wqy-microhei.ttc'" font-size="14.00">NULL</text>
</g>
<!-- bucket&#45;&gt;node4 -->
<g id="edge8" class="edge"><title>bucket:4&#45;&gt;node4</title>
<path fill="none" stroke="black" stroke-width="2" d="M61.7871,-149.244C70.2157,-149.244 79.2226,-148.419 87.6854,-147.269"/>
<polygon fill="black" stroke="black" stroke-width="2" points="88.3092,-150.715 97.6628,-145.739 87.2477,-143.796 88.3092,-150.715"/>
</g>
<!-- node5 -->
<g id="node10" class="node"><title>node5</title>
<polygon fill="#fadcad" stroke="black" points="97.7871,-85 97.7871,-109.488 151.787,-109.488 151.787,-85 97.7871,-85"/>
<text text-anchor="middle" x="124.787" y="-94.2883" font-family="'/usr/share/fonts/truetype/wqy/wqy-microhei.ttc'" font-size="14.00">Entry</text>
</g>
<!-- bucket&#45;&gt;node5 -->
<g id="edge9" class="edge"><title>bucket:5&#45;&gt;node5</title>
<path fill="none" stroke="black" stroke-width="2" d="M61.7871,-124.244C73.9218,-124.244 86.3645,-119.843 96.8885,-114.594"/>
<polygon fill="black" stroke="black" stroke-width="2" points="98.8562,-117.507 105.95,-109.638 95.497,-111.366 98.8562,-117.507"/>
</g>
<!-- node6 -->
<g id="node12" class="node"><title>node6</title>
<polygon fill="lightgrey" stroke="none" points="151.787,-66.7374 97.7871,-66.7374 97.7871,-41.7509 151.787,-41.7509 151.787,-66.7374"/>
<text text-anchor="middle" x="124.787" y="-51.2883" font-family="'/usr/share/fonts/truetype/wqy/wqy-microhei.ttc'" font-size="14.00">NULL</text>
</g>
<!-- bucket&#45;&gt;node6 -->
<g id="edge11" class="edge"><title>bucket:6&#45;&gt;node6</title>
<path fill="none" stroke="black" stroke-width="2" d="M61.7871,-100.244C64.1982,-100.244 83.4922,-85.7068 99.9252,-72.9769"/>
<polygon fill="black" stroke="black" stroke-width="2" points="102.413,-75.4761 108.153,-66.5713 98.1125,-69.9526 102.413,-75.4761"/>
</g>
<!-- node7 -->
<g id="node13" class="node"><title>node7</title>
<polygon fill="lightgrey" stroke="none" points="151.787,-24.7374 97.7871,-24.7374 97.7871,0.249108 151.787,0.249108 151.787,-24.7374"/>
<text text-anchor="middle" x="124.787" y="-9.28828" font-family="'/usr/share/fonts/truetype/wqy/wqy-microhei.ttc'" font-size="14.00">NULL</text>
</g>
<!-- bucket&#45;&gt;node7 -->
<g id="edge12" class="edge"><title>bucket:7&#45;&gt;node7</title>
<path fill="none" stroke="black" stroke-width="2" d="M61.7871,-75.2441C86.3726,-75.2441 80.1505,-50.3729 97.7871,-33.2441 98.4427,-32.6074 99.116,-31.9696 99.8024,-31.3332"/>
<polygon fill="black" stroke="black" stroke-width="2" points="102.198,-33.8885 107.445,-24.6842 97.6031,-28.6074 102.198,-33.8885"/>
</g>
<!-- node0_null -->
<g id="node3" class="node"><title>node0_null</title>
<polygon fill="lightgrey" stroke="none" points="241.787,-324.737 187.787,-324.737 187.787,-299.751 241.787,-299.751 241.787,-324.737"/>
<text text-anchor="middle" x="214.787" y="-309.288" font-family="'/usr/share/fonts/truetype/wqy/wqy-microhei.ttc'" font-size="14.00">NULL</text>
</g>
<!-- node0&#45;&gt;node0_null -->
<g id="edge2" class="edge"><title>node0&#45;&gt;node0_null</title>
<path fill="none" stroke="black" stroke-width="2" d="M152.19,-312.244C160.18,-312.244 169.098,-312.244 177.611,-312.244"/>
<polygon fill="black" stroke="black" stroke-width="2" points="177.706,-315.744 187.706,-312.244 177.706,-308.744 177.706,-315.744"/>
</g>
<!-- node1_null -->
<g id="node5" class="node"><title>node1_null</title>
<polygon fill="lightgrey" stroke="none" points="241.787,-281.737 187.787,-281.737 187.787,-256.751 241.787,-256.751 241.787,-281.737"/>
<text text-anchor="middle" x="214.787" y="-266.288" font-family="'/usr/share/fonts/truetype/wqy/wqy-microhei.ttc'" font-size="14.00">NULL</text>
</g>
<!-- node1&#45;&gt;node1_null -->
<g id="edge4" class="edge"><title>node1&#45;&gt;node1_null</title>
<path fill="none" stroke="black" stroke-width="2" d="M152.19,-269.244C160.18,-269.244 169.098,-269.244 177.611,-269.244"/>
<polygon fill="black" stroke="black" stroke-width="2" points="177.706,-272.744 187.706,-269.244 177.706,-265.744 177.706,-272.744"/>
</g>
<!-- node3_null -->
<g id="node8" class="node"><title>node3_null</title>
<polygon fill="lightgrey" stroke="none" points="241.787,-195.737 187.787,-195.737 187.787,-170.751 241.787,-170.751 241.787,-195.737"/>
<text text-anchor="middle" x="214.787" y="-180.288" font-family="'/usr/share/fonts/truetype/wqy/wqy-microhei.ttc'" font-size="14.00">NULL</text>
</g>
<!-- node3&#45;&gt;node3_null -->
<g id="edge7" class="edge"><title>node3&#45;&gt;node3_null</title>
<path fill="none" stroke="black" stroke-width="2" d="M152.19,-183.244C160.18,-183.244 169.098,-183.244 177.611,-183.244"/>
<polygon fill="black" stroke="black" stroke-width="2" points="177.706,-186.744 187.706,-183.244 177.706,-179.744 177.706,-186.744"/>
</g>
<!-- node5_null -->
<g id="node11" class="node"><title>node5_null</title>
<polygon fill="lightgrey" stroke="none" points="241.787,-109.737 187.787,-109.737 187.787,-84.7509 241.787,-84.7509 241.787,-109.737"/>
<text text-anchor="middle" x="214.787" y="-94.2883" font-family="'/usr/share/fonts/truetype/wqy/wqy-microhei.ttc'" font-size="14.00">NULL</text>
</g>
<!-- node5&#45;&gt;node5_null -->
<g id="edge10" class="edge"><title>node5&#45;&gt;node5_null</title>
<path fill="none" stroke="black" stroke-width="2" d="M152.19,-97.2441C160.18,-97.2441 169.098,-97.2441 177.611,-97.2441"/>
<polygon fill="black" stroke="black" stroke-width="2" points="177.706,-100.744 187.706,-97.2441 177.706,-93.7442 177.706,-100.744"/>
</g>
</g>
</svg>
