<?xml version="1.0" encoding="UTF-8" standalone="no"?>
<!DOCTYPE svg PUBLIC "-//W3C//DTD SVG 1.1//EN"
 "http://www.w3.org/Graphics/SVG/1.1/DTD/svg11.dtd">
<!-- Generated by graphviz version 2.38.0 (20140413.2041)
 -->
<!-- Title: redis_hash Pages: 1 -->
<svg width="376pt" height="194pt"
 viewBox="0.00 0.00 375.99 193.82" xmlns="http://www.w3.org/2000/svg" xmlns:xlink="http://www.w3.org/1999/xlink">
<g id="graph0" class="graph" transform="scale(1 1) rotate(0) translate(4 189.817)">
<title>redis_hash</title>
<polygon fill="white" stroke="none" points="-4,4 -4,-189.817 371.994,-189.817 371.994,4 -4,4"/>
<!-- REDIS_HASH -->
<g id="node1" class="node"><title>REDIS_HASH</title>
<polygon fill="#95bbe3" stroke="none" points="240.52,-185.771 140.969,-185.771 140.969,-146.954 240.52,-146.954 240.52,-185.771"/>
<text text-anchor="middle" x="190.745" y="-170.617" font-family="'/usr/share/fonts/truetype/wqy/wqy-microhei.ttc'" font-size="14.00">哈希表</text>
<text text-anchor="middle" x="190.745" y="-156.197" font-family="'/usr/share/fonts/truetype/wqy/wqy-microhei.ttc'" font-size="14.00">REDIS_HASH</text>
</g>
<!-- REDIS_ENCODING_ZIPLIST -->
<g id="node2" class="node"><title>REDIS_ENCODING_ZIPLIST</title>
<polygon fill="#fadcad" stroke="none" points="189.735,-110.863 -0.245262,-110.863 -0.245262,-72.0458 189.735,-72.0458 189.735,-110.863"/>
<text text-anchor="middle" x="94.7446" y="-95.7083" font-family="'/usr/share/fonts/truetype/wqy/wqy-microhei.ttc'" font-size="14.00">压缩列表</text>
<text text-anchor="middle" x="94.7446" y="-81.2883" font-family="'/usr/share/fonts/truetype/wqy/wqy-microhei.ttc'" font-size="14.00">REDIS_ENCODING_ZIPLIST</text>
</g>
<!-- REDIS_HASH&#45;&gt;REDIS_ENCODING_ZIPLIST -->
<g id="edge1" class="edge"><title>REDIS_HASH&#45;&gt;REDIS_ENCODING_ZIPLIST</title>
<path fill="none" stroke="black" stroke-width="2" d="M166.271,-146.776C154.423,-137.778 140.034,-126.85 127.278,-117.162"/>
<polygon fill="black" stroke="black" stroke-width="2" points="129.254,-114.268 119.173,-111.007 125.02,-119.842 129.254,-114.268"/>
</g>
<!-- REDIS_ENCODING_HT -->
<g id="node3" class="node"><title>REDIS_ENCODING_HT</title>
<polygon fill="#fadcad" stroke="none" points="368.243,-110.863 207.246,-110.863 207.246,-72.0458 368.243,-72.0458 368.243,-110.863"/>
<text text-anchor="middle" x="287.745" y="-95.7083" font-family="'/usr/share/fonts/truetype/wqy/wqy-microhei.ttc'" font-size="14.00">字典</text>
<text text-anchor="middle" x="287.745" y="-81.2883" font-family="'/usr/share/fonts/truetype/wqy/wqy-microhei.ttc'" font-size="14.00">REDIS_ENCODING_HT</text>
</g>
<!-- REDIS_HASH&#45;&gt;REDIS_ENCODING_HT -->
<g id="edge2" class="edge"><title>REDIS_HASH&#45;&gt;REDIS_ENCODING_HT</title>
<path fill="none" stroke="black" stroke-width="2" d="M215.473,-146.776C227.444,-137.778 241.983,-126.85 254.873,-117.162"/>
<polygon fill="black" stroke="black" stroke-width="2" points="257.171,-119.813 263.062,-111.007 252.965,-114.217 257.171,-119.813"/>
</g>
<!-- ziplist -->
<g id="node4" class="node"><title>ziplist</title>
<polygon fill="lightgrey" stroke="none" points="122.933,-36 66.5563,-36 66.5563,-0 122.933,-0 122.933,-36"/>
<text text-anchor="middle" x="94.7446" y="-15.0441" font-family="'/usr/share/fonts/truetype/wqy/wqy-microhei.ttc'" font-size="14.00">ziplist</text>
</g>
<!-- REDIS_ENCODING_ZIPLIST&#45;&gt;ziplist -->
<g id="edge3" class="edge"><title>REDIS_ENCODING_ZIPLIST&#45;&gt;ziplist</title>
<path fill="none" stroke="black" stroke-width="2" d="M94.7446,-71.6804C94.7446,-64.005 94.7446,-54.9706 94.7446,-46.5715"/>
<polygon fill="black" stroke="black" stroke-width="2" points="98.2447,-46.4225 94.7446,-36.4225 91.2447,-46.4226 98.2447,-46.4225"/>
</g>
<!-- dict -->
<g id="node5" class="node"><title>dict</title>
<polygon fill="lightgrey" stroke="none" points="331.236,-36 244.253,-36 244.253,-0 331.236,-0 331.236,-36"/>
<text text-anchor="middle" x="287.745" y="-15.0441" font-family="'/usr/share/fonts/truetype/wqy/wqy-microhei.ttc'" font-size="14.00">dict.h/dict</text>
</g>
<!-- REDIS_ENCODING_HT&#45;&gt;dict -->
<g id="edge4" class="edge"><title>REDIS_ENCODING_HT&#45;&gt;dict</title>
<path fill="none" stroke="black" stroke-width="2" d="M287.745,-71.6804C287.745,-64.005 287.745,-54.9706 287.745,-46.5715"/>
<polygon fill="black" stroke="black" stroke-width="2" points="291.245,-46.4225 287.745,-36.4225 284.245,-46.4226 291.245,-46.4225"/>
</g>
</g>
</svg>
