<?xml version="1.0" encoding="UTF-8" standalone="no"?>
<!DOCTYPE svg PUBLIC "-//W3C//DTD SVG 1.1//EN"
 "http://www.w3.org/Graphics/SVG/1.1/DTD/svg11.dtd">
<!-- Generated by graphviz version 2.38.0 (20140413.2041)
 -->
<!-- Title: zset Pages: 1 -->
<svg width="554pt" height="246pt"
 viewBox="0.00 0.00 553.96 245.66" xmlns="http://www.w3.org/2000/svg" xmlns:xlink="http://www.w3.org/1999/xlink">
<g id="graph0" class="graph" transform="scale(1 1) rotate(0) translate(4 241.662)">
<title>zset</title>
<polygon fill="white" stroke="none" points="-4,4 -4,-241.662 549.965,-241.662 549.965,4 -4,4"/>
<!-- skiplist -->
<g id="node1" class="node"><title>skiplist</title>
<polygon fill="#f2f2f2" stroke="black" points="0,-40.7676 0,-237.162 86.9912,-237.162 86.9912,-40.7676 0,-40.7676"/>
<text text-anchor="middle" x="43.4956" y="-221.962" font-family="'/usr/share/fonts/truetype/wqy/wqy-microhei.ttc'" font-size="14.00">zskipNode</text>
<text text-anchor="middle" x="43.4956" y="-205.474" font-family="'/usr/share/fonts/truetype/wqy/wqy-microhei.ttc'" font-size="14.00">(head)</text>
<polyline fill="none" stroke="black" points="0,-196.186 86.9912,-196.186 "/>
<text text-anchor="middle" x="43.4956" y="-180.986" font-family="'/usr/share/fonts/truetype/wqy/wqy-microhei.ttc'" font-size="14.00"> </text>
<polyline fill="none" stroke="black" points="0,-171.697 86.9912,-171.697 "/>
<text text-anchor="middle" x="43.4956" y="-156.497" font-family="'/usr/share/fonts/truetype/wqy/wqy-microhei.ttc'" font-size="14.00"> </text>
<polyline fill="none" stroke="black" points="0,-147.209 86.9912,-147.209 "/>
<text text-anchor="middle" x="43.4956" y="-132.009" font-family="'/usr/share/fonts/truetype/wqy/wqy-microhei.ttc'" font-size="14.00"> </text>
<polyline fill="none" stroke="black" points="0,-122.721 86.9912,-122.721 "/>
<text text-anchor="middle" x="43.4956" y="-107.521" font-family="'/usr/share/fonts/truetype/wqy/wqy-microhei.ttc'" font-size="14.00">score</text>
<text text-anchor="middle" x="43.4956" y="-91.0324" font-family="'/usr/share/fonts/truetype/wqy/wqy-microhei.ttc'" font-size="14.00"> NULL</text>
<polyline fill="none" stroke="black" points="0,-81.7441 86.9912,-81.7441 "/>
<text text-anchor="middle" x="43.4956" y="-66.5441" font-family="'/usr/share/fonts/truetype/wqy/wqy-microhei.ttc'" font-size="14.00">robj</text>
<text text-anchor="middle" x="43.4956" y="-50.0559" font-family="'/usr/share/fonts/truetype/wqy/wqy-microhei.ttc'" font-size="14.00"> NULL</text>
</g>
<!-- six -->
<g id="node2" class="node"><title>six</title>
<polygon fill="#95bbe3" stroke="black" points="122.991,-41.0117 122.991,-220.918 209.982,-220.918 209.982,-41.0117 122.991,-41.0117"/>
<text text-anchor="middle" x="166.487" y="-205.718" font-family="'/usr/share/fonts/truetype/wqy/wqy-microhei.ttc'" font-size="14.00">zskipNode</text>
<polyline fill="none" stroke="black" points="122.991,-196.43 209.982,-196.43 "/>
<text text-anchor="middle" x="166.487" y="-181.23" font-family="'/usr/share/fonts/truetype/wqy/wqy-microhei.ttc'" font-size="14.00"> </text>
<polyline fill="none" stroke="black" points="122.991,-171.941 209.982,-171.941 "/>
<text text-anchor="middle" x="166.487" y="-156.741" font-family="'/usr/share/fonts/truetype/wqy/wqy-microhei.ttc'" font-size="14.00"> </text>
<polyline fill="none" stroke="black" points="122.991,-147.453 209.982,-147.453 "/>
<text text-anchor="middle" x="166.487" y="-132.253" font-family="'/usr/share/fonts/truetype/wqy/wqy-microhei.ttc'" font-size="14.00"> </text>
<polyline fill="none" stroke="black" points="122.991,-122.965 209.982,-122.965 "/>
<text text-anchor="middle" x="166.487" y="-107.765" font-family="'/usr/share/fonts/truetype/wqy/wqy-microhei.ttc'" font-size="14.00">score</text>
<text text-anchor="middle" x="166.487" y="-91.2766" font-family="'/usr/share/fonts/truetype/wqy/wqy-microhei.ttc'" font-size="14.00"> 6</text>
<polyline fill="none" stroke="black" points="122.991,-81.9883 209.982,-81.9883 "/>
<text text-anchor="middle" x="166.487" y="-66.7883" font-family="'/usr/share/fonts/truetype/wqy/wqy-microhei.ttc'" font-size="14.00">robj</text>
<text text-anchor="middle" x="166.487" y="-50.3" font-family="'/usr/share/fonts/truetype/wqy/wqy-microhei.ttc'" font-size="14.00"> x</text>
</g>
<!-- skiplist&#45;&gt;six -->
<g id="edge1" class="edge"><title>skiplist:3&#45;&gt;six:3</title>
<path fill="none" stroke="black" stroke-width="2" d="M86.9912,-183.965C98.9912,-183.965 104.241,-183.965 112.866,-183.965"/>
<polygon fill="black" stroke="black" stroke-width="2" points="112.991,-187.465 122.991,-183.965 112.991,-180.465 112.991,-187.465"/>
</g>
<!-- skiplist&#45;&gt;six -->
<g id="edge2" class="edge"><title>skiplist:2&#45;&gt;six:2</title>
<path fill="none" stroke="black" stroke-width="2" d="M86.9912,-158.965C98.9958,-158.965 104.24,-159.527 112.864,-159.809"/>
<polygon fill="black" stroke="black" stroke-width="2" points="112.938,-163.31 122.991,-159.965 113.046,-156.311 112.938,-163.31"/>
</g>
<!-- skiplist&#45;&gt;six -->
<g id="edge3" class="edge"><title>skiplist:1&#45;&gt;six:1</title>
<path fill="none" stroke="black" stroke-width="2" d="M86.9912,-134.965C98.9912,-134.965 104.241,-134.965 112.866,-134.965"/>
<polygon fill="black" stroke="black" stroke-width="2" points="112.991,-138.465 122.991,-134.965 112.991,-131.465 112.991,-138.465"/>
</g>
<!-- ten -->
<g id="node3" class="node"><title>ten</title>
<polygon fill="#95bbe3" stroke="black" points="245.982,-0.5 245.982,-131.43 332.974,-131.43 332.974,-0.5 245.982,-0.5"/>
<text text-anchor="middle" x="289.478" y="-116.23" font-family="'/usr/share/fonts/truetype/wqy/wqy-microhei.ttc'" font-size="14.00">zskipNode</text>
<polyline fill="none" stroke="black" points="245.982,-106.941 332.974,-106.941 "/>
<text text-anchor="middle" x="289.478" y="-91.7414" font-family="'/usr/share/fonts/truetype/wqy/wqy-microhei.ttc'" font-size="14.00"> </text>
<polyline fill="none" stroke="black" points="245.982,-82.4531 332.974,-82.4531 "/>
<text text-anchor="middle" x="289.478" y="-67.2531" font-family="'/usr/share/fonts/truetype/wqy/wqy-microhei.ttc'" font-size="14.00">score</text>
<text text-anchor="middle" x="289.478" y="-50.7648" font-family="'/usr/share/fonts/truetype/wqy/wqy-microhei.ttc'" font-size="14.00"> 10</text>
<polyline fill="none" stroke="black" points="245.982,-41.4766 332.974,-41.4766 "/>
<text text-anchor="middle" x="289.478" y="-26.2766" font-family="'/usr/share/fonts/truetype/wqy/wqy-microhei.ttc'" font-size="14.00">robj</text>
<text text-anchor="middle" x="289.478" y="-9.78828" font-family="'/usr/share/fonts/truetype/wqy/wqy-microhei.ttc'" font-size="14.00"> y</text>
</g>
<!-- six&#45;&gt;ten -->
<g id="edge4" class="edge"><title>six:1&#45;&gt;ten:1</title>
<path fill="none" stroke="black" stroke-width="2" d="M209.982,-134.965C229.789,-134.965 225.077,-107.533 236.455,-98.1036"/>
<polygon fill="black" stroke="black" stroke-width="2" points="237.58,-101.418 245.982,-94.9648 235.389,-94.7698 237.58,-101.418"/>
</g>
<!-- fiften -->
<g id="node4" class="node"><title>fiften</title>
<polygon fill="#95bbe3" stroke="black" points="368.974,-41.0117 368.974,-220.918 455.965,-220.918 455.965,-41.0117 368.974,-41.0117"/>
<text text-anchor="middle" x="412.469" y="-205.718" font-family="'/usr/share/fonts/truetype/wqy/wqy-microhei.ttc'" font-size="14.00">zskipNode</text>
<polyline fill="none" stroke="black" points="368.974,-196.43 455.965,-196.43 "/>
<text text-anchor="middle" x="412.469" y="-181.23" font-family="'/usr/share/fonts/truetype/wqy/wqy-microhei.ttc'" font-size="14.00"> </text>
<polyline fill="none" stroke="black" points="368.974,-171.941 455.965,-171.941 "/>
<text text-anchor="middle" x="412.469" y="-156.741" font-family="'/usr/share/fonts/truetype/wqy/wqy-microhei.ttc'" font-size="14.00"> </text>
<polyline fill="none" stroke="black" points="368.974,-147.453 455.965,-147.453 "/>
<text text-anchor="middle" x="412.469" y="-132.253" font-family="'/usr/share/fonts/truetype/wqy/wqy-microhei.ttc'" font-size="14.00"> </text>
<polyline fill="none" stroke="black" points="368.974,-122.965 455.965,-122.965 "/>
<text text-anchor="middle" x="412.469" y="-107.765" font-family="'/usr/share/fonts/truetype/wqy/wqy-microhei.ttc'" font-size="14.00">score</text>
<text text-anchor="middle" x="412.469" y="-91.2766" font-family="'/usr/share/fonts/truetype/wqy/wqy-microhei.ttc'" font-size="14.00"> 15</text>
<polyline fill="none" stroke="black" points="368.974,-81.9883 455.965,-81.9883 "/>
<text text-anchor="middle" x="412.469" y="-66.7883" font-family="'/usr/share/fonts/truetype/wqy/wqy-microhei.ttc'" font-size="14.00">robj</text>
<text text-anchor="middle" x="412.469" y="-50.3" font-family="'/usr/share/fonts/truetype/wqy/wqy-microhei.ttc'" font-size="14.00"> z</text>
</g>
<!-- six&#45;&gt;fiften -->
<g id="edge5" class="edge"><title>six:2&#45;&gt;fiften:2</title>
<path fill="none" stroke="black" stroke-width="2" d="M209.982,-159.965C277.057,-159.965 296.38,-159.965 358.605,-159.965"/>
<polygon fill="black" stroke="black" stroke-width="2" points="358.974,-163.465 368.974,-159.965 358.974,-156.465 358.974,-163.465"/>
</g>
<!-- six&#45;&gt;fiften -->
<g id="edge6" class="edge"><title>six:3&#45;&gt;fiften:3</title>
<path fill="none" stroke="black" stroke-width="2" d="M209.982,-183.965C277.057,-183.965 296.38,-183.965 358.605,-183.965"/>
<polygon fill="black" stroke="black" stroke-width="2" points="358.974,-187.465 368.974,-183.965 358.974,-180.465 358.974,-187.465"/>
</g>
<!-- ten&#45;&gt;fiften -->
<g id="edge7" class="edge"><title>ten:1&#45;&gt;fiften:1</title>
<path fill="none" stroke="black" stroke-width="2" d="M332.974,-94.9648C352.78,-94.9648 348.068,-122.396 359.447,-131.826"/>
<polygon fill="black" stroke="black" stroke-width="2" points="358.381,-135.16 368.974,-134.965 360.571,-128.511 358.381,-135.16"/>
</g>
<!-- null_1 -->
<g id="node5" class="node"><title>null_1</title>
<polygon fill="lightgrey" stroke="none" points="545.965,-123.965 491.965,-123.965 491.965,-87.9648 545.965,-87.9648 545.965,-123.965"/>
<text text-anchor="middle" x="518.965" y="-103.009" font-family="'/usr/share/fonts/truetype/wqy/wqy-microhei.ttc'" font-size="14.00">NULL</text>
</g>
<!-- fiften&#45;&gt;null_1 -->
<g id="edge8" class="edge"><title>fiften:1&#45;&gt;null_1</title>
<path fill="none" stroke="black" stroke-width="2" d="M455.965,-134.965C465.302,-134.965 474.749,-132.233 483.358,-128.445"/>
<polygon fill="black" stroke="black" stroke-width="2" points="484.92,-131.578 492.326,-124.001 481.812,-125.305 484.92,-131.578"/>
</g>
<!-- null_2 -->
<g id="node6" class="node"><title>null_2</title>
<polygon fill="lightgrey" stroke="none" points="545.965,-177.965 491.965,-177.965 491.965,-141.965 545.965,-141.965 545.965,-177.965"/>
<text text-anchor="middle" x="518.965" y="-157.009" font-family="'/usr/share/fonts/truetype/wqy/wqy-microhei.ttc'" font-size="14.00">NULL</text>
</g>
<!-- fiften&#45;&gt;null_2 -->
<g id="edge9" class="edge"><title>fiften:2&#45;&gt;null_2</title>
<path fill="none" stroke="black" stroke-width="2" d="M455.965,-159.965C464.214,-159.965 473.081,-159.965 481.457,-159.965"/>
<polygon fill="black" stroke="black" stroke-width="2" points="481.719,-163.465 491.719,-159.965 481.719,-156.465 481.719,-163.465"/>
</g>
<!-- null_3 -->
<g id="node7" class="node"><title>null_3</title>
<polygon fill="lightgrey" stroke="none" points="545.965,-231.965 491.965,-231.965 491.965,-195.965 545.965,-195.965 545.965,-231.965"/>
<text text-anchor="middle" x="518.965" y="-211.009" font-family="'/usr/share/fonts/truetype/wqy/wqy-microhei.ttc'" font-size="14.00">NULL</text>
</g>
<!-- fiften&#45;&gt;null_3 -->
<g id="edge10" class="edge"><title>fiften:3&#45;&gt;null_3</title>
<path fill="none" stroke="black" stroke-width="2" d="M455.965,-183.965C465.727,-183.965 475.569,-187.016 484.446,-191.172"/>
<polygon fill="black" stroke="black" stroke-width="2" points="482.823,-194.273 493.304,-195.822 486.076,-188.075 482.823,-194.273"/>
</g>
</g>
</svg>
