<?xml version="1.0" encoding="UTF-8" standalone="no"?>
<!DOCTYPE svg PUBLIC "-//W3C//DTD SVG 1.1//EN"
 "http://www.w3.org/Graphics/SVG/1.1/DTD/svg11.dtd">
<!-- Generated by graphviz version 2.38.0 (20140413.2041)
 -->
<!-- Title: new_subscribe Pages: 1 -->
<svg width="693pt" height="167pt"
 viewBox="0.00 0.00 692.76 167.46" xmlns="http://www.w3.org/2000/svg" xmlns:xlink="http://www.w3.org/1999/xlink">
<g id="graph0" class="graph" transform="scale(1 1) rotate(0) translate(4 163.465)">
<title>new_subscribe</title>
<polygon fill="white" stroke="none" points="-4,4 -4,-163.465 688.761,-163.465 688.761,4 -4,4"/>
<!-- pubsub -->
<g id="node1" class="node"><title>pubsub</title>
<polygon fill="#a8e270" stroke="black" points="0,-0.5 0,-147.43 132.573,-147.43 132.573,-0.5 0,-0.5"/>
<text text-anchor="middle" x="66.2866" y="-132.23" font-family="'/usr/share/fonts/truetype/wqy/wqy-microhei.ttc'" font-size="14.00">pubsub_channels</text>
<polyline fill="none" stroke="black" points="0,-122.941 132.573,-122.941 "/>
<text text-anchor="middle" x="66.2866" y="-107.741" font-family="'/usr/share/fonts/truetype/wqy/wqy-microhei.ttc'" font-size="14.00">channel1</text>
<polyline fill="none" stroke="black" points="0,-98.4531 132.573,-98.4531 "/>
<text text-anchor="middle" x="66.2866" y="-83.2531" font-family="'/usr/share/fonts/truetype/wqy/wqy-microhei.ttc'" font-size="14.00">channel2</text>
<polyline fill="none" stroke="black" points="0,-73.9648 132.573,-73.9648 "/>
<text text-anchor="middle" x="66.2866" y="-58.7648" font-family="'/usr/share/fonts/truetype/wqy/wqy-microhei.ttc'" font-size="14.00">channel3</text>
<polyline fill="none" stroke="black" points="0,-49.4766 132.573,-49.4766 "/>
<text text-anchor="middle" x="66.2866" y="-34.2766" font-family="'/usr/share/fonts/truetype/wqy/wqy-microhei.ttc'" font-size="14.00">...</text>
<polyline fill="none" stroke="black" points="0,-24.9883 132.573,-24.9883 "/>
<text text-anchor="middle" x="66.2866" y="-9.78828" font-family="'/usr/share/fonts/truetype/wqy/wqy-microhei.ttc'" font-size="14.00">channelN</text>
</g>
<!-- client2 -->
<g id="node4" class="node"><title>client2</title>
<polygon fill="#95bbe3" stroke="black" points="168.573,-122.965 168.573,-158.965 230.415,-158.965 230.415,-122.965 168.573,-122.965"/>
<text text-anchor="middle" x="199.494" y="-138.265" font-family="'/usr/share/fonts/truetype/wqy/wqy-microhei.ttc'" font-size="14.00">client2</text>
</g>
<!-- pubsub&#45;&gt;client2 -->
<g id="edge1" class="edge"><title>pubsub:channel1&#45;&gt;client2</title>
<path fill="none" stroke="black" stroke-width="2" d="M132.573,-110.965C142.947,-110.965 153.48,-114.08 162.994,-118.304"/>
<polygon fill="black" stroke="black" stroke-width="2" points="161.608,-121.523 172.123,-122.822 164.713,-115.249 161.608,-121.523"/>
</g>
<!-- client7 -->
<g id="node11" class="node"><title>client7</title>
<polygon fill="#95bbe3" stroke="black" points="168.573,-67.9648 168.573,-103.965 230.415,-103.965 230.415,-67.9648 168.573,-67.9648"/>
<text text-anchor="middle" x="199.494" y="-83.2648" font-family="'/usr/share/fonts/truetype/wqy/wqy-microhei.ttc'" font-size="14.00">client7</text>
</g>
<!-- pubsub&#45;&gt;client7 -->
<g id="edge6" class="edge"><title>pubsub:channel2&#45;&gt;client7</title>
<path fill="none" stroke="black" stroke-width="2" d="M132.573,-85.9648C140.872,-85.9648 149.759,-85.9648 158.235,-85.9648"/>
<polygon fill="black" stroke="black" stroke-width="2" points="158.302,-89.4649 168.302,-85.9648 158.302,-82.4649 158.302,-89.4649"/>
</g>
<!-- client3 -->
<g id="node12" class="node"><title>client3</title>
<polygon fill="#95bbe3" stroke="black" points="168.573,-12.9648 168.573,-48.9648 230.415,-48.9648 230.415,-12.9648 168.573,-12.9648"/>
<text text-anchor="middle" x="199.494" y="-28.2648" font-family="'/usr/share/fonts/truetype/wqy/wqy-microhei.ttc'" font-size="14.00">client3</text>
</g>
<!-- pubsub&#45;&gt;client3 -->
<g id="edge9" class="edge"><title>pubsub:channel3&#45;&gt;client3</title>
<path fill="none" stroke="black" stroke-width="2" d="M132.573,-61.9648C143.499,-61.9648 154.558,-58.4345 164.416,-53.7566"/>
<polygon fill="black" stroke="black" stroke-width="2" points="166.237,-56.7531 173.456,-48.9977 162.976,-50.559 166.237,-56.7531"/>
</g>
<!-- client1 -->
<g id="node2" class="node"><title>client1</title>
<polygon fill="#95bbe3" stroke="black" points="399.667,-122.965 399.667,-158.965 461.509,-158.965 461.509,-122.965 399.667,-122.965"/>
<text text-anchor="middle" x="430.588" y="-138.265" font-family="'/usr/share/fonts/truetype/wqy/wqy-microhei.ttc'" font-size="14.00">client1</text>
</g>
<!-- client10086 -->
<g id="node5" class="node"><title>client10086</title>
<polygon fill="#ffc1c1" stroke="black" points="497.509,-122.965 497.509,-158.965 594.761,-158.965 594.761,-122.965 497.509,-122.965"/>
<text text-anchor="middle" x="546.135" y="-138.265" font-family="'/usr/share/fonts/truetype/wqy/wqy-microhei.ttc'" font-size="14.00">client10086</text>
</g>
<!-- client1&#45;&gt;client10086 -->
<g id="edge4" class="edge"><title>client1&#45;&gt;client10086</title>
<path fill="none" stroke="black" stroke-width="2" d="M461.718,-140.965C469.557,-140.965 478.273,-140.965 487.03,-140.965"/>
<polygon fill="black" stroke="black" stroke-width="2" points="487.28,-144.465 497.28,-140.965 487.28,-137.465 487.28,-144.465"/>
</g>
<!-- client5 -->
<g id="node3" class="node"><title>client5</title>
<polygon fill="#95bbe3" stroke="black" points="284.12,-122.965 284.12,-158.965 345.962,-158.965 345.962,-122.965 284.12,-122.965"/>
<text text-anchor="middle" x="315.041" y="-138.265" font-family="'/usr/share/fonts/truetype/wqy/wqy-microhei.ttc'" font-size="14.00">client5</text>
</g>
<!-- client5&#45;&gt;client1 -->
<g id="edge3" class="edge"><title>client5&#45;&gt;client1</title>
<path fill="none" stroke="black" stroke-width="2" d="M346.171,-140.965C359.389,-140.965 375.097,-140.965 389.299,-140.965"/>
<polygon fill="black" stroke="black" stroke-width="2" points="389.317,-144.465 399.317,-140.965 389.317,-137.465 389.317,-144.465"/>
</g>
<!-- client2&#45;&gt;client5 -->
<g id="edge2" class="edge"><title>client2&#45;&gt;client5</title>
<path fill="none" stroke="black" stroke-width="2" d="M230.625,-140.965C243.842,-140.965 259.55,-140.965 273.752,-140.965"/>
<polygon fill="black" stroke="black" stroke-width="2" points="273.77,-144.465 283.77,-140.965 273.77,-137.465 273.77,-144.465"/>
</g>
<!-- null_1 -->
<g id="node8" class="node"><title>null_1</title>
<polygon fill="lightgrey" stroke="none" points="684.761,-158.965 630.761,-158.965 630.761,-122.965 684.761,-122.965 684.761,-158.965"/>
<text text-anchor="middle" x="657.761" y="-138.009" font-family="'/usr/share/fonts/truetype/wqy/wqy-microhei.ttc'" font-size="14.00">NULL</text>
</g>
<!-- client10086&#45;&gt;null_1 -->
<g id="edge5" class="edge"><title>client10086&#45;&gt;null_1</title>
<path fill="none" stroke="black" stroke-width="2" d="M594.899,-140.965C603.405,-140.965 612.14,-140.965 620.268,-140.965"/>
<polygon fill="black" stroke="black" stroke-width="2" points="620.533,-144.465 630.533,-140.965 620.533,-137.465 620.533,-144.465"/>
</g>
<!-- client10086_1 -->
<g id="node6" class="node"><title>client10086_1</title>
<polygon fill="#ffc1c1" stroke="black" points="266.415,-67.9648 266.415,-103.965 363.667,-103.965 363.667,-67.9648 266.415,-67.9648"/>
<text text-anchor="middle" x="315.041" y="-83.2648" font-family="'/usr/share/fonts/truetype/wqy/wqy-microhei.ttc'" font-size="14.00">client10086</text>
</g>
<!-- null_2 -->
<g id="node9" class="node"><title>null_2</title>
<polygon fill="lightgrey" stroke="none" points="457.588,-103.965 403.588,-103.965 403.588,-67.9648 457.588,-67.9648 457.588,-103.965"/>
<text text-anchor="middle" x="430.588" y="-83.009" font-family="'/usr/share/fonts/truetype/wqy/wqy-microhei.ttc'" font-size="14.00">NULL</text>
</g>
<!-- client10086_1&#45;&gt;null_2 -->
<g id="edge8" class="edge"><title>client10086_1&#45;&gt;null_2</title>
<path fill="none" stroke="black" stroke-width="2" d="M363.866,-85.9648C373.73,-85.9648 383.964,-85.9648 393.335,-85.9648"/>
<polygon fill="black" stroke="black" stroke-width="2" points="393.485,-89.4649 403.485,-85.9648 393.484,-82.4649 393.485,-89.4649"/>
</g>
<!-- client10086_2 -->
<g id="node7" class="node"><title>client10086_2</title>
<polygon fill="#ffc1c1" stroke="black" points="497.509,-12.9648 497.509,-48.9648 594.761,-48.9648 594.761,-12.9648 497.509,-12.9648"/>
<text text-anchor="middle" x="546.135" y="-28.2648" font-family="'/usr/share/fonts/truetype/wqy/wqy-microhei.ttc'" font-size="14.00">client10086</text>
</g>
<!-- null_3 -->
<g id="node10" class="node"><title>null_3</title>
<polygon fill="lightgrey" stroke="none" points="684.761,-48.9648 630.761,-48.9648 630.761,-12.9648 684.761,-12.9648 684.761,-48.9648"/>
<text text-anchor="middle" x="657.761" y="-28.009" font-family="'/usr/share/fonts/truetype/wqy/wqy-microhei.ttc'" font-size="14.00">NULL</text>
</g>
<!-- client10086_2&#45;&gt;null_3 -->
<g id="edge13" class="edge"><title>client10086_2&#45;&gt;null_3</title>
<path fill="none" stroke="black" stroke-width="2" d="M594.899,-30.9648C603.405,-30.9648 612.14,-30.9648 620.268,-30.9648"/>
<polygon fill="black" stroke="black" stroke-width="2" points="620.533,-34.4649 630.533,-30.9648 620.533,-27.4649 620.533,-34.4649"/>
</g>
<!-- client7&#45;&gt;client10086_1 -->
<g id="edge7" class="edge"><title>client7&#45;&gt;client10086_1</title>
<path fill="none" stroke="black" stroke-width="2" d="M230.625,-85.9648C238.463,-85.9648 247.179,-85.9648 255.936,-85.9648"/>
<polygon fill="black" stroke="black" stroke-width="2" points="256.186,-89.4649 266.186,-85.9648 256.186,-82.4649 256.186,-89.4649"/>
</g>
<!-- client4 -->
<g id="node13" class="node"><title>client4</title>
<polygon fill="#95bbe3" stroke="black" points="284.12,-12.9648 284.12,-48.9648 345.962,-48.9648 345.962,-12.9648 284.12,-12.9648"/>
<text text-anchor="middle" x="315.041" y="-28.2648" font-family="'/usr/share/fonts/truetype/wqy/wqy-microhei.ttc'" font-size="14.00">client4</text>
</g>
<!-- client3&#45;&gt;client4 -->
<g id="edge10" class="edge"><title>client3&#45;&gt;client4</title>
<path fill="none" stroke="black" stroke-width="2" d="M230.625,-30.9648C243.842,-30.9648 259.55,-30.9648 273.752,-30.9648"/>
<polygon fill="black" stroke="black" stroke-width="2" points="273.77,-34.4649 283.77,-30.9648 273.77,-27.4649 273.77,-34.4649"/>
</g>
<!-- client6 -->
<g id="node14" class="node"><title>client6</title>
<polygon fill="#95bbe3" stroke="black" points="399.667,-12.9648 399.667,-48.9648 461.509,-48.9648 461.509,-12.9648 399.667,-12.9648"/>
<text text-anchor="middle" x="430.588" y="-28.2648" font-family="'/usr/share/fonts/truetype/wqy/wqy-microhei.ttc'" font-size="14.00">client6</text>
</g>
<!-- client4&#45;&gt;client6 -->
<g id="edge11" class="edge"><title>client4&#45;&gt;client6</title>
<path fill="none" stroke="black" stroke-width="2" d="M346.171,-30.9648C359.389,-30.9648 375.097,-30.9648 389.299,-30.9648"/>
<polygon fill="black" stroke="black" stroke-width="2" points="389.317,-34.4649 399.317,-30.9648 389.317,-27.4649 389.317,-34.4649"/>
</g>
<!-- client6&#45;&gt;client10086_2 -->
<g id="edge12" class="edge"><title>client6&#45;&gt;client10086_2</title>
<path fill="none" stroke="black" stroke-width="2" d="M461.718,-30.9648C469.557,-30.9648 478.273,-30.9648 487.03,-30.9648"/>
<polygon fill="black" stroke="black" stroke-width="2" points="487.28,-34.4649 497.28,-30.9648 487.28,-27.4649 487.28,-34.4649"/>
</g>
</g>
</svg>
