<?xml version="1.0" encoding="UTF-8" standalone="no"?>
<!DOCTYPE svg PUBLIC "-//W3C//DTD SVG 1.1//EN"
 "http://www.w3.org/Graphics/SVG/1.1/DTD/svg11.dtd">
<!-- Generated by graphviz version 2.38.0 (20140413.2041)
 -->
<!-- Title: command_poly Pages: 1 -->
<svg width="467pt" height="609pt"
 viewBox="0.00 0.00 467.22 608.58" xmlns="http://www.w3.org/2000/svg" xmlns:xlink="http://www.w3.org/1999/xlink">
<g id="graph0" class="graph" transform="scale(1 1) rotate(0) translate(4 604.578)">
<title>command_poly</title>
<polygon fill="white" stroke="none" points="-4,4 -4,-604.578 463.217,-604.578 463.217,4 -4,4"/>
<!-- lpop -->
<g id="node1" class="node"><title>lpop</title>
<polygon fill="#a8e270" stroke="none" points="192.599,-600.578 114.948,-600.578 114.948,-564.578 192.599,-564.578 192.599,-600.578"/>
<text text-anchor="middle" x="153.773" y="-579.622" font-family="'/usr/share/fonts/truetype/wqy/wqy-microhei.ttc'" font-size="14.00">LPOP key</text>
</g>
<!-- get_key_obj_from_db -->
<g id="node2" class="node"><title>get_key_obj_from_db</title>
<polygon fill="lightgrey" stroke="none" points="247.125,-527.486 60.4215,-527.486 60.4215,-485.852 247.125,-485.852 247.125,-527.486"/>
<text text-anchor="middle" x="153.773" y="-512.378" font-family="'/usr/share/fonts/truetype/wqy/wqy-microhei.ttc'" font-size="14.00">Redis 从数据库中查找 key </text>
<text text-anchor="middle" x="153.773" y="-495.469" font-family="'/usr/share/fonts/truetype/wqy/wqy-microhei.ttc'" font-size="14.00">对应的 redisObject 结构</text>
</g>
<!-- lpop&#45;&gt;get_key_obj_from_db -->
<g id="edge1" class="edge"><title>lpop&#45;&gt;get_key_obj_from_db</title>
<path fill="none" stroke="black" stroke-width="2" d="M153.773,-564.436C153.773,-556.528 153.773,-546.902 153.773,-537.84"/>
<polygon fill="black" stroke="black" stroke-width="2" points="157.274,-537.597 153.773,-527.597 150.274,-537.597 157.274,-537.597"/>
</g>
<!-- is_obj_nil_or_not -->
<g id="node3" class="node"><title>is_obj_nil_or_not</title>
<polygon fill="#95bbe3" stroke="black" points="153.773,-448.761 13.0419,-430.761 153.773,-412.761 294.505,-430.761 153.773,-448.761"/>
<text text-anchor="middle" x="153.773" y="-428.015" font-family="'/usr/share/fonts/truetype/wqy/wqy-microhei.ttc'" font-size="14.00">数据库返回 NULL ？</text>
</g>
<!-- get_key_obj_from_db&#45;&gt;is_obj_nil_or_not -->
<g id="edge2" class="edge"><title>get_key_obj_from_db&#45;&gt;is_obj_nil_or_not</title>
<path fill="none" stroke="black" stroke-width="2" d="M153.773,-485.474C153.773,-477.33 153.773,-467.81 153.773,-459.064"/>
<polygon fill="black" stroke="black" stroke-width="2" points="157.274,-458.926 153.773,-448.926 150.274,-458.926 157.274,-458.926"/>
</g>
<!-- return_nil -->
<g id="node4" class="node"><title>return_nil</title>
<polygon fill="lightgrey" stroke="none" points="134.773,-335.174 48.7734,-335.174 48.7734,-295.515 134.773,-295.515 134.773,-335.174"/>
<text text-anchor="middle" x="91.7734" y="-319.809" font-family="'/usr/share/fonts/truetype/wqy/wqy-microhei.ttc'" font-size="14.00">key 不存在</text>
<text text-anchor="middle" x="91.7734" y="-302.9" font-family="'/usr/share/fonts/truetype/wqy/wqy-microhei.ttc'" font-size="14.00">返回空回复</text>
</g>
<!-- is_obj_nil_or_not&#45;&gt;return_nil -->
<g id="edge3" class="edge"><title>is_obj_nil_or_not&#45;&gt;return_nil</title>
<path fill="none" stroke="black" stroke-width="2" d="M144.89,-413.511C134.988,-395.396 118.802,-365.788 106.896,-344.009"/>
<polygon fill="black" stroke="black" stroke-width="2" points="109.954,-342.306 102.087,-335.21 103.812,-345.664 109.954,-342.306"/>
<text text-anchor="middle" x="140.773" y="-383.561" font-family="Times,serif" font-size="14.00">是</text>
</g>
<!-- is_type_list_or_not -->
<g id="node5" class="node"><title>is_type_list_or_not</title>
<polygon fill="#95bbe3" stroke="black" points="305.773,-356.978 152.387,-315.345 305.773,-273.711 459.16,-315.345 305.773,-356.978"/>
<text text-anchor="middle" x="305.773" y="-321.053" font-family="'/usr/share/fonts/truetype/wqy/wqy-microhei.ttc'" font-size="14.00">redisObject 的类型为</text>
<text text-anchor="middle" x="305.773" y="-304.145" font-family="'/usr/share/fonts/truetype/wqy/wqy-microhei.ttc'" font-size="14.00">REDIS_LIST ？</text>
</g>
<!-- is_obj_nil_or_not&#45;&gt;is_type_list_or_not -->
<g id="edge4" class="edge"><title>is_obj_nil_or_not&#45;&gt;is_type_list_or_not</title>
<path fill="none" stroke="black" stroke-width="2" d="M173.334,-415.166C194.497,-399.375 229.037,-373.602 257.538,-352.336"/>
<polygon fill="black" stroke="black" stroke-width="2" points="259.861,-354.969 265.783,-346.184 255.675,-349.359 259.861,-354.969"/>
<text text-anchor="middle" x="231.773" y="-383.561" font-family="Times,serif" font-size="14.00">否</text>
</g>
<!-- call_poly_pop_function -->
<g id="node6" class="node"><title>call_poly_pop_function</title>
<polygon fill="#95bbe3" stroke="black" points="164.773,-216.264 32.6808,-198.264 164.773,-180.264 296.866,-198.264 164.773,-216.264"/>
<text text-anchor="middle" x="164.773" y="-195.518" font-family="'/usr/share/fonts/truetype/wqy/wqy-microhei.ttc'" font-size="14.00">调用多态 pop 函数</text>
</g>
<!-- is_type_list_or_not&#45;&gt;call_poly_pop_function -->
<g id="edge5" class="edge"><title>is_type_list_or_not&#45;&gt;call_poly_pop_function</title>
<path fill="none" stroke="black" stroke-width="2" d="M268.358,-283.807C243.906,-263.85 212.587,-238.288 190.819,-220.521"/>
<polygon fill="black" stroke="black" stroke-width="2" points="192.938,-217.733 182.978,-214.122 188.512,-223.156 192.938,-217.733"/>
<text text-anchor="middle" x="237.773" y="-244.328" font-family="Times,serif" font-size="14.00">是</text>
</g>
<!-- return_type_error -->
<g id="node7" class="node"><title>return_type_error</title>
<polygon fill="lightgrey" stroke="none" points="414.773,-218.094 314.773,-218.094 314.773,-178.434 414.773,-178.434 414.773,-218.094"/>
<text text-anchor="middle" x="364.773" y="-202.728" font-family="'/usr/share/fonts/truetype/wqy/wqy-microhei.ttc'" font-size="14.00">key 不是列表</text>
<text text-anchor="middle" x="364.773" y="-185.82" font-family="'/usr/share/fonts/truetype/wqy/wqy-microhei.ttc'" font-size="14.00">返回类型错误</text>
</g>
<!-- is_type_list_or_not&#45;&gt;return_type_error -->
<g id="edge6" class="edge"><title>is_type_list_or_not&#45;&gt;return_type_error</title>
<path fill="none" stroke="black" stroke-width="2" d="M324.118,-278.563C332.634,-261.953 342.605,-242.505 350.54,-227.026"/>
<polygon fill="black" stroke="black" stroke-width="2" points="353.74,-228.457 355.187,-217.962 347.511,-225.264 353.74,-228.457"/>
<text text-anchor="middle" x="351.773" y="-244.328" font-family="Times,serif" font-size="14.00">否</text>
</g>
<!-- pop_from_ziplist -->
<g id="node8" class="node"><title>pop_from_ziplist</title>
<polygon fill="lightgrey" stroke="none" points="177.321,-109 0.225986,-109 0.225986,-73 177.321,-73 177.321,-109"/>
<text text-anchor="middle" x="88.7734" y="-88.2541" font-family="'/usr/share/fonts/truetype/wqy/wqy-microhei.ttc'" font-size="14.00">从 ziplist 中弹出最左节点</text>
</g>
<!-- call_poly_pop_function&#45;&gt;pop_from_ziplist -->
<g id="edge7" class="edge"><title>call_poly_pop_function&#45;&gt;pop_from_ziplist</title>
<path fill="none" stroke="black" stroke-width="2" d="M153.559,-181.732C141.402,-164.894 121.803,-137.748 107.341,-117.717"/>
<polygon fill="black" stroke="black" stroke-width="2" points="109.991,-115.408 101.299,-109.349 104.315,-119.506 109.991,-115.408"/>
<text text-anchor="middle" x="180.773" y="-149.4" font-family="Times,serif" font-size="14.00">对象的编码为</text>
<text text-anchor="middle" x="180.773" y="-129.8" font-family="Times,serif" font-size="14.00">ZIPLIST</text>
</g>
<!-- pop_from_linkedlist -->
<g id="node9" class="node"><title>pop_from_linkedlist</title>
<polygon fill="lightgrey" stroke="none" points="379.773,-109 195.773,-109 195.773,-73 379.773,-73 379.773,-109"/>
<text text-anchor="middle" x="287.773" y="-87.01" font-family="'/usr/share/fonts/truetype/wqy/wqy-microhei.ttc'" font-size="14.00">从双端链表中弹出最左节点</text>
</g>
<!-- call_poly_pop_function&#45;&gt;pop_from_linkedlist -->
<g id="edge8" class="edge"><title>call_poly_pop_function&#45;&gt;pop_from_linkedlist</title>
<path fill="none" stroke="black" stroke-width="2" d="M191.601,-183.795C202.98,-177.49 216.059,-169.425 226.773,-160.6 242.258,-147.846 257.263,-131.049 268.516,-117.268"/>
<polygon fill="black" stroke="black" stroke-width="2" points="271.502,-119.138 275.009,-109.141 266.033,-114.769 271.502,-119.138"/>
<text text-anchor="middle" x="301.773" y="-149.4" font-family="Times,serif" font-size="14.00">对象的编码为</text>
<text text-anchor="middle" x="301.773" y="-129.8" font-family="Times,serif" font-size="14.00">LINKEDLIST</text>
</g>
<!-- return_pop_item -->
<g id="node10" class="node"><title>return_pop_item</title>
<polygon fill="lightgrey" stroke="none" points="273.773,-36 145.773,-36 145.773,-0 273.773,-0 273.773,-36"/>
<text text-anchor="middle" x="209.773" y="-14.01" font-family="'/usr/share/fonts/truetype/wqy/wqy-microhei.ttc'" font-size="14.00">返回被弹出的元素</text>
</g>
<!-- pop_from_ziplist&#45;&gt;return_pop_item -->
<g id="edge9" class="edge"><title>pop_from_ziplist&#45;&gt;return_pop_item</title>
<path fill="none" stroke="black" stroke-width="2" d="M117.756,-72.9937C133.95,-63.4914 154.324,-51.5363 171.782,-41.2924"/>
<polygon fill="black" stroke="black" stroke-width="2" points="173.755,-44.1932 180.608,-36.1136 170.212,-38.1558 173.755,-44.1932"/>
</g>
<!-- pop_from_linkedlist&#45;&gt;return_pop_item -->
<g id="edge10" class="edge"><title>pop_from_linkedlist&#45;&gt;return_pop_item</title>
<path fill="none" stroke="black" stroke-width="2" d="M268.892,-72.8129C259.023,-63.8302 246.789,-52.6933 236.014,-42.8856"/>
<polygon fill="black" stroke="black" stroke-width="2" points="238.232,-40.172 228.481,-36.0288 233.52,-45.3486 238.232,-40.172"/>
</g>
</g>
</svg>
