<?xml version="1.0" encoding="UTF-8" standalone="no"?>
<!DOCTYPE svg PUBLIC "-//W3C//DTD SVG 1.1//EN"
 "http://www.w3.org/Graphics/SVG/1.1/DTD/svg11.dtd">
<!-- Generated by graphviz version 2.38.0 (20140413.2041)
 -->
<!-- Title: expires Pages: 1 -->
<svg width="379pt" height="237pt"
 viewBox="0.00 0.00 379.36 236.93" xmlns="http://www.w3.org/2000/svg" xmlns:xlink="http://www.w3.org/1999/xlink">
<g id="graph0" class="graph" transform="scale(1 1) rotate(0) translate(4 232.93)">
<title>expires</title>
<polygon fill="white" stroke="none" points="-4,4 -4,-232.93 375.364,-232.93 375.364,4 -4,4"/>
<!-- redisDb -->
<g id="node1" class="node"><title>redisDb</title>
<polygon fill="#a8e270" stroke="black" points="0,-105.988 0,-228.43 68.1582,-228.43 68.1582,-105.988 0,-105.988"/>
<text text-anchor="middle" x="34.0791" y="-213.23" font-family="'/usr/share/fonts/truetype/wqy/wqy-microhei.ttc'" font-size="14.00">redisDb</text>
<polyline fill="none" stroke="black" points="0,-203.941 68.1582,-203.941 "/>
<text text-anchor="middle" x="34.0791" y="-188.741" font-family="'/usr/share/fonts/truetype/wqy/wqy-microhei.ttc'" font-size="14.00">id</text>
<polyline fill="none" stroke="black" points="0,-179.453 68.1582,-179.453 "/>
<text text-anchor="middle" x="34.0791" y="-164.253" font-family="'/usr/share/fonts/truetype/wqy/wqy-microhei.ttc'" font-size="14.00">...</text>
<polyline fill="none" stroke="black" points="0,-154.965 68.1582,-154.965 "/>
<text text-anchor="middle" x="34.0791" y="-139.765" font-family="'/usr/share/fonts/truetype/wqy/wqy-microhei.ttc'" font-size="14.00">expires</text>
<polyline fill="none" stroke="black" points="0,-130.477 68.1582,-130.477 "/>
<text text-anchor="middle" x="34.0791" y="-115.277" font-family="'/usr/share/fonts/truetype/wqy/wqy-microhei.ttc'" font-size="14.00">...</text>
</g>
<!-- expires -->
<g id="node2" class="node"><title>expires</title>
<polygon fill="#95bbe3" stroke="black" points="104.158,-0.5 104.158,-155.918 204.281,-155.918 204.281,-0.5 104.158,-0.5"/>
<text text-anchor="middle" x="154.22" y="-140.718" font-family="'/usr/share/fonts/truetype/wqy/wqy-microhei.ttc'" font-size="14.00">dict</text>
<polyline fill="none" stroke="black" points="104.158,-131.43 204.281,-131.43 "/>
<text text-anchor="middle" x="154.22" y="-116.23" font-family="'/usr/share/fonts/truetype/wqy/wqy-microhei.ttc'" font-size="14.00">StringObject</text>
<text text-anchor="middle" x="154.22" y="-99.7414" font-family="'/usr/share/fonts/truetype/wqy/wqy-microhei.ttc'" font-size="14.00"> &quot;number&quot;</text>
<polyline fill="none" stroke="black" points="104.158,-90.4531 204.281,-90.4531 "/>
<text text-anchor="middle" x="154.22" y="-75.2531" font-family="'/usr/share/fonts/truetype/wqy/wqy-microhei.ttc'" font-size="14.00">NULL</text>
<polyline fill="none" stroke="black" points="104.158,-65.9648 204.281,-65.9648 "/>
<text text-anchor="middle" x="154.22" y="-50.7648" font-family="'/usr/share/fonts/truetype/wqy/wqy-microhei.ttc'" font-size="14.00">StringObject</text>
<text text-anchor="middle" x="154.22" y="-34.2766" font-family="'/usr/share/fonts/truetype/wqy/wqy-microhei.ttc'" font-size="14.00"> &quot;book&quot;</text>
<polyline fill="none" stroke="black" points="104.158,-24.9883 204.281,-24.9883 "/>
<text text-anchor="middle" x="154.22" y="-9.78828" font-family="'/usr/share/fonts/truetype/wqy/wqy-microhei.ttc'" font-size="14.00">NULL</text>
</g>
<!-- redisDb&#45;&gt;expires -->
<g id="edge1" class="edge"><title>redisDb:expires&#45;&gt;expires:head</title>
<path fill="none" stroke="black" stroke-width="2" d="M68.1582,-143.209C80.1582,-143.209 85.4082,-143.209 94.0332,-143.209"/>
<polygon fill="black" stroke="black" stroke-width="2" points="94.1582,-146.709 104.158,-143.209 94.1582,-139.709 94.1582,-146.709"/>
</g>
<!-- expire_of_number -->
<g id="node3" class="node"><title>expire_of_number</title>
<polygon fill="lightgrey" stroke="black" points="240.281,-75.7207 240.281,-124.697 371.364,-124.697 371.364,-75.7207 240.281,-75.7207"/>
<text text-anchor="middle" x="305.823" y="-109.497" font-family="'/usr/share/fonts/truetype/wqy/wqy-microhei.ttc'" font-size="14.00">long long</text>
<polyline fill="none" stroke="black" points="240.281,-100.209 371.364,-100.209 "/>
<text text-anchor="middle" x="305.823" y="-85.009" font-family="'/usr/share/fonts/truetype/wqy/wqy-microhei.ttc'" font-size="14.00">1360454400000</text>
</g>
<!-- expires&#45;&gt;expire_of_number -->
<g id="edge2" class="edge"><title>expires:number&#45;&gt;expire_of_number:head</title>
<path fill="none" stroke="black" stroke-width="2" d="M204.281,-111.209C216.286,-111.209 221.53,-111.771 230.155,-112.053"/>
<polygon fill="black" stroke="black" stroke-width="2" points="230.228,-115.554 240.281,-112.209 230.336,-108.555 230.228,-115.554"/>
</g>
<!-- expire_of_book -->
<g id="node4" class="node"><title>expire_of_book</title>
<polygon fill="lightgrey" stroke="black" points="240.281,-7.7207 240.281,-56.6973 371.364,-56.6973 371.364,-7.7207 240.281,-7.7207"/>
<text text-anchor="middle" x="305.823" y="-41.4973" font-family="'/usr/share/fonts/truetype/wqy/wqy-microhei.ttc'" font-size="14.00">long long</text>
<polyline fill="none" stroke="black" points="240.281,-32.209 371.364,-32.209 "/>
<text text-anchor="middle" x="305.823" y="-17.009" font-family="'/usr/share/fonts/truetype/wqy/wqy-microhei.ttc'" font-size="14.00">1360800000000</text>
</g>
<!-- expires&#45;&gt;expire_of_book -->
<g id="edge3" class="edge"><title>expires:book&#45;&gt;expire_of_book:head</title>
<path fill="none" stroke="black" stroke-width="2" d="M204.281,-45.209C216.286,-45.209 221.53,-44.6465 230.155,-44.3652"/>
<polygon fill="black" stroke="black" stroke-width="2" points="230.336,-47.8629 240.281,-44.209 230.228,-40.8638 230.336,-47.8629"/>
</g>
</g>
</svg>
