<?xml version="1.0" encoding="UTF-8" standalone="no"?>
<!DOCTYPE svg PUBLIC "-//W3C//DTD SVG 1.1//EN"
 "http://www.w3.org/Graphics/SVG/1.1/DTD/svg11.dtd">
<!-- Generated by graphviz version 2.38.0 (20140413.2041)
 -->
<!-- Title: send_message_to_subscriber Pages: 1 -->
<svg width="230pt" height="203pt"
 viewBox="0.00 0.00 229.84 203.00" xmlns="http://www.w3.org/2000/svg" xmlns:xlink="http://www.w3.org/1999/xlink">
<g id="graph0" class="graph" transform="scale(1 1) rotate(0) translate(4 199)">
<title>send_message_to_subscriber</title>
<polygon fill="white" stroke="none" points="-4,4 -4,-199 225.842,-199 225.842,4 -4,4"/>
<!-- message -->
<g id="node1" class="node"><title>message</title>
<polygon fill="#fadcad" stroke="none" points="210.843,-195 10.9986,-195 10.9986,-159 210.843,-159 210.843,-195"/>
<text text-anchor="middle" x="110.921" y="-174.044" font-family="'/usr/share/fonts/truetype/wqy/wqy-microhei.ttc'" font-size="14.00">PUBLISH channel1 message</text>
</g>
<!-- channel1 -->
<g id="node2" class="node"><title>channel1</title>
<ellipse fill="#a8e270" stroke="black" cx="110.921" cy="-104" rx="52.9579" ry="18"/>
<text text-anchor="middle" x="110.921" y="-101.044" font-family="'/usr/share/fonts/truetype/wqy/wqy-microhei.ttc'" font-size="14.00">channel1</text>
</g>
<!-- message&#45;&gt;channel1 -->
<g id="edge1" class="edge"><title>message&#45;&gt;channel1</title>
<path fill="none" stroke="#b22222" stroke-width="2" stroke-dasharray="5,2" d="M110.921,-158.813C110.921,-150.789 110.921,-141.047 110.921,-132.069"/>
<polygon fill="#b22222" stroke="#b22222" stroke-width="2" points="114.421,-132.029 110.921,-122.029 107.421,-132.029 114.421,-132.029"/>
</g>
<!-- client2 -->
<g id="node3" class="node"><title>client2</title>
<polygon fill="#95bbe3" stroke="black" points="61.7629,-36 0.0788997,-36 0.0788997,-0 61.7629,-0 61.7629,-36"/>
<text text-anchor="middle" x="30.9209" y="-15.0441" font-family="'/usr/share/fonts/truetype/wqy/wqy-microhei.ttc'" font-size="14.00">client2</text>
</g>
<!-- channel1&#45;&gt;client2 -->
<g id="edge2" class="edge"><title>channel1&#45;&gt;client2</title>
<path fill="none" stroke="#b22222" stroke-width="2" stroke-dasharray="5,2" d="M84.5819,-88.3054C75.9404,-82.6832 66.712,-75.7401 59.4932,-68 53.2174,-61.2711 47.7164,-52.9265 43.2608,-45.042"/>
<polygon fill="#b22222" stroke="#b22222" stroke-width="2" points="46.3063,-43.3142 38.5266,-36.122 40.1232,-46.5959 46.3063,-43.3142"/>
<text text-anchor="middle" x="83.6348" y="-56.8" font-family="Times,serif" font-size="14.00">message</text>
</g>
<!-- client5 -->
<g id="node4" class="node"><title>client5</title>
<polygon fill="#95bbe3" stroke="black" points="141.763,-36 80.0789,-36 80.0789,-0 141.763,-0 141.763,-36"/>
<text text-anchor="middle" x="110.921" y="-15.0441" font-family="'/usr/share/fonts/truetype/wqy/wqy-microhei.ttc'" font-size="14.00">client5</text>
</g>
<!-- channel1&#45;&gt;client5 -->
<g id="edge3" class="edge"><title>channel1&#45;&gt;client5</title>
<path fill="none" stroke="#b22222" stroke-width="2" stroke-dasharray="5,2" d="M110.921,-85.5951C110.921,-74.2572 110.921,-59.2271 110.921,-46.3153"/>
<polygon fill="#b22222" stroke="#b22222" stroke-width="2" points="114.421,-46.0951 110.921,-36.0952 107.421,-46.0952 114.421,-46.0951"/>
<text text-anchor="middle" x="134.635" y="-56.8" font-family="Times,serif" font-size="14.00">message</text>
</g>
<!-- client1 -->
<g id="node5" class="node"><title>client1</title>
<polygon fill="#95bbe3" stroke="black" points="221.763,-36 160.079,-36 160.079,-0 221.763,-0 221.763,-36"/>
<text text-anchor="middle" x="190.921" y="-15.0441" font-family="'/usr/share/fonts/truetype/wqy/wqy-microhei.ttc'" font-size="14.00">client1</text>
</g>
<!-- channel1&#45;&gt;client1 -->
<g id="edge4" class="edge"><title>channel1&#45;&gt;client1</title>
<path fill="none" stroke="#b22222" stroke-width="2" stroke-dasharray="5,2" d="M137.008,-88.2445C145.575,-82.6175 154.733,-75.6868 161.921,-68 168.229,-61.2536 173.796,-52.9042 178.322,-45.0208"/>
<polygon fill="#b22222" stroke="#b22222" stroke-width="2" points="181.465,-46.5661 183.139,-36.1043 175.307,-43.2388 181.465,-46.5661"/>
<text text-anchor="middle" x="196.635" y="-56.8" font-family="Times,serif" font-size="14.00">message</text>
</g>
</g>
</svg>
