<?xml version="1.0" encoding="UTF-8" standalone="no"?>
<!DOCTYPE svg PUBLIC "-//W3C//DTD SVG 1.1//EN"
 "http://www.w3.org/Graphics/SVG/1.1/DTD/svg11.dtd">
<!-- Generated by graphviz version 2.38.0 (20140413.2041)
 -->
<!-- Title: redis_list Pages: 1 -->
<svg width="434pt" height="194pt"
 viewBox="0.00 0.00 433.86 193.82" xmlns="http://www.w3.org/2000/svg" xmlns:xlink="http://www.w3.org/1999/xlink">
<g id="graph0" class="graph" transform="scale(1 1) rotate(0) translate(4 189.817)">
<title>redis_list</title>
<polygon fill="white" stroke="none" points="-4,4 -4,-189.817 429.858,-189.817 429.858,4 -4,4"/>
<!-- REDIS_LIST -->
<g id="node1" class="node"><title>REDIS_LIST</title>
<polygon fill="#95bbe3" stroke="none" points="250.191,-185.771 161.298,-185.771 161.298,-146.954 250.191,-146.954 250.191,-185.771"/>
<text text-anchor="middle" x="205.745" y="-170.617" font-family="'/usr/share/fonts/truetype/wqy/wqy-microhei.ttc'" font-size="14.00">列表</text>
<text text-anchor="middle" x="205.745" y="-156.197" font-family="'/usr/share/fonts/truetype/wqy/wqy-microhei.ttc'" font-size="14.00">REDIS_LIST</text>
</g>
<!-- REDIS_ENCODING_ZIPLIST -->
<g id="node2" class="node"><title>REDIS_ENCODING_ZIPLIST</title>
<polygon fill="#fadcad" stroke="none" points="189.735,-110.863 -0.245262,-110.863 -0.245262,-72.0458 189.735,-72.0458 189.735,-110.863"/>
<text text-anchor="middle" x="94.7446" y="-95.7083" font-family="'/usr/share/fonts/truetype/wqy/wqy-microhei.ttc'" font-size="14.00">压缩列表</text>
<text text-anchor="middle" x="94.7446" y="-81.2883" font-family="'/usr/share/fonts/truetype/wqy/wqy-microhei.ttc'" font-size="14.00">REDIS_ENCODING_ZIPLIST</text>
</g>
<!-- REDIS_LIST&#45;&gt;REDIS_ENCODING_ZIPLIST -->
<g id="edge2" class="edge"><title>REDIS_LIST&#45;&gt;REDIS_ENCODING_ZIPLIST</title>
<path fill="none" stroke="black" stroke-width="2" d="M177.447,-146.776C163.487,-137.606 146.476,-126.433 131.52,-116.609"/>
<polygon fill="black" stroke="black" stroke-width="2" points="133.27,-113.571 122.99,-111.007 129.427,-119.422 133.27,-113.571"/>
</g>
<!-- REDIS_ENCODING_LINKEDLIST -->
<g id="node3" class="node"><title>REDIS_ENCODING_LINKEDLIST</title>
<polygon fill="#fadcad" stroke="none" points="425.972,-110.863 207.517,-110.863 207.517,-72.0458 425.972,-72.0458 425.972,-110.863"/>
<text text-anchor="middle" x="316.745" y="-95.7083" font-family="'/usr/share/fonts/truetype/wqy/wqy-microhei.ttc'" font-size="14.00">双端链表</text>
<text text-anchor="middle" x="316.745" y="-81.2883" font-family="'/usr/share/fonts/truetype/wqy/wqy-microhei.ttc'" font-size="14.00">REDIS_ENCODING_LINKEDLIST</text>
</g>
<!-- REDIS_LIST&#45;&gt;REDIS_ENCODING_LINKEDLIST -->
<g id="edge1" class="edge"><title>REDIS_LIST&#45;&gt;REDIS_ENCODING_LINKEDLIST</title>
<path fill="none" stroke="black" stroke-width="2" d="M234.042,-146.776C248.002,-137.606 265.013,-126.433 279.969,-116.609"/>
<polygon fill="black" stroke="black" stroke-width="2" points="282.062,-119.422 288.499,-111.007 278.219,-113.571 282.062,-119.422"/>
</g>
<!-- ziplist -->
<g id="node5" class="node"><title>ziplist</title>
<polygon fill="lightgrey" stroke="none" points="122.933,-36 66.5563,-36 66.5563,-0 122.933,-0 122.933,-36"/>
<text text-anchor="middle" x="94.7446" y="-15.0441" font-family="'/usr/share/fonts/truetype/wqy/wqy-microhei.ttc'" font-size="14.00">ziplist</text>
</g>
<!-- REDIS_ENCODING_ZIPLIST&#45;&gt;ziplist -->
<g id="edge4" class="edge"><title>REDIS_ENCODING_ZIPLIST&#45;&gt;ziplist</title>
<path fill="none" stroke="black" stroke-width="2" d="M94.7446,-71.6804C94.7446,-64.005 94.7446,-54.9706 94.7446,-46.5715"/>
<polygon fill="black" stroke="black" stroke-width="2" points="98.2447,-46.4225 94.7446,-36.4225 91.2447,-46.4226 98.2447,-46.4225"/>
</g>
<!-- list -->
<g id="node4" class="node"><title>list</title>
<polygon fill="lightgrey" stroke="none" points="362.856,-36 270.633,-36 270.633,-0 362.856,-0 362.856,-36"/>
<text text-anchor="middle" x="316.745" y="-15.0441" font-family="'/usr/share/fonts/truetype/wqy/wqy-microhei.ttc'" font-size="14.00">adlist.h/list</text>
</g>
<!-- REDIS_ENCODING_LINKEDLIST&#45;&gt;list -->
<g id="edge3" class="edge"><title>REDIS_ENCODING_LINKEDLIST&#45;&gt;list</title>
<path fill="none" stroke="black" stroke-width="2" d="M316.745,-71.6804C316.745,-64.005 316.745,-54.9706 316.745,-46.5715"/>
<polygon fill="black" stroke="black" stroke-width="2" points="320.245,-46.4225 316.745,-36.4225 313.245,-46.4226 320.245,-46.4225"/>
</g>
</g>
</svg>
