<?xml version="1.0" encoding="UTF-8" standalone="no"?>
<!DOCTYPE svg PUBLIC "-//W3C//DTD SVG 1.1//EN"
 "http://www.w3.org/Graphics/SVG/1.1/DTD/svg11.dtd">
<!-- Generated by graphviz version 2.38.0 (20140413.2041)
 -->
<!-- Title: intsetAdd Pages: 1 -->
<svg width="655pt" height="481pt"
 viewBox="0.00 0.00 655.21 480.61" xmlns="http://www.w3.org/2000/svg" xmlns:xlink="http://www.w3.org/1999/xlink">
<g id="graph0" class="graph" transform="scale(1 1) rotate(0) translate(4 476.613)">
<title>intsetAdd</title>
<polygon fill="white" stroke="none" points="-4,4 -4,-476.613 651.209,-476.613 651.209,4 -4,4"/>
<!-- start -->
<g id="node1" class="node"><title>start</title>
<polygon fill="#a8e270" stroke="none" points="202.097,-472.613 121.569,-472.613 121.569,-436.613 202.097,-436.613 202.097,-472.613"/>
<text text-anchor="middle" x="161.833" y="-451.657" font-family="'/usr/share/fonts/truetype/wqy/wqy-microhei.ttc'" font-size="14.00">intsetAdd</text>
</g>
<!-- check_encoding -->
<g id="node2" class="node"><title>check_encoding</title>
<polygon fill="#95bbe3" stroke="black" points="161.833,-399.453 19.8325,-362.773 161.833,-326.092 303.833,-362.773 161.833,-399.453"/>
<text text-anchor="middle" x="161.833" y="-365.993" font-family="'/usr/share/fonts/truetype/wqy/wqy-microhei.ttc'" font-size="14.00">集合当前的编码类型</text>
<text text-anchor="middle" x="161.833" y="-351.573" font-family="'/usr/share/fonts/truetype/wqy/wqy-microhei.ttc'" font-size="14.00">是否适用于新元素？</text>
</g>
<!-- start&#45;&gt;check_encoding -->
<g id="edge1" class="edge"><title>start&#45;&gt;check_encoding</title>
<path fill="none" stroke="black" stroke-width="2" d="M161.833,-436.291C161.833,-428.652 161.833,-419.275 161.833,-409.83"/>
<polygon fill="black" stroke="black" stroke-width="2" points="165.333,-409.635 161.833,-399.635 158.333,-409.635 165.333,-409.635"/>
</g>
<!-- upgrade -->
<g id="node3" class="node"><title>upgrade</title>
<polygon fill="lightgrey" stroke="none" points="169.498,-270.417 0.16715,-270.417 0.16715,-188.08 169.498,-188.08 169.498,-270.417"/>
<text text-anchor="middle" x="84.8325" y="-255.133" font-family="'/usr/share/fonts/truetype/wqy/wqy-microhei.ttc'" font-size="14.00">调用</text>
<text text-anchor="middle" x="84.8325" y="-240.713" font-family="'/usr/share/fonts/truetype/wqy/wqy-microhei.ttc'" font-size="14.00"> intsetUpgradeAndAdd</text>
<text text-anchor="middle" x="84.8325" y="-224.225" font-family="'/usr/share/fonts/truetype/wqy/wqy-microhei.ttc'" font-size="14.00">升级集合</text>
<text text-anchor="middle" x="84.8325" y="-209.805" font-family="'/usr/share/fonts/truetype/wqy/wqy-microhei.ttc'" font-size="14.00">并将新元素</text>
<text text-anchor="middle" x="84.8325" y="-195.385" font-family="'/usr/share/fonts/truetype/wqy/wqy-microhei.ttc'" font-size="14.00">添加到升级后的集合中</text>
</g>
<!-- check_encoding&#45;&gt;upgrade -->
<g id="edge2" class="edge"><title>check_encoding&#45;&gt;upgrade</title>
<path fill="none" stroke="black" stroke-width="2" d="M143.585,-330.603C134.647,-315.337 123.674,-296.594 113.64,-279.455"/>
<polygon fill="black" stroke="black" stroke-width="2" points="116.567,-277.527 108.494,-270.666 110.526,-281.064 116.567,-277.527"/>
<text text-anchor="middle" x="150.833" y="-296.733" font-family="Times,serif" font-size="14.00">不适用</text>
</g>
<!-- value_exists -->
<g id="node4" class="node"><title>value_exists</title>
<polygon fill="#95bbe3" stroke="black" points="328.833,-247.249 187.857,-229.249 328.833,-211.249 469.808,-229.249 328.833,-247.249"/>
<text text-anchor="middle" x="328.833" y="-225.259" font-family="'/usr/share/fonts/truetype/wqy/wqy-microhei.ttc'" font-size="14.00">元素已经存在于集合？</text>
</g>
<!-- check_encoding&#45;&gt;value_exists -->
<g id="edge3" class="edge"><title>check_encoding&#45;&gt;value_exists</title>
<path fill="none" stroke="black" stroke-width="2" d="M196.03,-334.84C227.471,-310.078 273.441,-273.874 302.221,-251.207"/>
<polygon fill="black" stroke="black" stroke-width="2" points="304.52,-253.852 310.211,-244.915 300.189,-248.352 304.52,-253.852"/>
<text text-anchor="middle" x="268.833" y="-296.733" font-family="Times,serif" font-size="14.00">适用</text>
</g>
<!-- insert_fail -->
<g id="node5" class="node"><title>insert_fail</title>
<polygon fill="lightgrey" stroke="none" points="336.833,-123.691 180.833,-123.691 180.833,-87.6906 336.833,-87.6906 336.833,-123.691"/>
<text text-anchor="middle" x="258.833" y="-101.701" font-family="'/usr/share/fonts/truetype/wqy/wqy-microhei.ttc'" font-size="14.00">添加失败，元素已存在</text>
</g>
<!-- value_exists&#45;&gt;insert_fail -->
<g id="edge4" class="edge"><title>value_exists&#45;&gt;insert_fail</title>
<path fill="none" stroke="black" stroke-width="2" d="M319.681,-212.357C308.034,-192.132 287.759,-156.922 273.836,-132.745"/>
<polygon fill="black" stroke="black" stroke-width="2" points="276.686,-130.68 268.663,-123.761 270.62,-134.173 276.686,-130.68"/>
<text text-anchor="middle" x="300.833" y="-158.965" font-family="Times,serif" font-size="14.00">是</text>
</g>
<!-- realloc_and_move -->
<g id="node6" class="node"><title>realloc_and_move</title>
<polygon fill="lightgrey" stroke="none" points="647.086,-132.439 354.579,-132.439 354.579,-78.9418 647.086,-78.9418 647.086,-132.439"/>
<text text-anchor="middle" x="500.833" y="-117.365" font-family="'/usr/share/fonts/truetype/wqy/wqy-microhei.ttc'" font-size="14.00">为新元素分配内存</text>
<text text-anchor="middle" x="500.833" y="-102.945" font-family="'/usr/share/fonts/truetype/wqy/wqy-microhei.ttc'" font-size="14.00">并对 contents 数组中现有的元素进行移动，</text>
<text text-anchor="middle" x="500.833" y="-86.0365" font-family="'/usr/share/fonts/truetype/wqy/wqy-microhei.ttc'" font-size="14.00">确保新元素会被放到有序数组正确的位置上</text>
</g>
<!-- value_exists&#45;&gt;realloc_and_move -->
<g id="edge5" class="edge"><title>value_exists&#45;&gt;realloc_and_move</title>
<path fill="none" stroke="black" stroke-width="2" d="M349.239,-213.827C375.326,-195.391 421.237,-162.943 455.72,-138.574"/>
<polygon fill="black" stroke="black" stroke-width="2" points="458.075,-141.195 464.221,-132.565 454.034,-135.479 458.075,-141.195"/>
<text text-anchor="middle" x="441.833" y="-158.965" font-family="Times,serif" font-size="14.00">否</text>
</g>
<!-- done -->
<g id="node7" class="node"><title>done</title>
<polygon fill="lightgrey" stroke="none" points="626.086,-41.7252 375.579,-41.7252 375.579,-0.0913351 626.086,-0.0913351 626.086,-41.7252"/>
<text text-anchor="middle" x="500.833" y="-26.6165" font-family="'/usr/share/fonts/truetype/wqy/wqy-microhei.ttc'" font-size="14.00">将新元素的值保存到 contents 数组中</text>
<text text-anchor="middle" x="500.833" y="-9.70826" font-family="'/usr/share/fonts/truetype/wqy/wqy-microhei.ttc'" font-size="14.00">更新 length 计数器</text>
</g>
<!-- realloc_and_move&#45;&gt;done -->
<g id="edge6" class="edge"><title>realloc_and_move&#45;&gt;done</title>
<path fill="none" stroke="black" stroke-width="2" d="M500.833,-78.4978C500.833,-70.0788 500.833,-60.6856 500.833,-52.0091"/>
<polygon fill="black" stroke="black" stroke-width="2" points="504.333,-51.8948 500.833,-41.8948 497.333,-51.8948 504.333,-51.8948"/>
</g>
</g>
</svg>
