<?xml version="1.0" encoding="UTF-8" standalone="no"?>
<!DOCTYPE svg PUBLIC "-//W3C//DTD SVG 1.1//EN"
 "http://www.w3.org/Graphics/SVG/1.1/DTD/svg11.dtd">
<!-- Generated by graphviz version 2.38.0 (20140413.2041)
 -->
<!-- Title: new_watched_keys Pages: 1 -->
<svg width="669pt" height="167pt"
 viewBox="0.00 0.00 668.96 167.46" xmlns="http://www.w3.org/2000/svg" xmlns:xlink="http://www.w3.org/1999/xlink">
<g id="graph0" class="graph" transform="scale(1 1) rotate(0) translate(4 163.465)">
<title>new_watched_keys</title>
<polygon fill="white" stroke="none" points="-4,4 -4,-163.465 664.958,-163.465 664.958,4 -4,4"/>
<!-- watched_keys -->
<g id="node1" class="node"><title>watched_keys</title>
<polygon fill="#a8e270" stroke="black" points="0,-0.5 0,-147.43 108.771,-147.43 108.771,-0.5 0,-0.5"/>
<text text-anchor="middle" x="54.3853" y="-132.23" font-family="'/usr/share/fonts/truetype/wqy/wqy-microhei.ttc'" font-size="14.00">watched_keys</text>
<polyline fill="none" stroke="black" points="0,-122.941 108.771,-122.941 "/>
<text text-anchor="middle" x="54.3853" y="-107.741" font-family="'/usr/share/fonts/truetype/wqy/wqy-microhei.ttc'" font-size="14.00">key1</text>
<polyline fill="none" stroke="black" points="0,-98.4531 108.771,-98.4531 "/>
<text text-anchor="middle" x="54.3853" y="-83.2531" font-family="'/usr/share/fonts/truetype/wqy/wqy-microhei.ttc'" font-size="14.00">key2</text>
<polyline fill="none" stroke="black" points="0,-73.9648 108.771,-73.9648 "/>
<text text-anchor="middle" x="54.3853" y="-58.7648" font-family="'/usr/share/fonts/truetype/wqy/wqy-microhei.ttc'" font-size="14.00">key3</text>
<polyline fill="none" stroke="black" points="0,-49.4766 108.771,-49.4766 "/>
<text text-anchor="middle" x="54.3853" y="-34.2766" font-family="'/usr/share/fonts/truetype/wqy/wqy-microhei.ttc'" font-size="14.00">...</text>
<polyline fill="none" stroke="black" points="0,-24.9883 108.771,-24.9883 "/>
<text text-anchor="middle" x="54.3853" y="-9.78828" font-family="'/usr/share/fonts/truetype/wqy/wqy-microhei.ttc'" font-size="14.00">keyN</text>
</g>
<!-- client2 -->
<g id="node4" class="node"><title>client2</title>
<polygon fill="#95bbe3" stroke="black" points="144.771,-122.965 144.771,-158.965 206.612,-158.965 206.612,-122.965 144.771,-122.965"/>
<text text-anchor="middle" x="175.691" y="-138.265" font-family="'/usr/share/fonts/truetype/wqy/wqy-microhei.ttc'" font-size="14.00">client2</text>
</g>
<!-- watched_keys&#45;&gt;client2 -->
<g id="edge1" class="edge"><title>watched_keys:key1&#45;&gt;client2</title>
<path fill="none" stroke="black" stroke-width="2" d="M108.771,-110.965C119.144,-110.965 129.678,-114.08 139.191,-118.304"/>
<polygon fill="black" stroke="black" stroke-width="2" points="137.805,-121.523 148.32,-122.822 140.91,-115.249 137.805,-121.523"/>
</g>
<!-- client7 -->
<g id="node7" class="node"><title>client7</title>
<polygon fill="#95bbe3" stroke="black" points="144.771,-67.9648 144.771,-103.965 206.612,-103.965 206.612,-67.9648 144.771,-67.9648"/>
<text text-anchor="middle" x="175.691" y="-83.2648" font-family="'/usr/share/fonts/truetype/wqy/wqy-microhei.ttc'" font-size="14.00">client7</text>
</g>
<!-- watched_keys&#45;&gt;client7 -->
<g id="edge6" class="edge"><title>watched_keys:key2&#45;&gt;client7</title>
<path fill="none" stroke="black" stroke-width="2" d="M108.771,-85.9648C117.07,-85.9648 125.956,-85.9648 134.432,-85.9648"/>
<polygon fill="black" stroke="black" stroke-width="2" points="134.5,-89.4649 144.5,-85.9648 134.5,-82.4649 134.5,-89.4649"/>
</g>
<!-- client3 -->
<g id="node10" class="node"><title>client3</title>
<polygon fill="#95bbe3" stroke="black" points="144.771,-12.9648 144.771,-48.9648 206.612,-48.9648 206.612,-12.9648 144.771,-12.9648"/>
<text text-anchor="middle" x="175.691" y="-28.2648" font-family="'/usr/share/fonts/truetype/wqy/wqy-microhei.ttc'" font-size="14.00">client3</text>
</g>
<!-- watched_keys&#45;&gt;client3 -->
<g id="edge9" class="edge"><title>watched_keys:key3&#45;&gt;client3</title>
<path fill="none" stroke="black" stroke-width="2" d="M108.771,-61.9648C119.696,-61.9648 130.755,-58.4345 140.613,-53.7566"/>
<polygon fill="black" stroke="black" stroke-width="2" points="142.434,-56.7531 149.653,-48.9977 139.174,-50.559 142.434,-56.7531"/>
</g>
<!-- client1 -->
<g id="node2" class="node"><title>client1</title>
<polygon fill="#95bbe3" stroke="black" points="375.864,-122.965 375.864,-158.965 437.706,-158.965 437.706,-122.965 375.864,-122.965"/>
<text text-anchor="middle" x="406.785" y="-138.265" font-family="'/usr/share/fonts/truetype/wqy/wqy-microhei.ttc'" font-size="14.00">client1</text>
</g>
<!-- client10086 -->
<g id="node5" class="node"><title>client10086</title>
<polygon fill="#ffc1c1" stroke="black" points="473.706,-122.965 473.706,-158.965 570.958,-158.965 570.958,-122.965 473.706,-122.965"/>
<text text-anchor="middle" x="522.332" y="-138.265" font-family="'/usr/share/fonts/truetype/wqy/wqy-microhei.ttc'" font-size="14.00">client10086</text>
</g>
<!-- client1&#45;&gt;client10086 -->
<g id="edge4" class="edge"><title>client1&#45;&gt;client10086</title>
<path fill="none" stroke="black" stroke-width="2" d="M437.916,-140.965C445.754,-140.965 454.47,-140.965 463.227,-140.965"/>
<polygon fill="black" stroke="black" stroke-width="2" points="463.478,-144.465 473.477,-140.965 463.477,-137.465 463.478,-144.465"/>
</g>
<!-- client5 -->
<g id="node3" class="node"><title>client5</title>
<polygon fill="#95bbe3" stroke="black" points="260.317,-122.965 260.317,-158.965 322.159,-158.965 322.159,-122.965 260.317,-122.965"/>
<text text-anchor="middle" x="291.238" y="-138.265" font-family="'/usr/share/fonts/truetype/wqy/wqy-microhei.ttc'" font-size="14.00">client5</text>
</g>
<!-- client5&#45;&gt;client1 -->
<g id="edge3" class="edge"><title>client5&#45;&gt;client1</title>
<path fill="none" stroke="black" stroke-width="2" d="M322.369,-140.965C335.586,-140.965 351.295,-140.965 365.496,-140.965"/>
<polygon fill="black" stroke="black" stroke-width="2" points="365.514,-144.465 375.514,-140.965 365.514,-137.465 365.514,-144.465"/>
</g>
<!-- client2&#45;&gt;client5 -->
<g id="edge2" class="edge"><title>client2&#45;&gt;client5</title>
<path fill="none" stroke="black" stroke-width="2" d="M206.822,-140.965C220.039,-140.965 235.748,-140.965 249.949,-140.965"/>
<polygon fill="black" stroke="black" stroke-width="2" points="249.967,-144.465 259.967,-140.965 249.967,-137.465 249.967,-144.465"/>
</g>
<!-- null_1 -->
<g id="node6" class="node"><title>null_1</title>
<polygon fill="lightgrey" stroke="none" points="660.958,-158.965 606.958,-158.965 606.958,-122.965 660.958,-122.965 660.958,-158.965"/>
<text text-anchor="middle" x="633.958" y="-138.009" font-family="'/usr/share/fonts/truetype/wqy/wqy-microhei.ttc'" font-size="14.00">NULL</text>
</g>
<!-- client10086&#45;&gt;null_1 -->
<g id="edge5" class="edge"><title>client10086&#45;&gt;null_1</title>
<path fill="none" stroke="black" stroke-width="2" d="M571.097,-140.965C579.602,-140.965 588.337,-140.965 596.465,-140.965"/>
<polygon fill="black" stroke="black" stroke-width="2" points="596.73,-144.465 606.73,-140.965 596.73,-137.465 596.73,-144.465"/>
</g>
<!-- client10086_2 -->
<g id="node8" class="node"><title>client10086_2</title>
<polygon fill="#ffc1c1" stroke="black" points="242.612,-67.9648 242.612,-103.965 339.864,-103.965 339.864,-67.9648 242.612,-67.9648"/>
<text text-anchor="middle" x="291.238" y="-83.2648" font-family="'/usr/share/fonts/truetype/wqy/wqy-microhei.ttc'" font-size="14.00">client10086</text>
</g>
<!-- client7&#45;&gt;client10086_2 -->
<g id="edge7" class="edge"><title>client7&#45;&gt;client10086_2</title>
<path fill="none" stroke="black" stroke-width="2" d="M206.822,-85.9648C214.661,-85.9648 223.376,-85.9648 232.134,-85.9648"/>
<polygon fill="black" stroke="black" stroke-width="2" points="232.384,-89.4649 242.384,-85.9648 232.384,-82.4649 232.384,-89.4649"/>
</g>
<!-- null_2 -->
<g id="node9" class="node"><title>null_2</title>
<polygon fill="lightgrey" stroke="none" points="433.785,-103.965 379.785,-103.965 379.785,-67.9648 433.785,-67.9648 433.785,-103.965"/>
<text text-anchor="middle" x="406.785" y="-83.009" font-family="'/usr/share/fonts/truetype/wqy/wqy-microhei.ttc'" font-size="14.00">NULL</text>
</g>
<!-- client10086_2&#45;&gt;null_2 -->
<g id="edge8" class="edge"><title>client10086_2&#45;&gt;null_2</title>
<path fill="none" stroke="black" stroke-width="2" d="M340.063,-85.9648C349.927,-85.9648 360.161,-85.9648 369.533,-85.9648"/>
<polygon fill="black" stroke="black" stroke-width="2" points="369.682,-89.4649 379.682,-85.9648 369.682,-82.4649 369.682,-89.4649"/>
</g>
<!-- client4 -->
<g id="node11" class="node"><title>client4</title>
<polygon fill="#95bbe3" stroke="black" points="260.317,-12.9648 260.317,-48.9648 322.159,-48.9648 322.159,-12.9648 260.317,-12.9648"/>
<text text-anchor="middle" x="291.238" y="-28.2648" font-family="'/usr/share/fonts/truetype/wqy/wqy-microhei.ttc'" font-size="14.00">client4</text>
</g>
<!-- client3&#45;&gt;client4 -->
<g id="edge10" class="edge"><title>client3&#45;&gt;client4</title>
<path fill="none" stroke="black" stroke-width="2" d="M206.822,-30.9648C220.039,-30.9648 235.748,-30.9648 249.949,-30.9648"/>
<polygon fill="black" stroke="black" stroke-width="2" points="249.967,-34.4649 259.967,-30.9648 249.967,-27.4649 249.967,-34.4649"/>
</g>
<!-- client6 -->
<g id="node12" class="node"><title>client6</title>
<polygon fill="#95bbe3" stroke="black" points="375.864,-12.9648 375.864,-48.9648 437.706,-48.9648 437.706,-12.9648 375.864,-12.9648"/>
<text text-anchor="middle" x="406.785" y="-28.2648" font-family="'/usr/share/fonts/truetype/wqy/wqy-microhei.ttc'" font-size="14.00">client6</text>
</g>
<!-- client4&#45;&gt;client6 -->
<g id="edge11" class="edge"><title>client4&#45;&gt;client6</title>
<path fill="none" stroke="black" stroke-width="2" d="M322.369,-30.9648C335.586,-30.9648 351.295,-30.9648 365.496,-30.9648"/>
<polygon fill="black" stroke="black" stroke-width="2" points="365.514,-34.4649 375.514,-30.9648 365.514,-27.4649 365.514,-34.4649"/>
</g>
<!-- null_3 -->
<g id="node13" class="node"><title>null_3</title>
<polygon fill="lightgrey" stroke="none" points="549.332,-48.9648 495.332,-48.9648 495.332,-12.9648 549.332,-12.9648 549.332,-48.9648"/>
<text text-anchor="middle" x="522.332" y="-28.009" font-family="'/usr/share/fonts/truetype/wqy/wqy-microhei.ttc'" font-size="14.00">NULL</text>
</g>
<!-- client6&#45;&gt;null_3 -->
<g id="edge12" class="edge"><title>client6&#45;&gt;null_3</title>
<path fill="none" stroke="black" stroke-width="2" d="M437.916,-30.9648C452.435,-30.9648 469.962,-30.9648 485.195,-30.9648"/>
<polygon fill="black" stroke="black" stroke-width="2" points="485.309,-34.4649 495.309,-30.9648 485.309,-27.4649 485.309,-34.4649"/>
</g>
</g>
</svg>
