<?xml version="1.0" encoding="UTF-8" standalone="no"?>
<!DOCTYPE svg PUBLIC "-//W3C//DTD SVG 1.1//EN"
 "http://www.w3.org/Graphics/SVG/1.1/DTD/svg11.dtd">
<!-- Generated by graphviz version 2.38.0 (20140413.2041)
 -->
<!-- Title: rehash_step_four Pages: 1 -->
<svg width="683pt" height="478pt"
 viewBox="0.00 0.00 682.60 477.99" xmlns="http://www.w3.org/2000/svg" xmlns:xlink="http://www.w3.org/1999/xlink">
<g id="graph0" class="graph" transform="scale(1 1) rotate(0) translate(4 473.988)">
<title>rehash_step_four</title>
<polygon fill="white" stroke="none" points="-4,4 -4,-473.988 678.597,-473.988 678.597,4 -4,4"/>
<!-- dict -->
<g id="node1" class="node"><title>dict</title>
<polygon fill="#a8e270" stroke="black" points="0,-216.535 0,-363.465 107.786,-363.465 107.786,-216.535 0,-216.535"/>
<text text-anchor="middle" x="53.8931" y="-348.265" font-family="'/usr/share/fonts/truetype/wqy/wqy-microhei.ttc'" font-size="14.00">dict</text>
<polyline fill="none" stroke="black" points="0,-338.977 107.786,-338.977 "/>
<text text-anchor="middle" x="53.8931" y="-323.777" font-family="'/usr/share/fonts/truetype/wqy/wqy-microhei.ttc'" font-size="14.00">type</text>
<polyline fill="none" stroke="black" points="0,-314.488 107.786,-314.488 "/>
<text text-anchor="middle" x="53.8931" y="-299.288" font-family="'/usr/share/fonts/truetype/wqy/wqy-microhei.ttc'" font-size="14.00">privdata</text>
<polyline fill="none" stroke="black" points="0,-290 107.786,-290 "/>
<text text-anchor="middle" x="53.8931" y="-274.8" font-family="'/usr/share/fonts/truetype/wqy/wqy-microhei.ttc'" font-size="14.00">ht[2]</text>
<polyline fill="none" stroke="black" points="0,-265.512 107.786,-265.512 "/>
<text text-anchor="middle" x="53.8931" y="-250.312" font-family="'/usr/share/fonts/truetype/wqy/wqy-microhei.ttc'" font-size="14.00">rehashidx: &#45;1</text>
<polyline fill="none" stroke="black" points="0,-241.023 107.786,-241.023 "/>
<text text-anchor="middle" x="53.8931" y="-225.823" font-family="'/usr/share/fonts/truetype/wqy/wqy-microhei.ttc'" font-size="14.00">iterators</text>
</g>
<!-- ht0 -->
<g id="node2" class="node"><title>ht0</title>
<polygon fill="#95bbe3" stroke="black" points="171,-235.779 171,-358.221 266.413,-358.221 266.413,-235.779 171,-235.779"/>
<text text-anchor="middle" x="218.707" y="-343.021" font-family="'/usr/share/fonts/truetype/wqy/wqy-microhei.ttc'" font-size="14.00">dictht</text>
<polyline fill="none" stroke="black" points="171,-333.732 266.413,-333.732 "/>
<text text-anchor="middle" x="218.707" y="-318.532" font-family="'/usr/share/fonts/truetype/wqy/wqy-microhei.ttc'" font-size="14.00">table</text>
<polyline fill="none" stroke="black" points="171,-309.244 266.413,-309.244 "/>
<text text-anchor="middle" x="218.707" y="-294.044" font-family="'/usr/share/fonts/truetype/wqy/wqy-microhei.ttc'" font-size="14.00">size: 8</text>
<polyline fill="none" stroke="black" points="171,-284.756 266.413,-284.756 "/>
<text text-anchor="middle" x="218.707" y="-269.556" font-family="'/usr/share/fonts/truetype/wqy/wqy-microhei.ttc'" font-size="14.00">sizemask: 7</text>
<polyline fill="none" stroke="black" points="171,-260.268 266.413,-260.268 "/>
<text text-anchor="middle" x="218.707" y="-245.068" font-family="'/usr/share/fonts/truetype/wqy/wqy-microhei.ttc'" font-size="14.00">used: 4</text>
</g>
<!-- dict&#45;&gt;ht0 -->
<g id="edge1" class="edge"><title>dict:ht&#45;&gt;ht0:dictht</title>
<path fill="none" stroke="black" stroke-width="2" d="M107.786,-278C145.182,-278 132.825,-333.848 160.892,-344.319"/>
<polygon fill="black" stroke="black" stroke-width="2" points="160.561,-347.812 171,-346 161.71,-340.907 160.561,-347.812"/>
<text text-anchor="middle" x="139.393" y="-340.8" font-family="Times,serif" font-size="14.00">ht[0]</text>
</g>
<!-- ht3 -->
<g id="node3" class="node"><title>ht3</title>
<polygon fill="#95bbe3" stroke="black" points="171,-66.7793 171,-189.221 266.413,-189.221 266.413,-66.7793 171,-66.7793"/>
<text text-anchor="middle" x="218.707" y="-174.021" font-family="'/usr/share/fonts/truetype/wqy/wqy-microhei.ttc'" font-size="14.00">dictht</text>
<polyline fill="none" stroke="black" points="171,-164.732 266.413,-164.732 "/>
<text text-anchor="middle" x="218.707" y="-149.532" font-family="'/usr/share/fonts/truetype/wqy/wqy-microhei.ttc'" font-size="14.00">table</text>
<polyline fill="none" stroke="black" points="171,-140.244 266.413,-140.244 "/>
<text text-anchor="middle" x="218.707" y="-125.044" font-family="'/usr/share/fonts/truetype/wqy/wqy-microhei.ttc'" font-size="14.00">size: 0</text>
<polyline fill="none" stroke="black" points="171,-115.756 266.413,-115.756 "/>
<text text-anchor="middle" x="218.707" y="-100.556" font-family="'/usr/share/fonts/truetype/wqy/wqy-microhei.ttc'" font-size="14.00">sizemask: 0</text>
<polyline fill="none" stroke="black" points="171,-91.2676 266.413,-91.2676 "/>
<text text-anchor="middle" x="218.707" y="-76.0676" font-family="'/usr/share/fonts/truetype/wqy/wqy-microhei.ttc'" font-size="14.00">used: 0</text>
</g>
<!-- dict&#45;&gt;ht3 -->
<g id="edge2" class="edge"><title>dict:ht&#45;&gt;ht3:dictht</title>
<path fill="none" stroke="black" stroke-width="2" d="M107.786,-278C130.954,-278 141.704,-200.672 161.768,-181.34"/>
<polygon fill="black" stroke="black" stroke-width="2" points="163.439,-184.422 171,-177 160.461,-178.087 163.439,-184.422"/>
<text text-anchor="middle" x="139.393" y="-261.8" font-family="Times,serif" font-size="14.00">ht[1]</text>
</g>
<!-- bucket1 -->
<g id="node4" class="node"><title>bucket1</title>
<polygon fill="#f2f2f2" stroke="black" points="303.413,-132.559 303.413,-369.441 392.612,-369.441 392.612,-132.559 303.413,-132.559"/>
<text text-anchor="middle" x="348.013" y="-354.241" font-family="'/usr/share/fonts/truetype/wqy/wqy-microhei.ttc'" font-size="14.00">dictEntry**</text>
<text text-anchor="middle" x="348.013" y="-337.753" font-family="'/usr/share/fonts/truetype/wqy/wqy-microhei.ttc'" font-size="14.00">(bucket)</text>
<polyline fill="none" stroke="black" points="303.413,-328.465 392.612,-328.465 "/>
<text text-anchor="middle" x="348.013" y="-313.265" font-family="'/usr/share/fonts/truetype/wqy/wqy-microhei.ttc'" font-size="14.00">0</text>
<polyline fill="none" stroke="black" points="303.413,-303.977 392.612,-303.977 "/>
<text text-anchor="middle" x="348.013" y="-288.777" font-family="'/usr/share/fonts/truetype/wqy/wqy-microhei.ttc'" font-size="14.00">1</text>
<polyline fill="none" stroke="black" points="303.413,-279.488 392.612,-279.488 "/>
<text text-anchor="middle" x="348.013" y="-264.288" font-family="'/usr/share/fonts/truetype/wqy/wqy-microhei.ttc'" font-size="14.00">2</text>
<polyline fill="none" stroke="black" points="303.413,-255 392.612,-255 "/>
<text text-anchor="middle" x="348.013" y="-239.8" font-family="'/usr/share/fonts/truetype/wqy/wqy-microhei.ttc'" font-size="14.00">3</text>
<polyline fill="none" stroke="black" points="303.413,-230.512 392.612,-230.512 "/>
<text text-anchor="middle" x="348.013" y="-215.312" font-family="'/usr/share/fonts/truetype/wqy/wqy-microhei.ttc'" font-size="14.00">4</text>
<polyline fill="none" stroke="black" points="303.413,-206.023 392.612,-206.023 "/>
<text text-anchor="middle" x="348.013" y="-190.823" font-family="'/usr/share/fonts/truetype/wqy/wqy-microhei.ttc'" font-size="14.00">5</text>
<polyline fill="none" stroke="black" points="303.413,-181.535 392.612,-181.535 "/>
<text text-anchor="middle" x="348.013" y="-166.335" font-family="'/usr/share/fonts/truetype/wqy/wqy-microhei.ttc'" font-size="14.00">6</text>
<polyline fill="none" stroke="black" points="303.413,-157.047 392.612,-157.047 "/>
<text text-anchor="middle" x="348.013" y="-141.847" font-family="'/usr/share/fonts/truetype/wqy/wqy-microhei.ttc'" font-size="14.00">7</text>
</g>
<!-- ht0&#45;&gt;bucket1 -->
<g id="edge4" class="edge"><title>ht0:table&#45;&gt;bucket1:head</title>
<path fill="none" stroke="black" stroke-width="2" d="M266.413,-321C283.008,-321 283.5,-339.131 293.805,-346.213"/>
<polygon fill="black" stroke="black" stroke-width="2" points="292.834,-349.575 303.413,-349 294.784,-342.853 292.834,-349.575"/>
</g>
<!-- null_bucket -->
<g id="node17" class="node"><title>null_bucket</title>
<polygon fill="lightgrey" stroke="none" points="375.013,-114 321.013,-114 321.013,-78 375.013,-78 375.013,-114"/>
<text text-anchor="middle" x="348.013" y="-93.0441" font-family="'/usr/share/fonts/truetype/wqy/wqy-microhei.ttc'" font-size="14.00">NULL</text>
</g>
<!-- ht3&#45;&gt;null_bucket -->
<g id="edge3" class="edge"><title>ht3:table&#45;&gt;null_bucket</title>
<path fill="none" stroke="black" stroke-width="2" d="M266.413,-152C287.307,-152 286.283,-134.963 303.413,-123 306.274,-121.002 309.28,-118.984 312.321,-116.997"/>
<polygon fill="black" stroke="black" stroke-width="2" points="314.342,-119.859 320.887,-111.528 310.575,-113.959 314.342,-119.859"/>
</g>
<!-- pair_1 -->
<g id="node5" class="node"><title>pair_1</title>
<polygon fill="#ffc1c1" stroke="black" points="429.612,-54.5117 429.612,-103.488 583.597,-103.488 583.597,-54.5117 429.612,-54.5117"/>
<text text-anchor="middle" x="506.604" y="-88.2883" font-family="'/usr/share/fonts/truetype/wqy/wqy-microhei.ttc'" font-size="14.00">dictEntry</text>
<polyline fill="none" stroke="black" points="429.612,-79 583.597,-79 "/>
<text text-anchor="middle" x="453.578" y="-63.8" font-family="'/usr/share/fonts/truetype/wqy/wqy-microhei.ttc'" font-size="14.00">key1</text>
<polyline fill="none" stroke="black" points="477.543,-54.5117 477.543,-79 "/>
<text text-anchor="middle" x="507.705" y="-63.8" font-family="'/usr/share/fonts/truetype/wqy/wqy-microhei.ttc'" font-size="14.00">value1</text>
<polyline fill="none" stroke="black" points="537.867,-54.5117 537.867,-79 "/>
<text text-anchor="middle" x="560.732" y="-63.8" font-family="'/usr/share/fonts/truetype/wqy/wqy-microhei.ttc'" font-size="14.00">next</text>
</g>
<!-- bucket1&#45;&gt;pair_1 -->
<g id="edge14" class="edge"><title>bucket1:table6&#45;&gt;pair_1:head</title>
<path fill="none" stroke="black" stroke-width="2" d="M392.612,-169C426.935,-169 398.757,-106.585 419.895,-93.4199"/>
<polygon fill="black" stroke="black" stroke-width="2" points="420.755,-96.8129 429.612,-91 419.063,-90.0204 420.755,-96.8129"/>
</g>
<!-- pair_2 -->
<g id="node6" class="node"><title>pair_2</title>
<polygon fill="#ffc1c1" stroke="black" points="429.612,-230.512 429.612,-279.488 583.597,-279.488 583.597,-230.512 429.612,-230.512"/>
<text text-anchor="middle" x="506.604" y="-264.288" font-family="'/usr/share/fonts/truetype/wqy/wqy-microhei.ttc'" font-size="14.00">dictEntry</text>
<polyline fill="none" stroke="black" points="429.612,-255 583.597,-255 "/>
<text text-anchor="middle" x="453.578" y="-239.8" font-family="'/usr/share/fonts/truetype/wqy/wqy-microhei.ttc'" font-size="14.00">key2</text>
<polyline fill="none" stroke="black" points="477.543,-230.512 477.543,-255 "/>
<text text-anchor="middle" x="507.705" y="-239.8" font-family="'/usr/share/fonts/truetype/wqy/wqy-microhei.ttc'" font-size="14.00">value2</text>
<polyline fill="none" stroke="black" points="537.867,-230.512 537.867,-255 "/>
<text text-anchor="middle" x="560.732" y="-239.8" font-family="'/usr/share/fonts/truetype/wqy/wqy-microhei.ttc'" font-size="14.00">next</text>
</g>
<!-- bucket1&#45;&gt;pair_2 -->
<g id="edge10" class="edge"><title>bucket1:table3&#45;&gt;pair_2:head</title>
<path fill="none" stroke="black" stroke-width="2" d="M392.612,-243C408.079,-243 409.97,-257.943 419.71,-264.247"/>
<polygon fill="black" stroke="black" stroke-width="2" points="419.04,-267.693 429.612,-267 420.915,-260.949 419.04,-267.693"/>
</g>
<!-- pair_3 -->
<g id="node7" class="node"><title>pair_3</title>
<polygon fill="#ffc1c1" stroke="black" points="429.612,-420.512 429.612,-469.488 583.597,-469.488 583.597,-420.512 429.612,-420.512"/>
<text text-anchor="middle" x="506.604" y="-454.288" font-family="'/usr/share/fonts/truetype/wqy/wqy-microhei.ttc'" font-size="14.00">dictEntry</text>
<polyline fill="none" stroke="black" points="429.612,-445 583.597,-445 "/>
<text text-anchor="middle" x="453.578" y="-429.8" font-family="'/usr/share/fonts/truetype/wqy/wqy-microhei.ttc'" font-size="14.00">key3</text>
<polyline fill="none" stroke="black" points="477.543,-420.512 477.543,-445 "/>
<text text-anchor="middle" x="507.705" y="-429.8" font-family="'/usr/share/fonts/truetype/wqy/wqy-microhei.ttc'" font-size="14.00">value3</text>
<polyline fill="none" stroke="black" points="537.867,-420.512 537.867,-445 "/>
<text text-anchor="middle" x="560.732" y="-429.8" font-family="'/usr/share/fonts/truetype/wqy/wqy-microhei.ttc'" font-size="14.00">next</text>
</g>
<!-- bucket1&#45;&gt;pair_3 -->
<g id="edge5" class="edge"><title>bucket1:table0&#45;&gt;pair_3:head</title>
<path fill="none" stroke="black" stroke-width="2" d="M392.612,-316C421.337,-316 402.742,-426.864 420.745,-451.982"/>
<polygon fill="black" stroke="black" stroke-width="2" points="419.185,-455.121 429.612,-457 422.633,-449.029 419.185,-455.121"/>
</g>
<!-- pair_4 -->
<g id="node8" class="node"><title>pair_4</title>
<polygon fill="#ffc1c1" stroke="black" points="429.612,-352.512 429.612,-401.488 583.597,-401.488 583.597,-352.512 429.612,-352.512"/>
<text text-anchor="middle" x="506.604" y="-386.288" font-family="'/usr/share/fonts/truetype/wqy/wqy-microhei.ttc'" font-size="14.00">dictEntry</text>
<polyline fill="none" stroke="black" points="429.612,-377 583.597,-377 "/>
<text text-anchor="middle" x="453.578" y="-361.8" font-family="'/usr/share/fonts/truetype/wqy/wqy-microhei.ttc'" font-size="14.00">key4</text>
<polyline fill="none" stroke="black" points="477.543,-352.512 477.543,-377 "/>
<text text-anchor="middle" x="507.705" y="-361.8" font-family="'/usr/share/fonts/truetype/wqy/wqy-microhei.ttc'" font-size="14.00">value4</text>
<polyline fill="none" stroke="black" points="537.867,-352.512 537.867,-377 "/>
<text text-anchor="middle" x="560.732" y="-361.8" font-family="'/usr/share/fonts/truetype/wqy/wqy-microhei.ttc'" font-size="14.00">next</text>
</g>
<!-- bucket1&#45;&gt;pair_4 -->
<g id="edge7" class="edge"><title>bucket1:table1&#45;&gt;pair_4:head</title>
<path fill="none" stroke="black" stroke-width="2" d="M392.612,-292C434.608,-292 392.586,-372.353 419.485,-386.792"/>
<polygon fill="black" stroke="black" stroke-width="2" points="419.096,-390.289 429.612,-389 420.588,-383.45 419.096,-390.289"/>
</g>
<!-- null12 -->
<g id="node11" class="node"><title>null12</title>
<polygon fill="lightgrey" stroke="none" points="533.604,-334 479.604,-334 479.604,-298 533.604,-298 533.604,-334"/>
<text text-anchor="middle" x="506.604" y="-313.044" font-family="'/usr/share/fonts/truetype/wqy/wqy-microhei.ttc'" font-size="14.00">NULL</text>
</g>
<!-- bucket1&#45;&gt;null12 -->
<g id="edge9" class="edge"><title>bucket1:table2&#45;&gt;null12</title>
<path fill="none" stroke="black" stroke-width="2" d="M392.612,-267C411.744,-267 412.294,-280.87 429.612,-289 442.439,-295.021 457,-300.502 469.92,-304.927"/>
<polygon fill="black" stroke="black" stroke-width="2" points="468.831,-308.254 479.424,-308.098 471.046,-301.613 468.831,-308.254"/>
</g>
<!-- null14 -->
<g id="node13" class="node"><title>null14</title>
<polygon fill="lightgrey" stroke="none" points="533.604,-212 479.604,-212 479.604,-176 533.604,-176 533.604,-212"/>
<text text-anchor="middle" x="506.604" y="-191.044" font-family="'/usr/share/fonts/truetype/wqy/wqy-microhei.ttc'" font-size="14.00">NULL</text>
</g>
<!-- bucket1&#45;&gt;null14 -->
<g id="edge12" class="edge"><title>bucket1:table4&#45;&gt;null14</title>
<path fill="none" stroke="black" stroke-width="2" d="M392.612,-218C418.754,-218 447.57,-211.777 469.559,-205.669"/>
<polygon fill="black" stroke="black" stroke-width="2" points="470.825,-208.946 479.455,-202.8 468.876,-202.223 470.825,-208.946"/>
</g>
<!-- null15 -->
<g id="node14" class="node"><title>null15</title>
<polygon fill="lightgrey" stroke="none" points="533.604,-158 479.604,-158 479.604,-122 533.604,-122 533.604,-158"/>
<text text-anchor="middle" x="506.604" y="-137.044" font-family="'/usr/share/fonts/truetype/wqy/wqy-microhei.ttc'" font-size="14.00">NULL</text>
</g>
<!-- bucket1&#45;&gt;null15 -->
<g id="edge13" class="edge"><title>bucket1:table5&#45;&gt;null15</title>
<path fill="none" stroke="black" stroke-width="2" d="M392.612,-194C412.97,-194 411.611,-176.507 429.612,-167 442.24,-160.331 456.87,-154.69 469.9,-150.316"/>
<polygon fill="black" stroke="black" stroke-width="2" points="471.05,-153.623 479.494,-147.223 468.902,-146.961 471.05,-153.623"/>
</g>
<!-- null17 -->
<g id="node16" class="node"><title>null17</title>
<polygon fill="lightgrey" stroke="none" points="533.604,-36 479.604,-36 479.604,-0 533.604,-0 533.604,-36"/>
<text text-anchor="middle" x="506.604" y="-15.0441" font-family="'/usr/share/fonts/truetype/wqy/wqy-microhei.ttc'" font-size="14.00">NULL</text>
</g>
<!-- bucket1&#45;&gt;null17 -->
<g id="edge16" class="edge"><title>bucket1:table7&#45;&gt;null17</title>
<path fill="none" stroke="black" stroke-width="2" d="M392.612,-145C404.46,-145 421.181,-53.3227 429.612,-45 440.357,-34.3943 455.532,-27.9328 469.499,-24.0059"/>
<polygon fill="black" stroke="black" stroke-width="2" points="470.504,-27.3632 479.375,-21.5715 468.828,-20.5666 470.504,-27.3632"/>
</g>
<!-- null16 -->
<g id="node15" class="node"><title>null16</title>
<polygon fill="lightgrey" stroke="none" points="674.597,-85 620.597,-85 620.597,-49 674.597,-49 674.597,-85"/>
<text text-anchor="middle" x="647.597" y="-64.0441" font-family="'/usr/share/fonts/truetype/wqy/wqy-microhei.ttc'" font-size="14.00">NULL</text>
</g>
<!-- pair_1&#45;&gt;null16 -->
<g id="edge15" class="edge"><title>pair_1:next&#45;&gt;null16</title>
<path fill="none" stroke="black" stroke-width="2" d="M583.597,-67C592.228,-67 601.524,-67 610.256,-67"/>
<polygon fill="black" stroke="black" stroke-width="2" points="610.543,-70.5001 620.543,-67 610.543,-63.5001 610.543,-70.5001"/>
</g>
<!-- null13 -->
<g id="node12" class="node"><title>null13</title>
<polygon fill="lightgrey" stroke="none" points="674.597,-261 620.597,-261 620.597,-225 674.597,-225 674.597,-261"/>
<text text-anchor="middle" x="647.597" y="-240.044" font-family="'/usr/share/fonts/truetype/wqy/wqy-microhei.ttc'" font-size="14.00">NULL</text>
</g>
<!-- pair_2&#45;&gt;null13 -->
<g id="edge11" class="edge"><title>pair_2:next&#45;&gt;null13</title>
<path fill="none" stroke="black" stroke-width="2" d="M583.597,-243C592.228,-243 601.524,-243 610.256,-243"/>
<polygon fill="black" stroke="black" stroke-width="2" points="610.543,-246.5 620.543,-243 610.543,-239.5 610.543,-246.5"/>
</g>
<!-- null10 -->
<g id="node9" class="node"><title>null10</title>
<polygon fill="lightgrey" stroke="none" points="674.597,-451 620.597,-451 620.597,-415 674.597,-415 674.597,-451"/>
<text text-anchor="middle" x="647.597" y="-430.044" font-family="'/usr/share/fonts/truetype/wqy/wqy-microhei.ttc'" font-size="14.00">NULL</text>
</g>
<!-- pair_3&#45;&gt;null10 -->
<g id="edge6" class="edge"><title>pair_3:next&#45;&gt;null10</title>
<path fill="none" stroke="black" stroke-width="2" d="M583.597,-433C592.228,-433 601.524,-433 610.256,-433"/>
<polygon fill="black" stroke="black" stroke-width="2" points="610.543,-436.5 620.543,-433 610.543,-429.5 610.543,-436.5"/>
</g>
<!-- null11 -->
<g id="node10" class="node"><title>null11</title>
<polygon fill="lightgrey" stroke="none" points="674.597,-383 620.597,-383 620.597,-347 674.597,-347 674.597,-383"/>
<text text-anchor="middle" x="647.597" y="-362.044" font-family="'/usr/share/fonts/truetype/wqy/wqy-microhei.ttc'" font-size="14.00">NULL</text>
</g>
<!-- pair_4&#45;&gt;null11 -->
<g id="edge8" class="edge"><title>pair_4:next&#45;&gt;null11</title>
<path fill="none" stroke="black" stroke-width="2" d="M583.597,-365C592.228,-365 601.524,-365 610.256,-365"/>
<polygon fill="black" stroke="black" stroke-width="2" points="610.543,-368.5 620.543,-365 610.543,-361.5 610.543,-368.5"/>
</g>
</g>
</svg>
