<?xml version="1.0" encoding="UTF-8" standalone="no"?>
<!DOCTYPE svg PUBLIC "-//W3C//DTD SVG 1.1//EN"
 "http://www.w3.org/Graphics/SVG/1.1/DTD/svg11.dtd">
<!-- Generated by graphviz version 2.38.0 (20140413.2041)
 -->
<!-- Title: flush Pages: 1 -->
<svg width="608pt" height="346pt"
 viewBox="0.00 0.00 608.20 345.79" xmlns="http://www.w3.org/2000/svg" xmlns:xlink="http://www.w3.org/1999/xlink">
<g id="graph0" class="graph" transform="scale(1 1) rotate(0) translate(4 341.794)">
<title>flush</title>
<polygon fill="white" stroke="none" points="-4,4 -4,-341.794 604.202,-341.794 604.202,4 -4,4"/>
<!-- SAVE_running_choice -->
<g id="node1" class="node"><title>SAVE_running_choice</title>
<polygon fill="#a8e270" stroke="black" points="323.101,-337.794 201.714,-319.794 323.101,-301.794 444.488,-319.794 323.101,-337.794"/>
<text text-anchor="middle" x="323.101" y="-317.048" font-family="'/usr/share/fonts/truetype/wqy/wqy-microhei.ttc'" font-size="14.00">SAVE 正在执行？</text>
</g>
<!-- over_2_second_choice -->
<g id="node2" class="node"><title>over_2_second_choice</title>
<polygon fill="#95bbe3" stroke="black" points="192.101,-226.627 102.177,-187.469 192.101,-148.312 282.025,-187.469 192.101,-226.627"/>
<text text-anchor="middle" x="192.101" y="-191.934" font-family="'/usr/share/fonts/truetype/wqy/wqy-microhei.ttc'" font-size="14.00">运行时间</text>
<text text-anchor="middle" x="192.101" y="-177.514" font-family="'/usr/share/fonts/truetype/wqy/wqy-microhei.ttc'" font-size="14.00">超过 2 秒？</text>
</g>
<!-- SAVE_running_choice&#45;&gt;over_2_second_choice -->
<g id="edge1" class="edge"><title>SAVE_running_choice&#45;&gt;over_2_second_choice</title>
<path fill="none" stroke="black" stroke-width="2" d="M308.074,-303.844C288.232,-284.105 252.71,-248.766 226.19,-222.383"/>
<polygon fill="black" stroke="black" stroke-width="2" points="228.527,-219.771 218.969,-215.199 223.59,-224.733 228.527,-219.771"/>
<text text-anchor="middle" x="292.101" y="-272.594" font-family="Times,serif" font-size="14.00">是</text>
</g>
<!-- finish_over_2_second -->
<g id="node5" class="node"><title>finish_over_2_second</title>
<polygon fill="#95bbe3" stroke="black" points="410.101,-246.42 300.099,-187.469 410.101,-128.519 520.103,-187.469 410.101,-246.42"/>
<text text-anchor="middle" x="410.101" y="-201.632" font-family="'/usr/share/fonts/truetype/wqy/wqy-microhei.ttc'" font-size="14.00">距离上次 SAVE</text>
<text text-anchor="middle" x="410.101" y="-184.724" font-family="'/usr/share/fonts/truetype/wqy/wqy-microhei.ttc'" font-size="14.00"> 执行成功</text>
<text text-anchor="middle" x="410.101" y="-167.815" font-family="'/usr/share/fonts/truetype/wqy/wqy-microhei.ttc'" font-size="14.00">超过 1 秒？</text>
</g>
<!-- SAVE_running_choice&#45;&gt;finish_over_2_second -->
<g id="edge4" class="edge"><title>SAVE_running_choice&#45;&gt;finish_over_2_second</title>
<path fill="none" stroke="black" stroke-width="2" d="M333.595,-303.074C344.055,-287.406 360.69,-262.486 375.781,-239.88"/>
<polygon fill="black" stroke="black" stroke-width="2" points="378.832,-241.614 381.473,-231.354 373.01,-237.727 378.832,-241.614"/>
<text text-anchor="middle" x="366.101" y="-272.594" font-family="Times,serif" font-size="14.00">否</text>
</g>
<!-- not_over_2_second -->
<g id="node3" class="node"><title>not_over_2_second</title>
<polygon fill="#fadcad" stroke="none" points="126.303,-73.2173 -0.101236,-73.2173 -0.101236,0.0725313 126.303,0.0725313 126.303,-73.2173"/>
<text text-anchor="middle" x="63.1011" y="-57.9448" font-family="'/usr/share/fonts/truetype/wqy/wqy-microhei.ttc'" font-size="14.00">情况 1 ：</text>
<text text-anchor="middle" x="63.1011" y="-41.0365" font-family="'/usr/share/fonts/truetype/wqy/wqy-microhei.ttc'" font-size="14.00">函数直接返回</text>
<text text-anchor="middle" x="63.1011" y="-26.6165" font-family="'/usr/share/fonts/truetype/wqy/wqy-microhei.ttc'" font-size="14.00"> 不执行 WRITE 或</text>
<text text-anchor="middle" x="63.1011" y="-9.70826" font-family="'/usr/share/fonts/truetype/wqy/wqy-microhei.ttc'" font-size="14.00">新的 SAVE</text>
</g>
<!-- over_2_second_choice&#45;&gt;not_over_2_second -->
<g id="edge2" class="edge"><title>over_2_second_choice&#45;&gt;not_over_2_second</title>
<path fill="none" stroke="black" stroke-width="2" d="M167.837,-158.463C148.92,-136.629 122.316,-105.921 100.655,-80.9183"/>
<polygon fill="black" stroke="black" stroke-width="2" points="103.298,-78.6245 94.1049,-73.3583 98.0077,-83.2081 103.298,-78.6245"/>
<text text-anchor="middle" x="131.101" y="-99.5447" font-family="Times,serif" font-size="14.00">否</text>
</g>
<!-- over_2_second -->
<g id="node4" class="node"><title>over_2_second</title>
<polygon fill="#fadcad" stroke="none" points="291.461,-65.7978 144.741,-65.7978 144.741,-7.34695 291.461,-7.34695 291.461,-65.7978"/>
<text text-anchor="middle" x="218.101" y="-50.7348" font-family="'/usr/share/fonts/truetype/wqy/wqy-microhei.ttc'" font-size="14.00">情况 2 ：</text>
<text text-anchor="middle" x="218.101" y="-33.8265" font-family="'/usr/share/fonts/truetype/wqy/wqy-microhei.ttc'" font-size="14.00">执行 WRITE </text>
<text text-anchor="middle" x="218.101" y="-16.9183" font-family="'/usr/share/fonts/truetype/wqy/wqy-microhei.ttc'" font-size="14.00"> 但不执行新的 SAVE </text>
</g>
<!-- over_2_second_choice&#45;&gt;over_2_second -->
<g id="edge3" class="edge"><title>over_2_second_choice&#45;&gt;over_2_second</title>
<path fill="none" stroke="black" stroke-width="2" d="M198.329,-150.805C202.263,-128.273 207.346,-99.1658 211.373,-76.1048"/>
<polygon fill="black" stroke="black" stroke-width="2" points="214.868,-76.4331 213.141,-65.98 207.973,-75.2289 214.868,-76.4331"/>
<text text-anchor="middle" x="216.101" y="-99.5447" font-family="Times,serif" font-size="14.00">是</text>
</g>
<!-- no -->
<g id="node6" class="node"><title>no</title>
<polygon fill="#fadcad" stroke="none" points="469.461,-65.7978 322.741,-65.7978 322.741,-7.34695 469.461,-7.34695 469.461,-65.7978"/>
<text text-anchor="middle" x="396.101" y="-50.7348" font-family="'/usr/share/fonts/truetype/wqy/wqy-microhei.ttc'" font-size="14.00">情况 3 ：</text>
<text text-anchor="middle" x="396.101" y="-33.8265" font-family="'/usr/share/fonts/truetype/wqy/wqy-microhei.ttc'" font-size="14.00"> 执行 WRITE </text>
<text text-anchor="middle" x="396.101" y="-16.9183" font-family="'/usr/share/fonts/truetype/wqy/wqy-microhei.ttc'" font-size="14.00"> 但不执行新的 SAVE </text>
</g>
<!-- finish_over_2_second&#45;&gt;no -->
<g id="edge6" class="edge"><title>finish_over_2_second&#45;&gt;no</title>
<path fill="none" stroke="black" stroke-width="2" d="M404.888,-131.026C403.163,-112.675 401.282,-92.674 399.705,-75.901"/>
<polygon fill="black" stroke="black" stroke-width="2" points="403.187,-75.5467 398.766,-65.9183 396.218,-76.2021 403.187,-75.5467"/>
<text text-anchor="middle" x="410.101" y="-99.5447" font-family="Times,serif" font-size="14.00">否</text>
</g>
<!-- yes -->
<g id="node7" class="node"><title>yes</title>
<polygon fill="#fadcad" stroke="none" points="600.303,-65.7978 487.899,-65.7978 487.899,-7.34695 600.303,-7.34695 600.303,-65.7978"/>
<text text-anchor="middle" x="544.101" y="-50.7348" font-family="'/usr/share/fonts/truetype/wqy/wqy-microhei.ttc'" font-size="14.00">情况 4 ：</text>
<text text-anchor="middle" x="544.101" y="-33.8265" font-family="'/usr/share/fonts/truetype/wqy/wqy-microhei.ttc'" font-size="14.00"> 执行 WRITE 和</text>
<text text-anchor="middle" x="544.101" y="-16.9183" font-family="'/usr/share/fonts/truetype/wqy/wqy-microhei.ttc'" font-size="14.00">新的 SAVE</text>
</g>
<!-- finish_over_2_second&#45;&gt;yes -->
<g id="edge5" class="edge"><title>finish_over_2_second&#45;&gt;yes</title>
<path fill="none" stroke="black" stroke-width="2" d="M445.308,-147.349C465.84,-124.534 491.557,-95.9576 511.606,-73.6803"/>
<polygon fill="black" stroke="black" stroke-width="2" points="514.355,-75.8575 518.443,-66.0831 509.152,-71.1749 514.355,-75.8575"/>
<text text-anchor="middle" x="500.101" y="-99.5447" font-family="Times,serif" font-size="14.00">是</text>
</g>
</g>
</svg>
